<svg xmlns="http://www.w3.org/2000/svg" xmlns:xlink="http://www.w3.org/1999/xlink" width="1920" zoomAndPan="magnify" viewBox="0 0 1440 809.999993" height="1080" preserveAspectRatio="xMidYMid meet" version="1.0"><defs><clipPath id="id1"><path d="M 363.605469 86.210938 L 1073.105469 86.210938 L 1073.105469 723.710938 L 363.605469 723.710938 Z M 363.605469 86.210938 " clip-rule="nonzero"/></clipPath><clipPath id="id2"><path d="M 591 667 L 680 667 L 680 723.710938 L 591 723.710938 Z M 591 667 " clip-rule="nonzero"/></clipPath><clipPath id="id3"><path d="M 580.289062 225.371094 L 857.789062 225.371094 L 857.789062 460.121094 L 580.289062 460.121094 Z M 580.289062 225.371094 " clip-rule="nonzero"/></clipPath></defs><path fill="rgb(0%, 24.308777%, 32.159424%)" d="M 718.375 381.042969 C 698.835938 381.042969 682.9375 396.933594 682.9375 416.46875 C 682.9375 436.003906 698.835938 451.898438 718.375 451.898438 C 737.914062 451.898438 753.8125 436.003906 753.8125 416.46875 C 753.8125 396.933594 737.914062 381.042969 718.375 381.042969 Z M 718.375 428.277344 C 711.863281 428.277344 706.566406 422.984375 706.566406 416.46875 C 706.566406 409.945312 711.863281 404.65625 718.375 404.65625 C 724.886719 404.65625 730.183594 409.945312 730.183594 416.46875 C 730.183594 422.984375 724.886719 428.277344 718.375 428.277344 Z M 718.375 428.277344 " fill-opacity="1" fill-rule="nonzero"/><path fill="rgb(0%, 24.308777%, 32.159424%)" d="M 718.375 239.324219 C 659.960938 239.324219 608.410156 278.621094 593.015625 334.910156 L 615.816406 341.136719 C 628.394531 295.101562 670.582031 262.945312 718.375 262.945312 C 766.191406 262.945312 808.363281 295.113281 820.945312 341.160156 L 843.742188 334.933594 C 828.363281 278.636719 776.8125 239.324219 718.375 239.324219 Z M 718.375 239.324219 " fill-opacity="1" fill-rule="nonzero"/><path fill="rgb(0%, 24.308777%, 32.159424%)" d="M 718.375 307.5 C 685.546875 307.5 656.570312 329.582031 647.925781 361.21875 L 670.726562 367.449219 C 676.574219 346.046875 696.167969 331.117188 718.390625 331.117188 C 740.609375 331.117188 760.191406 346.0625 766.039062 367.460938 L 788.835938 361.234375 C 780.191406 329.597656 751.203125 307.5 718.375 307.5 Z M 718.375 307.5 " fill-opacity="1" fill-rule="nonzero"/><path fill="rgb(0%, 24.308777%, 32.159424%)" d="M 623.875 558.1875 L 647.503906 558.1875 L 647.503906 534.566406 L 623.875 534.566406 Z M 623.875 558.1875 " fill-opacity="1" fill-rule="nonzero"/><path fill="rgb(0%, 24.308777%, 32.159424%)" d="M 623.875 605.421875 L 647.503906 605.421875 L 647.503906 581.800781 L 623.875 581.800781 Z M 623.875 605.421875 " fill-opacity="1" fill-rule="nonzero"/><path fill="rgb(0%, 24.308777%, 32.159424%)" d="M 623.875 652.660156 L 647.503906 652.660156 L 647.503906 629.042969 L 623.875 629.042969 Z M 623.875 652.660156 " fill-opacity="1" fill-rule="nonzero"/><g clip-path="url(#id1)"><path fill="rgb(0%, 24.308777%, 32.159424%)" d="M 984.363281 310.179688 L 936.53125 310.179688 C 937.074219 304.75 937.203125 300.945312 936.777344 291.359375 C 934.277344 234.460938 897.773438 184.371094 845.953125 166.738281 C 808.210938 153.878906 769.5 155.179688 735.84375 170.179688 C 699.851562 122.265625 643.804688 91.832031 584.667969 88.265625 C 574.882812 86.917969 566.644531 86.289062 558.703125 86.289062 C 451.125 86.289062 363.605469 176.082031 363.605469 286.445312 C 363.605469 342.125 385.515625 393.902344 424.738281 431.640625 C 459.699219 470.296875 506.417969 492.78125 560.152344 496.660156 C 560.40625 496.664062 566.5 496.902344 623.824219 497.214844 L 623.746094 510.867188 L 647.371094 511.003906 L 647.503906 485.542969 C 647.507812 482.402344 646.285156 479.386719 644.085938 477.167969 C 641.886719 474.949219 638.878906 473.671875 635.742188 473.664062 C 569.109375 473.339844 561.078125 473.023438 561.503906 473.09375 C 514.285156 469.679688 473.050781 449.863281 441.675781 415.238281 C 406.554688 381.402344 387.21875 335.679688 387.21875 286.464844 C 387.21875 189.136719 464.140625 109.941406 558.691406 109.941406 C 565.53125 109.941406 572.765625 110.496094 582.332031 111.769531 C 639.289062 115.238281 690.285156 144.421875 722.238281 191.800781 C 725.628906 196.847656 732.277344 198.5 737.632812 195.609375 C 767.5625 179.496094 803.328125 177.191406 838.332031 189.097656 C 881.015625 203.625 911.101562 245.132812 913.179688 292.398438 C 913.625 302.574219 913.417969 304.519531 912.695312 310.949219 C 912.40625 313.472656 912.054688 316.59375 911.664062 320.917969 C 911.371094 324.222656 912.472656 327.507812 914.714844 329.964844 C 916.949219 332.410156 920.101562 333.800781 923.417969 333.800781 L 984.347656 333.800781 C 1020.210938 333.800781 1049.390625 365.507812 1049.390625 404.46875 C 1049.390625 443.425781 1020.210938 475.128906 984.347656 475.128906 C 983.714844 475.136719 789.226562 475.515625 789.226562 475.515625 C 782.710938 475.53125 777.4375 480.808594 777.4375 487.324219 L 777.4375 630.71875 C 757.105469 635.996094 742.003906 654.328125 742.003906 676.28125 C 742.003906 702.332031 763.191406 723.515625 789.25 723.515625 C 815.3125 723.515625 836.503906 702.332031 836.503906 676.28125 C 836.503906 654.328125 821.398438 635.996094 801.066406 630.71875 L 801.066406 499.109375 C 843.128906 499.03125 983.308594 498.757812 984.363281 498.757812 C 1033.253906 498.757812 1073.03125 456.464844 1073.03125 404.480469 C 1073.03125 352.496094 1033.246094 310.179688 984.363281 310.179688 Z M 812.875 676.28125 C 812.875 689.308594 802.285156 699.894531 789.25 699.894531 C 776.21875 699.894531 765.628906 689.308594 765.628906 676.28125 C 765.628906 663.257812 776.21875 652.660156 789.25 652.660156 C 802.285156 652.660156 812.875 663.257812 812.875 676.28125 Z M 812.875 676.28125 " fill-opacity="1" fill-rule="nonzero"/></g><g clip-path="url(#id2)"><path fill="rgb(0%, 24.308777%, 32.159424%)" d="M 662.773438 667.929688 L 635.683594 695.007812 L 608.597656 667.929688 L 591.898438 684.628906 L 627.335938 720.058594 C 629.636719 722.363281 632.664062 723.515625 635.683594 723.515625 C 638.714844 723.515625 641.734375 722.363281 644.042969 720.058594 L 679.476562 684.628906 Z M 662.773438 667.929688 " fill-opacity="1" fill-rule="nonzero"/></g><path fill="rgb(100%, 51.759338%, 0%)" d="M 718.773438 380.753906 C 699.234375 380.753906 683.339844 396.648438 683.339844 416.183594 C 683.339844 435.714844 699.234375 451.609375 718.773438 451.609375 C 738.3125 451.609375 754.210938 435.714844 754.210938 416.183594 C 754.210938 396.648438 738.3125 380.753906 718.773438 380.753906 Z M 718.773438 427.988281 C 712.265625 427.988281 706.964844 422.699219 706.964844 416.183594 C 706.964844 409.660156 712.265625 404.367188 718.773438 404.367188 C 725.285156 404.367188 730.585938 409.660156 730.585938 416.183594 C 730.585938 422.699219 725.285156 427.988281 718.773438 427.988281 Z M 718.773438 427.988281 " fill-opacity="1" fill-rule="nonzero"/><path fill="rgb(100%, 51.759338%, 0%)" d="M 718.773438 239.039062 C 660.359375 239.039062 608.808594 278.335938 593.417969 334.625 L 616.214844 340.851562 C 628.796875 294.8125 670.980469 262.660156 718.773438 262.660156 C 766.589844 262.660156 808.761719 294.828125 821.34375 340.875 L 844.140625 334.644531 C 828.761719 278.351562 777.210938 239.039062 718.773438 239.039062 Z M 718.773438 239.039062 " fill-opacity="1" fill-rule="nonzero"/><path fill="rgb(100%, 51.759338%, 0%)" d="M 718.773438 307.210938 C 685.949219 307.210938 656.972656 329.296875 648.328125 360.933594 L 671.125 367.160156 C 676.972656 345.761719 696.566406 330.832031 718.789062 330.832031 C 741.011719 330.832031 760.59375 345.773438 766.4375 367.175781 L 789.238281 360.949219 C 780.59375 329.3125 751.601562 307.210938 718.773438 307.210938 Z M 718.773438 307.210938 " fill-opacity="1" fill-rule="nonzero"/><g clip-path="url(#id3)"><path fill="rgb(100%, 51.759338%, 0%)" d="M 984.761719 309.894531 L 936.933594 309.894531 C 937.472656 304.464844 937.601562 300.660156 937.175781 291.074219 C 934.675781 234.171875 898.171875 184.085938 846.355469 166.453125 C 808.609375 153.59375 769.898438 154.890625 736.246094 169.890625 C 700.253906 121.980469 644.203125 91.546875 585.066406 87.980469 C 575.285156 86.632812 567.042969 86.003906 559.105469 86.003906 C 451.527344 86.003906 364.003906 175.792969 364.003906 286.15625 C 364.003906 341.839844 385.914062 393.613281 425.136719 431.355469 C 460.097656 470.011719 506.816406 492.492188 560.554688 496.371094 C 560.804688 496.378906 566.898438 496.617188 624.222656 496.925781 L 624.144531 510.578125 L 647.773438 510.714844 L 647.902344 485.257812 C 647.910156 482.113281 646.683594 479.101562 644.484375 476.882812 C 642.285156 474.660156 639.277344 473.386719 636.140625 473.378906 C 569.507812 473.054688 561.476562 472.738281 561.902344 472.808594 C 514.683594 469.390625 473.449219 449.578125 442.074219 414.949219 C 406.953125 381.117188 387.617188 335.394531 387.617188 286.179688 C 387.617188 188.847656 464.539062 109.652344 559.089844 109.652344 C 565.933594 109.652344 573.164062 110.207031 582.730469 111.484375 C 639.6875 114.953125 690.683594 144.136719 722.640625 191.515625 C 726.027344 196.5625 732.675781 198.210938 738.03125 195.320312 C 767.960938 179.210938 803.730469 176.90625 838.734375 188.8125 C 881.414062 203.335938 911.503906 244.847656 913.578125 292.109375 C 914.027344 302.289062 913.816406 304.234375 913.097656 310.664062 C 912.808594 313.1875 912.453125 316.308594 912.066406 320.632812 C 911.769531 323.933594 912.871094 327.222656 915.113281 329.679688 C 917.351562 332.121094 920.5 333.515625 923.816406 333.515625 L 984.746094 333.515625 C 1020.609375 333.515625 1049.789062 365.222656 1049.789062 404.179688 C 1049.789062 443.140625 1020.609375 474.839844 984.746094 474.839844 C 984.113281 474.847656 789.625 475.230469 789.625 475.230469 C 783.109375 475.246094 777.839844 480.519531 777.839844 487.039062 L 777.839844 630.433594 C 757.507812 635.710938 742.402344 654.039062 742.402344 675.996094 C 742.402344 702.046875 763.589844 723.230469 789.648438 723.230469 C 815.710938 723.230469 836.902344 702.046875 836.902344 675.996094 C 836.902344 654.039062 821.796875 635.710938 801.464844 630.433594 L 801.464844 498.824219 C 843.527344 498.742188 983.710938 498.46875 984.761719 498.46875 C 1033.652344 498.46875 1073.429688 456.179688 1073.429688 404.195312 C 1073.429688 352.210938 1033.644531 309.894531 984.761719 309.894531 Z M 813.273438 675.996094 C 813.273438 689.019531 802.683594 699.609375 789.648438 699.609375 C 776.621094 699.609375 766.027344 689.019531 766.027344 675.996094 C 766.027344 662.972656 776.621094 652.375 789.648438 652.375 C 802.683594 652.375 813.273438 662.972656 813.273438 675.996094 Z M 813.273438 675.996094 " fill-opacity="1" fill-rule="nonzero"/></g></svg>