<svg xmlns="http://www.w3.org/2000/svg" xmlns:xlink="http://www.w3.org/1999/xlink" width="1920" zoomAndPan="magnify" viewBox="0 0 1440 809.999993" height="1080" preserveAspectRatio="xMidYMid meet" version="1.0"><defs><clipPath id="id1"><path d="M 393.5 369.433594 L 953.335938 369.433594 L 953.335938 725.058594 L 393.5 725.058594 Z M 393.5 369.433594 " clip-rule="nonzero"/></clipPath><clipPath id="id2"><path d="M 350 84.652344 L 911 84.652344 L 911 441 L 350 441 Z M 350 84.652344 " clip-rule="nonzero"/></clipPath><clipPath id="id3"><path d="M 844 533.960938 L 1062 533.960938 L 1062 725.210938 L 844 725.210938 Z M 844 533.960938 " clip-rule="nonzero"/></clipPath></defs><path fill="rgb(0%, 24.308777%, 32.159424%)" d="M 662.445312 209.59375 C 662.445312 203.816406 657.757812 199.128906 651.976562 199.128906 C 646.195312 199.128906 641.507812 203.816406 641.507812 209.59375 L 641.507812 263.164062 C 641.507812 268.941406 646.195312 273.628906 651.976562 273.628906 C 657.757812 273.628906 662.445312 268.941406 662.445312 263.164062 L 662.445312 209.59375 " fill-opacity="1" fill-rule="nonzero"/><path fill="rgb(0%, 24.308777%, 32.159424%)" d="M 651.976562 525.628906 C 646.195312 525.628906 641.507812 530.3125 641.507812 536.09375 L 641.507812 582.738281 C 641.507812 588.519531 646.195312 593.203125 651.976562 593.203125 C 657.761719 593.203125 662.445312 588.519531 662.445312 582.738281 L 662.445312 536.09375 C 662.445312 530.3125 657.761719 525.628906 651.976562 525.628906 " fill-opacity="1" fill-rule="nonzero"/><path fill="rgb(0%, 24.308777%, 32.159424%)" d="M 776.578125 256.839844 L 735.421875 297.972656 C 731.332031 302.058594 731.332031 308.683594 735.421875 312.765625 C 737.464844 314.8125 740.144531 315.832031 742.824219 315.832031 C 745.503906 315.832031 748.183594 314.8125 750.226562 312.765625 L 791.378906 271.636719 C 795.46875 267.554688 795.46875 260.925781 791.378906 256.839844 C 787.292969 252.753906 780.660156 252.753906 776.578125 256.839844 " fill-opacity="1" fill-rule="nonzero"/><path fill="rgb(0%, 24.308777%, 32.159424%)" d="M 545.578125 487.710938 L 512.574219 520.695312 C 508.484375 524.78125 508.484375 531.40625 512.574219 535.488281 C 514.617188 537.535156 517.296875 538.554688 519.976562 538.554688 C 522.65625 538.554688 525.335938 537.535156 527.378906 535.488281 L 560.382812 502.503906 C 564.46875 498.421875 564.46875 491.796875 560.382812 487.710938 C 556.296875 483.625 549.664062 483.625 545.578125 487.710938 " fill-opacity="1" fill-rule="nonzero"/><path fill="rgb(0%, 24.308777%, 32.159424%)" d="M 783.976562 538.554688 C 786.660156 538.554688 789.339844 537.535156 791.378906 535.492188 C 795.46875 531.40625 795.46875 524.78125 791.378906 520.695312 L 758.378906 487.710938 C 754.292969 483.625 747.660156 483.625 743.574219 487.710938 C 739.484375 491.796875 739.484375 498.421875 743.574219 502.507812 L 776.578125 535.492188 C 778.617188 537.535156 781.300781 538.554688 783.976562 538.554688 " fill-opacity="1" fill-rule="nonzero"/><path fill="rgb(0%, 24.308777%, 32.159424%)" d="M 512.574219 256.839844 C 508.484375 260.925781 508.484375 267.554688 512.574219 271.636719 L 551.941406 310.980469 C 553.984375 313.023438 556.664062 314.042969 559.34375 314.042969 C 562.019531 314.042969 564.703125 313.023438 566.746094 310.980469 C 570.832031 306.894531 570.832031 300.269531 566.746094 296.1875 L 527.378906 256.839844 C 523.292969 252.753906 516.660156 252.753906 512.574219 256.839844 " fill-opacity="1" fill-rule="nonzero"/><path fill="rgb(0%, 24.308777%, 32.159424%)" d="M 756.28125 403.832031 L 786.195312 403.832031 C 786.109375 399.765625 785.648438 395.660156 784.632812 391.597656 C 782.96875 384.941406 780.808594 377.4375 773.574219 375.21875 C 768.019531 373.515625 761.898438 374.539062 756.277344 374.539062 C 722.550781 374.539062 694.949219 347.121094 694.738281 313.421875 C 694.691406 305.722656 689.109375 299.300781 681.75 298.480469 C 681.1875 298.417969 680.628906 298.386719 680.082031 298.386719 C 672 298.386719 665.425781 304.960938 665.425781 313.035156 C 665.425781 363.101562 706.183594 403.832031 756.28125 403.832031 " fill-opacity="1" fill-rule="nonzero"/><path fill="rgb(0%, 24.308777%, 32.159424%)" d="M 678.339844 519.722656 C 678.789062 519.765625 679.238281 519.785156 679.679688 519.785156 C 687.761719 519.785156 694.339844 513.214844 694.339844 505.136719 C 694.339844 471.222656 721.945312 443.628906 755.878906 443.628906 C 759.929688 443.628906 764 444.046875 767.839844 442.539062 C 773.71875 440.226562 777.789062 434.773438 780.535156 429.296875 C 782.652344 425.070312 784.210938 420.546875 785.160156 415.875 C 785.269531 415.359375 785.3125 414.847656 785.402344 414.335938 L 755.878906 414.335938 C 706.242188 414.335938 665.484375 454.6875 665.03125 504.292969 C 664.957031 512.265625 670.800781 519.046875 678.339844 519.722656 " fill-opacity="1" fill-rule="nonzero"/><g clip-path="url(#id1)"><path fill="rgb(0%, 24.308777%, 32.159424%)" d="M 796.40625 369.503906 C 793.0625 369.097656 790.664062 372.519531 792.128906 375.554688 C 794.152344 379.746094 795.707031 384.105469 796.820312 388.554688 C 798.242188 394.242188 798.941406 400.070312 798.855469 405.898438 C 798.796875 410.085938 798.316406 414.257812 797.476562 418.375 C 796.316406 424.070312 794.414062 429.628906 791.769531 434.921875 C 791.382812 435.691406 790.988281 436.460938 790.570312 437.21875 C 789.242188 439.675781 790.714844 442.753906 793.46875 443.246094 C 843.535156 452.246094 881.40625 496.804688 879.871094 549.734375 C 878.214844 606.945312 829.582031 651.675781 772.320312 651.675781 L 401.984375 651.675781 C 397.359375 651.675781 393.609375 655.421875 393.609375 660.042969 L 393.609375 716.6875 C 393.609375 721.3125 397.359375 725.058594 401.984375 725.058594 L 771.496094 725.058594 C 869.84375 725.058594 952.214844 646.976562 953.328125 548.691406 C 954.371094 456.6875 885.371094 380.269531 796.40625 369.503906 " fill-opacity="1" fill-rule="nonzero"/></g><path fill="rgb(0%, 24.308777%, 32.159424%)" d="M 547.679688 406.976562 L 517.742188 406.976562 C 517.804688 411.152344 518.28125 415.371094 519.320312 419.546875 C 520.53125 424.382812 521.574219 427.585938 525.59375 430.566406 C 532.800781 435.90625 539.019531 436.273438 547.679688 436.273438 C 581.402344 436.273438 609.007812 463.691406 609.214844 497.394531 C 609.261719 505.089844 614.847656 511.511719 622.203125 512.332031 C 622.769531 512.394531 623.324219 512.425781 623.875 512.425781 C 627.789062 512.425781 631.46875 510.902344 634.238281 508.136719 C 637.003906 505.371094 638.53125 501.691406 638.53125 497.78125 C 638.53125 447.710938 597.773438 406.976562 547.679688 406.976562 " fill-opacity="1" fill-rule="nonzero"/><path fill="rgb(0%, 24.308777%, 32.159424%)" d="M 625.214844 290.074219 C 624.765625 290.035156 624.316406 290.015625 623.871094 290.015625 C 615.792969 290.015625 609.21875 296.585938 609.21875 304.664062 C 609.21875 338.578125 581.609375 366.167969 547.679688 366.167969 C 543.726562 366.167969 540.410156 365.890625 536.824219 367.660156 C 533.417969 369.339844 530.351562 371.390625 527.777344 374.203125 C 522.796875 379.636719 520.210938 386.929688 518.789062 393.929688 C 518.6875 394.441406 518.640625 394.953125 518.546875 395.464844 L 547.679688 395.464844 C 597.316406 395.464844 638.070312 355.109375 638.527344 305.507812 C 638.601562 297.53125 632.753906 290.753906 625.214844 290.074219 " fill-opacity="1" fill-rule="nonzero"/><g clip-path="url(#id2)"><path fill="rgb(0%, 24.308777%, 32.159424%)" d="M 532.460938 84.738281 C 434.117188 84.738281 351.742188 162.820312 350.625 261.101562 C 349.582031 353.105469 418.585938 429.527344 507.550781 440.292969 C 510.898438 440.699219 513.292969 437.277344 511.824219 434.242188 C 509.800781 430.050781 508.246094 425.6875 507.132812 421.234375 C 505.714844 415.554688 505.015625 409.730469 505.101562 403.90625 C 505.160156 399.71875 505.640625 395.542969 506.480469 391.421875 C 507.644531 385.726562 509.542969 380.164062 512.1875 374.875 C 512.574219 374.105469 512.972656 373.335938 513.386719 372.578125 C 514.71875 370.121094 513.238281 367.042969 510.488281 366.550781 C 460.421875 357.550781 422.550781 312.992188 424.085938 260.0625 C 425.742188 202.855469 474.371094 158.125 531.636719 158.125 L 901.972656 158.125 C 906.597656 158.125 910.347656 154.378906 910.347656 149.753906 L 910.347656 93.109375 C 910.347656 88.488281 906.597656 84.738281 901.972656 84.738281 L 532.460938 84.738281 " fill-opacity="1" fill-rule="nonzero"/></g><path fill="rgb(100%, 100%, 100%)" d="M 843.296875 725.347656 L 949.984375 540.5625 L 1056.675781 725.347656 Z M 843.296875 725.347656 " fill-opacity="1" fill-rule="nonzero"/><g clip-path="url(#id3)"><path fill="rgb(100%, 51.759338%, 0%)" d="M 940.21875 542.421875 C 928.59375 562.734375 899.871094 613.558594 876.792969 654.398438 L 846.261719 708.386719 C 843.511719 713.21875 844.539062 717.039062 845.390625 718.886719 C 847.125 722.628906 850.816406 724.496094 853.695312 725 L 854.277344 725.097656 L 1051.3125 725.101562 L 1050.898438 725.089844 C 1053.988281 725.277344 1058.09375 724.164062 1060.335938 720.480469 C 1061.769531 718.113281 1062.800781 714.089844 1059.535156 708.371094 L 998.53125 601.855469 L 964.773438 542.933594 C 960.542969 535.546875 955.636719 533.992188 952.269531 533.992188 C 948.976562 533.992188 944.214844 535.453125 940.222656 542.421875 Z M 888.804688 661.398438 C 911.878906 620.570312 940.585938 569.761719 952.195312 549.484375 L 952.332031 549.261719 C 952.480469 549.488281 952.625 549.695312 952.792969 549.992188 L 986.5625 608.921875 C 986.5625 608.921875 1040.4375 703 1045.046875 711.042969 L 860.722656 711.039062 L 888.800781 661.398438 " fill-opacity="1" fill-rule="evenodd"/></g><path fill="rgb(100%, 51.759338%, 0%)" d="M 953.09375 700.84375 C 959.0625 700.84375 963.902344 695.839844 963.902344 689.667969 C 963.902344 683.5 959.0625 678.496094 953.09375 678.496094 C 947.117188 678.496094 942.28125 683.5 942.28125 689.667969 C 942.28125 695.839844 947.117188 700.84375 953.09375 700.84375 " fill-opacity="1" fill-rule="evenodd"/><path fill="rgb(100%, 51.759338%, 0%)" d="M 953.09375 591.363281 C 961.71875 591.363281 969.644531 599.511719 968.710938 607.503906 L 961.324219 663.714844 C 960.605469 668.625 957.640625 672.21875 953.09375 672.21875 C 948.550781 672.21875 945.574219 668.625 944.863281 663.714844 L 937.476562 607.503906 C 936.539062 599.511719 944.464844 591.363281 953.09375 591.363281 " fill-opacity="1" fill-rule="evenodd"/></svg>