<svg xmlns="http://www.w3.org/2000/svg" xmlns:xlink="http://www.w3.org/1999/xlink" width="1920" zoomAndPan="magnify" viewBox="0 0 1440 809.999993" height="1080" preserveAspectRatio="xMidYMid meet" version="1.0"><defs><clipPath id="id1"><path d="M 520.9375 86.503906 L 880 86.503906 L 880 723.253906 L 520.9375 723.253906 Z M 520.9375 86.503906 " clip-rule="nonzero"/></clipPath><clipPath id="id2"><path d="M 680 365 L 919.1875 365 L 919.1875 604 L 680 604 Z M 680 365 " clip-rule="nonzero"/></clipPath><clipPath id="id3"><path d="M 676.121094 360.988281 L 880 360.988281 L 880 609.988281 L 676.121094 609.988281 Z M 676.121094 360.988281 " clip-rule="nonzero"/></clipPath><clipPath id="id4"><path d="M 680 365 L 919.121094 365 L 919.121094 605 L 680 605 Z M 680 365 " clip-rule="nonzero"/></clipPath></defs><path fill="rgb(0%, 24.308777%, 32.159424%)" d="M 660.328125 683.457031 L 739.976562 683.457031 C 745.472656 683.457031 749.933594 679 749.933594 673.507812 C 749.933594 668.011719 745.472656 663.558594 739.976562 663.558594 L 660.328125 663.558594 C 654.828125 663.558594 650.371094 668.011719 650.371094 673.507812 C 650.371094 679 654.828125 683.457031 660.328125 683.457031 Z M 660.328125 683.457031 " fill-opacity="1" fill-rule="nonzero"/><path fill="rgb(0%, 24.308777%, 32.159424%)" d="M 670.285156 136.25 C 670.285156 136.902344 670.21875 137.550781 670.09375 138.191406 C 669.964844 138.832031 669.777344 139.453125 669.527344 140.054688 C 669.277344 140.660156 668.96875 141.234375 668.605469 141.777344 C 668.242188 142.320312 667.828125 142.820312 667.367188 143.285156 C 666.90625 143.746094 666.402344 144.160156 665.859375 144.519531 C 665.316406 144.882812 664.742188 145.191406 664.136719 145.441406 C 663.535156 145.691406 662.910156 145.878906 662.269531 146.007812 C 661.628906 146.132812 660.980469 146.199219 660.328125 146.199219 C 659.671875 146.199219 659.027344 146.132812 658.386719 146.007812 C 657.742188 145.878906 657.121094 145.691406 656.515625 145.441406 C 655.914062 145.191406 655.339844 144.882812 654.796875 144.519531 C 654.253906 144.160156 653.75 143.746094 653.289062 143.285156 C 652.824219 142.820312 652.414062 142.320312 652.050781 141.777344 C 651.6875 141.234375 651.378906 140.660156 651.128906 140.054688 C 650.878906 139.453125 650.691406 138.832031 650.5625 138.191406 C 650.433594 137.550781 650.371094 136.902344 650.371094 136.25 C 650.371094 135.59375 650.433594 134.949219 650.5625 134.308594 C 650.691406 133.667969 650.878906 133.042969 651.128906 132.441406 C 651.378906 131.835938 651.6875 131.265625 652.050781 130.722656 C 652.414062 130.179688 652.824219 129.675781 653.289062 129.214844 C 653.75 128.75 654.253906 128.339844 654.796875 127.976562 C 655.339844 127.613281 655.914062 127.308594 656.515625 127.058594 C 657.121094 126.808594 657.742188 126.617188 658.386719 126.492188 C 659.027344 126.363281 659.671875 126.300781 660.328125 126.300781 C 660.980469 126.300781 661.628906 126.363281 662.269531 126.492188 C 662.910156 126.617188 663.535156 126.808594 664.136719 127.058594 C 664.742188 127.308594 665.316406 127.613281 665.859375 127.976562 C 666.402344 128.339844 666.90625 128.75 667.367188 129.214844 C 667.828125 129.675781 668.242188 130.179688 668.605469 130.722656 C 668.96875 131.265625 669.277344 131.835938 669.527344 132.441406 C 669.777344 133.042969 669.964844 133.667969 670.09375 134.308594 C 670.21875 134.949219 670.285156 135.59375 670.285156 136.25 Z M 670.285156 136.25 " fill-opacity="1" fill-rule="nonzero"/><path fill="rgb(0%, 24.308777%, 32.159424%)" d="M 710.109375 136.25 C 710.109375 136.902344 710.042969 137.550781 709.917969 138.191406 C 709.789062 138.832031 709.601562 139.453125 709.351562 140.054688 C 709.101562 140.660156 708.792969 141.234375 708.429688 141.777344 C 708.066406 142.320312 707.652344 142.820312 707.191406 143.285156 C 706.730469 143.746094 706.226562 144.160156 705.683594 144.519531 C 705.140625 144.882812 704.566406 145.191406 703.960938 145.441406 C 703.359375 145.691406 702.734375 145.878906 702.09375 146.007812 C 701.453125 146.132812 700.804688 146.199219 700.152344 146.199219 C 699.5 146.199219 698.851562 146.132812 698.210938 146.007812 C 697.566406 145.878906 696.945312 145.691406 696.34375 145.441406 C 695.738281 145.191406 695.164062 144.882812 694.621094 144.519531 C 694.078125 144.160156 693.574219 143.746094 693.113281 143.285156 C 692.648438 142.820312 692.238281 142.320312 691.875 141.777344 C 691.511719 141.234375 691.203125 140.660156 690.953125 140.054688 C 690.703125 139.453125 690.515625 138.832031 690.386719 138.191406 C 690.257812 137.550781 690.195312 136.902344 690.195312 136.25 C 690.195312 135.59375 690.257812 134.949219 690.386719 134.308594 C 690.515625 133.667969 690.703125 133.042969 690.953125 132.441406 C 691.203125 131.835938 691.511719 131.265625 691.875 130.722656 C 692.238281 130.179688 692.648438 129.675781 693.113281 129.214844 C 693.574219 128.75 694.078125 128.339844 694.621094 127.976562 C 695.164062 127.613281 695.738281 127.308594 696.34375 127.058594 C 696.945312 126.808594 697.566406 126.617188 698.210938 126.492188 C 698.851562 126.363281 699.5 126.300781 700.152344 126.300781 C 700.804688 126.300781 701.453125 126.363281 702.09375 126.492188 C 702.734375 126.617188 703.359375 126.808594 703.960938 127.058594 C 704.566406 127.308594 705.140625 127.613281 705.683594 127.976562 C 706.226562 128.339844 706.730469 128.75 707.191406 129.214844 C 707.652344 129.675781 708.066406 130.179688 708.429688 130.722656 C 708.792969 131.265625 709.101562 131.835938 709.351562 132.441406 C 709.601562 133.042969 709.789062 133.667969 709.917969 134.308594 C 710.042969 134.949219 710.109375 135.59375 710.109375 136.25 Z M 710.109375 136.25 " fill-opacity="1" fill-rule="nonzero"/><path fill="rgb(0%, 24.308777%, 32.159424%)" d="M 749.933594 136.25 C 749.933594 136.902344 749.867188 137.550781 749.742188 138.191406 C 749.613281 138.832031 749.425781 139.453125 749.175781 140.054688 C 748.925781 140.660156 748.617188 141.234375 748.253906 141.777344 C 747.890625 142.320312 747.480469 142.820312 747.015625 143.285156 C 746.554688 143.746094 746.050781 144.160156 745.507812 144.519531 C 744.964844 144.882812 744.390625 145.191406 743.785156 145.441406 C 743.183594 145.691406 742.558594 145.878906 741.917969 146.007812 C 741.277344 146.132812 740.628906 146.199219 739.976562 146.199219 C 739.324219 146.199219 738.675781 146.132812 738.035156 146.007812 C 737.394531 145.878906 736.769531 145.691406 736.167969 145.441406 C 735.5625 145.191406 734.988281 144.882812 734.445312 144.519531 C 733.902344 144.160156 733.398438 143.746094 732.9375 143.285156 C 732.472656 142.820312 732.0625 142.320312 731.699219 141.777344 C 731.335938 141.234375 731.027344 140.660156 730.777344 140.054688 C 730.527344 139.453125 730.339844 138.832031 730.210938 138.191406 C 730.082031 137.550781 730.019531 136.902344 730.019531 136.25 C 730.019531 135.59375 730.082031 134.949219 730.210938 134.308594 C 730.339844 133.667969 730.527344 133.042969 730.777344 132.441406 C 731.027344 131.835938 731.335938 131.265625 731.699219 130.722656 C 732.0625 130.179688 732.472656 129.675781 732.9375 129.214844 C 733.398438 128.75 733.902344 128.339844 734.445312 127.976562 C 734.988281 127.613281 735.5625 127.308594 736.167969 127.058594 C 736.769531 126.808594 737.394531 126.617188 738.035156 126.492188 C 738.675781 126.363281 739.324219 126.300781 739.976562 126.300781 C 740.628906 126.300781 741.277344 126.363281 741.917969 126.492188 C 742.558594 126.617188 743.183594 126.808594 743.785156 127.058594 C 744.390625 127.308594 744.964844 127.613281 745.507812 127.976562 C 746.050781 128.339844 746.554688 128.75 747.015625 129.214844 C 747.480469 129.675781 747.890625 130.179688 748.253906 130.722656 C 748.617188 131.265625 748.925781 131.835938 749.175781 132.441406 C 749.425781 133.042969 749.613281 133.667969 749.742188 134.308594 C 749.867188 134.949219 749.933594 135.59375 749.933594 136.25 Z M 749.933594 136.25 " fill-opacity="1" fill-rule="nonzero"/><g clip-path="url(#id1)"><path fill="rgb(0%, 24.308777%, 32.159424%)" d="M 839.882812 86.503906 L 560.421875 86.503906 C 538.613281 86.503906 520.941406 104.320312 520.941406 126.300781 L 520.941406 683.457031 C 520.941406 705.433594 538.613281 723.253906 560.421875 723.253906 L 839.882812 723.253906 C 861.683594 723.253906 879.363281 705.433594 879.363281 683.457031 L 879.363281 623.761719 L 540.855469 623.761719 L 540.855469 185.996094 L 859.449219 185.996094 L 859.449219 345.183594 L 879.363281 345.183594 L 879.363281 126.300781 C 879.363281 104.320312 861.683594 86.503906 839.882812 86.503906 Z M 859.449219 643.660156 L 859.449219 683.457031 C 859.449219 694.429688 850.667969 703.355469 839.882812 703.355469 L 560.421875 703.355469 C 549.632812 703.355469 540.855469 694.429688 540.855469 683.457031 L 540.855469 643.660156 Z M 859.449219 166.097656 L 540.855469 166.097656 L 540.855469 126.300781 C 540.855469 115.324219 549.632812 106.402344 560.421875 106.402344 L 839.882812 106.402344 C 850.667969 106.402344 859.449219 115.324219 859.449219 126.300781 Z M 859.449219 166.097656 " fill-opacity="1" fill-rule="nonzero"/></g><g clip-path="url(#id2)"><path fill="rgb(0%, 24.308777%, 32.159424%)" d="M 919.1875 404.878906 C 919.1875 382.898438 901.355469 365.082031 879.363281 365.082031 L 720.0625 365.082031 C 698.070312 365.082031 680.238281 382.898438 680.238281 404.878906 L 680.238281 564.066406 C 680.238281 586.042969 698.070312 603.863281 720.0625 603.863281 L 879.363281 603.863281 C 901.355469 603.863281 919.1875 586.042969 919.1875 564.066406 Z M 899.273438 564.066406 C 899.273438 575.039062 890.34375 583.964844 879.363281 583.964844 L 720.0625 583.964844 C 709.082031 583.964844 700.152344 575.039062 700.152344 564.066406 L 700.152344 404.878906 C 700.152344 393.902344 709.082031 384.980469 720.0625 384.980469 L 879.363281 384.980469 C 890.34375 384.980469 899.273438 393.902344 899.273438 404.878906 Z M 899.273438 564.066406 " fill-opacity="1" fill-rule="nonzero"/></g><path fill="rgb(0%, 24.308777%, 32.159424%)" d="M 780.5 345.183594 C 802.105469 345.183594 819.625 327.675781 819.625 306.085938 L 819.625 244.992188 C 819.625 223.402344 802.105469 205.894531 780.5 205.894531 L 719.363281 205.894531 C 697.757812 205.894531 680.238281 223.402344 680.238281 244.992188 L 680.238281 306.085938 C 680.238281 327.675781 697.757812 345.183594 719.363281 345.183594 Z M 700.152344 306.085938 L 700.152344 244.992188 C 700.152344 234.40625 708.769531 225.792969 719.363281 225.792969 L 780.5 225.792969 C 791.09375 225.792969 799.714844 234.40625 799.714844 244.992188 L 799.714844 306.085938 C 799.714844 316.671875 791.09375 325.285156 780.5 325.285156 L 719.363281 325.285156 C 708.769531 325.285156 700.152344 316.671875 700.152344 306.085938 Z M 700.152344 306.085938 " fill-opacity="1" fill-rule="nonzero"/><path fill="rgb(0%, 24.308777%, 32.159424%)" d="M 588.710938 365.082031 C 573.28125 365.082031 560.765625 377.585938 560.765625 393.007812 L 560.765625 436.644531 C 560.765625 452.066406 573.28125 464.574219 588.710938 464.574219 L 632.382812 464.574219 C 647.8125 464.574219 660.328125 452.066406 660.328125 436.644531 L 660.328125 393.007812 C 660.328125 377.585938 647.8125 365.082031 632.382812 365.082031 Z M 640.414062 393.007812 L 640.414062 436.644531 C 640.414062 441.070312 636.8125 444.675781 632.382812 444.675781 L 588.710938 444.675781 C 584.28125 444.675781 580.679688 441.070312 580.679688 436.644531 L 580.679688 393.007812 C 580.679688 388.582031 584.28125 384.980469 588.710938 384.980469 L 632.382812 384.980469 C 636.8125 384.980469 640.414062 388.582031 640.414062 393.007812 Z M 640.414062 393.007812 " fill-opacity="1" fill-rule="nonzero"/><path fill="rgb(0%, 24.308777%, 32.159424%)" d="M 865.636719 435.464844 C 846.421875 443.320312 828.871094 456.164062 815.730469 466.476562 C 797.53125 480.765625 781.792969 496.742188 772.273438 507.046875 C 761.363281 487.6875 752.644531 476.617188 736.382812 463.117188 C 732.148438 459.609375 725.878906 460.1875 722.363281 464.40625 C 718.847656 468.632812 719.425781 474.910156 723.65625 478.417969 C 740.828125 492.671875 747.828125 503.015625 761.496094 528.90625 C 763.042969 531.847656 765.960938 533.8125 769.261719 534.164062 C 769.609375 534.199219 769.957031 534.21875 770.300781 534.21875 C 773.238281 534.21875 776.046875 532.914062 777.953125 530.636719 C 778.171875 530.371094 800.492188 503.742188 828.03125 482.125 C 840.148438 472.613281 856.234375 460.808594 873.171875 453.886719 C 878.261719 451.800781 880.703125 445.996094 878.621094 440.910156 C 876.542969 435.828125 870.722656 433.402344 865.636719 435.464844 Z M 865.636719 435.464844 " fill-opacity="1" fill-rule="nonzero"/><g clip-path="url(#id3)"><path fill="rgb(100%, 51.759338%, 0%)" d="M 839.882812 86.921875 L 560.421875 86.921875 C 538.613281 86.921875 520.941406 104.742188 520.941406 126.71875 L 520.941406 683.875 C 520.941406 705.851562 538.613281 723.671875 560.421875 723.671875 L 839.882812 723.671875 C 861.683594 723.671875 879.363281 705.851562 879.363281 683.875 L 879.363281 624.179688 L 540.855469 624.179688 L 540.855469 186.414062 L 859.449219 186.414062 L 859.449219 345.601562 L 879.363281 345.601562 L 879.363281 126.71875 C 879.363281 104.742188 861.683594 86.921875 839.882812 86.921875 Z M 859.449219 644.078125 L 859.449219 683.875 C 859.449219 694.851562 850.667969 703.773438 839.882812 703.773438 L 560.421875 703.773438 C 549.632812 703.773438 540.855469 694.851562 540.855469 683.875 L 540.855469 644.078125 Z M 859.449219 166.515625 L 540.855469 166.515625 L 540.855469 126.71875 C 540.855469 115.746094 549.632812 106.820312 560.421875 106.820312 L 839.882812 106.820312 C 850.667969 106.820312 859.449219 115.746094 859.449219 126.71875 Z M 859.449219 166.515625 " fill-opacity="1" fill-rule="nonzero"/></g><g clip-path="url(#id4)"><path fill="rgb(100%, 51.759338%, 0%)" d="M 919.1875 405.296875 C 919.1875 383.320312 901.355469 365.5 879.363281 365.5 L 720.0625 365.5 C 698.070312 365.5 680.238281 383.320312 680.238281 405.296875 L 680.238281 564.484375 C 680.238281 586.460938 698.070312 604.28125 720.0625 604.28125 L 879.363281 604.28125 C 901.355469 604.28125 919.1875 586.460938 919.1875 564.484375 Z M 899.273438 564.484375 C 899.273438 575.460938 890.34375 584.382812 879.363281 584.382812 L 720.0625 584.382812 C 709.082031 584.382812 700.152344 575.460938 700.152344 564.484375 L 700.152344 405.296875 C 700.152344 394.324219 709.082031 385.398438 720.0625 385.398438 L 879.363281 385.398438 C 890.34375 385.398438 899.273438 394.324219 899.273438 405.296875 Z M 899.273438 564.484375 " fill-opacity="1" fill-rule="nonzero"/></g><path fill="rgb(100%, 51.759338%, 0%)" d="M 865.636719 435.882812 C 846.421875 443.738281 828.871094 456.582031 815.730469 466.898438 C 797.53125 481.183594 781.792969 497.164062 772.273438 507.464844 C 761.363281 488.109375 752.644531 477.035156 736.382812 463.535156 C 732.148438 460.027344 725.878906 460.605469 722.363281 464.828125 C 718.847656 469.054688 719.425781 475.332031 723.65625 478.839844 C 740.828125 493.089844 747.828125 503.433594 761.496094 529.328125 C 763.042969 532.265625 765.960938 534.234375 769.261719 534.585938 C 769.609375 534.617188 769.957031 534.636719 770.300781 534.636719 C 773.238281 534.636719 776.046875 533.335938 777.953125 531.058594 C 778.171875 530.789062 800.492188 504.164062 828.03125 482.546875 C 840.148438 473.03125 856.234375 461.226562 873.171875 454.304688 C 878.261719 452.222656 880.703125 446.414062 878.621094 441.328125 C 876.542969 436.25 870.722656 433.824219 865.636719 435.882812 Z M 865.636719 435.882812 " fill-opacity="1" fill-rule="nonzero"/></svg>