<svg xmlns="http://www.w3.org/2000/svg" xmlns:xlink="http://www.w3.org/1999/xlink" width="1920" zoomAndPan="magnify" viewBox="0 0 1440 809.999993" height="1080" preserveAspectRatio="xMidYMid meet" version="1.0"><defs><clipPath id="id1"><path d="M 339.691406 92.78125 L 974.191406 92.78125 L 974.191406 727.28125 L 339.691406 727.28125 Z M 339.691406 92.78125 " clip-rule="nonzero"/></clipPath><clipPath id="id2"><path d="M 342.691406 94.78125 L 977.191406 94.78125 L 977.191406 729.28125 L 342.691406 729.28125 Z M 342.691406 94.78125 " clip-rule="nonzero"/></clipPath><clipPath id="id3"><path d="M 340.441406 94.78125 L 974.941406 94.78125 L 974.941406 729.28125 L 340.441406 729.28125 Z M 340.441406 94.78125 " clip-rule="nonzero"/></clipPath><clipPath id="id4"><path d="M 797 526 L 952.722656 526 L 952.722656 680.710938 L 797 680.710938 Z M 797 526 " clip-rule="nonzero"/></clipPath></defs><path fill="rgb(0%, 24.308777%, 32.159424%)" d="M 656.941406 342.890625 C 619.917969 342.890625 589.800781 373.007812 589.800781 410.03125 C 589.800781 447.054688 619.917969 477.171875 656.941406 477.171875 C 693.960938 477.171875 724.082031 447.054688 724.082031 410.03125 C 724.082031 373.007812 693.960938 342.890625 656.941406 342.890625 Z M 656.941406 467.101562 C 625.472656 467.101562 599.871094 441.5 599.871094 410.03125 C 599.871094 378.5625 625.472656 352.960938 656.941406 352.960938 C 688.410156 352.960938 714.011719 378.558594 714.011719 410.03125 C 714.011719 441.503906 688.410156 467.101562 656.941406 467.101562 Z M 656.941406 467.101562 " fill-opacity="1" fill-rule="nonzero"/><path fill="rgb(0%, 24.308777%, 32.159424%)" d="M 604.117188 185.457031 C 606.898438 185.457031 609.152344 183.203125 609.152344 180.421875 L 609.152344 128.4375 C 609.152344 125.660156 606.898438 123.402344 604.117188 123.402344 C 601.332031 123.402344 599.078125 125.660156 599.078125 128.4375 L 599.078125 180.421875 C 599.078125 183.203125 601.332031 185.457031 604.117188 185.457031 Z M 604.117188 185.457031 " fill-opacity="1" fill-rule="nonzero"/><path fill="rgb(0%, 24.308777%, 32.159424%)" d="M 499.507812 185.457031 C 502.292969 185.457031 504.542969 183.203125 504.542969 180.421875 L 504.542969 128.4375 C 504.542969 125.660156 502.292969 123.402344 499.507812 123.402344 C 496.722656 123.402344 494.472656 125.660156 494.472656 128.4375 L 494.472656 180.421875 C 494.472656 183.203125 496.730469 185.457031 499.507812 185.457031 Z M 499.507812 185.457031 " fill-opacity="1" fill-rule="nonzero"/><path fill="rgb(0%, 24.308777%, 32.159424%)" d="M 709.765625 185.457031 C 712.550781 185.457031 714.800781 183.203125 714.800781 180.421875 L 714.800781 128.4375 C 714.800781 125.660156 712.550781 123.402344 709.765625 123.402344 C 706.980469 123.402344 704.730469 125.660156 704.730469 128.4375 L 704.730469 180.421875 C 704.730469 183.203125 706.984375 185.457031 709.765625 185.457031 Z M 709.765625 185.457031 " fill-opacity="1" fill-rule="nonzero"/><path fill="rgb(0%, 24.308777%, 32.159424%)" d="M 814.371094 185.457031 C 817.15625 185.457031 819.40625 183.203125 819.40625 180.421875 L 819.40625 128.4375 C 819.40625 125.660156 817.15625 123.402344 814.371094 123.402344 C 811.585938 123.402344 809.335938 125.660156 809.335938 128.4375 L 809.335938 180.421875 C 809.335938 183.203125 811.585938 185.457031 814.371094 185.457031 Z M 814.371094 185.457031 " fill-opacity="1" fill-rule="nonzero"/><path fill="rgb(0%, 24.308777%, 32.159424%)" d="M 427.328125 467.890625 C 430.113281 467.890625 432.363281 465.636719 432.363281 462.855469 C 432.363281 460.074219 430.113281 457.820312 427.328125 457.820312 L 375.347656 457.820312 C 372.5625 457.820312 370.3125 460.074219 370.3125 462.855469 C 370.3125 465.636719 372.5625 467.890625 375.347656 467.890625 Z M 427.328125 467.890625 " fill-opacity="1" fill-rule="nonzero"/><path fill="rgb(0%, 24.308777%, 32.159424%)" d="M 427.328125 562.425781 L 375.347656 562.425781 C 372.5625 562.425781 370.3125 564.683594 370.3125 567.460938 C 370.3125 570.242188 372.5625 572.5 375.347656 572.5 L 427.328125 572.5 C 430.113281 572.5 432.363281 570.242188 432.363281 567.460938 C 432.363281 564.683594 430.113281 562.425781 427.328125 562.425781 Z M 427.328125 562.425781 " fill-opacity="1" fill-rule="nonzero"/><path fill="rgb(0%, 24.308777%, 32.159424%)" d="M 427.328125 362.242188 C 430.113281 362.242188 432.363281 359.984375 432.363281 357.207031 C 432.363281 354.425781 430.113281 352.171875 427.328125 352.171875 L 375.347656 352.171875 C 372.5625 352.171875 370.3125 354.425781 370.3125 357.207031 C 370.3125 359.984375 372.5625 362.242188 375.347656 362.242188 Z M 427.328125 362.242188 " fill-opacity="1" fill-rule="nonzero"/><path fill="rgb(0%, 24.308777%, 32.159424%)" d="M 375.347656 257.636719 L 427.328125 257.636719 C 430.113281 257.636719 432.363281 255.378906 432.363281 252.601562 C 432.363281 249.820312 430.113281 247.5625 427.328125 247.5625 L 375.347656 247.5625 C 372.5625 247.5625 370.3125 249.820312 370.3125 252.601562 C 370.3125 255.378906 372.5625 257.636719 375.347656 257.636719 Z M 375.347656 257.636719 " fill-opacity="1" fill-rule="nonzero"/><path fill="rgb(0%, 24.308777%, 32.159424%)" d="M 709.765625 634.605469 C 706.980469 634.605469 704.730469 636.859375 704.730469 639.640625 L 704.730469 691.625 C 704.730469 694.402344 706.980469 696.660156 709.765625 696.660156 C 712.550781 696.660156 714.800781 694.402344 714.800781 691.625 L 714.800781 639.640625 C 714.800781 636.859375 712.550781 634.605469 709.765625 634.605469 Z M 709.765625 634.605469 " fill-opacity="1" fill-rule="nonzero"/><path fill="rgb(0%, 24.308777%, 32.159424%)" d="M 814.371094 634.605469 C 811.585938 634.605469 809.335938 636.859375 809.335938 639.640625 L 809.335938 691.625 C 809.335938 694.402344 811.585938 696.660156 814.371094 696.660156 C 817.15625 696.660156 819.40625 694.402344 819.40625 691.625 L 819.40625 639.640625 C 819.40625 636.859375 817.152344 634.605469 814.371094 634.605469 Z M 814.371094 634.605469 " fill-opacity="1" fill-rule="nonzero"/><path fill="rgb(0%, 24.308777%, 32.159424%)" d="M 604.117188 634.605469 C 601.332031 634.605469 599.078125 636.859375 599.078125 639.640625 L 599.078125 691.625 C 599.078125 694.402344 601.332031 696.660156 604.117188 696.660156 C 606.898438 696.660156 609.152344 694.402344 609.152344 691.625 L 609.152344 639.640625 C 609.152344 636.859375 606.898438 634.605469 604.117188 634.605469 Z M 604.117188 634.605469 " fill-opacity="1" fill-rule="nonzero"/><path fill="rgb(0%, 24.308777%, 32.159424%)" d="M 499.507812 634.605469 C 496.722656 634.605469 494.472656 636.859375 494.472656 639.640625 L 494.472656 691.625 C 494.472656 694.402344 496.722656 696.660156 499.507812 696.660156 C 502.292969 696.660156 504.542969 694.402344 504.542969 691.625 L 504.542969 639.640625 C 504.542969 636.859375 502.292969 634.605469 499.507812 634.605469 Z M 499.507812 634.605469 " fill-opacity="1" fill-rule="nonzero"/><path fill="rgb(0%, 24.308777%, 32.159424%)" d="M 886.554688 352.171875 C 883.769531 352.171875 881.519531 354.425781 881.519531 357.207031 C 881.519531 359.984375 883.769531 362.242188 886.554688 362.242188 L 938.53125 362.242188 C 941.316406 362.242188 943.566406 359.984375 943.566406 357.207031 C 943.566406 354.425781 941.316406 352.171875 938.53125 352.171875 Z M 886.554688 352.171875 " fill-opacity="1" fill-rule="nonzero"/><path fill="rgb(0%, 24.308777%, 32.159424%)" d="M 886.554688 257.636719 L 938.53125 257.636719 C 941.316406 257.636719 943.566406 255.378906 943.566406 252.601562 C 943.566406 249.820312 941.316406 247.5625 938.53125 247.5625 L 886.554688 247.5625 C 883.769531 247.5625 881.519531 249.820312 881.519531 252.601562 C 881.519531 255.378906 883.769531 257.636719 886.554688 257.636719 Z M 886.554688 257.636719 " fill-opacity="1" fill-rule="nonzero"/><g clip-path="url(#id1)"><path fill="rgb(0%, 24.308777%, 32.159424%)" d="M 974.191406 324.761719 L 974.191406 283.992188 C 974.191406 281.210938 971.9375 278.957031 969.15625 278.957031 L 852.21875 278.957031 L 852.21875 219.78125 C 852.21875 217.003906 849.96875 214.746094 847.183594 214.746094 L 788.011719 214.746094 L 788.011719 97.816406 C 788.011719 95.039062 785.757812 92.78125 782.972656 92.78125 L 742.203125 92.78125 C 739.421875 92.78125 737.167969 95.039062 737.167969 97.816406 L 737.167969 214.746094 L 682.359375 214.746094 L 682.359375 97.816406 C 682.359375 95.039062 680.109375 92.78125 677.324219 92.78125 L 636.554688 92.78125 C 633.769531 92.78125 631.519531 95.039062 631.519531 97.816406 L 631.519531 214.746094 L 576.707031 214.746094 L 576.707031 97.816406 C 576.707031 95.039062 574.457031 92.78125 571.671875 92.78125 L 530.902344 92.78125 C 528.117188 92.78125 525.867188 95.039062 525.867188 97.816406 L 525.867188 214.746094 L 466.695312 214.746094 C 463.910156 214.746094 461.660156 217.003906 461.660156 219.78125 L 461.660156 278.957031 L 344.726562 278.957031 C 341.941406 278.957031 339.691406 281.210938 339.691406 283.992188 L 339.691406 324.761719 C 339.691406 327.542969 341.941406 329.796875 344.726562 329.796875 L 461.660156 329.796875 L 461.660156 384.609375 L 344.726562 384.609375 C 341.941406 384.609375 339.691406 386.867188 339.691406 389.648438 L 339.691406 430.414062 C 339.691406 433.195312 341.941406 435.453125 344.726562 435.453125 L 461.660156 435.453125 L 461.660156 490.265625 L 344.726562 490.265625 C 341.941406 490.265625 339.691406 492.519531 339.691406 495.300781 L 339.691406 536.066406 C 339.691406 538.84375 341.941406 541.101562 344.726562 541.101562 L 461.660156 541.101562 L 461.660156 600.28125 C 461.660156 603.058594 463.910156 605.316406 466.695312 605.316406 L 525.871094 605.316406 L 525.871094 722.246094 C 525.871094 725.023438 528.121094 727.28125 530.90625 727.28125 L 571.675781 727.28125 C 574.460938 727.28125 576.710938 725.023438 576.710938 722.246094 L 576.710938 605.316406 L 631.523438 605.316406 L 631.523438 722.246094 C 631.523438 725.023438 633.777344 727.28125 636.5625 727.28125 L 677.328125 727.28125 C 680.113281 727.28125 682.367188 725.023438 682.367188 722.246094 L 682.367188 605.316406 L 737.179688 605.316406 L 737.179688 722.246094 C 737.179688 725.023438 739.429688 727.28125 742.214844 727.28125 L 782.984375 727.28125 C 785.769531 727.28125 788.019531 725.023438 788.019531 722.246094 L 788.019531 605.316406 L 847.195312 605.316406 C 849.980469 605.316406 852.230469 603.058594 852.230469 600.28125 L 852.230469 541.101562 L 969.15625 541.101562 C 971.9375 541.101562 974.191406 538.84375 974.191406 536.066406 L 974.191406 495.300781 C 974.191406 492.519531 971.9375 490.265625 969.15625 490.265625 L 852.21875 490.265625 L 852.21875 435.453125 L 969.15625 435.453125 C 971.9375 435.453125 974.191406 433.195312 974.191406 430.414062 L 974.191406 389.648438 C 974.191406 386.867188 971.9375 384.609375 969.15625 384.609375 L 852.21875 384.609375 L 852.21875 329.796875 L 969.15625 329.796875 C 971.9375 329.796875 974.191406 327.546875 974.191406 324.761719 Z M 964.117188 319.726562 L 847.183594 319.726562 C 844.398438 319.726562 842.148438 321.980469 842.148438 324.761719 L 842.148438 389.648438 C 842.148438 392.425781 844.398438 394.683594 847.183594 394.683594 L 964.117188 394.683594 L 964.117188 425.378906 L 847.183594 425.378906 C 844.398438 425.378906 842.148438 427.636719 842.148438 430.414062 L 842.148438 495.300781 C 842.148438 498.082031 844.398438 500.335938 847.183594 500.335938 L 964.117188 500.335938 L 964.117188 531.03125 L 847.183594 531.03125 C 844.398438 531.03125 842.148438 533.285156 842.148438 536.066406 L 842.148438 595.246094 L 782.972656 595.246094 C 780.1875 595.246094 777.9375 597.5 777.9375 600.28125 L 777.9375 717.210938 L 747.242188 717.210938 L 747.242188 600.28125 C 747.242188 597.5 744.988281 595.246094 742.203125 595.246094 L 677.324219 595.246094 C 674.539062 595.246094 672.289062 597.5 672.289062 600.28125 L 672.289062 717.210938 L 641.589844 717.210938 L 641.589844 600.28125 C 641.589844 597.5 639.339844 595.246094 636.554688 595.246094 L 571.671875 595.246094 C 568.886719 595.246094 566.636719 597.5 566.636719 600.28125 L 566.636719 717.210938 L 535.9375 717.210938 L 535.9375 600.28125 C 535.9375 597.5 533.6875 595.246094 530.902344 595.246094 L 471.730469 595.246094 L 471.730469 536.066406 C 471.730469 533.285156 469.480469 531.03125 466.695312 531.03125 L 349.761719 531.03125 L 349.761719 500.335938 L 466.695312 500.335938 C 469.480469 500.335938 471.730469 498.082031 471.730469 495.300781 L 471.730469 430.414062 C 471.730469 427.636719 469.480469 425.378906 466.695312 425.378906 L 349.761719 425.378906 L 349.761719 394.683594 L 466.695312 394.683594 C 469.480469 394.683594 471.730469 392.425781 471.730469 389.648438 L 471.730469 324.761719 C 471.730469 321.980469 469.480469 319.726562 466.695312 319.726562 L 349.761719 319.726562 L 349.761719 289.027344 L 466.695312 289.027344 C 469.480469 289.027344 471.730469 286.773438 471.730469 283.992188 L 471.730469 224.816406 L 530.90625 224.816406 C 533.691406 224.816406 535.941406 222.5625 535.941406 219.78125 L 535.941406 102.851562 L 566.640625 102.851562 L 566.640625 219.78125 C 566.640625 222.5625 568.890625 224.816406 571.675781 224.816406 L 636.5625 224.816406 C 639.34375 224.816406 641.597656 222.5625 641.597656 219.78125 L 641.597656 102.851562 L 672.292969 102.851562 L 672.292969 219.78125 C 672.292969 222.5625 674.546875 224.816406 677.328125 224.816406 L 742.214844 224.816406 C 745 224.816406 747.25 222.5625 747.25 219.78125 L 747.25 102.851562 L 777.949219 102.851562 L 777.949219 219.78125 C 777.949219 222.5625 780.199219 224.816406 782.984375 224.816406 L 842.160156 224.816406 L 842.160156 283.992188 C 842.160156 286.773438 844.410156 289.027344 847.195312 289.027344 L 964.117188 289.027344 Z M 964.117188 319.726562 " fill-opacity="1" fill-rule="nonzero"/></g><path fill="rgb(0%, 24.308777%, 32.159424%)" d="M 886.554688 457.820312 C 883.769531 457.820312 881.519531 460.074219 881.519531 462.855469 C 881.519531 465.636719 883.769531 467.890625 886.554688 467.890625 L 938.53125 467.890625 C 941.316406 467.890625 943.566406 465.636719 943.566406 462.855469 C 943.566406 460.074219 941.316406 457.820312 938.53125 457.820312 Z M 886.554688 457.820312 " fill-opacity="1" fill-rule="nonzero"/><path fill="rgb(0%, 24.308777%, 32.159424%)" d="M 938.53125 562.425781 L 886.554688 562.425781 C 883.769531 562.425781 881.519531 564.683594 881.519531 567.460938 C 881.519531 570.242188 883.769531 572.5 886.554688 572.5 L 938.53125 572.5 C 941.316406 572.5 943.566406 570.242188 943.566406 567.460938 C 943.566406 564.683594 941.316406 562.425781 938.53125 562.425781 Z M 938.53125 562.425781 " fill-opacity="1" fill-rule="nonzero"/><path fill="rgb(0%, 24.308777%, 32.159424%)" d="M 659.941406 344.890625 C 622.917969 344.890625 592.800781 375.007812 592.800781 412.03125 C 592.800781 449.054688 622.917969 479.171875 659.941406 479.171875 C 696.960938 479.171875 727.082031 449.054688 727.082031 412.03125 C 727.082031 375.007812 696.960938 344.890625 659.941406 344.890625 Z M 659.941406 469.101562 C 628.472656 469.101562 602.871094 443.5 602.871094 412.03125 C 602.871094 380.5625 628.472656 354.960938 659.941406 354.960938 C 691.410156 354.960938 717.011719 380.558594 717.011719 412.03125 C 717.011719 443.503906 691.410156 469.101562 659.941406 469.101562 Z M 659.941406 469.101562 " fill-opacity="1" fill-rule="nonzero"/><path fill="rgb(0%, 24.308777%, 32.159424%)" d="M 607.117188 187.460938 C 609.898438 187.460938 612.152344 185.203125 612.152344 182.421875 L 612.152344 130.441406 C 612.152344 127.660156 609.898438 125.402344 607.117188 125.402344 C 604.332031 125.402344 602.078125 127.660156 602.078125 130.441406 L 602.078125 182.421875 C 602.078125 185.203125 604.332031 187.460938 607.117188 187.460938 Z M 607.117188 187.460938 " fill-opacity="1" fill-rule="nonzero"/><path fill="rgb(0%, 24.308777%, 32.159424%)" d="M 502.507812 187.460938 C 505.292969 187.460938 507.542969 185.203125 507.542969 182.421875 L 507.542969 130.441406 C 507.542969 127.660156 505.292969 125.402344 502.507812 125.402344 C 499.722656 125.402344 497.472656 127.660156 497.472656 130.441406 L 497.472656 182.421875 C 497.472656 185.203125 499.730469 187.460938 502.507812 187.460938 Z M 502.507812 187.460938 " fill-opacity="1" fill-rule="nonzero"/><path fill="rgb(0%, 24.308777%, 32.159424%)" d="M 712.765625 187.460938 C 715.550781 187.460938 717.800781 185.203125 717.800781 182.421875 L 717.800781 130.441406 C 717.800781 127.660156 715.550781 125.402344 712.765625 125.402344 C 709.980469 125.402344 707.730469 127.660156 707.730469 130.441406 L 707.730469 182.421875 C 707.730469 185.203125 709.984375 187.460938 712.765625 187.460938 Z M 712.765625 187.460938 " fill-opacity="1" fill-rule="nonzero"/><path fill="rgb(0%, 24.308777%, 32.159424%)" d="M 817.371094 187.460938 C 820.15625 187.460938 822.40625 185.203125 822.40625 182.421875 L 822.40625 130.441406 C 822.40625 127.660156 820.15625 125.402344 817.371094 125.402344 C 814.585938 125.402344 812.335938 127.660156 812.335938 130.441406 L 812.335938 182.421875 C 812.335938 185.203125 814.585938 187.460938 817.371094 187.460938 Z M 817.371094 187.460938 " fill-opacity="1" fill-rule="nonzero"/><path fill="rgb(0%, 24.308777%, 32.159424%)" d="M 430.328125 469.890625 C 433.113281 469.890625 435.363281 467.636719 435.363281 464.855469 C 435.363281 462.078125 433.113281 459.820312 430.328125 459.820312 L 378.347656 459.820312 C 375.5625 459.820312 373.3125 462.078125 373.3125 464.855469 C 373.3125 467.636719 375.5625 469.890625 378.347656 469.890625 Z M 430.328125 469.890625 " fill-opacity="1" fill-rule="nonzero"/><path fill="rgb(0%, 24.308777%, 32.159424%)" d="M 430.328125 564.429688 L 378.347656 564.429688 C 375.5625 564.429688 373.3125 566.683594 373.3125 569.464844 C 373.3125 572.242188 375.5625 574.5 378.347656 574.5 L 430.328125 574.5 C 433.113281 574.5 435.363281 572.242188 435.363281 569.464844 C 435.363281 566.683594 433.113281 564.429688 430.328125 564.429688 Z M 430.328125 564.429688 " fill-opacity="1" fill-rule="nonzero"/><path fill="rgb(0%, 24.308777%, 32.159424%)" d="M 430.328125 364.242188 C 433.113281 364.242188 435.363281 361.988281 435.363281 359.207031 C 435.363281 356.425781 433.113281 354.171875 430.328125 354.171875 L 378.347656 354.171875 C 375.5625 354.171875 373.3125 356.425781 373.3125 359.207031 C 373.3125 361.988281 375.5625 364.242188 378.347656 364.242188 Z M 430.328125 364.242188 " fill-opacity="1" fill-rule="nonzero"/><path fill="rgb(0%, 24.308777%, 32.159424%)" d="M 378.347656 259.636719 L 430.328125 259.636719 C 433.113281 259.636719 435.363281 257.378906 435.363281 254.601562 C 435.363281 251.820312 433.113281 249.566406 430.328125 249.566406 L 378.347656 249.566406 C 375.5625 249.566406 373.3125 251.820312 373.3125 254.601562 C 373.3125 257.378906 375.5625 259.636719 378.347656 259.636719 Z M 378.347656 259.636719 " fill-opacity="1" fill-rule="nonzero"/><path fill="rgb(0%, 24.308777%, 32.159424%)" d="M 712.765625 636.605469 C 709.980469 636.605469 707.730469 638.859375 707.730469 641.640625 L 707.730469 693.625 C 707.730469 696.402344 709.980469 698.660156 712.765625 698.660156 C 715.550781 698.660156 717.800781 696.402344 717.800781 693.625 L 717.800781 641.640625 C 717.800781 638.859375 715.550781 636.605469 712.765625 636.605469 Z M 712.765625 636.605469 " fill-opacity="1" fill-rule="nonzero"/><path fill="rgb(0%, 24.308777%, 32.159424%)" d="M 817.371094 636.605469 C 814.585938 636.605469 812.335938 638.859375 812.335938 641.640625 L 812.335938 693.625 C 812.335938 696.402344 814.585938 698.660156 817.371094 698.660156 C 820.15625 698.660156 822.40625 696.402344 822.40625 693.625 L 822.40625 641.640625 C 822.40625 638.859375 820.152344 636.605469 817.371094 636.605469 Z M 817.371094 636.605469 " fill-opacity="1" fill-rule="nonzero"/><path fill="rgb(0%, 24.308777%, 32.159424%)" d="M 607.117188 636.605469 C 604.332031 636.605469 602.078125 638.859375 602.078125 641.640625 L 602.078125 693.625 C 602.078125 696.402344 604.332031 698.660156 607.117188 698.660156 C 609.898438 698.660156 612.152344 696.402344 612.152344 693.625 L 612.152344 641.640625 C 612.152344 638.859375 609.898438 636.605469 607.117188 636.605469 Z M 607.117188 636.605469 " fill-opacity="1" fill-rule="nonzero"/><path fill="rgb(0%, 24.308777%, 32.159424%)" d="M 502.507812 636.605469 C 499.722656 636.605469 497.472656 638.859375 497.472656 641.640625 L 497.472656 693.625 C 497.472656 696.402344 499.722656 698.660156 502.507812 698.660156 C 505.292969 698.660156 507.542969 696.402344 507.542969 693.625 L 507.542969 641.640625 C 507.542969 638.859375 505.292969 636.605469 502.507812 636.605469 Z M 502.507812 636.605469 " fill-opacity="1" fill-rule="nonzero"/><path fill="rgb(0%, 24.308777%, 32.159424%)" d="M 889.554688 354.171875 C 886.769531 354.171875 884.519531 356.425781 884.519531 359.207031 C 884.519531 361.988281 886.769531 364.242188 889.554688 364.242188 L 941.53125 364.242188 C 944.316406 364.242188 946.566406 361.988281 946.566406 359.207031 C 946.566406 356.425781 944.316406 354.171875 941.53125 354.171875 Z M 889.554688 354.171875 " fill-opacity="1" fill-rule="nonzero"/><path fill="rgb(0%, 24.308777%, 32.159424%)" d="M 889.554688 259.636719 L 941.53125 259.636719 C 944.316406 259.636719 946.566406 257.378906 946.566406 254.601562 C 946.566406 251.820312 944.316406 249.566406 941.53125 249.566406 L 889.554688 249.566406 C 886.769531 249.566406 884.519531 251.820312 884.519531 254.601562 C 884.519531 257.378906 886.769531 259.636719 889.554688 259.636719 Z M 889.554688 259.636719 " fill-opacity="1" fill-rule="nonzero"/><g clip-path="url(#id2)"><path fill="rgb(0%, 24.308777%, 32.159424%)" d="M 977.191406 326.761719 L 977.191406 285.992188 C 977.191406 283.214844 974.9375 280.957031 972.15625 280.957031 L 855.21875 280.957031 L 855.21875 221.78125 C 855.21875 219.003906 852.96875 216.746094 850.183594 216.746094 L 791.011719 216.746094 L 791.011719 99.816406 C 791.011719 97.039062 788.757812 94.78125 785.972656 94.78125 L 745.203125 94.78125 C 742.421875 94.78125 740.167969 97.039062 740.167969 99.816406 L 740.167969 216.746094 L 685.359375 216.746094 L 685.359375 99.816406 C 685.359375 97.039062 683.109375 94.78125 680.324219 94.78125 L 639.554688 94.78125 C 636.769531 94.78125 634.519531 97.039062 634.519531 99.816406 L 634.519531 216.746094 L 579.707031 216.746094 L 579.707031 99.816406 C 579.707031 97.039062 577.457031 94.78125 574.671875 94.78125 L 533.902344 94.78125 C 531.117188 94.78125 528.867188 97.039062 528.867188 99.816406 L 528.867188 216.746094 L 469.695312 216.746094 C 466.910156 216.746094 464.660156 219.003906 464.660156 221.78125 L 464.660156 280.957031 L 347.726562 280.957031 C 344.941406 280.957031 342.691406 283.214844 342.691406 285.992188 L 342.691406 326.761719 C 342.691406 329.542969 344.941406 331.796875 347.726562 331.796875 L 464.660156 331.796875 L 464.660156 386.613281 L 347.726562 386.613281 C 344.941406 386.613281 342.691406 388.867188 342.691406 391.648438 L 342.691406 432.417969 C 342.691406 435.195312 344.941406 437.453125 347.726562 437.453125 L 464.660156 437.453125 L 464.660156 492.265625 L 347.726562 492.265625 C 344.941406 492.265625 342.691406 494.523438 342.691406 497.300781 L 342.691406 538.066406 C 342.691406 540.84375 344.941406 543.101562 347.726562 543.101562 L 464.660156 543.101562 L 464.660156 602.28125 C 464.660156 605.0625 466.910156 607.316406 469.695312 607.316406 L 528.871094 607.316406 L 528.871094 724.246094 C 528.871094 727.027344 531.121094 729.28125 533.90625 729.28125 L 574.675781 729.28125 C 577.460938 729.28125 579.710938 727.027344 579.710938 724.246094 L 579.710938 607.316406 L 634.523438 607.316406 L 634.523438 724.246094 C 634.523438 727.027344 636.777344 729.28125 639.5625 729.28125 L 680.328125 729.28125 C 683.113281 729.28125 685.367188 727.027344 685.367188 724.246094 L 685.367188 607.316406 L 740.179688 607.316406 L 740.179688 724.246094 C 740.179688 727.027344 742.429688 729.28125 745.214844 729.28125 L 785.984375 729.28125 C 788.769531 729.28125 791.019531 727.027344 791.019531 724.246094 L 791.019531 607.316406 L 850.195312 607.316406 C 852.980469 607.316406 855.230469 605.0625 855.230469 602.28125 L 855.230469 543.101562 L 972.15625 543.101562 C 974.9375 543.101562 977.191406 540.84375 977.191406 538.066406 L 977.191406 497.300781 C 977.191406 494.523438 974.9375 492.265625 972.15625 492.265625 L 855.21875 492.265625 L 855.21875 437.453125 L 972.15625 437.453125 C 974.9375 437.453125 977.191406 435.195312 977.191406 432.417969 L 977.191406 391.648438 C 977.191406 388.867188 974.9375 386.613281 972.15625 386.613281 L 855.21875 386.613281 L 855.21875 331.796875 L 972.15625 331.796875 C 974.9375 331.796875 977.191406 329.546875 977.191406 326.761719 Z M 967.117188 321.726562 L 850.183594 321.726562 C 847.398438 321.726562 845.148438 323.984375 845.148438 326.761719 L 845.148438 391.648438 C 845.148438 394.425781 847.398438 396.683594 850.183594 396.683594 L 967.117188 396.683594 L 967.117188 427.382812 L 850.183594 427.382812 C 847.398438 427.382812 845.148438 429.636719 845.148438 432.417969 L 845.148438 497.300781 C 845.148438 500.082031 847.398438 502.335938 850.183594 502.335938 L 967.117188 502.335938 L 967.117188 533.03125 L 850.183594 533.03125 C 847.398438 533.03125 845.148438 535.285156 845.148438 538.066406 L 845.148438 597.246094 L 785.972656 597.246094 C 783.1875 597.246094 780.9375 599.5 780.9375 602.28125 L 780.9375 719.210938 L 750.242188 719.210938 L 750.242188 602.28125 C 750.242188 599.5 747.988281 597.246094 745.203125 597.246094 L 680.324219 597.246094 C 677.539062 597.246094 675.289062 599.5 675.289062 602.28125 L 675.289062 719.210938 L 644.589844 719.210938 L 644.589844 602.28125 C 644.589844 599.5 642.339844 597.246094 639.554688 597.246094 L 574.671875 597.246094 C 571.886719 597.246094 569.636719 599.5 569.636719 602.28125 L 569.636719 719.210938 L 538.9375 719.210938 L 538.9375 602.28125 C 538.9375 599.5 536.6875 597.246094 533.902344 597.246094 L 474.730469 597.246094 L 474.730469 538.066406 C 474.730469 535.285156 472.480469 533.03125 469.695312 533.03125 L 352.761719 533.03125 L 352.761719 502.335938 L 469.695312 502.335938 C 472.480469 502.335938 474.730469 500.082031 474.730469 497.300781 L 474.730469 432.417969 C 474.730469 429.636719 472.480469 427.382812 469.695312 427.382812 L 352.761719 427.382812 L 352.761719 396.683594 L 469.695312 396.683594 C 472.480469 396.683594 474.730469 394.425781 474.730469 391.648438 L 474.730469 326.761719 C 474.730469 323.984375 472.480469 321.726562 469.695312 321.726562 L 352.761719 321.726562 L 352.761719 291.027344 L 469.695312 291.027344 C 472.480469 291.027344 474.730469 288.773438 474.730469 285.992188 L 474.730469 226.820312 L 533.90625 226.820312 C 536.691406 226.820312 538.941406 224.5625 538.941406 221.78125 L 538.941406 104.851562 L 569.640625 104.851562 L 569.640625 221.78125 C 569.640625 224.5625 571.890625 226.820312 574.675781 226.820312 L 639.5625 226.820312 C 642.34375 226.820312 644.597656 224.5625 644.597656 221.78125 L 644.597656 104.851562 L 675.292969 104.851562 L 675.292969 221.78125 C 675.292969 224.5625 677.546875 226.820312 680.328125 226.820312 L 745.214844 226.820312 C 748 226.820312 750.25 224.5625 750.25 221.78125 L 750.25 104.851562 L 780.949219 104.851562 L 780.949219 221.78125 C 780.949219 224.5625 783.199219 226.820312 785.984375 226.820312 L 845.160156 226.820312 L 845.160156 285.992188 C 845.160156 288.773438 847.410156 291.027344 850.195312 291.027344 L 967.117188 291.027344 Z M 967.117188 321.726562 " fill-opacity="1" fill-rule="nonzero"/></g><path fill="rgb(0%, 24.308777%, 32.159424%)" d="M 889.554688 459.820312 C 886.769531 459.820312 884.519531 462.078125 884.519531 464.855469 C 884.519531 467.636719 886.769531 469.890625 889.554688 469.890625 L 941.53125 469.890625 C 944.316406 469.890625 946.566406 467.636719 946.566406 464.855469 C 946.566406 462.078125 944.316406 459.820312 941.53125 459.820312 Z M 889.554688 459.820312 " fill-opacity="1" fill-rule="nonzero"/><path fill="rgb(0%, 24.308777%, 32.159424%)" d="M 941.53125 564.429688 L 889.554688 564.429688 C 886.769531 564.429688 884.519531 566.683594 884.519531 569.464844 C 884.519531 572.242188 886.769531 574.5 889.554688 574.5 L 941.53125 574.5 C 944.316406 574.5 946.566406 572.242188 946.566406 569.464844 C 946.566406 566.683594 944.316406 564.429688 941.53125 564.429688 Z M 941.53125 564.429688 " fill-opacity="1" fill-rule="nonzero"/><path fill="rgb(0%, 24.308777%, 32.159424%)" d="M 657.691406 344.890625 C 620.667969 344.890625 590.550781 375.007812 590.550781 412.03125 C 590.550781 449.054688 620.667969 479.171875 657.691406 479.171875 C 694.710938 479.171875 724.832031 449.054688 724.832031 412.03125 C 724.832031 375.007812 694.710938 344.890625 657.691406 344.890625 Z M 657.691406 469.101562 C 626.222656 469.101562 600.621094 443.5 600.621094 412.03125 C 600.621094 380.5625 626.222656 354.960938 657.691406 354.960938 C 689.160156 354.960938 714.761719 380.558594 714.761719 412.03125 C 714.761719 443.503906 689.160156 469.101562 657.691406 469.101562 Z M 657.691406 469.101562 " fill-opacity="1" fill-rule="nonzero"/><path fill="rgb(0%, 24.308777%, 32.159424%)" d="M 604.867188 187.460938 C 607.648438 187.460938 609.902344 185.203125 609.902344 182.421875 L 609.902344 130.441406 C 609.902344 127.660156 607.648438 125.402344 604.867188 125.402344 C 602.082031 125.402344 599.828125 127.660156 599.828125 130.441406 L 599.828125 182.421875 C 599.828125 185.203125 602.082031 187.460938 604.867188 187.460938 Z M 604.867188 187.460938 " fill-opacity="1" fill-rule="nonzero"/><path fill="rgb(0%, 24.308777%, 32.159424%)" d="M 500.257812 187.460938 C 503.042969 187.460938 505.292969 185.203125 505.292969 182.421875 L 505.292969 130.441406 C 505.292969 127.660156 503.042969 125.402344 500.257812 125.402344 C 497.472656 125.402344 495.222656 127.660156 495.222656 130.441406 L 495.222656 182.421875 C 495.222656 185.203125 497.480469 187.460938 500.257812 187.460938 Z M 500.257812 187.460938 " fill-opacity="1" fill-rule="nonzero"/><path fill="rgb(0%, 24.308777%, 32.159424%)" d="M 710.515625 187.460938 C 713.300781 187.460938 715.550781 185.203125 715.550781 182.421875 L 715.550781 130.441406 C 715.550781 127.660156 713.300781 125.402344 710.515625 125.402344 C 707.730469 125.402344 705.480469 127.660156 705.480469 130.441406 L 705.480469 182.421875 C 705.480469 185.203125 707.734375 187.460938 710.515625 187.460938 Z M 710.515625 187.460938 " fill-opacity="1" fill-rule="nonzero"/><path fill="rgb(0%, 24.308777%, 32.159424%)" d="M 815.121094 187.460938 C 817.90625 187.460938 820.15625 185.203125 820.15625 182.421875 L 820.15625 130.441406 C 820.15625 127.660156 817.90625 125.402344 815.121094 125.402344 C 812.335938 125.402344 810.085938 127.660156 810.085938 130.441406 L 810.085938 182.421875 C 810.085938 185.203125 812.335938 187.460938 815.121094 187.460938 Z M 815.121094 187.460938 " fill-opacity="1" fill-rule="nonzero"/><path fill="rgb(0%, 24.308777%, 32.159424%)" d="M 428.078125 469.890625 C 430.863281 469.890625 433.113281 467.636719 433.113281 464.855469 C 433.113281 462.078125 430.863281 459.820312 428.078125 459.820312 L 376.097656 459.820312 C 373.3125 459.820312 371.0625 462.078125 371.0625 464.855469 C 371.0625 467.636719 373.3125 469.890625 376.097656 469.890625 Z M 428.078125 469.890625 " fill-opacity="1" fill-rule="nonzero"/><path fill="rgb(0%, 24.308777%, 32.159424%)" d="M 428.078125 564.429688 L 376.097656 564.429688 C 373.3125 564.429688 371.0625 566.683594 371.0625 569.464844 C 371.0625 572.242188 373.3125 574.5 376.097656 574.5 L 428.078125 574.5 C 430.863281 574.5 433.113281 572.242188 433.113281 569.464844 C 433.113281 566.683594 430.863281 564.429688 428.078125 564.429688 Z M 428.078125 564.429688 " fill-opacity="1" fill-rule="nonzero"/><path fill="rgb(0%, 24.308777%, 32.159424%)" d="M 428.078125 364.242188 C 430.863281 364.242188 433.113281 361.988281 433.113281 359.207031 C 433.113281 356.425781 430.863281 354.171875 428.078125 354.171875 L 376.097656 354.171875 C 373.3125 354.171875 371.0625 356.425781 371.0625 359.207031 C 371.0625 361.988281 373.3125 364.242188 376.097656 364.242188 Z M 428.078125 364.242188 " fill-opacity="1" fill-rule="nonzero"/><path fill="rgb(0%, 24.308777%, 32.159424%)" d="M 376.097656 259.636719 L 428.078125 259.636719 C 430.863281 259.636719 433.113281 257.378906 433.113281 254.601562 C 433.113281 251.820312 430.863281 249.566406 428.078125 249.566406 L 376.097656 249.566406 C 373.3125 249.566406 371.0625 251.820312 371.0625 254.601562 C 371.0625 257.378906 373.3125 259.636719 376.097656 259.636719 Z M 376.097656 259.636719 " fill-opacity="1" fill-rule="nonzero"/><path fill="rgb(0%, 24.308777%, 32.159424%)" d="M 710.515625 636.605469 C 707.730469 636.605469 705.480469 638.859375 705.480469 641.640625 L 705.480469 693.625 C 705.480469 696.402344 707.730469 698.660156 710.515625 698.660156 C 713.300781 698.660156 715.550781 696.402344 715.550781 693.625 L 715.550781 641.640625 C 715.550781 638.859375 713.300781 636.605469 710.515625 636.605469 Z M 710.515625 636.605469 " fill-opacity="1" fill-rule="nonzero"/><path fill="rgb(0%, 24.308777%, 32.159424%)" d="M 815.121094 636.605469 C 812.335938 636.605469 810.085938 638.859375 810.085938 641.640625 L 810.085938 693.625 C 810.085938 696.402344 812.335938 698.660156 815.121094 698.660156 C 817.90625 698.660156 820.15625 696.402344 820.15625 693.625 L 820.15625 641.640625 C 820.15625 638.859375 817.902344 636.605469 815.121094 636.605469 Z M 815.121094 636.605469 " fill-opacity="1" fill-rule="nonzero"/><path fill="rgb(0%, 24.308777%, 32.159424%)" d="M 604.867188 636.605469 C 602.082031 636.605469 599.828125 638.859375 599.828125 641.640625 L 599.828125 693.625 C 599.828125 696.402344 602.082031 698.660156 604.867188 698.660156 C 607.648438 698.660156 609.902344 696.402344 609.902344 693.625 L 609.902344 641.640625 C 609.902344 638.859375 607.648438 636.605469 604.867188 636.605469 Z M 604.867188 636.605469 " fill-opacity="1" fill-rule="nonzero"/><path fill="rgb(0%, 24.308777%, 32.159424%)" d="M 500.257812 636.605469 C 497.472656 636.605469 495.222656 638.859375 495.222656 641.640625 L 495.222656 693.625 C 495.222656 696.402344 497.472656 698.660156 500.257812 698.660156 C 503.042969 698.660156 505.292969 696.402344 505.292969 693.625 L 505.292969 641.640625 C 505.292969 638.859375 503.042969 636.605469 500.257812 636.605469 Z M 500.257812 636.605469 " fill-opacity="1" fill-rule="nonzero"/><path fill="rgb(0%, 24.308777%, 32.159424%)" d="M 887.304688 354.171875 C 884.519531 354.171875 882.269531 356.425781 882.269531 359.207031 C 882.269531 361.988281 884.519531 364.242188 887.304688 364.242188 L 939.28125 364.242188 C 942.066406 364.242188 944.316406 361.988281 944.316406 359.207031 C 944.316406 356.425781 942.066406 354.171875 939.28125 354.171875 Z M 887.304688 354.171875 " fill-opacity="1" fill-rule="nonzero"/><path fill="rgb(0%, 24.308777%, 32.159424%)" d="M 887.304688 259.636719 L 939.28125 259.636719 C 942.066406 259.636719 944.316406 257.378906 944.316406 254.601562 C 944.316406 251.820312 942.066406 249.566406 939.28125 249.566406 L 887.304688 249.566406 C 884.519531 249.566406 882.269531 251.820312 882.269531 254.601562 C 882.269531 257.378906 884.519531 259.636719 887.304688 259.636719 Z M 887.304688 259.636719 " fill-opacity="1" fill-rule="nonzero"/><g clip-path="url(#id3)"><path fill="rgb(0%, 24.308777%, 32.159424%)" d="M 974.941406 326.761719 L 974.941406 285.992188 C 974.941406 283.214844 972.6875 280.957031 969.90625 280.957031 L 852.96875 280.957031 L 852.96875 221.78125 C 852.96875 219.003906 850.71875 216.746094 847.933594 216.746094 L 788.761719 216.746094 L 788.761719 99.816406 C 788.761719 97.039062 786.507812 94.78125 783.722656 94.78125 L 742.953125 94.78125 C 740.171875 94.78125 737.917969 97.039062 737.917969 99.816406 L 737.917969 216.746094 L 683.109375 216.746094 L 683.109375 99.816406 C 683.109375 97.039062 680.859375 94.78125 678.074219 94.78125 L 637.304688 94.78125 C 634.519531 94.78125 632.269531 97.039062 632.269531 99.816406 L 632.269531 216.746094 L 577.457031 216.746094 L 577.457031 99.816406 C 577.457031 97.039062 575.207031 94.78125 572.421875 94.78125 L 531.652344 94.78125 C 528.867188 94.78125 526.617188 97.039062 526.617188 99.816406 L 526.617188 216.746094 L 467.445312 216.746094 C 464.660156 216.746094 462.410156 219.003906 462.410156 221.78125 L 462.410156 280.957031 L 345.476562 280.957031 C 342.691406 280.957031 340.441406 283.214844 340.441406 285.992188 L 340.441406 326.761719 C 340.441406 329.542969 342.691406 331.796875 345.476562 331.796875 L 462.410156 331.796875 L 462.410156 386.613281 L 345.476562 386.613281 C 342.691406 386.613281 340.441406 388.867188 340.441406 391.648438 L 340.441406 432.417969 C 340.441406 435.195312 342.691406 437.453125 345.476562 437.453125 L 462.410156 437.453125 L 462.410156 492.265625 L 345.476562 492.265625 C 342.691406 492.265625 340.441406 494.523438 340.441406 497.300781 L 340.441406 538.066406 C 340.441406 540.84375 342.691406 543.101562 345.476562 543.101562 L 462.410156 543.101562 L 462.410156 602.28125 C 462.410156 605.0625 464.660156 607.316406 467.445312 607.316406 L 526.621094 607.316406 L 526.621094 724.246094 C 526.621094 727.027344 528.871094 729.28125 531.65625 729.28125 L 572.425781 729.28125 C 575.210938 729.28125 577.460938 727.027344 577.460938 724.246094 L 577.460938 607.316406 L 632.273438 607.316406 L 632.273438 724.246094 C 632.273438 727.027344 634.527344 729.28125 637.3125 729.28125 L 678.078125 729.28125 C 680.863281 729.28125 683.117188 727.027344 683.117188 724.246094 L 683.117188 607.316406 L 737.929688 607.316406 L 737.929688 724.246094 C 737.929688 727.027344 740.179688 729.28125 742.964844 729.28125 L 783.734375 729.28125 C 786.519531 729.28125 788.769531 727.027344 788.769531 724.246094 L 788.769531 607.316406 L 847.945312 607.316406 C 850.730469 607.316406 852.980469 605.0625 852.980469 602.28125 L 852.980469 543.101562 L 969.90625 543.101562 C 972.6875 543.101562 974.941406 540.84375 974.941406 538.066406 L 974.941406 497.300781 C 974.941406 494.523438 972.6875 492.265625 969.90625 492.265625 L 852.96875 492.265625 L 852.96875 437.453125 L 969.90625 437.453125 C 972.6875 437.453125 974.941406 435.195312 974.941406 432.417969 L 974.941406 391.648438 C 974.941406 388.867188 972.6875 386.613281 969.90625 386.613281 L 852.96875 386.613281 L 852.96875 331.796875 L 969.90625 331.796875 C 972.6875 331.796875 974.941406 329.546875 974.941406 326.761719 Z M 964.867188 321.726562 L 847.933594 321.726562 C 845.148438 321.726562 842.898438 323.984375 842.898438 326.761719 L 842.898438 391.648438 C 842.898438 394.425781 845.148438 396.683594 847.933594 396.683594 L 964.867188 396.683594 L 964.867188 427.382812 L 847.933594 427.382812 C 845.148438 427.382812 842.898438 429.636719 842.898438 432.417969 L 842.898438 497.300781 C 842.898438 500.082031 845.148438 502.335938 847.933594 502.335938 L 964.867188 502.335938 L 964.867188 533.03125 L 847.933594 533.03125 C 845.148438 533.03125 842.898438 535.285156 842.898438 538.066406 L 842.898438 597.246094 L 783.722656 597.246094 C 780.9375 597.246094 778.6875 599.5 778.6875 602.28125 L 778.6875 719.210938 L 747.992188 719.210938 L 747.992188 602.28125 C 747.992188 599.5 745.738281 597.246094 742.953125 597.246094 L 678.074219 597.246094 C 675.289062 597.246094 673.039062 599.5 673.039062 602.28125 L 673.039062 719.210938 L 642.339844 719.210938 L 642.339844 602.28125 C 642.339844 599.5 640.089844 597.246094 637.304688 597.246094 L 572.421875 597.246094 C 569.636719 597.246094 567.386719 599.5 567.386719 602.28125 L 567.386719 719.210938 L 536.6875 719.210938 L 536.6875 602.28125 C 536.6875 599.5 534.4375 597.246094 531.652344 597.246094 L 472.480469 597.246094 L 472.480469 538.066406 C 472.480469 535.285156 470.230469 533.03125 467.445312 533.03125 L 350.511719 533.03125 L 350.511719 502.335938 L 467.445312 502.335938 C 470.230469 502.335938 472.480469 500.082031 472.480469 497.300781 L 472.480469 432.417969 C 472.480469 429.636719 470.230469 427.382812 467.445312 427.382812 L 350.511719 427.382812 L 350.511719 396.683594 L 467.445312 396.683594 C 470.230469 396.683594 472.480469 394.425781 472.480469 391.648438 L 472.480469 326.761719 C 472.480469 323.984375 470.230469 321.726562 467.445312 321.726562 L 350.511719 321.726562 L 350.511719 291.027344 L 467.445312 291.027344 C 470.230469 291.027344 472.480469 288.773438 472.480469 285.992188 L 472.480469 226.820312 L 531.65625 226.820312 C 534.441406 226.820312 536.691406 224.5625 536.691406 221.78125 L 536.691406 104.851562 L 567.390625 104.851562 L 567.390625 221.78125 C 567.390625 224.5625 569.640625 226.820312 572.425781 226.820312 L 637.3125 226.820312 C 640.09375 226.820312 642.347656 224.5625 642.347656 221.78125 L 642.347656 104.851562 L 673.042969 104.851562 L 673.042969 221.78125 C 673.042969 224.5625 675.296875 226.820312 678.078125 226.820312 L 742.964844 226.820312 C 745.75 226.820312 748 224.5625 748 221.78125 L 748 104.851562 L 778.699219 104.851562 L 778.699219 221.78125 C 778.699219 224.5625 780.949219 226.820312 783.734375 226.820312 L 842.910156 226.820312 L 842.910156 285.992188 C 842.910156 288.773438 845.160156 291.027344 847.945312 291.027344 L 964.867188 291.027344 Z M 964.867188 321.726562 " fill-opacity="1" fill-rule="nonzero"/></g><path fill="rgb(0%, 24.308777%, 32.159424%)" d="M 887.304688 459.820312 C 884.519531 459.820312 882.269531 462.078125 882.269531 464.855469 C 882.269531 467.636719 884.519531 469.890625 887.304688 469.890625 L 939.28125 469.890625 C 942.066406 469.890625 944.316406 467.636719 944.316406 464.855469 C 944.316406 462.078125 942.066406 459.820312 939.28125 459.820312 Z M 887.304688 459.820312 " fill-opacity="1" fill-rule="nonzero"/><path fill="rgb(0%, 24.308777%, 32.159424%)" d="M 939.28125 564.429688 L 887.304688 564.429688 C 884.519531 564.429688 882.269531 566.683594 882.269531 569.464844 C 882.269531 572.242188 884.519531 574.5 887.304688 574.5 L 939.28125 574.5 C 942.066406 574.5 944.316406 572.242188 944.316406 569.464844 C 944.316406 566.683594 942.066406 564.429688 939.28125 564.429688 Z M 939.28125 564.429688 " fill-opacity="1" fill-rule="nonzero"/><path fill="rgb(100%, 100%, 100%)" d="M 874.726562 538.734375 C 837.445312 538.734375 807.226562 567.273438 807.226562 602.484375 C 807.226562 637.691406 837.445312 666.234375 874.726562 666.234375 C 912.003906 666.234375 942.226562 637.691406 942.226562 602.484375 C 942.226562 567.273438 912.003906 538.734375 874.726562 538.734375 " fill-opacity="1" fill-rule="nonzero"/><path fill="rgb(100%, 100%, 100%)" d="M 824.859375 538.738281 L 977.109375 538.738281 L 977.109375 672.230469 L 824.859375 672.230469 L 824.859375 538.738281 " fill-opacity="1" fill-rule="nonzero"/><g clip-path="url(#id4)"><path fill="rgb(100%, 51.759338%, 0%)" d="M 867.695312 526.113281 C 828.96875 526.113281 797.425781 557.65625 797.425781 596.386719 C 797.425781 635.113281 828.96875 666.65625 867.695312 666.65625 C 871.140625 666.65625 874.503906 666.328125 877.824219 665.84375 C 885.574219 674.917969 897.066406 680.710938 909.859375 680.710938 C 933.046875 680.710938 952.019531 661.738281 952.019531 638.546875 C 952.019531 615.359375 933.046875 596.386719 909.859375 596.386719 C 886.671875 596.386719 867.695312 615.359375 867.695312 638.546875 C 867.695312 643.425781 868.585938 648.097656 870.125 652.464844 C 869.3125 652.5 868.519531 652.601562 867.695312 652.601562 C 836.5625 652.601562 811.480469 627.519531 811.480469 596.386719 C 811.480469 565.25 836.5625 540.167969 867.695312 540.167969 C 878.175781 540.167969 887.921875 543.050781 896.300781 548.019531 L 889.972656 554.347656 C 887.421875 556.890625 889.222656 561.25 892.828125 561.25 L 919.878906 561.25 C 922.105469 561.25 923.914062 559.441406 923.914062 557.214844 L 923.914062 530.164062 C 923.914062 526.558594 919.554688 524.757812 917.011719 527.308594 L 906.46875 537.847656 C 895.34375 530.46875 882.015625 526.113281 867.695312 526.113281 Z M 929.539062 622.449219 C 931.320312 622.449219 933.09375 623.132812 934.453125 624.492188 C 937.171875 627.210938 937.171875 631.613281 934.453125 634.332031 L 911.257812 657.515625 C 908.539062 660.234375 904.152344 660.234375 901.433594 657.515625 L 888.777344 644.875 C 886.058594 642.15625 886.058594 637.753906 888.777344 635.035156 C 891.496094 632.3125 895.898438 632.3125 898.617188 635.035156 L 906.347656 642.761719 L 924.613281 624.492188 C 925.972656 623.132812 927.761719 622.449219 929.539062 622.449219 Z M 929.539062 622.449219 " fill-opacity="1" fill-rule="nonzero"/></g></svg>