<svg xmlns="http://www.w3.org/2000/svg" xmlns:xlink="http://www.w3.org/1999/xlink" width="1920" zoomAndPan="magnify" viewBox="0 0 1440 809.999993" height="1080" preserveAspectRatio="xMidYMid meet" version="1.0"><defs><clipPath id="id1"><path d="M 401.4375 86.4375 L 1038.9375 86.4375 L 1038.9375 723.9375 L 401.4375 723.9375 Z M 401.4375 86.4375 " clip-rule="nonzero"/></clipPath><clipPath id="id2"><path d="M 877.304688 560 L 912 560 L 912 664 L 877.304688 664 Z M 877.304688 560 " clip-rule="nonzero"/></clipPath><clipPath id="id3"><path d="M 1004 560 L 1038.554688 560 L 1038.554688 664 L 1004 664 Z M 1004 560 " clip-rule="nonzero"/></clipPath><clipPath id="id4"><path d="M 939 593 L 980 593 L 980 723.679688 L 939 723.679688 Z M 939 593 " clip-rule="nonzero"/></clipPath></defs><g clip-path="url(#id1)"><path fill="rgb(0%, 24.308777%, 32.159424%)" d="M 720.1875 86.4375 C 544.148438 86.4375 401.4375 229.148438 401.4375 405.1875 C 401.4375 581.226562 544.148438 723.9375 720.1875 723.9375 C 896.226562 723.9375 1038.9375 581.226562 1038.9375 405.1875 C 1038.9375 229.148438 896.226562 86.4375 720.1875 86.4375 Z M 437.738281 422.894531 L 508.269531 422.894531 C 509.902344 467.273438 517.515625 509.152344 530.035156 546.855469 L 475.066406 546.855469 C 453.695312 509.96875 440.535156 467.890625 437.738281 422.894531 Z M 737.894531 228.105469 L 737.894531 123.289062 C 786.539062 131.007812 829.304688 170.304688 858.292969 228.105469 Z M 873.382812 263.519531 C 886.734375 300.40625 894.96875 342.5 896.703125 387.480469 L 737.894531 387.480469 L 737.894531 263.519531 Z M 702.480469 123.289062 L 702.480469 228.105469 L 582.078125 228.105469 C 611.050781 170.304688 653.832031 131.007812 702.480469 123.289062 Z M 702.480469 263.519531 L 702.480469 387.480469 L 543.671875 387.480469 C 545.40625 342.5 553.640625 300.40625 566.992188 263.519531 Z M 508.289062 387.480469 L 437.738281 387.480469 C 440.535156 342.5 453.695312 300.40625 475.050781 263.519531 L 530.015625 263.519531 C 517.53125 301.222656 509.917969 343.121094 508.289062 387.480469 Z M 543.671875 422.894531 L 702.480469 422.894531 L 702.480469 546.855469 L 566.992188 546.855469 C 553.640625 509.96875 545.40625 467.890625 543.671875 422.894531 Z M 702.480469 582.269531 L 702.480469 687.085938 C 653.832031 679.347656 611.050781 640.070312 582.078125 582.269531 Z M 737.894531 687.085938 L 737.894531 582.269531 L 858.3125 582.269531 C 829.324219 640.070312 786.539062 679.347656 737.894531 687.085938 Z M 737.894531 546.855469 L 737.894531 422.894531 L 896.722656 422.894531 C 894.96875 467.890625 886.75 509.96875 873.398438 546.855469 Z M 932.101562 422.894531 L 1002.617188 422.894531 C 999.835938 467.890625 986.679688 509.96875 965.304688 546.855469 L 910.339844 546.855469 C 922.839844 509.152344 930.457031 467.273438 932.101562 422.894531 Z M 932.101562 387.480469 C 930.457031 343.121094 922.839844 301.222656 910.339844 263.519531 L 965.304688 263.519531 C 986.679688 300.40625 999.835938 342.5 1002.617188 387.480469 Z M 941.167969 228.105469 L 896.84375 228.105469 C 884.148438 199.699219 868.40625 174.714844 850.46875 153.746094 C 885.6875 172.019531 916.554688 197.414062 941.167969 228.105469 Z M 589.90625 153.746094 C 571.949219 174.714844 556.207031 199.699219 543.511719 228.105469 L 499.203125 228.105469 C 523.820312 197.414062 554.683594 172.039062 589.90625 153.746094 Z M 499.203125 582.269531 L 543.527344 582.269531 C 556.207031 610.675781 571.949219 635.660156 589.90625 656.609375 C 554.683594 638.335938 523.820312 612.957031 499.203125 582.269531 Z M 850.46875 656.609375 C 868.421875 635.644531 884.148438 610.675781 896.84375 582.269531 L 941.167969 582.269531 C 916.554688 612.957031 885.6875 638.335938 850.46875 656.609375 Z M 850.46875 656.609375 " fill-opacity="1" fill-rule="nonzero"/></g><path fill="rgb(100%, 99.21875%, 97.24884%)" d="M 957.179688 537.964844 C 913.066406 537.964844 877.304688 570.03125 877.304688 609.589844 C 877.304688 649.148438 913.066406 681.214844 957.179688 681.214844 C 1001.292969 681.214844 1037.054688 649.148438 1037.054688 609.589844 C 1037.054688 570.03125 1001.292969 537.964844 957.179688 537.964844 " fill-opacity="1" fill-rule="nonzero"/><path fill="rgb(100%, 51.759338%, 0%)" d="M 927.273438 641 C 918.054688 637.417969 911.617188 625.273438 911.617188 611.46875 C 911.617188 598.957031 916.820312 587.824219 924.871094 583.101562 C 926.65625 582.054688 927.253906 579.761719 926.210938 577.976562 C 925.164062 576.195312 922.871094 575.59375 921.089844 576.640625 C 910.789062 582.679688 904.132812 596.351562 904.132812 611.46875 C 904.132812 628.558594 912.34375 643.230469 924.566406 647.980469 C 925.011719 648.15625 925.472656 648.234375 925.921875 648.234375 C 927.417969 648.234375 928.835938 647.328125 929.410156 645.847656 C 930.15625 643.917969 929.199219 641.75 927.273438 641 Z M 927.273438 641 " fill-opacity="1" fill-rule="nonzero"/><g clip-path="url(#id2)"><path fill="rgb(100%, 51.759338%, 0%)" d="M 909.1875 656.617188 C 894.832031 651.039062 884.804688 632.332031 884.804688 611.121094 C 884.804688 591.9375 892.875 574.808594 905.363281 567.484375 C 907.148438 566.441406 907.746094 564.144531 906.699219 562.363281 C 905.65625 560.578125 903.363281 559.980469 901.582031 561.023438 C 886.84375 569.664062 877.324219 589.332031 877.324219 611.121094 C 877.324219 635.347656 889.3125 656.925781 906.480469 663.597656 C 906.921875 663.769531 907.382812 663.851562 907.832031 663.851562 C 909.332031 663.851562 910.746094 662.945312 911.320312 661.460938 C 912.066406 659.535156 911.113281 657.363281 909.1875 656.617188 Z M 909.1875 656.617188 " fill-opacity="1" fill-rule="nonzero"/></g><path fill="rgb(100%, 51.759338%, 0%)" d="M 994.769531 576.640625 C 992.988281 575.59375 990.695312 576.191406 989.648438 577.976562 C 988.605469 579.761719 989.203125 582.054688 990.988281 583.101562 C 999.039062 587.824219 1004.242188 598.957031 1004.242188 611.46875 C 1004.242188 625.273438 997.804688 637.417969 988.582031 641 C 986.65625 641.75 985.703125 643.917969 986.453125 645.847656 C 987.027344 647.328125 988.441406 648.234375 989.941406 648.234375 C 990.390625 648.234375 990.847656 648.152344 991.292969 647.980469 C 1003.515625 643.230469 1011.726562 628.558594 1011.726562 611.46875 C 1011.726562 596.351562 1005.070312 582.679688 994.769531 576.640625 Z M 994.769531 576.640625 " fill-opacity="1" fill-rule="nonzero"/><g clip-path="url(#id3)"><path fill="rgb(100%, 51.759338%, 0%)" d="M 1014.277344 561.023438 C 1012.496094 559.980469 1010.203125 560.578125 1009.160156 562.363281 C 1008.113281 564.144531 1008.710938 566.441406 1010.496094 567.484375 C 1022.984375 574.808594 1031.054688 591.9375 1031.054688 611.121094 C 1031.054688 632.328125 1021.027344 651.039062 1006.671875 656.617188 C 1004.746094 657.363281 1003.789062 659.535156 1004.539062 661.460938 C 1005.113281 662.945312 1006.527344 663.851562 1008.027344 663.851562 C 1008.476562 663.851562 1008.9375 663.769531 1009.378906 663.597656 C 1026.546875 656.925781 1038.535156 635.347656 1038.535156 611.121094 C 1038.535156 589.332031 1029.015625 569.664062 1014.277344 561.023438 Z M 1014.277344 561.023438 " fill-opacity="1" fill-rule="nonzero"/></g><g clip-path="url(#id4)"><path fill="rgb(100%, 51.759338%, 0%)" d="M 959.445312 593.832031 C 948.289062 593.832031 939.242188 602.886719 939.242188 614.050781 C 939.242188 622.539062 944.472656 629.804688 951.882812 632.800781 L 951.882812 715.773438 C 951.882812 719.945312 955.277344 723.339844 959.445312 723.339844 C 963.617188 723.339844 967.007812 719.945312 967.007812 715.773438 L 967.007812 632.800781 C 974.417969 629.804688 979.648438 622.539062 979.648438 614.050781 C 979.648438 602.886719 970.601562 593.832031 959.445312 593.832031 Z M 959.445312 593.832031 " fill-opacity="1" fill-rule="nonzero"/></g></svg>