<svg xmlns="http://www.w3.org/2000/svg" xmlns:xlink="http://www.w3.org/1999/xlink" width="1920" zoomAndPan="magnify" viewBox="0 0 1440 809.999993" height="1080" preserveAspectRatio="xMidYMid meet" version="1.0"><defs><clipPath id="id1"><path d="M 402.0625 393 L 712 393 L 712 702.515625 L 402.0625 702.515625 Z M 402.0625 393 " clip-rule="nonzero"/></clipPath><clipPath id="id2"><path d="M 648.835938 563.34375 L 809.335938 563.34375 L 809.335938 723.84375 L 648.835938 723.84375 Z M 648.835938 563.34375 " clip-rule="nonzero"/></clipPath></defs><g clip-path="url(#id1)"><path fill="rgb(0%, 24.308777%, 32.159424%)" d="M 555.699219 475.132812 C 551.488281 470.925781 551.488281 464.40625 555.699219 460.199219 C 559.90625 455.992188 566.429688 455.992188 570.640625 460.199219 L 677.761719 567.25 L 695.230469 549.792969 C 716.695312 528.339844 716.695312 493.640625 695.230469 472.1875 L 632.515625 409.515625 C 611.046875 388.0625 576.324219 388.0625 554.855469 409.515625 L 418.058594 546.21875 C 407.746094 556.523438 402.0625 570.40625 402.0625 584.917969 C 402.0625 599.429688 407.746094 613.308594 418.058594 623.613281 L 422.480469 628.03125 L 536.125 514.460938 C 540.335938 510.253906 546.859375 510.253906 551.066406 514.460938 C 555.277344 518.667969 555.277344 525.1875 551.066406 529.394531 L 437.421875 642.964844 L 466.675781 672.195312 L 580.320312 558.628906 C 584.53125 554.421875 591.054688 554.421875 595.261719 558.628906 C 599.472656 562.832031 599.472656 569.351562 595.261719 573.558594 L 481.617188 687.128906 C 492.140625 697.222656 505.820312 702.480469 519.710938 702.480469 C 533.808594 702.480469 547.910156 697.222656 558.433594 686.496094 L 662.820312 582.183594 Z M 555.699219 475.132812 " fill-opacity="1" fill-rule="nonzero"/></g><path fill="rgb(0%, 24.308777%, 32.159424%)" d="M 968.191406 155.246094 L 950.304688 137.367188 C 940.832031 127.902344 926.101562 127.273438 915.789062 135.683594 L 869.699219 173.960938 C 864.226562 178.589844 860.859375 185.320312 860.4375 192.46875 C 860.019531 199.621094 862.753906 206.773438 868.015625 211.820312 L 893.480469 237.265625 C 898.320312 242.105469 904.84375 244.839844 911.578125 244.839844 C 912 244.839844 912.421875 244.839844 912.84375 244.839844 C 920 244.417969 926.734375 241.054688 931.363281 235.585938 L 969.664062 189.527344 C 978.292969 179.640625 977.453125 164.707031 968.191406 155.246094 Z M 968.191406 155.246094 " fill-opacity="1" fill-rule="nonzero"/><path fill="rgb(0%, 24.308777%, 32.159424%)" d="M 997.65625 502.683594 C 969.035156 474.082031 926.523438 463.355469 887.796875 474.921875 L 649.351562 236.636719 C 660.925781 197.9375 650.191406 155.664062 621.570312 126.851562 C 590.632812 95.9375 544.332031 86.050781 503.503906 101.824219 C 500.136719 103.085938 497.820312 106.03125 496.980469 109.394531 C 496.136719 112.761719 497.402344 116.546875 499.925781 119.070312 L 547.910156 167.023438 L 534.863281 197.519531 L 504.347656 210.558594 L 456.78125 163.027344 C 454.257812 160.503906 450.679688 159.449219 447.101562 160.292969 C 443.523438 161.132812 440.789062 163.65625 439.527344 167.023438 C 424.792969 207.402344 434.894531 253.039062 465.203125 283.324219 C 493.824219 311.929688 536.335938 322.65625 575.058594 311.085938 L 813.507812 549.375 C 801.933594 588.070312 812.664062 630.34375 841.289062 659.15625 C 862.332031 680.1875 890.746094 691.546875 919.578125 691.546875 C 933.046875 691.546875 946.515625 689.023438 959.355469 684.183594 C 962.722656 682.921875 965.035156 679.976562 965.878906 676.613281 C 966.71875 673.039062 965.457031 669.460938 962.929688 666.9375 L 914.945312 618.988281 L 927.996094 588.492188 L 958.511719 575.453125 L 1006.074219 622.984375 C 1008.601562 625.507812 1012.179688 626.558594 1015.757812 625.71875 C 1019.332031 624.875 1022.070312 622.351562 1023.332031 618.988281 C 1038.0625 578.605469 1027.960938 532.96875 997.65625 502.683594 Z M 817.925781 479.339844 C 815.820312 481.441406 813.085938 482.492188 810.5625 482.492188 C 808.035156 482.492188 805.089844 481.441406 803.195312 479.339844 L 640.933594 317.1875 C 636.722656 312.980469 636.722656 306.460938 640.933594 302.253906 C 645.140625 298.046875 651.664062 298.046875 655.875 302.253906 L 818.136719 464.40625 C 821.925781 468.613281 821.925781 475.132812 817.925781 479.339844 Z M 817.925781 479.339844 " fill-opacity="1" fill-rule="nonzero"/><path fill="rgb(0%, 24.308777%, 32.159424%)" d="M 751.445312 338.578125 L 873.023438 217.078125 L 887.90625 231.949219 L 766.324219 353.449219 Z M 751.445312 338.578125 " fill-opacity="1" fill-rule="nonzero"/><path fill="rgb(0%, 24.308777%, 32.159424%)" d="M 656.507812 433.59375 L 677.191406 412.921875 L 692.074219 427.792969 L 671.386719 448.464844 Z M 656.507812 433.59375 " fill-opacity="1" fill-rule="nonzero"/><g clip-path="url(#id2)"><path fill="rgb(100%, 51.759338%, 0%)" d="M 729.085938 563.34375 C 684.835938 563.34375 648.835938 599.34375 648.835938 643.59375 C 648.835938 687.84375 684.835938 723.84375 729.085938 723.84375 C 773.335938 723.84375 809.335938 687.84375 809.335938 643.59375 C 809.335938 599.34375 773.335938 563.34375 729.085938 563.34375 Z M 729.085938 683.71875 L 696.984375 651.617188 L 721.058594 651.617188 L 721.058594 603.46875 L 737.109375 603.46875 L 737.109375 651.617188 L 761.183594 651.617188 Z M 729.085938 683.71875 " fill-opacity="1" fill-rule="nonzero"/></g></svg>