<svg xmlns="http://www.w3.org/2000/svg" xmlns:xlink="http://www.w3.org/1999/xlink" width="1920" zoomAndPan="magnify" viewBox="0 0 1440 809.999993" height="1080" preserveAspectRatio="xMidYMid meet" version="1.0"><defs><clipPath id="18f9e84274"><path d="M 561 85.320312 L 582 85.320312 L 582 220 L 561 220 Z M 561 85.320312 " clip-rule="nonzero"/></clipPath><clipPath id="7e06bfda09"><path d="M 660 85.320312 L 681 85.320312 L 681 220 L 660 220 Z M 660 85.320312 " clip-rule="nonzero"/></clipPath><clipPath id="92e5decb73"><path d="M 759 85.320312 L 780 85.320312 L 780 220 L 759 220 Z M 759 85.320312 " clip-rule="nonzero"/></clipPath><clipPath id="82837c58fb"><path d="M 858 85.320312 L 879 85.320312 L 879 220 L 858 220 Z M 858 85.320312 " clip-rule="nonzero"/></clipPath><clipPath id="1c454e0136"><path d="M 905.101562 246.640625 L 1039.707031 246.640625 L 1039.707031 267 L 905.101562 267 Z M 905.101562 246.640625 " clip-rule="nonzero"/></clipPath><clipPath id="57eecd9810"><path d="M 905.101562 345.515625 L 1039.707031 345.515625 L 1039.707031 366 L 905.101562 366 Z M 905.101562 345.515625 " clip-rule="nonzero"/></clipPath><clipPath id="8c29a417c0"><path d="M 905.101562 444.390625 L 1039.707031 444.390625 L 1039.707031 465 L 905.101562 465 Z M 905.101562 444.390625 " clip-rule="nonzero"/></clipPath><clipPath id="5252013146"><path d="M 905.101562 543 L 1039.707031 543 L 1039.707031 564 L 905.101562 564 Z M 905.101562 543 " clip-rule="nonzero"/></clipPath><clipPath id="61bd1a8fff"><path d="M 400.320312 246 L 535 246 L 535 267 L 400.320312 267 Z M 400.320312 246 " clip-rule="nonzero"/></clipPath><clipPath id="a99d0168c2"><path d="M 400.320312 345 L 535 345 L 535 366 L 400.320312 366 Z M 400.320312 345 " clip-rule="nonzero"/></clipPath><clipPath id="84a485ee44"><path d="M 400.320312 444 L 535 444 L 535 465 L 400.320312 465 Z M 400.320312 444 " clip-rule="nonzero"/></clipPath><clipPath id="ca8c544efe"><path d="M 400.320312 543 L 535 543 L 535 564 L 400.320312 564 Z M 400.320312 543 " clip-rule="nonzero"/></clipPath><clipPath id="14533bee7b"><path d="M 561.640625 590.101562 L 582 590.101562 L 582 724.707031 L 561.640625 724.707031 Z M 561.640625 590.101562 " clip-rule="nonzero"/></clipPath><clipPath id="c558a53397"><path d="M 660.515625 590.101562 L 681 590.101562 L 681 724.707031 L 660.515625 724.707031 Z M 660.515625 590.101562 " clip-rule="nonzero"/></clipPath><clipPath id="771fd11b96"><path d="M 759.390625 590.101562 L 780 590.101562 L 780 724.707031 L 759.390625 724.707031 Z M 759.390625 590.101562 " clip-rule="nonzero"/></clipPath><clipPath id="f6b4cd29b5"><path d="M 858 590.101562 L 879 590.101562 L 879 724.707031 L 858 724.707031 Z M 858 590.101562 " clip-rule="nonzero"/></clipPath><clipPath id="7c627d6d98"><path d="M 564.210938 248.210938 L 890.617188 248.210938 L 890.617188 562.222656 L 564.210938 562.222656 Z M 564.210938 248.210938 " clip-rule="nonzero"/></clipPath></defs><path fill="#ffffff" d="M 915.414062 610.402344 L 524.683594 610.402344 C 519.167969 610.402344 514.691406 605.929688 514.691406 600.414062 L 514.691406 209.683594 C 514.691406 204.167969 519.167969 199.691406 524.683594 199.691406 L 915.414062 199.691406 C 920.929688 199.691406 925.402344 204.167969 925.402344 209.683594 L 925.402344 600.414062 C 925.402344 605.929688 920.929688 610.402344 915.414062 610.402344 Z M 534.679688 590.417969 L 905.417969 590.417969 L 905.417969 219.671875 L 534.679688 219.671875 L 534.679688 590.417969 " fill-opacity="1" fill-rule="evenodd"/><path fill="#ffffff" d="M 837.714844 532.699219 L 602.382812 532.699219 C 596.867188 532.699219 592.398438 528.230469 592.398438 522.714844 L 592.398438 287.382812 C 592.398438 281.867188 596.867188 277.394531 602.382812 277.394531 L 837.714844 277.394531 C 843.230469 277.394531 847.699219 281.867188 847.699219 287.382812 L 847.699219 522.714844 C 847.699219 528.230469 843.230469 532.699219 837.714844 532.699219 Z M 612.371094 512.71875 L 827.71875 512.71875 L 827.71875 297.378906 L 612.371094 297.378906 L 612.371094 512.71875 " fill-opacity="1" fill-rule="evenodd"/><g clip-path="url(#18f9e84274)"><path fill="#ffffff" d="M 571.980469 219.679688 C 566.457031 219.679688 561.984375 215.207031 561.984375 209.683594 L 561.984375 95.3125 C 561.984375 89.789062 566.457031 85.320312 571.980469 85.320312 C 577.496094 85.320312 581.96875 89.789062 581.96875 95.3125 L 581.96875 209.683594 C 581.96875 215.207031 577.496094 219.679688 571.980469 219.679688 " fill-opacity="1" fill-rule="evenodd"/></g><g clip-path="url(#7e06bfda09)"><path fill="#ffffff" d="M 670.691406 219.679688 C 665.171875 219.679688 660.699219 215.207031 660.699219 209.683594 L 660.699219 95.3125 C 660.699219 89.789062 665.171875 85.320312 670.691406 85.320312 C 676.207031 85.320312 680.6875 89.789062 680.6875 95.3125 L 680.6875 209.683594 C 680.6875 215.207031 676.207031 219.679688 670.691406 219.679688 " fill-opacity="1" fill-rule="evenodd"/></g><g clip-path="url(#92e5decb73)"><path fill="#ffffff" d="M 769.40625 219.679688 C 763.890625 219.679688 759.417969 215.207031 759.417969 209.683594 L 759.417969 95.3125 C 759.417969 89.789062 763.890625 85.320312 769.40625 85.320312 C 774.921875 85.320312 779.398438 89.789062 779.398438 95.3125 L 779.398438 209.683594 C 779.398438 215.207031 774.921875 219.679688 769.40625 219.679688 " fill-opacity="1" fill-rule="evenodd"/></g><g clip-path="url(#82837c58fb)"><path fill="#ffffff" d="M 868.117188 219.679688 C 862.601562 219.679688 858.128906 215.207031 858.128906 209.683594 L 858.128906 95.3125 C 858.128906 89.789062 862.601562 85.320312 868.117188 85.320312 C 873.640625 85.320312 878.109375 89.789062 878.109375 95.3125 L 878.109375 209.683594 C 878.109375 215.207031 873.640625 219.679688 868.117188 219.679688 " fill-opacity="1" fill-rule="evenodd"/></g><g clip-path="url(#1c454e0136)"><path fill="#ffffff" d="M 1029.785156 266.96875 L 915.414062 266.96875 C 909.890625 266.96875 905.417969 262.496094 905.417969 256.980469 C 905.417969 251.457031 909.890625 246.984375 915.414062 246.984375 L 1029.785156 246.984375 C 1035.304688 246.984375 1039.777344 251.457031 1039.777344 256.980469 C 1039.777344 262.496094 1035.304688 266.96875 1029.785156 266.96875 " fill-opacity="1" fill-rule="evenodd"/></g><g clip-path="url(#57eecd9810)"><path fill="#ffffff" d="M 1029.785156 365.679688 L 915.414062 365.679688 C 909.890625 365.679688 905.417969 361.207031 905.417969 355.691406 C 905.417969 350.171875 909.890625 345.699219 915.414062 345.699219 L 1029.785156 345.699219 C 1035.304688 345.699219 1039.777344 350.171875 1039.777344 355.691406 C 1039.777344 361.207031 1035.304688 365.679688 1029.785156 365.679688 " fill-opacity="1" fill-rule="evenodd"/></g><g clip-path="url(#8c29a417c0)"><path fill="#ffffff" d="M 1029.785156 464.390625 L 915.414062 464.390625 C 909.890625 464.390625 905.417969 459.921875 905.417969 454.40625 C 905.417969 448.890625 909.890625 444.410156 915.414062 444.410156 L 1029.785156 444.410156 C 1035.304688 444.410156 1039.777344 448.890625 1039.777344 454.40625 C 1039.777344 459.921875 1035.304688 464.390625 1029.785156 464.390625 " fill-opacity="1" fill-rule="evenodd"/></g><g clip-path="url(#5252013146)"><path fill="#ffffff" d="M 1029.785156 563.109375 L 915.414062 563.109375 C 909.890625 563.109375 905.417969 558.640625 905.417969 553.117188 C 905.417969 547.601562 909.890625 543.128906 915.414062 543.128906 L 1029.785156 543.128906 C 1035.304688 543.128906 1039.777344 547.601562 1039.777344 553.117188 C 1039.777344 558.640625 1035.304688 563.109375 1029.785156 563.109375 " fill-opacity="1" fill-rule="evenodd"/></g><g clip-path="url(#61bd1a8fff)"><path fill="#ffffff" d="M 524.683594 266.96875 L 410.3125 266.96875 C 404.789062 266.96875 400.320312 262.496094 400.320312 256.980469 C 400.320312 251.457031 404.789062 246.984375 410.3125 246.984375 L 524.683594 246.984375 C 530.199219 246.984375 534.679688 251.457031 534.679688 256.980469 C 534.679688 262.496094 530.199219 266.96875 524.683594 266.96875 " fill-opacity="1" fill-rule="evenodd"/></g><g clip-path="url(#a99d0168c2)"><path fill="#ffffff" d="M 524.683594 365.679688 L 410.3125 365.679688 C 404.789062 365.679688 400.320312 361.207031 400.320312 355.691406 C 400.320312 350.171875 404.789062 345.699219 410.3125 345.699219 L 524.683594 345.699219 C 530.199219 345.699219 534.679688 350.171875 534.679688 355.691406 C 534.679688 361.207031 530.199219 365.679688 524.683594 365.679688 " fill-opacity="1" fill-rule="evenodd"/></g><g clip-path="url(#84a485ee44)"><path fill="#ffffff" d="M 524.683594 464.390625 L 410.3125 464.390625 C 404.789062 464.390625 400.320312 459.921875 400.320312 454.40625 C 400.320312 448.890625 404.789062 444.410156 410.3125 444.410156 L 524.683594 444.410156 C 530.199219 444.410156 534.679688 448.890625 534.679688 454.40625 C 534.679688 459.921875 530.199219 464.390625 524.683594 464.390625 " fill-opacity="1" fill-rule="evenodd"/></g><g clip-path="url(#ca8c544efe)"><path fill="#ffffff" d="M 524.683594 563.109375 L 410.3125 563.109375 C 404.789062 563.109375 400.320312 558.640625 400.320312 553.117188 C 400.320312 547.601562 404.789062 543.128906 410.3125 543.128906 L 524.683594 543.128906 C 530.199219 543.128906 534.679688 547.601562 534.679688 553.117188 C 534.679688 558.640625 530.199219 563.109375 524.683594 563.109375 " fill-opacity="1" fill-rule="evenodd"/></g><g clip-path="url(#14533bee7b)"><path fill="#ffffff" d="M 571.980469 724.777344 C 566.457031 724.777344 561.984375 720.304688 561.984375 714.785156 L 561.984375 600.414062 C 561.984375 594.890625 566.457031 590.417969 571.980469 590.417969 C 577.496094 590.417969 581.96875 594.890625 581.96875 600.414062 L 581.96875 714.785156 C 581.96875 720.304688 577.496094 724.777344 571.980469 724.777344 " fill-opacity="1" fill-rule="evenodd"/></g><g clip-path="url(#c558a53397)"><path fill="#ffffff" d="M 670.691406 724.777344 C 665.171875 724.777344 660.699219 720.304688 660.699219 714.785156 L 660.699219 600.414062 C 660.699219 594.890625 665.171875 590.417969 670.691406 590.417969 C 676.207031 590.417969 680.6875 594.890625 680.6875 600.414062 L 680.6875 714.785156 C 680.6875 720.304688 676.207031 724.777344 670.691406 724.777344 " fill-opacity="1" fill-rule="evenodd"/></g><g clip-path="url(#771fd11b96)"><path fill="#ffffff" d="M 769.40625 724.777344 C 763.890625 724.777344 759.417969 720.304688 759.417969 714.785156 L 759.417969 600.414062 C 759.417969 594.890625 763.890625 590.417969 769.40625 590.417969 C 774.921875 590.417969 779.398438 594.890625 779.398438 600.414062 L 779.398438 714.785156 C 779.398438 720.304688 774.921875 724.777344 769.40625 724.777344 " fill-opacity="1" fill-rule="evenodd"/></g><g clip-path="url(#f6b4cd29b5)"><path fill="#ffffff" d="M 868.117188 724.777344 C 862.601562 724.777344 858.128906 720.304688 858.128906 714.785156 L 858.128906 600.414062 C 858.128906 594.890625 862.601562 590.417969 868.117188 590.417969 C 873.640625 590.417969 878.109375 594.890625 878.109375 600.414062 L 878.109375 714.785156 C 878.109375 720.304688 873.640625 724.777344 868.117188 724.777344 " fill-opacity="1" fill-rule="evenodd"/></g><g clip-path="url(#7c627d6d98)"><path fill="#ff8400" d="M 915.304688 609.738281 L 524.578125 609.738281 C 519.0625 609.738281 514.582031 605.265625 514.582031 599.75 L 514.582031 209.023438 C 514.582031 203.507812 519.0625 199.027344 524.578125 199.027344 L 915.304688 199.027344 C 920.820312 199.027344 925.292969 203.507812 925.292969 209.023438 L 925.292969 599.75 C 925.292969 605.265625 920.820312 609.738281 915.304688 609.738281 Z M 534.570312 589.753906 L 905.308594 589.753906 L 905.308594 219.007812 L 534.570312 219.007812 L 534.570312 589.753906 " fill-opacity="1" fill-rule="evenodd"/></g><path fill="#ff8400" d="M 837.605469 532.039062 L 602.277344 532.039062 C 596.761719 532.039062 592.289062 527.566406 592.289062 522.050781 L 592.289062 286.722656 C 592.289062 281.207031 596.761719 276.734375 602.277344 276.734375 L 837.605469 276.734375 C 843.121094 276.734375 847.59375 281.207031 847.59375 286.722656 L 847.59375 522.050781 C 847.59375 527.566406 843.121094 532.039062 837.605469 532.039062 Z M 612.265625 512.054688 L 827.609375 512.054688 L 827.609375 296.714844 L 612.265625 296.714844 L 612.265625 512.054688 " fill-opacity="1" fill-rule="evenodd"/></svg>