<svg xmlns="http://www.w3.org/2000/svg" xmlns:xlink="http://www.w3.org/1999/xlink" width="1920" zoomAndPan="magnify" viewBox="0 0 1440 809.999993" height="1080" preserveAspectRatio="xMidYMid meet" version="1.0"><defs><clipPath id="62b7bd2c33"><path d="M 353 144.078125 L 1093.003906 144.078125 L 1093.003906 665.921875 L 353 665.921875 Z M 353 144.078125 " clip-rule="nonzero"/></clipPath><clipPath id="ecbdce1e30"><path d="M 651.125 368.964844 L 1093.242188 368.964844 L 1093.242188 665.921875 L 651.125 665.921875 Z M 651.125 368.964844 " clip-rule="nonzero"/></clipPath></defs><g clip-path="url(#62b7bd2c33)"><path fill="#ffffff" d="M 956.773438 370.226562 C 909.15625 289.839844 820.074219 237.148438 715.167969 237.148438 C 521.285156 237.148438 383.125 441.125 469.601562 622.644531 L 386.660156 665.859375 C 256.871094 323.582031 533.050781 144.078125 726.949219 144.078125 C 846.753906 144.078125 989.027344 220.566406 1052 354.84375 Z M 990.5625 464.875 C 997.980469 512.714844 993.082031 565.144531 972.746094 619.171875 L 1054.027344 665.859375 C 1087.480469 576.015625 1091.765625 495.660156 1076.421875 426.570312 Z M 1087.941406 377.78125 C 1088.484375 377.699219 1089.019531 377.714844 1089.558594 377.824219 C 1090.09375 377.929688 1090.59375 378.128906 1091.058594 378.410156 C 1091.527344 378.695312 1091.933594 379.050781 1092.273438 379.476562 C 1092.617188 379.902344 1092.878906 380.371094 1093.054688 380.890625 C 1093.234375 381.40625 1093.316406 381.9375 1093.308594 382.484375 C 1093.300781 383.03125 1093.199219 383.558594 1093.007812 384.070312 C 1092.8125 384.578125 1092.539062 385.042969 1092.183594 385.457031 C 1091.828125 385.871094 1091.414062 386.214844 1090.9375 386.484375 C 1014.230469 430.394531 757.375 576.324219 730.21875 577.105469 C 729.015625 577.136719 727.808594 577.132812 726.605469 577.105469 C 725.398438 577.074219 724.195312 577.015625 722.992188 576.925781 C 721.789062 576.835938 720.589844 576.71875 719.394531 576.570312 C 718.199219 576.425781 717.003906 576.246094 715.816406 576.042969 C 714.628906 575.835938 713.445312 575.601562 712.269531 575.335938 C 711.09375 575.074219 709.925781 574.78125 708.761719 574.460938 C 707.601562 574.136719 706.449219 573.789062 705.300781 573.410156 C 704.15625 573.035156 703.023438 572.628906 701.898438 572.195312 C 700.773438 571.761719 699.65625 571.300781 698.554688 570.816406 C 697.453125 570.328125 696.363281 569.8125 695.285156 569.273438 C 694.207031 568.730469 693.144531 568.164062 692.09375 567.570312 C 691.046875 566.976562 690.011719 566.359375 688.992188 565.714844 C 687.972656 565.074219 686.96875 564.40625 685.980469 563.710938 C 684.996094 563.019531 684.027344 562.304688 683.074219 561.5625 C 682.125 560.824219 681.191406 560.058594 680.277344 559.273438 C 679.363281 558.488281 678.46875 557.679688 677.59375 556.851562 C 676.71875 556.023438 675.863281 555.171875 675.03125 554.300781 C 674.199219 553.429688 673.386719 552.539062 672.597656 551.628906 C 671.808594 550.714844 671.042969 549.785156 670.296875 548.835938 C 669.554688 547.890625 668.835938 546.921875 668.136719 545.941406 C 667.441406 544.957031 666.769531 543.957031 666.121094 542.9375 C 665.472656 541.921875 664.851562 540.890625 664.253906 539.84375 C 663.660156 538.796875 663.085938 537.734375 662.542969 536.660156 C 661.996094 535.585938 661.480469 534.496094 660.988281 533.398438 C 660.496094 532.296875 660.03125 531.183594 659.59375 530.0625 C 659.15625 528.9375 658.746094 527.804688 658.367188 526.664062 C 657.984375 525.519531 657.628906 524.367188 657.304688 523.207031 C 656.980469 522.046875 656.683594 520.878906 656.414062 519.703125 C 656.144531 518.527344 655.90625 517.347656 655.695312 516.160156 C 655.488281 514.976562 655.304688 513.785156 655.152344 512.589844 C 655 511.394531 654.878906 510.195312 654.785156 508.992188 C 654.691406 507.792969 654.628906 506.589844 654.59375 505.382812 C 654.558594 504.179688 654.554688 502.972656 654.578125 501.769531 C 654.605469 500.5625 654.660156 499.359375 654.742188 498.160156 C 654.824219 496.957031 654.9375 495.757812 655.082031 494.558594 C 655.222656 493.363281 655.394531 492.171875 655.597656 490.980469 C 655.796875 489.792969 656.027344 488.609375 656.285156 487.433594 C 656.542969 486.257812 656.832031 485.085938 657.148438 483.925781 C 657.464844 482.761719 657.808594 481.605469 658.179688 480.460938 C 658.550781 479.3125 658.953125 478.175781 659.382812 477.050781 C 659.808594 475.925781 660.265625 474.808594 660.746094 473.703125 C 661.230469 472.601562 661.742188 471.507812 662.277344 470.429688 C 662.8125 469.351562 663.375 468.285156 663.964844 467.234375 C 664.550781 466.179688 665.167969 465.144531 665.804688 464.121094 C 666.445312 463.101562 667.109375 462.09375 667.796875 461.105469 C 668.484375 460.117188 669.199219 459.144531 669.933594 458.191406 C 670.671875 457.234375 671.429688 456.300781 672.210938 455.382812 C 672.992188 454.464844 673.796875 453.566406 674.625 452.691406 C 675.449219 451.8125 676.296875 450.953125 677.164062 450.117188 C 678.03125 449.28125 678.921875 448.46875 679.828125 447.671875 C 680.734375 446.878906 681.664062 446.109375 682.609375 445.363281 C 683.554688 444.613281 684.515625 443.890625 685.5 443.191406 C 686.480469 442.488281 687.476562 441.8125 688.492188 441.160156 C 689.503906 440.511719 690.535156 439.882812 691.578125 439.28125 C 692.625 438.679688 693.683594 438.105469 694.757812 437.554688 C 695.828125 437.007812 696.914062 436.484375 698.015625 435.988281 C 699.113281 435.492188 700.222656 435.023438 701.34375 434.578125 C 702.464844 434.136719 703.597656 433.722656 704.738281 433.335938 C 705.882812 432.949219 707.03125 432.589844 708.191406 432.261719 C 709.351562 431.929688 710.519531 431.628906 711.691406 431.355469 C 712.867188 431.082031 714.046875 430.839844 715.234375 430.621094 C 716.417969 430.40625 717.609375 430.222656 718.804688 430.0625 C 720 429.90625 721.199219 429.777344 722.402344 429.679688 C 723.601562 429.582031 724.804688 429.511719 726.011719 429.472656 C 742.371094 429.011719 1005.570312 390.03125 1088.050781 377.78125 Z M 1087.941406 377.78125 " fill-opacity="1" fill-rule="nonzero"/></g><g clip-path="url(#ecbdce1e30)"><path fill="#ff8400" d="M 956.773438 370.226562 C 909.15625 289.839844 820.074219 237.148438 715.167969 237.148438 C 521.285156 237.148438 383.125 441.125 469.601562 622.644531 L 386.660156 665.859375 C 256.871094 323.582031 533.050781 144.078125 726.949219 144.078125 C 846.753906 144.078125 989.027344 220.566406 1052 354.84375 Z M 990.5625 464.875 C 997.980469 512.714844 993.082031 565.144531 972.746094 619.171875 L 1054.027344 665.859375 C 1087.480469 576.015625 1091.765625 495.660156 1076.421875 426.570312 Z M 1087.941406 377.78125 C 1088.484375 377.699219 1089.019531 377.714844 1089.558594 377.824219 C 1090.09375 377.929688 1090.59375 378.128906 1091.058594 378.410156 C 1091.527344 378.695312 1091.933594 379.050781 1092.273438 379.476562 C 1092.617188 379.902344 1092.878906 380.371094 1093.054688 380.890625 C 1093.234375 381.40625 1093.316406 381.9375 1093.308594 382.484375 C 1093.300781 383.03125 1093.199219 383.558594 1093.007812 384.070312 C 1092.8125 384.578125 1092.539062 385.042969 1092.183594 385.457031 C 1091.828125 385.871094 1091.414062 386.214844 1090.9375 386.484375 C 1014.230469 430.394531 757.375 576.324219 730.21875 577.105469 C 729.015625 577.136719 727.808594 577.132812 726.605469 577.105469 C 725.398438 577.074219 724.195312 577.015625 722.992188 576.925781 C 721.789062 576.835938 720.589844 576.71875 719.394531 576.570312 C 718.199219 576.421875 717.003906 576.246094 715.816406 576.042969 C 714.628906 575.835938 713.445312 575.601562 712.269531 575.335938 C 711.09375 575.074219 709.925781 574.78125 708.761719 574.460938 C 707.601562 574.136719 706.449219 573.789062 705.300781 573.410156 C 704.15625 573.035156 703.023438 572.628906 701.898438 572.195312 C 700.773438 571.761719 699.65625 571.300781 698.554688 570.816406 C 697.453125 570.328125 696.363281 569.8125 695.285156 569.273438 C 694.207031 568.730469 693.144531 568.164062 692.09375 567.570312 C 691.046875 566.976562 690.011719 566.359375 688.992188 565.714844 C 687.972656 565.074219 686.96875 564.40625 685.980469 563.710938 C 684.996094 563.019531 684.027344 562.304688 683.074219 561.5625 C 682.125 560.824219 681.191406 560.058594 680.277344 559.273438 C 679.363281 558.488281 678.46875 557.679688 677.59375 556.851562 C 676.71875 556.023438 675.863281 555.171875 675.03125 554.300781 C 674.199219 553.429688 673.386719 552.539062 672.597656 551.628906 C 671.808594 550.714844 671.042969 549.785156 670.296875 548.835938 C 669.554688 547.890625 668.835938 546.921875 668.136719 545.941406 C 667.441406 544.957031 666.769531 543.957031 666.121094 542.9375 C 665.472656 541.921875 664.851562 540.890625 664.253906 539.84375 C 663.660156 538.796875 663.085938 537.734375 662.542969 536.660156 C 661.996094 535.585938 661.480469 534.496094 660.988281 533.398438 C 660.496094 532.296875 660.03125 531.183594 659.59375 530.0625 C 659.15625 528.9375 658.746094 527.804688 658.367188 526.664062 C 657.984375 525.519531 657.628906 524.367188 657.304688 523.207031 C 656.980469 522.046875 656.683594 520.878906 656.414062 519.703125 C 656.144531 518.527344 655.90625 517.347656 655.695312 516.160156 C 655.488281 514.976562 655.304688 513.785156 655.152344 512.589844 C 655 511.394531 654.878906 510.195312 654.785156 508.992188 C 654.691406 507.792969 654.628906 506.589844 654.59375 505.382812 C 654.558594 504.179688 654.554688 502.972656 654.578125 501.769531 C 654.605469 500.5625 654.660156 499.359375 654.742188 498.160156 C 654.824219 496.957031 654.9375 495.757812 655.082031 494.558594 C 655.222656 493.363281 655.394531 492.171875 655.597656 490.980469 C 655.796875 489.792969 656.027344 488.609375 656.285156 487.433594 C 656.542969 486.257812 656.832031 485.085938 657.148438 483.925781 C 657.464844 482.761719 657.808594 481.605469 658.179688 480.460938 C 658.550781 479.3125 658.953125 478.175781 659.382812 477.050781 C 659.808594 475.925781 660.265625 474.808594 660.746094 473.703125 C 661.230469 472.601562 661.742188 471.507812 662.277344 470.429688 C 662.8125 469.351562 663.375 468.285156 663.964844 467.234375 C 664.550781 466.179688 665.167969 465.144531 665.804688 464.121094 C 666.445312 463.101562 667.109375 462.09375 667.796875 461.105469 C 668.484375 460.117188 669.199219 459.144531 669.933594 458.191406 C 670.671875 457.234375 671.429688 456.300781 672.210938 455.382812 C 672.992188 454.464844 673.796875 453.566406 674.625 452.691406 C 675.449219 451.8125 676.296875 450.953125 677.164062 450.117188 C 678.03125 449.28125 678.921875 448.464844 679.828125 447.671875 C 680.734375 446.878906 681.664062 446.109375 682.609375 445.363281 C 683.554688 444.613281 684.515625 443.890625 685.5 443.191406 C 686.480469 442.488281 687.476562 441.8125 688.492188 441.160156 C 689.503906 440.511719 690.535156 439.882812 691.578125 439.28125 C 692.625 438.679688 693.683594 438.105469 694.757812 437.554688 C 695.828125 437.007812 696.914062 436.484375 698.015625 435.988281 C 699.113281 435.492188 700.222656 435.023438 701.34375 434.578125 C 702.464844 434.136719 703.597656 433.722656 704.738281 433.335938 C 705.882812 432.949219 707.03125 432.589844 708.191406 432.261719 C 709.351562 431.929688 710.519531 431.628906 711.691406 431.355469 C 712.867188 431.082031 714.046875 430.839844 715.234375 430.621094 C 716.417969 430.40625 717.609375 430.222656 718.804688 430.0625 C 720 429.90625 721.199219 429.777344 722.402344 429.679688 C 723.601562 429.582031 724.804688 429.511719 726.011719 429.472656 C 742.371094 429.011719 1005.570312 390.03125 1088.050781 377.78125 Z M 1087.941406 377.78125 " fill-opacity="1" fill-rule="nonzero"/></g></svg>