<svg xmlns="http://www.w3.org/2000/svg" xmlns:xlink="http://www.w3.org/1999/xlink" width="1920" zoomAndPan="magnify" viewBox="0 0 1440 809.999993" height="1080" preserveAspectRatio="xMidYMid meet" version="1.0"><defs><clipPath id="ea202c57ba"><path d="M 525.691406 85.449219 L 910.554688 85.449219 L 910.554688 711.417969 L 525.691406 711.417969 Z M 525.691406 85.449219 " clip-rule="nonzero"/></clipPath><clipPath id="beced0b573"><path d="M 525.691406 85.449219 L 910.554688 85.449219 L 910.554688 711.417969 L 525.691406 711.417969 Z M 525.691406 85.449219 " clip-rule="nonzero"/></clipPath><clipPath id="ac4520149d"><path d="M 525.691406 96.171875 L 914.355469 96.171875 L 914.355469 724.421875 L 525.691406 724.421875 Z M 525.691406 96.171875 " clip-rule="nonzero"/></clipPath><clipPath id="faae3f9edd"><path d="M 525.691406 96.171875 L 914.355469 96.171875 L 914.355469 724.421875 L 525.691406 724.421875 Z M 525.691406 96.171875 " clip-rule="nonzero"/></clipPath></defs><g clip-path="url(#ea202c57ba)"><path fill="#ffffff" d="M 244.867188 470.542969 C 279.757812 704.507812 486.429688 878.726562 725.246094 876.113281 C 795.433594 875.242188 862.601562 859.703125 925.019531 829.761719 L 909.082031 799.152344 C 851.621094 826.617188 790.007812 840.882812 725.917969 841.753906 C 723.707031 841.820312 721.5625 841.820312 719.421875 841.820312 C 483.082031 841.820312 288.195312 659.09375 274.402344 423.121094 C 268.171875 316.753906 299.515625 212.128906 362.800781 128.472656 C 367.222656 122.578125 374.992188 120.164062 381.957031 122.507812 C 388.921875 124.855469 393.609375 131.417969 393.609375 138.785156 L 393.609375 173.082031 L 427.898438 173.082031 L 427.898438 35.902344 L 290.742188 35.902344 L 290.742188 70.199219 L 329.652344 70.199219 C 336.214844 70.199219 342.242188 73.949219 345.121094 79.910156 C 347.933594 85.804688 347.199219 92.902344 343.046875 98.0625 C 259.53125 202.6875 224.640625 335.039062 244.867188 470.542969 " fill-opacity="1" fill-rule="nonzero"/></g><path fill="#ffffff" d="M 786.121094 98.664062 C 787.730469 92.101562 783.242188 89.152344 781.234375 88.214844 C 780.296875 87.8125 778.957031 87.34375 777.484375 87.34375 C 775.40625 87.34375 773.128906 88.148438 771.054688 90.960938 L 532.101562 420.308594 C 529.960938 423.253906 530.964844 426.066406 531.5 427.074219 C 532.238281 428.546875 533.710938 430.289062 536.523438 430.289062 L 696.515625 430.289062 C 701.738281 430.289062 706.761719 432.699219 710.042969 436.917969 C 713.257812 441.070312 714.398438 446.496094 713.125 451.589844 L 652.582031 693.324219 C 650.976562 699.886719 655.464844 702.835938 657.472656 703.773438 C 659.683594 704.777344 664.035156 705.914062 667.652344 701.027344 L 906.601562 371.679688 C 908.746094 368.730469 907.742188 365.917969 907.207031 364.914062 C 906.46875 363.441406 904.996094 361.699219 902.183594 361.699219 L 742.191406 361.699219 C 736.964844 361.699219 731.945312 359.289062 728.660156 355.066406 C 725.449219 350.914062 724.308594 345.488281 725.582031 340.398438 L 786.121094 98.664062 " fill-opacity="1" fill-rule="nonzero"/><g clip-path="url(#beced0b573)"><path fill="#ffffff" d="M 719.351562 -84.128906 C 648.429688 -84.128906 577.242188 -68.117188 513.550781 -37.710938 L 529.691406 -7.367188 C 588.425781 -35.230469 653.988281 -49.832031 719.351562 -49.832031 C 965.136719 -49.832031 1165.109375 150.171875 1165.109375 395.992188 C 1165.109375 493.652344 1134.304688 586.152344 1075.90625 663.515625 C 1071.484375 669.410156 1063.78125 671.820312 1056.816406 669.476562 C 1049.785156 667.132812 1045.097656 660.570312 1045.097656 653.199219 L 1045.097656 618.90625 L 1010.808594 618.90625 L 1010.808594 756.085938 L 1147.964844 756.085938 L 1147.964844 721.789062 L 1109.1875 721.789062 C 1102.625 721.789062 1096.664062 718.039062 1093.785156 712.078125 C 1090.90625 706.183594 1091.710938 699.148438 1095.792969 693.992188 C 1163.570312 608.660156 1199.398438 505.640625 1199.398438 395.992188 C 1199.398438 131.21875 984.089844 -84.128906 719.351562 -84.128906 " fill-opacity="1" fill-rule="nonzero"/></g><g clip-path="url(#ac4520149d)"><path fill="#ff8400" d="M 249.914062 480.636719 C 284.804688 714.605469 491.476562 888.820312 730.292969 886.210938 C 800.480469 885.339844 867.652344 869.796875 930.066406 839.859375 L 914.128906 809.246094 C 856.667969 836.710938 795.054688 850.976562 730.964844 851.847656 C 728.753906 851.914062 726.609375 851.914062 724.46875 851.914062 C 488.128906 851.914062 293.242188 669.191406 279.449219 433.214844 C 273.21875 326.851562 304.5625 222.226562 367.847656 138.566406 C 372.269531 132.671875 380.039062 130.261719 387.003906 132.605469 C 393.96875 134.949219 398.65625 141.511719 398.65625 148.882812 L 398.65625 183.175781 L 432.945312 183.175781 L 432.945312 45.996094 L 295.789062 45.996094 L 295.789062 80.292969 L 334.699219 80.292969 C 341.261719 80.292969 347.289062 84.042969 350.167969 90.003906 C 352.980469 95.898438 352.246094 103 348.09375 108.15625 C 264.582031 212.78125 229.6875 345.136719 249.914062 480.636719 " fill-opacity="1" fill-rule="nonzero"/></g><path fill="#ff8400" d="M 791.171875 108.757812 C 792.777344 102.195312 788.289062 99.246094 786.28125 98.308594 C 785.34375 97.910156 784.003906 97.441406 782.53125 97.441406 C 780.453125 97.441406 778.179688 98.242188 776.101562 101.054688 L 537.152344 430.402344 C 535.007812 433.351562 536.011719 436.164062 536.546875 437.167969 C 537.285156 438.640625 538.757812 440.382812 541.570312 440.382812 L 701.5625 440.382812 C 706.789062 440.382812 711.808594 442.792969 715.089844 447.015625 C 718.304688 451.167969 719.445312 456.59375 718.171875 461.683594 L 657.632812 703.417969 C 656.023438 709.980469 660.511719 712.929688 662.519531 713.867188 C 664.730469 714.871094 669.082031 716.011719 672.699219 711.121094 L 911.648438 381.773438 C 913.792969 378.828125 912.789062 376.015625 912.253906 375.007812 C 911.515625 373.535156 910.042969 371.792969 907.230469 371.792969 L 747.238281 371.792969 C 742.015625 371.792969 736.992188 369.382812 733.710938 365.164062 C 730.496094 361.011719 729.355469 355.585938 730.628906 350.496094 L 791.171875 108.757812 " fill-opacity="1" fill-rule="nonzero"/><g clip-path="url(#faae3f9edd)"><path fill="#ff8400" d="M 724.402344 -74.03125 C 653.480469 -74.03125 582.289062 -58.023438 518.601562 -27.613281 L 534.738281 2.726562 C 593.472656 -25.136719 659.039062 -39.738281 724.402344 -39.738281 C 970.183594 -39.738281 1170.15625 160.269531 1170.15625 406.089844 C 1170.15625 503.746094 1139.351562 596.246094 1080.953125 673.609375 C 1076.53125 679.503906 1068.832031 681.917969 1061.867188 679.574219 C 1054.832031 677.226562 1050.144531 670.664062 1050.144531 663.296875 L 1050.144531 629 L 1015.855469 629 L 1015.855469 766.179688 L 1153.011719 766.179688 L 1153.011719 731.882812 L 1114.238281 731.882812 C 1107.671875 731.882812 1101.714844 728.132812 1098.832031 722.171875 C 1095.953125 716.277344 1096.757812 709.246094 1100.84375 704.085938 C 1168.617188 618.753906 1204.445312 515.738281 1204.445312 406.089844 C 1204.445312 141.3125 989.136719 -74.03125 724.402344 -74.03125 " fill-opacity="1" fill-rule="nonzero"/></g></svg>