<svg xmlns="http://www.w3.org/2000/svg" xmlns:xlink="http://www.w3.org/1999/xlink" width="1920" zoomAndPan="magnify" viewBox="0 0 1440 809.999993" height="1080" preserveAspectRatio="xMidYMid meet" version="1.0"><defs><clipPath id="33519c96a1"><path d="M 490.984375 406.648438 L 641.90625 406.648438 L 641.90625 557.570312 L 490.984375 557.570312 Z M 490.984375 406.648438 " clip-rule="nonzero"/></clipPath><clipPath id="5a2de902dc"><path d="M 508.582031 424.246094 L 624.585938 424.246094 L 624.585938 540.25 L 508.582031 540.25 Z M 508.582031 424.246094 " clip-rule="nonzero"/></clipPath><clipPath id="bbc96cf3cb"><path d="M 812.136719 406.648438 L 963.058594 406.648438 L 963.058594 557.570312 L 812.136719 557.570312 Z M 812.136719 406.648438 " clip-rule="nonzero"/></clipPath><clipPath id="c49aa7484c"><path d="M 829.730469 424.246094 L 945.738281 424.246094 L 945.738281 540.25 L 829.730469 540.25 Z M 829.730469 424.246094 " clip-rule="nonzero"/></clipPath></defs><path stroke-linecap="butt" transform="matrix(20.282271, 0, 0, 20.273028, 220.792759, 482.161988)" fill="none" stroke-linejoin="miter" d="M 0.0000103359 -0.0000903414 L 13.327729 -0.0000903414 " stroke="#ffffff" stroke-width="1" stroke-opacity="1" stroke-miterlimit="4"/><path stroke-linecap="butt" transform="matrix(-14.345384, 14.345384, -14.335194, -14.335194, 804.958334, 259.495905)" fill="none" stroke-linejoin="miter" d="M 0.0000519638 0.0000388579 L 13.435476 -0.0000973889 " stroke="#ffffff" stroke-width="1" stroke-opacity="1" stroke-miterlimit="4"/><path stroke-linecap="butt" transform="matrix(-20.252879, -0.00000000000000248, 0.000000000000002483, -20.273028, 1219.201697, 482.161988)" fill="none" stroke-linejoin="miter" d="M -0.0000705141 0.0000903414 L 14.84832 0.0000903414 " stroke="#ffffff" stroke-width="1" stroke-opacity="1" stroke-miterlimit="4"/><g clip-path="url(#33519c96a1)"><path fill="#ff8400" d="M 566.445312 406.648438 C 524.769531 406.648438 490.984375 440.433594 490.984375 482.109375 C 490.984375 523.785156 524.769531 557.570312 566.445312 557.570312 C 608.121094 557.570312 641.90625 523.785156 641.90625 482.109375 C 641.90625 440.433594 608.121094 406.648438 566.445312 406.648438 " fill-opacity="1" fill-rule="nonzero"/></g><g clip-path="url(#5a2de902dc)"><path fill="#003e52" d="M 566.582031 424.246094 C 534.550781 424.246094 508.582031 450.214844 508.582031 482.246094 C 508.582031 514.28125 534.550781 540.25 566.582031 540.25 C 598.617188 540.25 624.585938 514.28125 624.585938 482.246094 C 624.585938 450.214844 598.617188 424.246094 566.582031 424.246094 " fill-opacity="1" fill-rule="nonzero"/></g><g clip-path="url(#bbc96cf3cb)"><path fill="#ff8400" d="M 887.597656 406.648438 C 845.921875 406.648438 812.136719 440.433594 812.136719 482.109375 C 812.136719 523.785156 845.921875 557.570312 887.597656 557.570312 C 929.273438 557.570312 963.058594 523.785156 963.058594 482.109375 C 963.058594 440.433594 929.273438 406.648438 887.597656 406.648438 " fill-opacity="1" fill-rule="nonzero"/></g><g clip-path="url(#c49aa7484c)"><path fill="#003e52" d="M 887.734375 424.246094 C 855.699219 424.246094 829.730469 450.214844 829.730469 482.246094 C 829.730469 514.28125 855.699219 540.25 887.734375 540.25 C 919.769531 540.25 945.738281 514.28125 945.738281 482.246094 C 945.738281 450.214844 919.769531 424.246094 887.734375 424.246094 " fill-opacity="1" fill-rule="nonzero"/></g></svg>