<svg xmlns="http://www.w3.org/2000/svg" xmlns:xlink="http://www.w3.org/1999/xlink" width="1920" zoomAndPan="magnify" viewBox="0 0 1440 809.999993" height="1080" preserveAspectRatio="xMidYMid meet" version="1.0"><defs><clipPath id="60b4c3f9be"><path d="M 462.257812 147.257812 L 977.507812 147.257812 L 977.507812 662.507812 L 462.257812 662.507812 Z M 462.257812 147.257812 " clip-rule="nonzero"/></clipPath><clipPath id="5e84d8b0ea"><path d="M 621.566406 211 L 842.066406 211 L 842.066406 603 L 621.566406 603 Z M 621.566406 211 " clip-rule="nonzero"/></clipPath><clipPath id="1e7fb7b1fa"><path d="M 621.566406 206.527344 L 842.066406 206.527344 L 842.066406 605.527344 L 621.566406 605.527344 Z M 621.566406 206.527344 " clip-rule="nonzero"/></clipPath></defs><path fill="#ff8400" d="M 843.539062 312.632812 C 843.542969 311.726562 843.433594 310.835938 843.214844 309.957031 C 843 309.082031 842.683594 308.242188 842.261719 307.441406 C 841.84375 306.640625 841.332031 305.898438 840.730469 305.222656 C 840.132812 304.546875 839.460938 303.949219 838.714844 303.4375 L 705.320312 211.210938 C 704.484375 210.632812 703.582031 210.175781 702.617188 209.84375 C 701.652344 209.507812 700.664062 209.3125 699.644531 209.25 C 698.628906 209.1875 697.621094 209.261719 696.625 209.476562 C 695.625 209.691406 694.675781 210.035156 693.773438 210.507812 C 692.871094 210.980469 692.046875 211.566406 691.304688 212.265625 C 690.5625 212.964844 689.925781 213.75 689.398438 214.625 C 688.871094 215.496094 688.472656 216.421875 688.199219 217.40625 C 687.921875 218.386719 687.785156 219.386719 687.785156 220.40625 L 687.785156 383.546875 L 637.546875 348.816406 C 636.941406 348.398438 636.300781 348.046875 635.628906 347.757812 C 634.957031 347.464844 634.261719 347.246094 633.542969 347.089844 C 632.828125 346.9375 632.101562 346.855469 631.367188 346.84375 C 630.636719 346.832031 629.910156 346.894531 629.1875 347.027344 C 628.464844 347.160156 627.765625 347.359375 627.082031 347.628906 C 626.402344 347.902344 625.753906 348.234375 625.136719 348.632812 C 624.523438 349.03125 623.949219 349.484375 623.425781 349.996094 C 622.898438 350.503906 622.425781 351.0625 622.007812 351.664062 C 621.59375 352.269531 621.238281 352.90625 620.945312 353.578125 C 620.65625 354.25 620.433594 354.945312 620.277344 355.664062 C 620.121094 356.378906 620.039062 357.105469 620.027344 357.835938 C 620.015625 358.570312 620.074219 359.296875 620.203125 360.019531 C 620.335938 360.742188 620.535156 361.441406 620.804688 362.125 C 621.074219 362.804688 621.40625 363.457031 621.804688 364.074219 C 622.199219 364.6875 622.652344 365.261719 623.160156 365.789062 C 623.671875 366.316406 624.226562 366.789062 624.828125 367.207031 L 679.304688 404.863281 L 624.828125 442.523438 C 624.226562 442.941406 623.667969 443.414062 623.160156 443.941406 C 622.648438 444.46875 622.195312 445.042969 621.796875 445.65625 C 621.398438 446.273438 621.066406 446.925781 620.796875 447.605469 C 620.527344 448.289062 620.328125 448.992188 620.195312 449.714844 C 620.0625 450.433594 620.003906 451.164062 620.015625 451.894531 C 620.027344 452.628906 620.109375 453.355469 620.265625 454.074219 C 620.417969 454.789062 620.644531 455.484375 620.933594 456.160156 C 621.226562 456.832031 621.582031 457.46875 621.996094 458.074219 C 622.414062 458.675781 622.886719 459.234375 623.414062 459.746094 C 623.941406 460.253906 624.511719 460.710938 625.128906 461.109375 C 625.746094 461.503906 626.394531 461.839844 627.078125 462.109375 C 627.757812 462.378906 628.460938 462.582031 629.183594 462.714844 C 629.90625 462.84375 630.632812 462.90625 631.367188 462.894531 C 632.101562 462.882812 632.824219 462.800781 633.542969 462.644531 C 634.261719 462.492188 634.957031 462.269531 635.628906 461.976562 C 636.300781 461.6875 636.941406 461.332031 637.546875 460.914062 L 687.785156 426.179688 L 687.785156 589.324219 C 687.785156 590.34375 687.921875 591.34375 688.199219 592.328125 C 688.472656 593.308594 688.871094 594.234375 689.402344 595.109375 C 689.929688 595.980469 690.5625 596.765625 691.304688 597.464844 C 692.046875 598.164062 692.871094 598.75 693.773438 599.222656 C 694.675781 599.695312 695.625 600.039062 696.625 600.253906 C 697.621094 600.464844 698.628906 600.542969 699.644531 600.480469 C 700.664062 600.417969 701.652344 600.222656 702.617188 599.886719 C 703.582031 599.554688 704.480469 599.097656 705.320312 598.519531 L 838.714844 506.289062 C 839.085938 506.03125 839.441406 505.753906 839.777344 505.457031 C 840.113281 505.15625 840.433594 504.839844 840.730469 504.503906 C 841.03125 504.164062 841.308594 503.8125 841.5625 503.441406 C 841.820312 503.070312 842.050781 502.683594 842.261719 502.285156 C 842.472656 501.886719 842.65625 501.476562 842.816406 501.054688 C 842.976562 500.632812 843.109375 500.203125 843.214844 499.765625 C 843.324219 499.328125 843.40625 498.886719 843.460938 498.441406 C 843.511719 497.992188 843.539062 497.542969 843.539062 497.09375 C 843.539062 496.644531 843.511719 496.195312 843.460938 495.746094 C 843.40625 495.300781 843.324219 494.855469 843.214844 494.417969 C 843.109375 493.980469 842.976562 493.554688 842.816406 493.132812 C 842.65625 492.710938 842.472656 492.300781 842.261719 491.902344 C 842.050781 491.503906 841.820312 491.117188 841.5625 490.746094 C 841.308594 490.375 841.03125 490.023438 840.730469 489.683594 C 840.433594 489.347656 840.117188 489.027344 839.777344 488.730469 C 839.441406 488.429688 839.085938 488.152344 838.714844 487.898438 L 718.621094 404.863281 L 838.714844 321.828125 C 839.460938 321.3125 840.132812 320.71875 840.730469 320.039062 C 841.332031 319.363281 841.839844 318.625 842.261719 317.824219 C 842.683594 317.023438 843 316.183594 843.214844 315.304688 C 843.433594 314.425781 843.539062 313.535156 843.539062 312.632812 Z M 710.140625 568.007812 L 710.140625 426.179688 L 812.707031 497.09375 Z M 710.140625 383.546875 L 710.140625 241.722656 L 812.707031 312.632812 Z M 710.140625 383.546875 " fill-opacity="1" fill-rule="nonzero"/><g clip-path="url(#60b4c3f9be)"><path fill="#ff8400" d="M 720.445312 147.167969 C 716.226562 147.167969 712.011719 147.273438 707.800781 147.480469 C 703.585938 147.6875 699.382812 147.996094 695.183594 148.410156 C 690.988281 148.824219 686.804688 149.339844 682.632812 149.957031 C 678.460938 150.578125 674.304688 151.296875 670.167969 152.121094 C 666.035156 152.945312 661.917969 153.867188 657.828125 154.890625 C 653.738281 155.917969 649.675781 157.042969 645.640625 158.265625 C 641.601562 159.488281 637.601562 160.8125 633.628906 162.234375 C 629.65625 163.652344 625.722656 165.171875 621.828125 166.785156 C 617.933594 168.398438 614.078125 170.109375 610.265625 171.910156 C 606.453125 173.714844 602.6875 175.609375 598.96875 177.597656 C 595.246094 179.585938 591.578125 181.664062 587.960938 183.832031 C 584.34375 186 580.78125 188.253906 577.277344 190.597656 C 573.769531 192.941406 570.324219 195.371094 566.933594 197.882812 C 563.546875 200.394531 560.222656 202.988281 556.964844 205.664062 C 553.703125 208.339844 550.511719 211.09375 547.386719 213.925781 C 544.261719 216.757812 541.207031 219.664062 538.226562 222.648438 C 535.246094 225.628906 532.335938 228.683594 529.503906 231.808594 C 526.671875 234.933594 523.917969 238.125 521.242188 241.382812 C 518.566406 244.644531 515.972656 247.96875 513.460938 251.355469 C 510.949219 254.742188 508.523438 258.191406 506.179688 261.695312 C 503.835938 265.203125 501.582031 268.765625 499.410156 272.382812 C 497.242188 276 495.164062 279.667969 493.179688 283.386719 C 491.191406 287.109375 489.292969 290.875 487.492188 294.6875 C 485.6875 298.5 483.980469 302.351562 482.367188 306.25 C 480.75 310.144531 479.234375 314.078125 477.8125 318.050781 C 476.390625 322.019531 475.070312 326.023438 473.847656 330.058594 C 472.621094 334.097656 471.496094 338.160156 470.472656 342.25 C 469.449219 346.339844 468.523438 350.457031 467.699219 354.589844 C 466.878906 358.726562 466.15625 362.882812 465.539062 367.054688 C 464.921875 371.226562 464.402344 375.410156 463.992188 379.605469 C 463.578125 383.804688 463.265625 388.007812 463.058594 392.222656 C 462.851562 396.433594 462.75 400.648438 462.75 404.867188 C 462.75 409.082031 462.851562 413.296875 463.058594 417.511719 C 463.265625 421.722656 463.578125 425.925781 463.992188 430.125 C 464.402344 434.320312 464.921875 438.503906 465.539062 442.675781 C 466.15625 446.847656 466.878906 451.003906 467.699219 455.140625 C 468.523438 459.277344 469.449219 463.390625 470.472656 467.480469 C 471.496094 471.570312 472.621094 475.636719 473.847656 479.671875 C 475.070312 483.707031 476.394531 487.710938 477.8125 491.679688 C 479.234375 495.652344 480.75 499.585938 482.367188 503.480469 C 483.980469 507.378906 485.6875 511.234375 487.492188 515.046875 C 489.292969 518.859375 491.191406 522.625 493.179688 526.34375 C 495.167969 530.0625 497.246094 533.730469 499.414062 537.347656 C 501.582031 540.964844 503.835938 544.527344 506.179688 548.035156 C 508.523438 551.539062 510.949219 554.988281 513.460938 558.375 C 515.976562 561.761719 518.570312 565.085938 521.242188 568.347656 C 523.917969 571.605469 526.671875 574.800781 529.503906 577.925781 C 532.335938 581.046875 535.246094 584.101562 538.226562 587.085938 C 541.210938 590.066406 544.261719 592.972656 547.386719 595.804688 C 550.511719 598.636719 553.707031 601.390625 556.964844 604.066406 C 560.226562 606.742188 563.550781 609.335938 566.9375 611.847656 C 570.324219 614.363281 573.769531 616.789062 577.277344 619.132812 C 580.785156 621.476562 584.347656 623.730469 587.964844 625.898438 C 591.582031 628.066406 595.25 630.144531 598.96875 632.132812 C 602.6875 634.121094 606.453125 636.015625 610.265625 637.820312 C 614.078125 639.625 617.933594 641.332031 621.828125 642.945312 C 625.726562 644.558594 629.660156 646.078125 633.628906 647.5 C 637.601562 648.917969 641.605469 650.242188 645.640625 651.464844 C 649.675781 652.691406 653.738281 653.8125 657.832031 654.839844 C 661.921875 655.863281 666.035156 656.789062 670.171875 657.609375 C 674.308594 658.433594 678.460938 659.152344 682.632812 659.773438 C 686.804688 660.390625 690.992188 660.90625 695.1875 661.320312 C 699.382812 661.734375 703.589844 662.042969 707.800781 662.25 C 712.015625 662.457031 716.230469 662.5625 720.445312 662.5625 C 724.664062 662.5625 728.878906 662.457031 733.089844 662.25 C 737.304688 662.042969 741.507812 661.734375 745.703125 661.320312 C 749.902344 660.90625 754.085938 660.390625 758.257812 659.773438 C 762.429688 659.152344 766.582031 658.433594 770.71875 657.609375 C 774.855469 656.789062 778.96875 655.863281 783.0625 654.839844 C 787.152344 653.8125 791.214844 652.691406 795.25 651.464844 C 799.289062 650.242188 803.289062 648.917969 807.261719 647.496094 C 811.230469 646.078125 815.164062 644.558594 819.0625 642.945312 C 822.957031 641.332031 826.8125 639.625 830.625 637.820312 C 834.4375 636.015625 838.203125 634.121094 841.921875 632.132812 C 845.644531 630.144531 849.3125 628.066406 852.929688 625.898438 C 856.546875 623.730469 860.109375 621.476562 863.613281 619.132812 C 867.121094 616.789062 870.566406 614.359375 873.957031 611.847656 C 877.34375 609.335938 880.667969 606.742188 883.925781 604.066406 C 887.1875 601.390625 890.378906 598.636719 893.503906 595.804688 C 896.628906 592.972656 899.683594 590.066406 902.664062 587.082031 C 905.648438 584.101562 908.554688 581.046875 911.386719 577.921875 C 914.21875 574.796875 916.972656 571.605469 919.648438 568.34375 C 922.324219 565.085938 924.917969 561.761719 927.429688 558.375 C 929.941406 554.988281 932.371094 551.539062 934.714844 548.03125 C 937.054688 544.527344 939.3125 540.964844 941.480469 537.347656 C 943.648438 533.730469 945.726562 530.0625 947.714844 526.339844 C 949.703125 522.621094 951.597656 518.855469 953.402344 515.042969 C 955.203125 511.230469 956.914062 507.375 958.527344 503.480469 C 960.140625 499.582031 961.65625 495.648438 963.078125 491.679688 C 964.5 487.707031 965.820312 483.703125 967.046875 479.667969 C 968.269531 475.632812 969.394531 471.570312 970.417969 467.480469 C 971.445312 463.386719 972.367188 459.273438 973.191406 455.136719 C 974.015625 451 974.734375 446.847656 975.351562 442.675781 C 975.972656 438.503906 976.488281 434.320312 976.902344 430.121094 C 977.316406 425.925781 977.625 421.71875 977.832031 417.507812 C 978.039062 413.296875 978.144531 409.082031 978.144531 404.863281 C 978.136719 400.648438 978.03125 396.433594 977.820312 392.222656 C 977.605469 388.011719 977.292969 383.808594 976.875 379.613281 C 976.457031 375.417969 975.9375 371.234375 975.316406 367.066406 C 974.695312 362.894531 973.96875 358.742188 973.144531 354.609375 C 972.316406 350.472656 971.390625 346.363281 970.363281 342.273438 C 969.335938 338.183594 968.207031 334.125 966.980469 330.089844 C 965.753906 326.054688 964.429688 322.054688 963.007812 318.085938 C 961.585938 314.117188 960.066406 310.1875 958.449219 306.292969 C 956.832031 302.398438 955.125 298.542969 953.320312 294.734375 C 951.515625 290.921875 949.617188 287.160156 947.628906 283.441406 C 945.640625 279.726562 943.5625 276.058594 941.390625 272.441406 C 939.222656 268.828125 936.96875 265.265625 934.625 261.761719 C 932.28125 258.257812 929.851562 254.8125 927.339844 251.425781 C 924.828125 248.039062 922.234375 244.71875 919.558594 241.460938 C 916.882812 238.199219 914.128906 235.007812 911.300781 231.886719 C 908.46875 228.761719 905.5625 225.710938 902.578125 222.726562 C 899.597656 219.746094 896.546875 216.839844 893.421875 214.007812 C 890.296875 211.175781 887.105469 208.425781 883.847656 205.75 C 880.589844 203.074219 877.265625 200.480469 873.882812 197.96875 C 870.496094 195.457031 867.050781 193.027344 863.542969 190.683594 C 860.039062 188.339844 856.480469 186.085938 852.863281 183.917969 C 849.25 181.75 845.582031 179.667969 841.863281 177.679688 C 838.148438 175.691406 834.382812 173.792969 830.574219 171.992188 C 826.761719 170.1875 822.910156 168.476562 819.015625 166.859375 C 815.121094 165.246094 811.191406 163.726562 807.222656 162.304688 C 803.253906 160.878906 799.25 159.554688 795.21875 158.328125 C 791.183594 157.101562 787.121094 155.976562 783.03125 154.949219 C 778.945312 153.921875 774.832031 152.992188 770.699219 152.167969 C 766.5625 151.339844 762.410156 150.617188 758.242188 149.996094 C 754.070312 149.371094 749.886719 148.851562 745.691406 148.433594 C 741.496094 148.019531 737.292969 147.703125 733.082031 147.492188 C 728.871094 147.28125 724.660156 147.171875 720.445312 147.167969 Z M 720.445312 640.207031 C 716.59375 640.207031 712.742188 640.113281 708.894531 639.925781 C 705.050781 639.734375 701.207031 639.453125 697.375 639.074219 C 693.542969 638.699219 689.722656 638.226562 685.910156 637.660156 C 682.101562 637.097656 678.308594 636.4375 674.53125 635.6875 C 670.753906 634.933594 666.996094 634.089844 663.261719 633.15625 C 659.523438 632.21875 655.8125 631.191406 652.128906 630.074219 C 648.441406 628.957031 644.785156 627.75 641.160156 626.449219 C 637.53125 625.152344 633.941406 623.765625 630.382812 622.292969 C 626.824219 620.820312 623.304688 619.257812 619.824219 617.613281 C 616.339844 615.964844 612.902344 614.234375 609.503906 612.417969 C 606.109375 610.601562 602.757812 608.707031 599.453125 606.726562 C 596.152344 604.746094 592.898438 602.683594 589.695312 600.546875 C 586.492188 598.40625 583.34375 596.1875 580.25 593.894531 C 577.15625 591.601562 574.121094 589.230469 571.144531 586.789062 C 568.167969 584.34375 565.253906 581.828125 562.398438 579.242188 C 559.542969 576.65625 556.757812 574 554.03125 571.277344 C 551.308594 568.554688 548.652344 565.765625 546.066406 562.910156 C 543.480469 560.058594 540.964844 557.140625 538.523438 554.164062 C 536.078125 551.1875 533.710938 548.152344 531.417969 545.058594 C 529.121094 541.964844 526.90625 538.816406 524.765625 535.613281 C 522.625 532.410156 520.566406 529.160156 518.585938 525.855469 C 516.605469 522.550781 514.707031 519.203125 512.890625 515.804688 C 511.078125 512.40625 509.34375 508.96875 507.699219 505.488281 C 506.050781 502.003906 504.492188 498.484375 503.015625 494.925781 C 501.542969 491.367188 500.15625 487.777344 498.859375 484.148438 C 497.5625 480.523438 496.355469 476.867188 495.238281 473.183594 C 494.117188 469.496094 493.09375 465.785156 492.15625 462.050781 C 491.21875 458.3125 490.375 454.554688 489.625 450.777344 C 488.875 447 488.214844 443.207031 487.648438 439.398438 C 487.085938 435.585938 486.613281 431.765625 486.238281 427.933594 C 485.859375 424.101562 485.574219 420.261719 485.386719 416.414062 C 485.199219 412.566406 485.101562 408.71875 485.101562 404.867188 C 485.101562 401.015625 485.199219 397.164062 485.386719 393.316406 C 485.574219 389.472656 485.859375 385.632812 486.238281 381.796875 C 486.613281 377.964844 487.085938 374.144531 487.652344 370.332031 C 488.214844 366.523438 488.875 362.730469 489.625 358.953125 C 490.375 355.175781 491.21875 351.417969 492.15625 347.683594 C 493.09375 343.945312 494.121094 340.234375 495.238281 336.550781 C 496.355469 332.863281 497.5625 329.207031 498.859375 325.582031 C 500.160156 321.953125 501.542969 318.363281 503.019531 314.804688 C 504.492188 311.246094 506.050781 307.726562 507.699219 304.242188 C 509.347656 300.761719 511.078125 297.324219 512.894531 293.925781 C 514.707031 290.527344 516.605469 287.179688 518.585938 283.875 C 520.566406 280.570312 522.625 277.316406 524.765625 274.117188 C 526.90625 270.914062 529.125 267.765625 531.417969 264.671875 C 533.710938 261.578125 536.082031 258.542969 538.523438 255.566406 C 540.96875 252.589844 543.484375 249.671875 546.070312 246.820312 C 548.65625 243.964844 551.3125 241.175781 554.035156 238.453125 C 556.757812 235.730469 559.546875 233.074219 562.398438 230.488281 C 565.253906 227.902344 568.167969 225.386719 571.148438 222.941406 C 574.125 220.5 577.160156 218.128906 580.253906 215.835938 C 583.347656 213.542969 586.496094 211.324219 589.695312 209.183594 C 592.898438 207.046875 596.152344 204.984375 599.457031 203.003906 C 602.761719 201.023438 606.109375 199.128906 609.507812 197.3125 C 612.902344 195.496094 616.34375 193.765625 619.824219 192.117188 C 623.304688 190.472656 626.828125 188.910156 630.382812 187.4375 C 633.941406 185.964844 637.535156 184.578125 641.160156 183.28125 C 644.789062 181.980469 648.445312 180.773438 652.128906 179.65625 C 655.816406 178.539062 659.527344 177.511719 663.261719 176.574219 C 667 175.640625 670.753906 174.796875 674.53125 174.042969 C 678.3125 173.292969 682.105469 172.636719 685.914062 172.070312 C 689.722656 171.503906 693.546875 171.035156 697.378906 170.65625 C 701.210938 170.277344 705.050781 169.996094 708.898438 169.804688 C 712.746094 169.617188 716.59375 169.523438 720.445312 169.523438 C 724.296875 169.523438 728.148438 169.617188 731.992188 169.804688 C 735.839844 169.996094 739.679688 170.277344 743.515625 170.65625 C 747.347656 171.035156 751.167969 171.503906 754.976562 172.070312 C 758.789062 172.636719 762.582031 173.292969 766.359375 174.046875 C 770.136719 174.796875 773.894531 175.640625 777.628906 176.574219 C 781.367188 177.511719 785.078125 178.539062 788.761719 179.65625 C 792.449219 180.773438 796.105469 181.984375 799.730469 183.28125 C 803.355469 184.578125 806.949219 185.964844 810.507812 187.4375 C 814.066406 188.910156 817.585938 190.472656 821.066406 192.117188 C 824.550781 193.765625 827.988281 195.496094 831.386719 197.3125 C 834.78125 199.128906 838.132812 201.023438 841.4375 203.003906 C 844.738281 204.984375 847.992188 207.046875 851.195312 209.183594 C 854.398438 211.324219 857.546875 213.542969 860.640625 215.835938 C 863.734375 218.128906 866.769531 220.5 869.746094 222.941406 C 872.722656 225.386719 875.640625 227.902344 878.492188 230.488281 C 881.347656 233.074219 884.136719 235.730469 886.859375 238.453125 C 889.582031 241.175781 892.238281 243.964844 894.824219 246.820312 C 897.410156 249.671875 899.925781 252.589844 902.367188 255.566406 C 904.8125 258.542969 907.179688 261.578125 909.476562 264.671875 C 911.769531 267.765625 913.988281 270.914062 916.125 274.117188 C 918.265625 277.316406 920.328125 280.570312 922.304688 283.875 C 924.285156 287.179688 926.183594 290.527344 928 293.925781 C 929.816406 297.320312 931.546875 300.761719 933.195312 304.242188 C 934.839844 307.722656 936.402344 311.246094 937.875 314.800781 C 939.347656 318.359375 940.734375 321.953125 942.03125 325.578125 C 943.328125 329.207031 944.539062 332.863281 945.65625 336.546875 C 946.773438 340.234375 947.800781 343.945312 948.734375 347.679688 C 949.671875 351.417969 950.515625 355.171875 951.265625 358.949219 C 952.019531 362.726562 952.675781 366.523438 953.242188 370.332031 C 953.808594 374.140625 954.277344 377.960938 954.65625 381.796875 C 955.035156 385.628906 955.316406 389.46875 955.503906 393.316406 C 955.695312 397.164062 955.789062 401.011719 955.789062 404.863281 C 955.785156 408.714844 955.6875 412.5625 955.492188 416.40625 C 955.300781 420.253906 955.011719 424.089844 954.632812 427.921875 C 954.25 431.753906 953.777344 435.574219 953.207031 439.382812 C 952.640625 443.191406 951.976562 446.984375 951.222656 450.757812 C 950.46875 454.535156 949.621094 458.289062 948.683594 462.023438 C 947.746094 465.757812 946.714844 469.46875 945.597656 473.152344 C 944.476562 476.835938 943.265625 480.488281 941.964844 484.113281 C 940.667969 487.738281 939.28125 491.328125 937.804688 494.886719 C 936.328125 498.441406 934.765625 501.960938 933.117188 505.441406 C 931.472656 508.917969 929.738281 512.355469 927.921875 515.753906 C 926.105469 519.148438 924.207031 522.496094 922.226562 525.796875 C 920.246094 529.097656 918.1875 532.351562 916.046875 535.550781 C 913.90625 538.753906 911.6875 541.898438 909.394531 544.992188 C 907.097656 548.082031 904.730469 551.117188 902.289062 554.09375 C 899.84375 557.070312 897.328125 559.984375 894.742188 562.835938 C 892.15625 565.691406 889.503906 568.476562 886.78125 571.199219 C 884.058594 573.921875 881.269531 576.578125 878.417969 579.164062 C 875.566406 581.75 872.652344 584.265625 869.675781 586.707031 C 866.699219 589.148438 863.664062 591.519531 860.570312 593.8125 C 857.480469 596.109375 854.332031 598.324219 851.132812 600.464844 C 847.929688 602.605469 844.679688 604.664062 841.378906 606.644531 C 838.074219 608.625 834.726562 610.523438 831.332031 612.34375 C 827.9375 614.160156 824.5 615.890625 821.019531 617.539062 C 817.539062 619.1875 814.023438 620.75 810.464844 622.222656 C 806.910156 623.699219 803.320312 625.085938 799.695312 626.386719 C 796.070312 627.6875 792.414062 628.894531 788.730469 630.015625 C 785.046875 631.136719 781.339844 632.164062 777.605469 633.105469 C 773.871094 634.042969 770.113281 634.886719 766.339844 635.644531 C 762.5625 636.398438 758.769531 637.058594 754.960938 637.628906 C 751.15625 638.195312 747.335938 638.671875 743.503906 639.050781 C 739.671875 639.433594 735.832031 639.71875 731.988281 639.914062 C 728.140625 640.105469 724.292969 640.203125 720.445312 640.207031 Z M 720.445312 640.207031 " fill-opacity="1" fill-rule="nonzero"/></g><g clip-path="url(#5e84d8b0ea)"><path fill="#003e52" d="M 843.539062 314.449219 C 843.542969 313.546875 843.433594 312.652344 843.214844 311.777344 C 843 310.898438 842.683594 310.058594 842.261719 309.257812 C 841.839844 308.457031 841.332031 307.71875 840.730469 307.039062 C 840.132812 306.363281 839.460938 305.769531 838.714844 305.253906 L 705.320312 213.027344 C 704.484375 212.449219 703.582031 211.992188 702.617188 211.660156 C 701.652344 211.328125 700.664062 211.128906 699.644531 211.066406 C 698.628906 211.003906 697.621094 211.082031 696.625 211.292969 C 695.625 211.507812 694.675781 211.851562 693.773438 212.324219 C 692.871094 212.796875 692.046875 213.382812 691.304688 214.082031 C 690.5625 214.78125 689.925781 215.566406 689.398438 216.441406 C 688.871094 217.3125 688.472656 218.238281 688.199219 219.222656 C 687.921875 220.203125 687.785156 221.207031 687.785156 222.226562 L 687.785156 385.363281 L 637.546875 350.632812 C 636.941406 350.214844 636.300781 349.863281 635.628906 349.574219 C 634.957031 349.285156 634.261719 349.0625 633.542969 348.90625 C 632.828125 348.753906 632.101562 348.671875 631.367188 348.660156 C 630.636719 348.652344 629.910156 348.710938 629.1875 348.84375 C 628.464844 348.976562 627.765625 349.175781 627.082031 349.449219 C 626.402344 349.71875 625.753906 350.050781 625.136719 350.449219 C 624.523438 350.847656 623.949219 351.300781 623.425781 351.8125 C 622.898438 352.324219 622.425781 352.878906 622.007812 353.480469 C 621.59375 354.085938 621.238281 354.722656 620.945312 355.394531 C 620.65625 356.070312 620.433594 356.761719 620.277344 357.480469 C 620.121094 358.195312 620.039062 358.921875 620.027344 359.65625 C 620.015625 360.386719 620.074219 361.113281 620.203125 361.835938 C 620.335938 362.558594 620.535156 363.257812 620.804688 363.941406 C 621.074219 364.625 621.40625 365.273438 621.804688 365.890625 C 622.199219 366.507812 622.652344 367.078125 623.160156 367.605469 C 623.671875 368.132812 624.226562 368.605469 624.828125 369.023438 L 679.304688 406.679688 L 624.828125 444.339844 C 624.226562 444.757812 623.667969 445.230469 623.160156 445.757812 C 622.648438 446.285156 622.195312 446.859375 621.796875 447.476562 C 621.398438 448.09375 621.066406 448.742188 620.796875 449.421875 C 620.527344 450.105469 620.328125 450.808594 620.195312 451.53125 C 620.0625 452.253906 620.003906 452.980469 620.015625 453.714844 C 620.027344 454.445312 620.109375 455.171875 620.265625 455.890625 C 620.417969 456.605469 620.644531 457.300781 620.933594 457.976562 C 621.226562 458.648438 621.582031 459.289062 621.996094 459.890625 C 622.414062 460.496094 622.886719 461.050781 623.414062 461.5625 C 623.941406 462.074219 624.511719 462.527344 625.128906 462.925781 C 625.746094 463.324219 626.394531 463.65625 627.078125 463.925781 C 627.757812 464.199219 628.460938 464.398438 629.183594 464.53125 C 629.90625 464.664062 630.632812 464.722656 631.367188 464.710938 C 632.101562 464.699219 632.824219 464.617188 633.542969 464.464844 C 634.261719 464.308594 634.957031 464.085938 635.628906 463.796875 C 636.300781 463.503906 636.941406 463.148438 637.546875 462.734375 L 687.785156 428 L 687.785156 591.140625 C 687.785156 592.160156 687.921875 593.160156 688.199219 594.144531 C 688.472656 595.125 688.871094 596.050781 689.402344 596.925781 C 689.929688 597.796875 690.5625 598.582031 691.304688 599.28125 C 692.046875 599.980469 692.871094 600.566406 693.773438 601.039062 C 694.675781 601.511719 695.625 601.855469 696.625 602.070312 C 697.621094 602.285156 698.628906 602.359375 699.644531 602.296875 C 700.664062 602.234375 701.652344 602.039062 702.617188 601.707031 C 703.582031 601.371094 704.480469 600.917969 705.320312 600.335938 L 838.714844 508.105469 C 839.085938 507.851562 839.441406 507.574219 839.777344 507.273438 C 840.113281 506.976562 840.433594 506.65625 840.730469 506.320312 C 841.03125 505.980469 841.308594 505.628906 841.5625 505.257812 C 841.820312 504.886719 842.050781 504.5 842.261719 504.101562 C 842.472656 503.703125 842.65625 503.292969 842.816406 502.871094 C 842.976562 502.449219 843.109375 502.023438 843.214844 501.585938 C 843.324219 501.148438 843.40625 500.703125 843.460938 500.257812 C 843.511719 499.808594 843.539062 499.359375 843.539062 498.910156 C 843.539062 498.460938 843.511719 498.011719 843.460938 497.5625 C 843.40625 497.117188 843.324219 496.675781 843.214844 496.238281 C 843.109375 495.800781 842.976562 495.371094 842.816406 494.949219 C 842.65625 494.527344 842.472656 494.117188 842.261719 493.71875 C 842.050781 493.320312 841.820312 492.933594 841.5625 492.5625 C 841.308594 492.191406 841.03125 491.839844 840.730469 491.5 C 840.433594 491.164062 840.117188 490.847656 839.777344 490.546875 C 839.441406 490.25 839.085938 489.972656 838.714844 489.714844 L 718.621094 406.679688 L 838.714844 323.644531 C 839.460938 323.132812 840.132812 322.535156 840.730469 321.859375 C 841.332031 321.179688 841.839844 320.441406 842.261719 319.640625 C 842.683594 318.839844 843 318 843.214844 317.121094 C 843.433594 316.246094 843.539062 315.355469 843.539062 314.449219 Z M 710.140625 569.824219 L 710.140625 427.996094 L 812.707031 498.910156 Z M 710.140625 385.363281 L 710.140625 243.542969 L 812.707031 314.449219 Z M 710.140625 385.363281 " fill-opacity="1" fill-rule="nonzero"/></g><g clip-path="url(#1e7fb7b1fa)"><path fill="#003e52" d="M 720.445312 148.984375 C 716.226562 148.984375 712.011719 149.089844 707.800781 149.296875 C 703.585938 149.503906 699.382812 149.8125 695.183594 150.226562 C 690.988281 150.640625 686.804688 151.15625 682.632812 151.773438 C 678.460938 152.394531 674.304688 153.113281 670.167969 153.9375 C 666.035156 154.761719 661.917969 155.683594 657.828125 156.710938 C 653.738281 157.734375 649.675781 158.859375 645.640625 160.082031 C 641.601562 161.308594 637.601562 162.628906 633.628906 164.050781 C 629.65625 165.472656 625.722656 166.988281 621.828125 168.601562 C 617.933594 170.214844 614.078125 171.925781 610.265625 173.726562 C 606.453125 175.53125 602.6875 177.425781 598.96875 179.414062 C 595.246094 181.402344 591.578125 183.480469 587.960938 185.648438 C 584.34375 187.816406 580.78125 190.074219 577.277344 192.414062 C 573.769531 194.757812 570.324219 197.1875 566.933594 199.699219 C 563.546875 202.210938 560.222656 204.804688 556.964844 207.480469 C 553.703125 210.15625 550.511719 212.910156 547.386719 215.742188 C 544.261719 218.574219 541.207031 221.480469 538.226562 224.464844 C 535.246094 227.445312 532.335938 230.5 529.503906 233.625 C 526.671875 236.75 523.917969 239.941406 521.242188 243.203125 C 518.566406 246.460938 515.972656 249.785156 513.460938 253.171875 C 510.949219 256.558594 508.523438 260.007812 506.179688 263.515625 C 503.835938 267.019531 501.582031 270.582031 499.410156 274.199219 C 497.242188 277.816406 495.164062 281.484375 493.175781 285.207031 C 491.191406 288.925781 489.292969 292.691406 487.492188 296.503906 C 485.6875 300.316406 483.980469 304.171875 482.367188 308.066406 C 480.75 311.960938 479.234375 315.894531 477.8125 319.867188 C 476.390625 323.839844 475.070312 327.839844 473.847656 331.878906 C 472.621094 335.914062 471.496094 339.976562 470.472656 344.066406 C 469.449219 348.160156 468.523438 352.273438 467.699219 356.410156 C 466.878906 360.546875 466.15625 364.699219 465.539062 368.871094 C 464.917969 373.042969 464.402344 377.226562 463.992188 381.425781 C 463.578125 385.621094 463.265625 389.824219 463.058594 394.039062 C 462.851562 398.25 462.75 402.464844 462.75 406.683594 C 462.75 410.898438 462.851562 415.113281 463.058594 419.328125 C 463.265625 423.539062 463.578125 427.746094 463.992188 431.941406 C 464.402344 436.136719 464.921875 440.324219 465.539062 444.496094 C 466.15625 448.667969 466.878906 452.820312 467.699219 456.957031 C 468.523438 461.09375 469.449219 465.207031 470.472656 469.296875 C 471.496094 473.390625 472.621094 477.453125 473.847656 481.488281 C 475.070312 485.523438 476.394531 489.527344 477.8125 493.5 C 479.234375 497.46875 480.75 501.402344 482.367188 505.300781 C 483.980469 509.195312 485.6875 513.050781 487.492188 516.863281 C 489.292969 520.675781 491.191406 524.441406 493.179688 528.160156 C 495.167969 531.878906 497.246094 535.546875 499.414062 539.164062 C 501.582031 542.78125 503.835938 546.34375 506.179688 549.851562 C 508.523438 553.359375 510.949219 556.804688 513.460938 560.191406 C 515.972656 563.578125 518.570312 566.902344 521.242188 570.164062 C 523.917969 573.421875 526.671875 576.617188 529.503906 579.742188 C 532.335938 582.867188 535.246094 585.917969 538.226562 588.902344 C 541.210938 591.882812 544.261719 594.789062 547.386719 597.625 C 550.511719 600.457031 553.703125 603.210938 556.964844 605.886719 C 560.226562 608.558594 563.550781 611.152344 566.9375 613.667969 C 570.324219 616.179688 573.769531 618.605469 577.277344 620.949219 C 580.785156 623.292969 584.347656 625.546875 587.964844 627.714844 C 591.582031 629.882812 595.25 631.960938 598.96875 633.949219 C 602.6875 635.9375 606.453125 637.835938 610.265625 639.636719 C 614.078125 641.441406 617.933594 643.148438 621.828125 644.761719 C 625.726562 646.378906 629.660156 647.894531 633.628906 649.316406 C 637.601562 650.734375 641.605469 652.058594 645.640625 653.28125 C 649.675781 654.507812 653.738281 655.632812 657.832031 656.65625 C 661.921875 657.679688 666.035156 658.605469 670.171875 659.425781 C 674.308594 660.25 678.460938 660.972656 682.632812 661.589844 C 686.804688 662.207031 690.992188 662.726562 695.1875 663.136719 C 699.382812 663.550781 703.589844 663.863281 707.800781 664.070312 C 712.015625 664.277344 716.230469 664.378906 720.445312 664.378906 C 724.664062 664.378906 728.878906 664.277344 733.089844 664.070312 C 737.304688 663.863281 741.507812 663.550781 745.703125 663.136719 C 749.902344 662.726562 754.085938 662.207031 758.257812 661.589844 C 762.429688 660.972656 766.582031 660.25 770.71875 659.425781 C 774.855469 658.605469 778.96875 657.679688 783.0625 656.65625 C 787.152344 655.632812 791.214844 654.507812 795.25 653.28125 C 799.289062 652.058594 803.289062 650.734375 807.261719 649.316406 C 811.230469 647.894531 815.164062 646.375 819.0625 644.761719 C 822.957031 643.148438 826.8125 641.441406 830.625 639.636719 C 834.4375 637.835938 838.203125 635.9375 841.921875 633.949219 C 845.644531 631.960938 849.3125 629.882812 852.929688 627.714844 C 856.546875 625.546875 860.109375 623.292969 863.613281 620.949219 C 867.121094 618.605469 870.566406 616.179688 873.957031 613.664062 C 877.34375 611.152344 880.667969 608.558594 883.925781 605.882812 C 887.1875 603.207031 890.378906 600.453125 893.503906 597.621094 C 896.628906 594.789062 899.683594 591.882812 902.664062 588.902344 C 905.648438 585.917969 908.554688 582.863281 911.386719 579.742188 C 914.21875 576.617188 916.972656 573.421875 919.648438 570.164062 C 922.324219 566.902344 924.917969 563.578125 927.429688 560.191406 C 929.941406 556.804688 932.371094 553.355469 934.710938 549.851562 C 937.054688 546.34375 939.3125 542.78125 941.480469 539.164062 C 943.648438 535.546875 945.726562 531.878906 947.714844 528.160156 C 949.703125 524.4375 951.597656 520.671875 953.402344 516.859375 C 955.203125 513.046875 956.914062 509.195312 958.527344 505.296875 C 960.140625 501.402344 961.65625 497.46875 963.078125 493.496094 C 964.5 489.523438 965.820312 485.523438 967.046875 481.484375 C 968.269531 477.449219 969.394531 473.386719 970.417969 469.296875 C 971.445312 465.203125 972.367188 461.089844 973.191406 456.953125 C 974.015625 452.816406 974.734375 448.664062 975.351562 444.492188 C 975.972656 440.320312 976.488281 436.136719 976.902344 431.9375 C 977.316406 427.742188 977.625 423.535156 977.832031 419.324219 C 978.039062 415.113281 978.140625 410.898438 978.144531 406.679688 C 978.136719 402.464844 978.03125 398.25 977.820312 394.039062 C 977.605469 389.828125 977.292969 385.625 976.875 381.429688 C 976.457031 377.234375 975.9375 373.050781 975.316406 368.882812 C 974.695312 364.710938 973.96875 360.558594 973.144531 356.425781 C 972.316406 352.292969 971.390625 348.179688 970.363281 344.089844 C 969.335938 340 968.207031 335.941406 966.980469 331.90625 C 965.753906 327.871094 964.429688 323.871094 963.007812 319.902344 C 961.585938 315.933594 960.066406 312.003906 958.449219 308.109375 C 956.832031 304.214844 955.125 300.363281 953.320312 296.550781 C 951.515625 292.742188 949.617188 288.976562 947.628906 285.257812 C 945.640625 281.542969 943.5625 277.875 941.390625 274.261719 C 939.222656 270.644531 936.96875 267.085938 934.625 263.578125 C 932.28125 260.074219 929.851562 256.628906 927.339844 253.242188 C 924.828125 249.859375 922.234375 246.535156 919.558594 243.277344 C 916.882812 240.019531 914.128906 236.828125 911.300781 233.703125 C 908.46875 230.578125 905.5625 227.527344 902.578125 224.546875 C 899.597656 221.5625 896.546875 218.65625 893.421875 215.828125 C 890.296875 212.996094 887.105469 210.242188 883.847656 207.566406 C 880.589844 204.890625 877.265625 202.296875 873.882812 199.785156 C 870.496094 197.273438 867.050781 194.84375 863.542969 192.503906 C 860.039062 190.160156 856.480469 187.902344 852.863281 185.734375 C 849.25 183.566406 845.582031 181.488281 841.863281 179.496094 C 838.148438 177.507812 834.382812 175.613281 830.574219 173.808594 C 826.761719 172.003906 822.910156 170.292969 819.015625 168.675781 C 815.121094 167.0625 811.191406 165.542969 807.222656 164.121094 C 803.253906 162.695312 799.25 161.371094 795.21875 160.144531 C 791.183594 158.917969 787.121094 157.792969 783.03125 156.765625 C 778.945312 155.738281 774.832031 154.808594 770.699219 153.984375 C 766.5625 153.160156 762.410156 152.433594 758.242188 151.8125 C 754.070312 151.191406 749.886719 150.671875 745.691406 150.253906 C 741.496094 149.835938 737.292969 149.519531 733.082031 149.308594 C 728.871094 149.097656 724.660156 148.992188 720.445312 148.984375 Z M 720.445312 642.027344 C 716.59375 642.027344 712.742188 641.929688 708.894531 641.742188 C 705.050781 641.554688 701.207031 641.269531 697.375 640.890625 C 693.542969 640.515625 689.722656 640.042969 685.910156 639.476562 C 682.101562 638.914062 678.308594 638.253906 674.53125 637.503906 C 670.753906 636.75 666.996094 635.90625 663.261719 634.972656 C 659.523438 634.035156 655.8125 633.007812 652.128906 631.890625 C 648.441406 630.773438 644.785156 629.566406 641.160156 628.269531 C 637.53125 626.96875 633.941406 625.585938 630.382812 624.109375 C 626.824219 622.636719 623.304688 621.078125 619.824219 619.429688 C 616.339844 617.78125 612.902344 616.050781 609.503906 614.234375 C 606.109375 612.421875 602.757812 610.523438 599.453125 608.542969 C 596.152344 606.5625 592.898438 604.503906 589.695312 602.363281 C 586.492188 600.222656 583.34375 598.003906 580.25 595.710938 C 577.15625 593.417969 574.121094 591.046875 571.144531 588.605469 C 568.167969 586.160156 565.253906 583.644531 562.398438 581.058594 C 559.542969 578.472656 556.757812 575.816406 554.03125 573.09375 C 551.308594 570.371094 548.652344 567.582031 546.066406 564.730469 C 543.480469 561.875 540.964844 558.960938 538.523438 555.980469 C 536.078125 553.003906 533.710938 549.96875 531.417969 546.875 C 529.121094 543.78125 526.90625 540.632812 524.765625 537.433594 C 522.625 534.230469 520.566406 530.976562 518.585938 527.671875 C 516.605469 524.367188 514.707031 521.019531 512.890625 517.621094 C 511.078125 514.226562 509.34375 510.785156 507.699219 507.304688 C 506.050781 503.824219 504.492188 500.300781 503.015625 496.742188 C 501.542969 493.1875 500.15625 489.59375 498.859375 485.96875 C 497.5625 482.339844 496.355469 478.683594 495.238281 475 C 494.117188 471.3125 493.09375 467.601562 492.15625 463.867188 C 491.21875 460.128906 490.375 456.375 489.625 452.59375 C 488.875 448.816406 488.214844 445.023438 487.648438 441.214844 C 487.085938 437.40625 486.613281 433.582031 486.238281 429.75 C 485.859375 425.917969 485.574219 422.078125 485.386719 418.230469 C 485.199219 414.382812 485.101562 410.535156 485.101562 406.683594 C 485.101562 402.832031 485.199219 398.980469 485.386719 395.136719 C 485.574219 391.289062 485.859375 387.449219 486.238281 383.613281 C 486.613281 379.78125 487.085938 375.960938 487.652344 372.152344 C 488.214844 368.339844 488.875 364.546875 489.625 360.769531 C 490.375 356.992188 491.21875 353.234375 492.15625 349.5 C 493.09375 345.761719 494.121094 342.050781 495.238281 338.367188 C 496.355469 334.679688 497.5625 331.023438 498.859375 327.398438 C 500.160156 323.773438 501.542969 320.179688 503.019531 316.621094 C 504.492188 313.0625 506.050781 309.542969 507.699219 306.058594 C 509.347656 302.578125 511.078125 299.140625 512.894531 295.742188 C 514.707031 292.347656 516.605469 288.996094 518.585938 285.691406 C 520.566406 282.386719 522.625 279.136719 524.765625 275.933594 C 526.90625 272.730469 529.125 269.582031 531.417969 266.488281 C 533.710938 263.394531 536.082031 260.359375 538.523438 257.382812 C 540.96875 254.40625 543.484375 251.488281 546.070312 248.636719 C 548.65625 245.78125 551.3125 242.992188 554.035156 240.269531 C 556.757812 237.546875 559.546875 234.890625 562.398438 232.304688 C 565.253906 229.71875 568.167969 227.203125 571.148438 224.761719 C 574.125 222.316406 577.160156 219.949219 580.253906 217.652344 C 583.347656 215.359375 586.496094 213.140625 589.695312 211.003906 C 592.898438 208.863281 596.152344 206.800781 599.457031 204.824219 C 602.757812 202.84375 606.109375 200.945312 609.507812 199.128906 C 612.902344 197.3125 616.34375 195.582031 619.824219 193.933594 C 623.304688 192.289062 626.828125 190.726562 630.382812 189.253906 C 633.941406 187.78125 637.535156 186.394531 641.160156 185.097656 C 644.789062 183.800781 648.445312 182.589844 652.128906 181.472656 C 655.816406 180.355469 659.527344 179.328125 663.261719 178.394531 C 667 177.457031 670.753906 176.613281 674.53125 175.863281 C 678.3125 175.109375 682.105469 174.453125 685.914062 173.886719 C 689.722656 173.320312 693.546875 172.851562 697.378906 172.472656 C 701.210938 172.09375 705.050781 171.8125 708.898438 171.625 C 712.746094 171.433594 716.59375 171.339844 720.445312 171.339844 C 724.296875 171.339844 728.148438 171.433594 731.992188 171.625 C 735.839844 171.8125 739.679688 172.09375 743.515625 172.472656 C 747.347656 172.851562 751.167969 173.320312 754.976562 173.886719 C 758.789062 174.453125 762.582031 175.109375 766.359375 175.863281 C 770.136719 176.613281 773.894531 177.457031 777.628906 178.394531 C 781.367188 179.328125 785.078125 180.355469 788.761719 181.472656 C 792.449219 182.59375 796.105469 183.800781 799.730469 185.097656 C 803.355469 186.394531 806.949219 187.78125 810.507812 189.253906 C 814.066406 190.726562 817.585938 192.289062 821.066406 193.933594 C 824.550781 195.582031 827.988281 197.3125 831.386719 199.128906 C 834.78125 200.945312 838.132812 202.84375 841.4375 204.824219 C 844.738281 206.800781 847.992188 208.863281 851.195312 211.003906 C 854.398438 213.140625 857.546875 215.359375 860.640625 217.652344 C 863.734375 219.949219 866.769531 222.316406 869.746094 224.761719 C 872.722656 227.203125 875.640625 229.71875 878.492188 232.304688 C 881.347656 234.890625 884.136719 237.546875 886.859375 240.269531 C 889.582031 242.992188 892.238281 245.78125 894.824219 248.636719 C 897.410156 251.488281 899.925781 254.40625 902.367188 257.382812 C 904.8125 260.359375 907.179688 263.394531 909.476562 266.488281 C 911.769531 269.582031 913.988281 272.730469 916.125 275.933594 C 918.265625 279.136719 920.328125 282.386719 922.304688 285.691406 C 924.285156 288.996094 926.183594 292.34375 928 295.742188 C 929.816406 299.136719 931.546875 302.578125 933.195312 306.058594 C 934.839844 309.542969 936.402344 313.0625 937.875 316.621094 C 939.347656 320.179688 940.734375 323.769531 942.03125 327.398438 C 943.328125 331.023438 944.539062 334.679688 945.65625 338.363281 C 946.773438 342.050781 947.800781 345.761719 948.734375 349.496094 C 949.671875 353.234375 950.515625 356.988281 951.265625 360.769531 C 952.019531 364.546875 952.675781 368.339844 953.242188 372.148438 C 953.808594 375.957031 954.277344 379.78125 954.65625 383.613281 C 955.035156 387.445312 955.316406 391.285156 955.503906 395.132812 C 955.695312 398.980469 955.789062 402.828125 955.789062 406.679688 C 955.785156 410.53125 955.6875 414.378906 955.492188 418.222656 C 955.300781 422.070312 955.011719 425.910156 954.632812 429.738281 C 954.25 433.570312 953.777344 437.390625 953.207031 441.199219 C 952.640625 445.007812 951.976562 448.800781 951.222656 452.574219 C 950.46875 456.351562 949.621094 460.105469 948.683594 463.839844 C 947.746094 467.574219 946.714844 471.285156 945.597656 474.96875 C 944.476562 478.652344 943.265625 482.304688 941.964844 485.929688 C 940.667969 489.554688 939.28125 493.144531 937.804688 496.703125 C 936.328125 500.257812 934.765625 503.777344 933.117188 507.257812 C 931.472656 510.738281 929.738281 514.175781 927.921875 517.570312 C 926.105469 520.964844 924.207031 524.3125 922.226562 527.613281 C 920.246094 530.917969 918.1875 534.167969 916.046875 537.367188 C 913.90625 540.570312 911.6875 543.714844 909.394531 546.808594 C 907.097656 549.902344 904.730469 552.933594 902.289062 555.910156 C 899.84375 558.886719 897.328125 561.800781 894.742188 564.65625 C 892.15625 567.507812 889.503906 570.296875 886.78125 573.019531 C 884.058594 575.742188 881.269531 578.394531 878.417969 580.980469 C 875.566406 583.566406 872.652344 586.082031 869.675781 588.523438 C 866.699219 590.96875 863.664062 593.335938 860.570312 595.628906 C 857.480469 597.925781 854.332031 600.140625 851.132812 602.28125 C 847.929688 604.421875 844.679688 606.484375 841.378906 608.464844 C 838.074219 610.445312 834.726562 612.34375 831.332031 614.160156 C 827.9375 615.976562 824.5 617.707031 821.019531 619.355469 C 817.539062 621.003906 814.023438 622.566406 810.464844 624.039062 C 806.910156 625.515625 803.320312 626.902344 799.695312 628.203125 C 796.070312 629.503906 792.414062 630.710938 788.730469 631.832031 C 785.046875 632.953125 781.339844 633.984375 777.605469 634.921875 C 773.871094 635.859375 770.113281 636.707031 766.339844 637.460938 C 762.5625 638.214844 758.769531 638.875 754.960938 639.445312 C 751.15625 640.011719 747.335938 640.488281 743.503906 640.867188 C 739.671875 641.25 735.832031 641.535156 731.988281 641.730469 C 728.140625 641.921875 724.292969 642.019531 720.445312 642.027344 Z M 720.445312 642.027344 " fill-opacity="1" fill-rule="nonzero"/></g></svg>