<svg xmlns="http://www.w3.org/2000/svg" xmlns:xlink="http://www.w3.org/1999/xlink" width="1920" zoomAndPan="magnify" viewBox="0 0 1440 809.999993" height="1080" preserveAspectRatio="xMidYMid meet" version="1.0"><defs><clipPath id="bc9f8119b3"><path d="M 639 146.539062 L 682 146.539062 L 682 203 L 639 203 Z M 639 146.539062 " clip-rule="nonzero"/></clipPath><clipPath id="bac6a9b57c"><path d="M 758 146.539062 L 801 146.539062 L 801 203 L 758 203 Z M 758 146.539062 " clip-rule="nonzero"/></clipPath><clipPath id="f541c15f33"><path d="M 581.253906 591 L 594 591 L 594 663 L 581.253906 663 Z M 581.253906 591 " clip-rule="nonzero"/></clipPath><clipPath id="62d4b33e1f"><path d="M 581.253906 284 L 711 284 L 711 359 L 581.253906 359 Z M 581.253906 284 " clip-rule="nonzero"/></clipPath><clipPath id="eaec5e1005"><path d="M 729 284 L 858.753906 284 L 858.753906 359 L 729 359 Z M 729 284 " clip-rule="nonzero"/></clipPath><clipPath id="b5ceedbba4"><path d="M 581.253906 376 L 858.753906 376 L 858.753906 654 L 581.253906 654 Z M 581.253906 376 " clip-rule="nonzero"/></clipPath><clipPath id="19b680cd6c"><path d="M 846 591 L 858.753906 591 L 858.753906 663 L 846 663 Z M 846 591 " clip-rule="nonzero"/></clipPath><clipPath id="a2190b1f1d"><path d="M 581 589.867188 L 598.039062 589.867188 L 598.039062 654 L 581 654 Z M 581 589.867188 " clip-rule="nonzero"/></clipPath><clipPath id="afb315aab6"><path d="M 838.574219 589.867188 L 859 589.867188 L 859 654 L 838.574219 654 Z M 838.574219 589.867188 " clip-rule="nonzero"/></clipPath></defs><path fill="#003e52" d="M 532.488281 660.101562 L 593.222656 606.632812 C 589.589844 601.632812 586.171875 596.449219 583.148438 591.050781 L 520.398438 646.25 C 516.582031 649.558594 516.257812 655.421875 519.570312 659.238281 C 522.84375 662.980469 528.78125 663.410156 532.488281 660.101562 " fill-opacity="1" fill-rule="nonzero"/><path fill="#003e52" d="M 809.6875 267.867188 C 800.402344 234.585938 764.960938 211.015625 734.019531 211.015625 L 705.808594 211.015625 C 674.863281 211.015625 639.421875 234.585938 630.140625 267.867188 C 635.359375 266.859375 640.71875 266.285156 646.222656 266.285156 L 793.605469 266.285156 C 799.109375 266.285156 804.46875 266.859375 809.6875 267.867188 " fill-opacity="1" fill-rule="nonzero"/><path fill="#003e52" d="M 581.746094 349.1875 L 581.746094 358.398438 L 710.703125 358.398438 L 710.703125 284.707031 L 646.222656 284.707031 C 610.675781 284.707031 581.746094 313.636719 581.746094 349.1875 " fill-opacity="1" fill-rule="nonzero"/><path fill="#003e52" d="M 510.394531 250.957031 C 507.046875 254.734375 507.335938 260.5625 511.113281 263.910156 C 511.292969 264.054688 570.085938 316.441406 570.085938 316.441406 C 572.605469 310.648438 575.808594 305.214844 579.515625 300.144531 L 523.3125 250.128906 C 519.535156 246.820312 513.703125 247.179688 510.394531 250.957031 " fill-opacity="1" fill-rule="nonzero"/><path fill="#003e52" d="M 929.46875 250.992188 C 926.160156 247.179688 920.257812 246.820312 916.480469 250.164062 C 916.445312 250.238281 860.3125 300.179688 860.3125 300.179688 C 864.019531 305.214844 867.222656 310.648438 869.742188 316.441406 L 928.605469 264.019531 C 932.457031 260.671875 932.816406 254.84375 929.46875 250.992188 " fill-opacity="1" fill-rule="nonzero"/><path fill="#003e52" d="M 968.617188 413.664062 C 973.691406 413.664062 977.828125 409.527344 977.828125 404.453125 C 977.828125 399.378906 973.691406 395.242188 968.617188 395.242188 L 876.503906 395.242188 L 876.503906 413.664062 L 968.617188 413.664062 " fill-opacity="1" fill-rule="nonzero"/><path fill="#003e52" d="M 876.035156 524.199219 L 968.617188 524.199219 C 973.691406 524.199219 977.828125 520.0625 977.828125 514.988281 C 977.828125 509.914062 973.691406 505.777344 968.617188 505.777344 L 876.503906 505.777344 L 876.503906 514.988281 C 876.503906 518.117188 876.21875 521.140625 876.035156 524.199219 " fill-opacity="1" fill-rule="nonzero"/><g clip-path="url(#bc9f8119b3)"><path fill="#003e52" d="M 681.125 196.15625 L 656.585938 151.863281 C 655.328125 149.34375 653.421875 147.726562 651.046875 146.96875 C 648.742188 146.214844 646.261719 146.429688 644.101562 147.546875 C 639.566406 149.886719 637.769531 155.460938 640.070312 159.996094 L 663.925781 202.8125 C 669.433594 200.042969 675.1875 197.847656 681.125 196.15625 " fill-opacity="1" fill-rule="nonzero"/></g><path fill="#003e52" d="M 858.082031 349.1875 C 858.082031 313.636719 829.152344 284.707031 793.605469 284.707031 L 729.125 284.707031 L 729.125 358.398438 L 858.082031 358.398438 L 858.082031 349.1875 " fill-opacity="1" fill-rule="nonzero"/><g clip-path="url(#bac6a9b57c)"><path fill="#003e52" d="M 795.761719 147.582031 C 793.566406 146.429688 791.085938 146.214844 788.78125 146.96875 C 786.40625 147.726562 784.5 149.34375 783.386719 151.578125 L 758.703125 196.15625 C 764.640625 197.847656 770.394531 200.042969 775.902344 202.8125 L 799.902344 159.671875 C 802.058594 155.460938 800.261719 149.886719 795.761719 147.582031 " fill-opacity="1" fill-rule="nonzero"/></g><path fill="#003e52" d="M 827.75 512.289062 L 781.695312 558.34375 C 779.894531 560.144531 777.554688 561.042969 775.179688 561.042969 C 772.804688 561.042969 770.46875 560.144531 768.667969 558.34375 C 765.070312 554.746094 765.070312 548.917969 768.667969 545.320312 L 808.210938 505.777344 L 768.667969 466.234375 C 765.070312 462.636719 765.070312 456.804688 768.667969 453.207031 C 772.265625 449.609375 778.097656 449.609375 781.695312 453.207031 L 827.75 499.265625 C 831.347656 502.863281 831.347656 508.691406 827.75 512.289062 Z M 747.1875 443.816406 L 710.34375 572.773438 C 709.191406 576.839844 705.484375 579.464844 701.492188 579.464844 C 700.664062 579.464844 699.800781 579.359375 698.972656 579.105469 C 694.078125 577.703125 691.238281 572.628906 692.640625 567.738281 L 729.484375 438.78125 C 730.886719 433.886719 735.996094 431.078125 740.855469 432.445312 C 745.75 433.851562 748.589844 438.921875 747.1875 443.816406 Z M 671.160156 545.320312 C 674.757812 548.917969 674.757812 554.746094 671.160156 558.34375 C 669.359375 560.144531 667.019531 561.042969 664.644531 561.042969 C 662.273438 561.042969 659.933594 560.144531 658.132812 558.34375 L 612.078125 512.289062 C 608.480469 508.691406 608.480469 502.863281 612.078125 499.265625 L 658.132812 453.207031 C 661.730469 449.609375 667.5625 449.609375 671.160156 453.207031 C 674.757812 456.804688 674.757812 462.636719 671.160156 466.234375 L 631.617188 505.777344 Z M 858.082031 376.820312 L 581.746094 376.820312 L 581.746094 514.988281 C 581.746094 591.160156 643.707031 653.15625 719.914062 653.15625 C 796.121094 653.15625 858.082031 591.160156 858.082031 514.988281 L 858.082031 376.820312 " fill-opacity="1" fill-rule="nonzero"/><path fill="#003e52" d="M 471.210938 395.242188 C 466.136719 395.242188 462 399.378906 462 404.453125 C 462 409.527344 466.136719 413.664062 471.210938 413.664062 L 563.324219 413.664062 L 563.324219 395.242188 L 471.210938 395.242188 " fill-opacity="1" fill-rule="nonzero"/><path fill="#003e52" d="M 846.605469 606.632812 L 907.304688 660.066406 C 911.011719 663.410156 916.910156 663.050781 920.222656 659.273438 C 923.460938 655.566406 923.246094 649.628906 919.464844 646.320312 C 919.214844 646.066406 856.679688 591.015625 856.679688 591.015625 C 853.65625 596.449219 850.238281 601.632812 846.605469 606.632812 " fill-opacity="1" fill-rule="nonzero"/><path fill="#003e52" d="M 471.210938 505.777344 C 466.136719 505.777344 462 509.914062 462 514.988281 C 462 520.0625 466.136719 524.199219 471.210938 524.199219 L 563.789062 524.199219 C 563.609375 521.140625 563.324219 518.117188 563.324219 514.988281 L 563.324219 505.777344 L 471.210938 505.777344 " fill-opacity="1" fill-rule="nonzero"/><g clip-path="url(#f541c15f33)"><path fill="#ff8400" d="M 532.574219 660.101562 L 593.308594 606.632812 C 589.675781 601.632812 586.257812 596.449219 583.234375 591.050781 L 520.484375 646.25 C 516.671875 649.558594 516.347656 655.421875 519.65625 659.238281 C 522.929688 662.980469 528.867188 663.410156 532.574219 660.101562 " fill-opacity="1" fill-rule="nonzero"/></g><g clip-path="url(#62d4b33e1f)"><path fill="#ff8400" d="M 581.832031 349.1875 L 581.832031 358.398438 L 710.789062 358.398438 L 710.789062 284.707031 L 646.3125 284.707031 C 610.761719 284.707031 581.832031 313.636719 581.832031 349.1875 " fill-opacity="1" fill-rule="nonzero"/></g><g clip-path="url(#eaec5e1005)"><path fill="#ff8400" d="M 858.167969 349.1875 C 858.167969 313.636719 829.238281 284.707031 793.691406 284.707031 L 729.210938 284.707031 L 729.210938 358.398438 L 858.167969 358.398438 L 858.167969 349.1875 " fill-opacity="1" fill-rule="nonzero"/></g><g clip-path="url(#b5ceedbba4)"><path fill="#ff8400" d="M 827.835938 512.289062 L 781.78125 558.34375 C 779.980469 560.144531 777.644531 561.042969 775.269531 561.042969 C 772.894531 561.042969 770.554688 560.144531 768.753906 558.34375 C 765.15625 554.746094 765.15625 548.917969 768.753906 545.320312 L 808.300781 505.777344 L 768.753906 466.234375 C 765.15625 462.636719 765.15625 456.804688 768.753906 453.207031 C 772.355469 449.609375 778.183594 449.609375 781.78125 453.207031 L 827.835938 499.265625 C 831.433594 502.863281 831.433594 508.691406 827.835938 512.289062 Z M 747.273438 443.816406 L 710.429688 572.773438 C 709.277344 576.839844 705.570312 579.464844 701.578125 579.464844 C 700.75 579.464844 699.886719 579.359375 699.058594 579.105469 C 694.167969 577.703125 691.324219 572.628906 692.726562 567.738281 L 729.570312 438.78125 C 730.976562 433.886719 736.085938 431.078125 740.941406 432.445312 C 745.835938 433.851562 748.679688 438.921875 747.273438 443.816406 Z M 671.246094 545.320312 C 674.84375 548.917969 674.84375 554.746094 671.246094 558.34375 C 669.445312 560.144531 667.109375 561.042969 664.734375 561.042969 C 662.359375 561.042969 660.019531 560.144531 658.222656 558.34375 L 612.164062 512.289062 C 608.566406 508.691406 608.566406 502.863281 612.164062 499.265625 L 658.222656 453.207031 C 661.820312 449.609375 667.648438 449.609375 671.246094 453.207031 C 674.84375 456.804688 674.84375 462.636719 671.246094 466.234375 L 631.703125 505.777344 Z M 858.167969 376.820312 L 581.832031 376.820312 L 581.832031 514.988281 C 581.832031 591.160156 643.792969 653.15625 720 653.15625 C 796.210938 653.15625 858.167969 591.160156 858.167969 514.988281 L 858.167969 376.820312 " fill-opacity="1" fill-rule="nonzero"/></g><g clip-path="url(#19b680cd6c)"><path fill="#ff8400" d="M 846.691406 606.632812 L 907.390625 660.066406 C 911.097656 663.410156 917 663.050781 920.308594 659.273438 C 923.546875 655.566406 923.332031 649.628906 919.554688 646.320312 C 919.300781 646.066406 856.765625 591.015625 856.765625 591.015625 C 853.742188 596.449219 850.324219 601.632812 846.691406 606.632812 " fill-opacity="1" fill-rule="nonzero"/></g><path fill="#003e52" d="M 532.488281 660.101562 L 593.222656 606.632812 C 589.589844 601.632812 586.171875 596.449219 583.148438 591.050781 L 520.398438 646.25 C 516.582031 649.558594 516.257812 655.421875 519.570312 659.238281 C 522.84375 662.980469 528.78125 663.410156 532.488281 660.101562 " fill-opacity="1" fill-rule="nonzero"/><g clip-path="url(#a2190b1f1d)"><path fill="#003e52" d="M 827.75 512.289062 L 781.695312 558.34375 C 779.894531 560.144531 777.554688 561.042969 775.179688 561.042969 C 772.804688 561.042969 770.46875 560.144531 768.667969 558.34375 C 765.070312 554.746094 765.070312 548.917969 768.667969 545.320312 L 808.210938 505.777344 L 768.667969 466.234375 C 765.070312 462.636719 765.070312 456.804688 768.667969 453.207031 C 772.265625 449.609375 778.097656 449.609375 781.695312 453.207031 L 827.75 499.265625 C 831.347656 502.863281 831.347656 508.691406 827.75 512.289062 Z M 747.1875 443.816406 L 710.34375 572.773438 C 709.191406 576.839844 705.484375 579.464844 701.492188 579.464844 C 700.664062 579.464844 699.800781 579.359375 698.972656 579.105469 C 694.078125 577.703125 691.238281 572.628906 692.640625 567.738281 L 729.484375 438.78125 C 730.886719 433.886719 735.996094 431.078125 740.855469 432.445312 C 745.75 433.851562 748.589844 438.921875 747.1875 443.816406 Z M 671.160156 545.320312 C 674.757812 548.917969 674.757812 554.746094 671.160156 558.34375 C 669.359375 560.144531 667.019531 561.042969 664.644531 561.042969 C 662.273438 561.042969 659.933594 560.144531 658.132812 558.34375 L 612.078125 512.289062 C 608.480469 508.691406 608.480469 502.863281 612.078125 499.265625 L 658.132812 453.207031 C 661.730469 449.609375 667.5625 449.609375 671.160156 453.207031 C 674.757812 456.804688 674.757812 462.636719 671.160156 466.234375 L 631.617188 505.777344 Z M 858.082031 376.820312 L 581.746094 376.820312 L 581.746094 514.988281 C 581.746094 591.160156 643.707031 653.15625 719.914062 653.15625 C 796.121094 653.15625 858.082031 591.160156 858.082031 514.988281 L 858.082031 376.820312 " fill-opacity="1" fill-rule="nonzero"/></g><g clip-path="url(#afb315aab6)"><path fill="#003e52" d="M 828.191406 512.289062 L 782.136719 558.34375 C 780.335938 560.144531 777.996094 561.042969 775.621094 561.042969 C 773.25 561.042969 770.910156 560.144531 769.109375 558.34375 C 765.511719 554.746094 765.511719 548.917969 769.109375 545.320312 L 808.652344 505.777344 L 769.109375 466.234375 C 765.511719 462.636719 765.511719 456.804688 769.109375 453.207031 C 772.707031 449.609375 778.539062 449.609375 782.136719 453.207031 L 828.191406 499.265625 C 831.789062 502.863281 831.789062 508.691406 828.191406 512.289062 Z M 747.628906 443.816406 L 710.785156 572.773438 C 709.632812 576.839844 705.925781 579.464844 701.933594 579.464844 C 701.105469 579.464844 700.242188 579.359375 699.414062 579.105469 C 694.519531 577.703125 691.679688 572.628906 693.082031 567.738281 L 729.925781 438.78125 C 731.328125 433.886719 736.4375 431.078125 741.296875 432.445312 C 746.191406 433.851562 749.03125 438.921875 747.628906 443.816406 Z M 671.601562 545.320312 C 675.199219 548.917969 675.199219 554.746094 671.601562 558.34375 C 669.800781 560.144531 667.464844 561.042969 665.089844 561.042969 C 662.714844 561.042969 660.375 560.144531 658.574219 558.34375 L 612.519531 512.289062 C 608.921875 508.691406 608.921875 502.863281 612.519531 499.265625 L 658.574219 453.207031 C 662.171875 449.609375 668.003906 449.609375 671.601562 453.207031 C 675.199219 456.804688 675.199219 462.636719 671.601562 466.234375 L 632.058594 505.777344 Z M 858.523438 376.820312 L 582.1875 376.820312 L 582.1875 514.988281 C 582.1875 591.160156 644.148438 653.15625 720.355469 653.15625 C 796.5625 653.15625 858.523438 591.160156 858.523438 514.988281 L 858.523438 376.820312 " fill-opacity="1" fill-rule="nonzero"/></g><path fill="#003e52" d="M 847.046875 606.632812 L 907.746094 660.066406 C 911.453125 663.410156 917.355469 663.050781 920.664062 659.273438 C 923.902344 655.566406 923.6875 649.628906 919.910156 646.320312 C 919.65625 646.066406 857.121094 591.015625 857.121094 591.015625 C 854.097656 596.449219 850.679688 601.632812 847.046875 606.632812 " fill-opacity="1" fill-rule="nonzero"/></svg>