<svg xmlns="http://www.w3.org/2000/svg" xmlns:xlink="http://www.w3.org/1999/xlink" width="1920" zoomAndPan="magnify" viewBox="0 0 1440 809.999993" height="1080" preserveAspectRatio="xMidYMid meet" version="1.0"><defs><clipPath id="3428d2526c"><path d="M 408 151 L 1029 151 L 1029 665.777344 L 408 665.777344 Z M 408 151 " clip-rule="nonzero"/></clipPath><clipPath id="6108762258"><path d="M 584.84375 396.414062 L 854.84375 396.414062 L 854.84375 665.664062 L 584.84375 665.664062 Z M 584.84375 396.414062 " clip-rule="nonzero"/></clipPath></defs><g clip-path="url(#3428d2526c)"><path fill="#003e52" d="M 583.609375 549.992188 L 531.558594 549.992188 C 423.363281 549.992188 368.039062 419.335938 443.855469 341.925781 C 461.480469 323.492188 484.839844 310.796875 511.070312 306.699219 C 505.332031 185.464844 640.574219 109.285156 741.394531 176.863281 C 761.066406 190.378906 777.457031 207.992188 788.933594 229.289062 C 847.128906 210.039062 908.605469 246.082031 920.898438 305.882812 C 1021.308594 318.167969 1064.75 441.453125 992.210938 513.949219 C 970.078125 536.066406 939.339844 549.992188 905.734375 549.992188 L 853.6875 549.992188 L 853.6875 622.078125 C 853.6875 647.472656 832.785156 668.359375 807.375 668.359375 L 734.835938 668.359375 L 734.835938 727.339844 L 752.457031 727.339844 C 768.03125 727.339844 780.328125 740.035156 780.328125 755.191406 L 780.328125 773.214844 L 872.539062 773.214844 L 872.539062 755.191406 C 872.539062 740.035156 884.835938 727.339844 900.40625 727.339844 L 968.03125 727.339844 C 983.601562 727.339844 995.898438 739.628906 995.898438 755.191406 L 995.898438 823.183594 C 995.898438 838.335938 983.601562 851.035156 968.03125 851.035156 L 900.40625 851.035156 C 884.835938 851.035156 872.539062 838.335938 872.539062 823.183594 L 872.539062 805.980469 L 780.328125 805.980469 L 780.328125 823.183594 C 780.328125 838.335938 768.03125 851.035156 752.457031 851.035156 L 684.425781 851.035156 C 669.261719 851.035156 656.558594 838.335938 656.558594 823.183594 L 656.558594 805.980469 L 564.757812 805.980469 L 564.757812 823.183594 C 564.757812 838.335938 552.460938 851.035156 536.886719 851.035156 L 468.855469 851.035156 C 453.691406 851.035156 440.988281 838.335938 440.988281 823.183594 L 440.988281 755.191406 C 440.988281 740.035156 453.691406 727.339844 468.855469 727.339844 L 536.886719 727.339844 C 552.460938 727.339844 564.757812 739.628906 564.757812 755.191406 L 564.757812 773.214844 L 656.558594 773.214844 L 656.558594 755.191406 C 656.558594 740.035156 669.261719 727.339844 684.425781 727.339844 L 702.050781 727.339844 L 702.050781 668.359375 L 629.917969 668.359375 C 604.511719 668.359375 583.609375 647.472656 583.609375 622.078125 Z M 531.96875 760.105469 L 473.773438 760.105469 L 473.773438 818.265625 L 531.96875 818.265625 Z M 963.113281 760.105469 L 905.324219 760.105469 L 905.324219 818.265625 L 963.113281 818.265625 Z M 747.539062 760.105469 L 689.34375 760.105469 L 689.34375 818.265625 L 747.539062 818.265625 Z M 773.359375 520.09375 C 773.359375 498.792969 806.148438 498.792969 806.148438 520.09375 L 806.148438 595.046875 C 806.148438 616.34375 773.359375 616.34375 773.359375 595.046875 Z M 773.359375 471.761719 C 773.359375 450.464844 806.148438 450.464844 806.148438 471.761719 L 806.148438 481.183594 C 806.148438 502.480469 773.359375 502.480469 773.359375 481.183594 Z M 647.542969 550.402344 C 647.953125 549.992188 647.953125 549.582031 647.953125 549.582031 L 681.148438 466.027344 C 686.886719 452.511719 706.148438 452.101562 711.476562 466.027344 L 745.082031 549.582031 C 745.082031 549.582031 745.082031 549.992188 745.492188 550.402344 L 760.65625 588.902344 C 768.441406 608.972656 738.113281 620.847656 730.328125 600.78125 L 719.261719 572.929688 L 673.769531 572.929688 L 662.707031 600.78125 C 654.917969 620.847656 624.589844 608.972656 632.378906 588.902344 Z M 686.886719 540.160156 L 706.148438 540.160156 L 696.3125 515.996094 Z M 853.6875 517.226562 L 905.734375 517.226562 C 985.242188 517.226562 1025.40625 420.15625 969.257812 364.042969 C 953.277344 348.070312 931.144531 337.828125 906.964844 337.417969 C 897.949219 337.828125 890.570312 330.867188 889.753906 321.855469 C 887.292969 271.476562 832.375 241.578125 788.523438 264.515625 C 779.917969 269.019531 769.261719 265.332031 765.984375 256.324219 C 734.835938 180.550781 636.066406 160.070312 577.460938 218.230469 C 551.640625 244.445312 538.9375 281.308594 545.085938 318.578125 C 546.722656 328.410156 539.347656 337.417969 529.511719 337.417969 C 450.824219 339.46875 412.300781 434.898438 468.035156 490.601562 C 484.429688 506.984375 506.558594 517.226562 531.558594 517.226562 L 583.609375 517.226562 L 583.609375 444.730469 C 583.609375 419.335938 604.511719 398.445312 629.917969 398.445312 L 807.375 398.445312 C 832.785156 398.445312 853.6875 419.335938 853.6875 444.730469 Z M 807.375 431.214844 L 629.917969 431.214844 C 622.542969 431.214844 616.394531 437.355469 616.394531 444.730469 L 616.394531 622.078125 C 616.394531 629.449219 622.542969 635.59375 629.917969 635.59375 L 807.375 635.59375 C 814.753906 635.59375 820.902344 629.449219 820.902344 622.078125 L 820.902344 444.730469 C 820.902344 437.355469 814.753906 431.214844 807.375 431.214844 Z M 807.375 431.214844 " fill-opacity="1" fill-rule="nonzero"/></g><g clip-path="url(#6108762258)"><path fill="#ff8400" d="M 583.882812 549.992188 L 531.835938 549.992188 C 423.640625 549.992188 368.3125 419.335938 444.132812 341.925781 C 461.753906 323.492188 485.113281 310.796875 511.34375 306.699219 C 505.605469 185.464844 640.851562 109.285156 741.667969 176.863281 C 761.339844 190.378906 777.734375 207.992188 789.210938 229.289062 C 847.40625 210.039062 908.878906 246.082031 921.175781 305.882812 C 1021.582031 318.167969 1065.023438 441.453125 992.484375 513.949219 C 970.355469 536.066406 939.617188 549.992188 906.011719 549.992188 L 853.960938 549.992188 L 853.960938 622.078125 C 853.960938 647.472656 833.0625 668.359375 807.652344 668.359375 L 735.113281 668.359375 L 735.113281 727.339844 L 752.734375 727.339844 C 768.308594 727.339844 780.601562 740.035156 780.601562 755.191406 L 780.601562 773.214844 L 872.816406 773.214844 L 872.816406 755.191406 C 872.816406 740.035156 885.109375 727.339844 900.683594 727.339844 L 968.304688 727.339844 C 983.878906 727.339844 996.171875 739.628906 996.171875 755.191406 L 996.171875 823.183594 C 996.171875 838.335938 983.878906 851.035156 968.304688 851.035156 L 900.683594 851.035156 C 885.109375 851.035156 872.816406 838.335938 872.816406 823.183594 L 872.816406 805.980469 L 780.601562 805.980469 L 780.601562 823.183594 C 780.601562 838.335938 768.308594 851.035156 752.734375 851.035156 L 684.703125 851.035156 C 669.539062 851.035156 656.832031 838.335938 656.832031 823.183594 L 656.832031 805.980469 L 565.03125 805.980469 L 565.03125 823.183594 C 565.03125 838.335938 552.738281 851.035156 537.164062 851.035156 L 469.132812 851.035156 C 453.96875 851.035156 441.261719 838.335938 441.261719 823.183594 L 441.261719 755.191406 C 441.261719 740.035156 453.96875 727.339844 469.132812 727.339844 L 537.164062 727.339844 C 552.738281 727.339844 565.03125 739.628906 565.03125 755.191406 L 565.03125 773.214844 L 656.832031 773.214844 L 656.832031 755.191406 C 656.832031 740.035156 669.539062 727.339844 684.703125 727.339844 L 702.324219 727.339844 L 702.324219 668.359375 L 630.195312 668.359375 C 604.785156 668.359375 583.882812 647.472656 583.882812 622.078125 Z M 532.246094 760.105469 L 474.050781 760.105469 L 474.050781 818.265625 L 532.246094 818.265625 Z M 963.386719 760.105469 L 905.601562 760.105469 L 905.601562 818.265625 L 963.386719 818.265625 Z M 747.816406 760.105469 L 689.621094 760.105469 L 689.621094 818.265625 L 747.816406 818.265625 Z M 773.636719 520.09375 C 773.636719 498.792969 806.421875 498.792969 806.421875 520.09375 L 806.421875 595.046875 C 806.421875 616.34375 773.636719 616.34375 773.636719 595.046875 Z M 773.636719 471.761719 C 773.636719 450.464844 806.421875 450.464844 806.421875 471.761719 L 806.421875 481.183594 C 806.421875 502.480469 773.636719 502.480469 773.636719 481.183594 Z M 647.816406 550.402344 C 648.226562 549.992188 648.226562 549.582031 648.226562 549.582031 L 681.421875 466.027344 C 687.160156 452.511719 706.421875 452.101562 711.75 466.027344 L 745.355469 549.582031 C 745.355469 549.582031 745.355469 549.992188 745.765625 550.402344 L 760.929688 588.902344 C 768.71875 608.972656 738.390625 620.847656 730.601562 600.78125 L 719.539062 572.929688 L 674.046875 572.929688 L 662.980469 600.78125 C 655.195312 620.847656 624.867188 608.972656 632.652344 588.902344 Z M 687.160156 540.160156 L 706.421875 540.160156 L 696.585938 515.996094 Z M 853.960938 517.226562 L 906.011719 517.226562 C 985.519531 517.226562 1025.679688 420.15625 969.535156 364.042969 C 953.550781 348.070312 931.421875 337.828125 907.242188 337.417969 C 898.222656 337.828125 890.847656 330.867188 890.027344 321.855469 C 887.570312 271.476562 832.652344 241.578125 788.800781 264.515625 C 780.191406 269.019531 769.539062 265.332031 766.257812 256.324219 C 735.113281 180.550781 636.34375 160.070312 577.738281 218.230469 C 551.917969 244.445312 539.210938 281.308594 545.359375 318.578125 C 547 328.410156 539.621094 337.417969 529.785156 337.417969 C 451.097656 339.46875 412.574219 434.898438 468.3125 490.601562 C 484.703125 506.984375 506.835938 517.226562 531.835938 517.226562 L 583.882812 517.226562 L 583.882812 444.730469 C 583.882812 419.335938 604.785156 398.445312 630.195312 398.445312 L 807.652344 398.445312 C 833.0625 398.445312 853.960938 419.335938 853.960938 444.730469 Z M 807.652344 431.214844 L 630.195312 431.214844 C 622.816406 431.214844 616.671875 437.355469 616.671875 444.730469 L 616.671875 622.078125 C 616.671875 629.449219 622.816406 635.59375 630.195312 635.59375 L 807.652344 635.59375 C 815.027344 635.59375 821.175781 629.449219 821.175781 622.078125 L 821.175781 444.730469 C 821.175781 437.355469 815.027344 431.214844 807.652344 431.214844 Z M 807.652344 431.214844 " fill-opacity="1" fill-rule="nonzero"/></g></svg>