<svg xmlns="http://www.w3.org/2000/svg" xmlns:xlink="http://www.w3.org/1999/xlink" width="1920" zoomAndPan="magnify" viewBox="0 0 1440 809.999993" height="1080" preserveAspectRatio="xMidYMid meet" version="1.0"><defs><clipPath id="b346456300"><path d="M 596 182 L 879 182 L 879 644 L 596 644 Z M 596 182 " clip-rule="nonzero"/></clipPath><clipPath id="54f574d241"><path d="M 690.335938 118.285156 L 948.695312 229.425781 L 749.824219 691.714844 L 491.46875 580.574219 Z M 690.335938 118.285156 " clip-rule="nonzero"/></clipPath><clipPath id="f264886809"><path d="M 584.996094 60.140625 L 952.898438 218.40625 L 749.289062 691.71875 L 381.386719 533.453125 Z M 584.996094 60.140625 " clip-rule="nonzero"/></clipPath><clipPath id="86ac44835f"><path d="M 596 265 L 732 265 L 732 424 L 596 424 Z M 596 265 " clip-rule="nonzero"/></clipPath><clipPath id="21ba2bf8b6"><path d="M 617.320312 265.042969 L 731.6875 314.242188 L 684.859375 423.097656 L 570.492188 373.898438 Z M 617.320312 265.042969 " clip-rule="nonzero"/></clipPath><clipPath id="69ea2f7f61"><path d="M 584.703125 60.140625 L 952.605469 218.40625 L 748.992188 691.71875 L 381.089844 533.453125 Z M 584.703125 60.140625 " clip-rule="nonzero"/></clipPath><clipPath id="9824f3ea6e"><path d="M 597 511 L 728 511 L 728 643 L 597 643 Z M 597 511 " clip-rule="nonzero"/></clipPath><clipPath id="396a11b0fb"><path d="M 612.054688 511.796875 L 727.109375 561.292969 L 683.542969 662.570312 L 568.488281 613.074219 Z M 612.054688 511.796875 " clip-rule="nonzero"/></clipPath><clipPath id="cfde5c79d0"><path d="M 585.707031 59.769531 L 953.609375 218.035156 L 749.996094 691.347656 L 382.09375 533.082031 Z M 585.707031 59.769531 " clip-rule="nonzero"/></clipPath><clipPath id="4b0326cc5d"><path d="M 754 321 L 878 321 L 878 444 L 754 444 Z M 754 321 " clip-rule="nonzero"/></clipPath><clipPath id="90c51f21de"><path d="M 788.359375 321.484375 L 890.324219 365.347656 L 856.832031 443.199219 L 754.867188 399.335938 Z M 788.359375 321.484375 " clip-rule="nonzero"/></clipPath><clipPath id="41fc494f37"><path d="M 584.863281 60.652344 L 952.765625 218.917969 L 749.152344 692.230469 L 381.25 533.964844 Z M 584.863281 60.652344 " clip-rule="nonzero"/></clipPath></defs><g clip-path="url(#b346456300)"><g clip-path="url(#54f574d241)"><g clip-path="url(#f264886809)"><path fill="#003e52" d="M 867.378906 372.265625 L 819.023438 351.464844 C 810.109375 347.628906 799.804688 351.742188 795.964844 360.667969 L 782.082031 392.941406 C 778.242188 401.863281 782.34375 412.179688 791.257812 416.011719 L 807.375 422.945312 L 786.183594 472.210938 L 715.078125 459.886719 L 777.609375 314.527344 L 818.535156 332.132812 C 822.015625 333.628906 826.917969 331.207031 830.011719 329.035156 C 833.109375 326.851562 835.328125 322.222656 835.128906 318.425781 L 828.820312 192.597656 C 828.378906 184.261719 817.199219 179.164062 810.847656 184.558594 L 715.429688 265.878906 C 712.535156 268.34375 710.292969 274.09375 710.84375 277.828125 C 711.394531 281.566406 713.023438 286.742188 716.507812 288.238281 L 761.460938 307.578125 L 681.574219 493.28125 L 623.730469 450.136719 L 642.765625 405.886719 C 667.738281 411.105469 693.839844 398.164062 704.316406 373.8125 C 716.285156 345.992188 703.425781 313.667969 675.640625 301.714844 C 647.851562 289.761719 617.550781 303.539062 605.589844 331.339844 C 595.117188 355.691406 596.429688 380.390625 626.644531 398.953125 L 604.230469 451.058594 C 602.253906 455.660156 601.628906 460.171875 605.609375 463.222656 L 670.550781 512.824219 C 670.882812 513.121094 672.75 513.886719 672.722656 513.949219 L 663.371094 535.6875 C 628.90625 527 611.5 543.167969 601.226562 567.050781 C 589.253906 594.886719 601.117188 626.761719 628.90625 638.714844 C 656.710938 650.675781 688.492188 637.578125 700.46875 609.742188 C 711.125 584.972656 701.511719 556.433594 679.730469 542.152344 L 706.210938 480.589844 C 706.628906 480.691406 707.046875 480.910156 707.507812 480.953125 L 787.132812 493.539062 C 792.058594 494.339844 796.953125 491.664062 798.933594 487.066406 L 823.519531 429.910156 L 839.636719 436.84375 C 848.550781 440.679688 858.859375 436.566406 862.699219 427.640625 L 876.582031 395.367188 C 880.394531 386.414062 876.277344 376.09375 867.378906 372.265625 Z M 867.378906 372.265625 " fill-opacity="1" fill-rule="nonzero"/></g></g></g><g clip-path="url(#86ac44835f)"><g clip-path="url(#21ba2bf8b6)"><g clip-path="url(#69ea2f7f61)"><path fill="#ff8400" d="M 867.085938 372.265625 L 818.730469 351.464844 C 809.816406 347.632812 799.507812 351.746094 795.671875 360.667969 L 781.789062 392.941406 C 777.949219 401.867188 782.050781 412.179688 790.964844 416.011719 L 807.082031 422.945312 L 785.890625 472.210938 L 714.785156 459.886719 L 777.316406 314.527344 L 818.242188 332.132812 C 821.722656 333.628906 826.625 331.207031 829.714844 329.035156 C 832.816406 326.851562 835.035156 322.222656 834.835938 318.425781 L 828.527344 192.597656 C 828.085938 184.261719 816.90625 179.164062 810.554688 184.558594 L 715.136719 265.882812 C 712.242188 268.347656 709.996094 274.09375 710.546875 277.828125 C 711.101562 281.566406 712.730469 286.742188 716.210938 288.242188 L 761.167969 307.578125 L 681.28125 493.28125 L 623.4375 450.136719 L 642.472656 405.886719 C 667.445312 411.105469 693.546875 398.164062 704.023438 373.8125 C 715.992188 345.992188 703.132812 313.671875 675.347656 301.714844 C 647.558594 289.761719 617.257812 303.539062 605.296875 331.34375 C 594.824219 355.691406 596.136719 380.390625 626.351562 398.953125 L 603.9375 451.0625 C 601.960938 455.660156 601.335938 460.171875 605.316406 463.222656 L 670.257812 512.824219 C 670.585938 513.121094 672.457031 513.886719 672.425781 513.949219 L 663.078125 535.6875 C 628.613281 527 611.207031 543.167969 600.933594 567.050781 C 588.960938 594.886719 600.824219 626.761719 628.613281 638.714844 C 656.414062 650.675781 688.199219 637.578125 700.175781 609.742188 C 710.832031 584.972656 701.21875 556.433594 679.4375 542.152344 L 705.917969 480.589844 C 706.332031 480.691406 706.753906 480.910156 707.214844 480.953125 L 786.835938 493.542969 C 791.765625 494.339844 796.660156 491.667969 798.636719 487.066406 L 823.226562 429.910156 L 839.34375 436.84375 C 848.257812 440.679688 858.566406 436.566406 862.40625 427.640625 L 876.289062 395.367188 C 880.101562 386.414062 875.984375 376.09375 867.085938 372.265625 Z M 867.085938 372.265625 " fill-opacity="1" fill-rule="nonzero"/></g></g></g><g clip-path="url(#9824f3ea6e)"><g clip-path="url(#396a11b0fb)"><g clip-path="url(#cfde5c79d0)"><path fill="#ff8400" d="M 868.089844 371.894531 L 819.734375 351.09375 C 810.820312 347.257812 800.511719 351.371094 796.675781 360.296875 L 782.789062 392.570312 C 778.953125 401.492188 783.054688 411.804688 791.96875 415.640625 L 808.085938 422.574219 L 786.890625 471.839844 L 715.789062 459.515625 L 778.320312 314.15625 L 819.246094 331.761719 C 822.726562 333.257812 827.628906 330.832031 830.71875 328.664062 C 833.820312 326.480469 836.039062 321.851562 835.839844 318.054688 L 829.53125 192.226562 C 829.085938 183.886719 817.910156 178.792969 811.558594 184.1875 L 716.136719 265.507812 C 713.242188 267.972656 711 273.722656 711.550781 277.457031 C 712.101562 281.195312 713.734375 286.371094 717.214844 287.867188 L 762.171875 307.207031 L 682.285156 492.910156 L 624.441406 449.761719 L 643.472656 405.515625 C 668.449219 410.734375 694.550781 397.789062 705.027344 373.441406 C 716.992188 345.621094 704.136719 313.296875 676.347656 301.34375 C 648.5625 289.390625 618.261719 303.167969 606.300781 330.96875 C 595.824219 355.320312 597.140625 380.019531 627.355469 398.582031 L 604.941406 450.6875 C 602.960938 455.289062 602.339844 459.800781 606.316406 462.851562 L 671.257812 512.453125 C 671.589844 512.75 673.457031 513.515625 673.429688 513.578125 L 664.078125 535.316406 C 629.613281 526.628906 612.210938 542.796875 601.9375 566.679688 C 589.960938 594.515625 601.828125 626.390625 629.613281 638.34375 C 657.417969 650.304688 689.203125 637.207031 701.179688 609.371094 C 711.832031 584.601562 702.21875 556.0625 680.4375 541.777344 L 706.921875 480.214844 C 707.335938 480.320312 707.757812 480.539062 708.214844 480.582031 L 787.839844 493.167969 C 792.769531 493.96875 797.664062 491.292969 799.640625 486.695312 L 824.230469 429.539062 L 840.347656 436.472656 C 849.261719 440.304688 859.570312 436.191406 863.40625 427.269531 L 877.292969 394.996094 C 881.105469 386.042969 876.988281 375.722656 868.089844 371.894531 Z M 868.089844 371.894531 " fill-opacity="1" fill-rule="nonzero"/></g></g></g><g clip-path="url(#4b0326cc5d)"><g clip-path="url(#90c51f21de)"><g clip-path="url(#41fc494f37)"><path fill="#ff8400" d="M 867.246094 372.777344 L 818.890625 351.976562 C 809.976562 348.144531 799.667969 352.257812 795.832031 361.179688 L 781.945312 393.453125 C 778.109375 402.378906 782.210938 412.691406 791.125 416.523438 L 807.242188 423.457031 L 786.050781 472.726562 L 714.945312 460.398438 L 777.476562 315.039062 L 818.402344 332.644531 C 821.882812 334.140625 826.785156 331.71875 829.875 329.546875 C 832.976562 327.363281 835.195312 322.734375 834.996094 318.9375 L 828.6875 193.109375 C 828.242188 184.773438 817.066406 179.675781 810.714844 185.070312 L 715.292969 266.394531 C 712.402344 268.859375 710.15625 274.605469 710.707031 278.34375 C 711.257812 282.078125 712.890625 287.253906 716.371094 288.753906 L 761.328125 308.089844 L 681.441406 493.792969 L 623.597656 450.648438 L 642.632812 406.402344 C 667.605469 411.617188 693.707031 398.675781 704.183594 374.324219 C 716.152344 346.503906 703.292969 314.183594 675.507812 302.226562 C 647.71875 290.273438 617.417969 304.050781 605.457031 331.855469 C 594.984375 356.203125 596.296875 380.902344 626.511719 399.46875 L 604.097656 451.574219 C 602.117188 456.171875 601.496094 460.683594 605.476562 463.734375 L 670.417969 513.339844 C 670.746094 513.632812 672.617188 514.398438 672.585938 514.464844 L 663.238281 536.199219 C 628.773438 527.511719 611.367188 543.679688 601.09375 567.5625 C 589.121094 595.398438 600.984375 627.273438 628.773438 639.230469 C 656.574219 651.191406 688.359375 638.089844 700.335938 610.253906 C 710.992188 585.484375 701.375 556.949219 679.597656 542.664062 L 706.078125 481.101562 C 706.492188 481.203125 706.914062 481.421875 707.375 481.464844 L 786.996094 494.054688 C 791.925781 494.851562 796.820312 492.179688 798.796875 487.578125 L 823.386719 430.421875 L 839.503906 437.355469 C 848.417969 441.191406 858.726562 437.078125 862.566406 428.152344 L 876.449219 395.878906 C 880.261719 386.925781 876.144531 376.605469 867.246094 372.777344 Z M 867.246094 372.777344 " fill-opacity="1" fill-rule="nonzero"/></g></g></g></svg>