<svg xmlns="http://www.w3.org/2000/svg" xmlns:xlink="http://www.w3.org/1999/xlink" width="1920" zoomAndPan="magnify" viewBox="0 0 1440 809.999993" height="1080" preserveAspectRatio="xMidYMid meet" version="1.0"><defs><clipPath id="a67c1f8ddb"><path d="M 472.214844 166 L 967.964844 166 L 967.964844 664 L 472.214844 664 Z M 472.214844 166 " clip-rule="nonzero"/></clipPath><clipPath id="d8c153772e"><path d="M 534.894531 231.8125 L 904.644531 231.8125 L 904.644531 599.3125 L 534.894531 599.3125 Z M 534.894531 231.8125 " clip-rule="nonzero"/></clipPath></defs><path fill="#ff8400" d="M 826.21875 530.464844 L 613.320312 530.464844 C 608.425781 530.464844 604.449219 526.472656 604.449219 521.597656 L 604.449219 308.710938 C 604.449219 303.8125 608.425781 299.839844 613.320312 299.839844 L 826.21875 299.839844 C 831.097656 299.839844 835.085938 303.8125 835.085938 308.710938 L 835.085938 521.597656 C 835.085938 526.472656 831.097656 530.464844 826.21875 530.464844 Z M 622.191406 512.726562 L 817.347656 512.726562 L 817.347656 317.582031 L 622.191406 317.582031 Z M 622.191406 512.726562 " fill-opacity="1" fill-rule="nonzero"/><g clip-path="url(#a67c1f8ddb)"><path fill="#ff8400" d="M 959.277344 299.839844 C 964.15625 299.839844 968.148438 295.867188 968.148438 290.96875 C 968.148438 286.074219 964.15625 282.097656 959.277344 282.097656 L 906.054688 282.097656 L 906.054688 264.359375 L 959.277344 264.359375 C 964.15625 264.359375 968.148438 260.386719 968.148438 255.488281 C 968.148438 250.59375 964.15625 246.617188 959.277344 246.617188 L 906.054688 246.617188 L 906.054688 237.75 C 906.054688 232.851562 902.0625 228.878906 897.183594 228.878906 L 888.3125 228.878906 L 888.3125 175.65625 C 888.3125 170.761719 884.320312 166.785156 879.441406 166.785156 C 874.5625 166.785156 870.570312 170.761719 870.570312 175.65625 L 870.570312 228.878906 L 852.828125 228.878906 L 852.828125 175.65625 C 852.828125 170.761719 848.835938 166.785156 843.957031 166.785156 C 839.078125 166.785156 835.085938 170.761719 835.085938 175.65625 L 835.085938 228.878906 L 817.347656 228.878906 L 817.347656 175.65625 C 817.347656 170.761719 813.355469 166.785156 808.476562 166.785156 C 803.597656 166.785156 799.605469 170.761719 799.605469 175.65625 L 799.605469 228.878906 L 781.863281 228.878906 L 781.863281 175.65625 C 781.863281 170.761719 777.871094 166.785156 772.992188 166.785156 C 768.113281 166.785156 764.121094 170.761719 764.121094 175.65625 L 764.121094 228.878906 L 746.382812 228.878906 L 746.382812 175.65625 C 746.382812 170.761719 742.390625 166.785156 737.511719 166.785156 C 732.632812 166.785156 728.640625 170.761719 728.640625 175.65625 L 728.640625 228.878906 L 710.898438 228.878906 L 710.898438 175.65625 C 710.898438 170.761719 706.925781 166.785156 702.027344 166.785156 C 697.132812 166.785156 693.15625 170.761719 693.15625 175.65625 L 693.15625 228.878906 L 675.414062 228.878906 L 675.414062 175.65625 C 675.414062 170.761719 671.441406 166.785156 666.542969 166.785156 C 661.648438 166.785156 657.675781 170.761719 657.675781 175.65625 L 657.675781 228.878906 L 639.933594 228.878906 L 639.933594 175.65625 C 639.933594 170.761719 635.957031 166.785156 631.0625 166.785156 C 626.164062 166.785156 622.191406 170.761719 622.191406 175.65625 L 622.191406 228.878906 L 604.449219 228.878906 L 604.449219 175.65625 C 604.449219 170.761719 600.476562 166.785156 595.578125 166.785156 C 590.683594 166.785156 586.707031 170.761719 586.707031 175.65625 L 586.707031 228.878906 L 568.96875 228.878906 L 568.96875 175.65625 C 568.96875 170.761719 564.992188 166.785156 560.097656 166.785156 C 555.199219 166.785156 551.226562 170.761719 551.226562 175.65625 L 551.226562 228.878906 L 542.355469 228.878906 C 537.457031 228.878906 533.484375 232.851562 533.484375 237.75 L 533.484375 246.617188 L 480.261719 246.617188 C 475.363281 246.617188 471.390625 250.59375 471.390625 255.488281 C 471.390625 260.386719 475.363281 264.359375 480.261719 264.359375 L 533.484375 264.359375 L 533.484375 282.097656 L 480.261719 282.097656 C 475.363281 282.097656 471.390625 286.074219 471.390625 290.96875 C 471.390625 295.867188 475.363281 299.839844 480.261719 299.839844 L 533.484375 299.839844 L 533.484375 317.582031 L 480.261719 317.582031 C 475.363281 317.582031 471.390625 321.554688 471.390625 326.449219 C 471.390625 331.347656 475.363281 335.320312 480.261719 335.320312 L 533.484375 335.320312 L 533.484375 353.0625 L 480.261719 353.0625 C 475.363281 353.0625 471.390625 357.035156 471.390625 361.929688 C 471.390625 366.828125 475.363281 370.800781 480.261719 370.800781 L 533.484375 370.800781 L 533.484375 388.542969 L 480.261719 388.542969 C 475.363281 388.542969 471.390625 392.515625 471.390625 397.414062 C 471.390625 402.308594 475.363281 406.28125 480.261719 406.28125 L 533.484375 406.28125 L 533.484375 424.023438 L 480.261719 424.023438 C 475.363281 424.023438 471.390625 428.015625 471.390625 432.894531 C 471.390625 437.773438 475.363281 441.765625 480.261719 441.765625 L 533.484375 441.765625 L 533.484375 459.503906 L 480.261719 459.503906 C 475.363281 459.503906 471.390625 463.496094 471.390625 468.375 C 471.390625 473.253906 475.363281 477.246094 480.261719 477.246094 L 533.484375 477.246094 L 533.484375 494.984375 L 480.261719 494.984375 C 475.363281 494.984375 471.390625 498.976562 471.390625 503.855469 C 471.390625 508.734375 475.363281 512.726562 480.261719 512.726562 L 533.484375 512.726562 L 533.484375 530.464844 L 480.261719 530.464844 C 475.363281 530.464844 471.390625 534.457031 471.390625 539.335938 C 471.390625 544.214844 475.363281 548.207031 480.261719 548.207031 L 533.484375 548.207031 L 533.484375 565.945312 L 480.261719 565.945312 C 475.363281 565.945312 471.390625 569.9375 471.390625 574.816406 C 471.390625 579.695312 475.363281 583.6875 480.261719 583.6875 L 533.484375 583.6875 L 533.484375 592.558594 C 533.484375 597.4375 537.457031 601.429688 542.355469 601.429688 L 551.226562 601.429688 L 551.226562 654.648438 C 551.226562 659.527344 555.199219 663.519531 560.097656 663.519531 C 564.992188 663.519531 568.96875 659.527344 568.96875 654.648438 L 568.96875 601.429688 L 586.707031 601.429688 L 586.707031 654.648438 C 586.707031 659.527344 590.683594 663.519531 595.578125 663.519531 C 600.476562 663.519531 604.449219 659.527344 604.449219 654.648438 L 604.449219 601.429688 L 622.191406 601.429688 L 622.191406 654.648438 C 622.191406 659.527344 626.164062 663.519531 631.0625 663.519531 C 635.957031 663.519531 639.933594 659.527344 639.933594 654.648438 L 639.933594 601.429688 L 657.675781 601.429688 L 657.675781 654.648438 C 657.675781 659.527344 661.648438 663.519531 666.542969 663.519531 C 671.441406 663.519531 675.414062 659.527344 675.414062 654.648438 L 675.414062 601.429688 L 693.15625 601.429688 L 693.15625 654.648438 C 693.15625 659.527344 697.132812 663.519531 702.027344 663.519531 C 706.925781 663.519531 710.898438 659.527344 710.898438 654.648438 L 710.898438 601.429688 L 728.640625 601.429688 L 728.640625 654.648438 C 728.640625 659.527344 732.632812 663.519531 737.511719 663.519531 C 742.390625 663.519531 746.382812 659.527344 746.382812 654.648438 L 746.382812 601.429688 L 764.121094 601.429688 L 764.121094 654.648438 C 764.121094 659.527344 768.113281 663.519531 772.992188 663.519531 C 777.871094 663.519531 781.863281 659.527344 781.863281 654.648438 L 781.863281 601.429688 L 799.605469 601.429688 L 799.605469 654.648438 C 799.605469 659.527344 803.597656 663.519531 808.476562 663.519531 C 813.355469 663.519531 817.347656 659.527344 817.347656 654.648438 L 817.347656 601.429688 L 835.085938 601.429688 L 835.085938 654.648438 C 835.085938 659.527344 839.078125 663.519531 843.957031 663.519531 C 848.835938 663.519531 852.828125 659.527344 852.828125 654.648438 L 852.828125 601.429688 L 870.570312 601.429688 L 870.570312 654.648438 C 870.570312 659.527344 874.5625 663.519531 879.441406 663.519531 C 884.320312 663.519531 888.3125 659.527344 888.3125 654.648438 L 888.3125 601.429688 L 897.183594 601.429688 C 902.0625 601.429688 906.054688 597.4375 906.054688 592.558594 L 906.054688 583.6875 L 959.277344 583.6875 C 964.15625 583.6875 968.148438 579.695312 968.148438 574.816406 C 968.148438 569.9375 964.15625 565.945312 959.277344 565.945312 L 906.054688 565.945312 L 906.054688 548.207031 L 959.277344 548.207031 C 964.15625 548.207031 968.148438 544.214844 968.148438 539.335938 C 968.148438 534.457031 964.15625 530.464844 959.277344 530.464844 L 906.054688 530.464844 L 906.054688 512.726562 L 959.277344 512.726562 C 964.15625 512.726562 968.148438 508.734375 968.148438 503.855469 C 968.148438 498.976562 964.15625 494.984375 959.277344 494.984375 L 906.054688 494.984375 L 906.054688 477.246094 L 959.277344 477.246094 C 964.15625 477.246094 968.148438 473.253906 968.148438 468.375 C 968.148438 463.496094 964.15625 459.503906 959.277344 459.503906 L 906.054688 459.503906 L 906.054688 441.765625 L 959.277344 441.765625 C 964.15625 441.765625 968.148438 437.773438 968.148438 432.894531 C 968.148438 428.015625 964.15625 424.023438 959.277344 424.023438 L 906.054688 424.023438 L 906.054688 406.28125 L 959.277344 406.28125 C 964.15625 406.28125 968.148438 402.308594 968.148438 397.414062 C 968.148438 392.515625 964.15625 388.542969 959.277344 388.542969 L 906.054688 388.542969 L 906.054688 370.800781 L 959.277344 370.800781 C 964.15625 370.800781 968.148438 366.828125 968.148438 361.929688 C 968.148438 357.035156 964.15625 353.0625 959.277344 353.0625 L 906.054688 353.0625 L 906.054688 335.320312 L 959.277344 335.320312 C 964.15625 335.320312 968.148438 331.347656 968.148438 326.449219 C 968.148438 321.554688 964.15625 317.582031 959.277344 317.582031 L 906.054688 317.582031 L 906.054688 299.839844 Z M 852.828125 521.597656 C 852.828125 536.265625 840.890625 548.207031 826.21875 548.207031 L 613.320312 548.207031 C 598.648438 548.207031 586.707031 536.265625 586.707031 521.597656 L 586.707031 308.710938 C 586.707031 294.039062 598.648438 282.097656 613.320312 282.097656 L 826.21875 282.097656 C 840.890625 282.097656 852.828125 294.039062 852.828125 308.710938 Z M 852.828125 521.597656 " fill-opacity="1" fill-rule="nonzero"/></g><path fill="#003e52" d="M 826.839844 531.144531 L 613.945312 531.144531 C 609.046875 531.144531 605.074219 527.152344 605.074219 522.273438 L 605.074219 309.390625 C 605.074219 304.492188 609.046875 300.519531 613.945312 300.519531 L 826.839844 300.519531 C 831.71875 300.519531 835.710938 304.492188 835.710938 309.390625 L 835.710938 522.273438 C 835.710938 527.152344 831.71875 531.144531 826.839844 531.144531 Z M 622.816406 513.40625 L 817.96875 513.40625 L 817.96875 318.257812 L 622.816406 318.257812 Z M 622.816406 513.40625 " fill-opacity="1" fill-rule="nonzero"/><g clip-path="url(#d8c153772e)"><path fill="#003e52" d="M 959.902344 300.519531 C 964.78125 300.519531 968.773438 296.546875 968.773438 291.648438 C 968.773438 286.753906 964.78125 282.777344 959.902344 282.777344 L 906.675781 282.777344 L 906.675781 265.039062 L 959.902344 265.039062 C 964.78125 265.039062 968.773438 261.0625 968.773438 256.167969 C 968.773438 251.269531 964.78125 247.296875 959.902344 247.296875 L 906.675781 247.296875 L 906.675781 238.425781 C 906.675781 233.53125 902.683594 229.558594 897.804688 229.558594 L 888.933594 229.558594 L 888.933594 176.335938 C 888.933594 171.4375 884.945312 167.464844 880.066406 167.464844 C 875.1875 167.464844 871.195312 171.4375 871.195312 176.335938 L 871.195312 229.558594 L 853.453125 229.558594 L 853.453125 176.335938 C 853.453125 171.4375 849.460938 167.464844 844.582031 167.464844 C 839.703125 167.464844 835.710938 171.4375 835.710938 176.335938 L 835.710938 229.558594 L 817.96875 229.558594 L 817.96875 176.335938 C 817.96875 171.4375 813.976562 167.464844 809.097656 167.464844 C 804.21875 167.464844 800.226562 171.4375 800.226562 176.335938 L 800.226562 229.558594 L 782.488281 229.558594 L 782.488281 176.335938 C 782.488281 171.4375 778.496094 167.464844 773.617188 167.464844 C 768.738281 167.464844 764.746094 171.4375 764.746094 176.335938 L 764.746094 229.558594 L 747.003906 229.558594 L 747.003906 176.335938 C 747.003906 171.4375 743.011719 167.464844 738.132812 167.464844 C 733.253906 167.464844 729.261719 171.4375 729.261719 176.335938 L 729.261719 229.558594 L 711.523438 229.558594 L 711.523438 176.335938 C 711.523438 171.4375 707.546875 167.464844 702.652344 167.464844 C 697.753906 167.464844 693.78125 171.4375 693.78125 176.335938 L 693.78125 229.558594 L 676.039062 229.558594 L 676.039062 176.335938 C 676.039062 171.4375 672.066406 167.464844 667.167969 167.464844 C 662.273438 167.464844 658.296875 171.4375 658.296875 176.335938 L 658.296875 229.558594 L 640.554688 229.558594 L 640.554688 176.335938 C 640.554688 171.4375 636.582031 167.464844 631.683594 167.464844 C 626.789062 167.464844 622.816406 171.4375 622.816406 176.335938 L 622.816406 229.558594 L 605.074219 229.558594 L 605.074219 176.335938 C 605.074219 171.4375 601.097656 167.464844 596.203125 167.464844 C 591.304688 167.464844 587.332031 171.4375 587.332031 176.335938 L 587.332031 229.558594 L 569.589844 229.558594 L 569.589844 176.335938 C 569.589844 171.4375 565.617188 167.464844 560.71875 167.464844 C 555.824219 167.464844 551.847656 171.4375 551.847656 176.335938 L 551.847656 229.558594 L 542.976562 229.558594 C 538.082031 229.558594 534.109375 233.53125 534.109375 238.425781 L 534.109375 247.296875 L 480.882812 247.296875 C 475.988281 247.296875 472.011719 251.269531 472.011719 256.167969 C 472.011719 261.0625 475.988281 265.039062 480.882812 265.039062 L 534.109375 265.039062 L 534.109375 282.777344 L 480.882812 282.777344 C 475.988281 282.777344 472.011719 286.753906 472.011719 291.648438 C 472.011719 296.546875 475.988281 300.519531 480.882812 300.519531 L 534.109375 300.519531 L 534.109375 318.257812 L 480.882812 318.257812 C 475.988281 318.257812 472.011719 322.234375 472.011719 327.128906 C 472.011719 332.027344 475.988281 336 480.882812 336 L 534.109375 336 L 534.109375 353.742188 L 480.882812 353.742188 C 475.988281 353.742188 472.011719 357.714844 472.011719 362.609375 C 472.011719 367.507812 475.988281 371.480469 480.882812 371.480469 L 534.109375 371.480469 L 534.109375 389.222656 L 480.882812 389.222656 C 475.988281 389.222656 472.011719 393.195312 472.011719 398.089844 C 472.011719 402.988281 475.988281 406.960938 480.882812 406.960938 L 534.109375 406.960938 L 534.109375 424.703125 L 480.882812 424.703125 C 475.988281 424.703125 472.011719 428.695312 472.011719 433.574219 C 472.011719 438.449219 475.988281 442.441406 480.882812 442.441406 L 534.109375 442.441406 L 534.109375 460.183594 L 480.882812 460.183594 C 475.988281 460.183594 472.011719 464.175781 472.011719 469.054688 C 472.011719 473.933594 475.988281 477.921875 480.882812 477.921875 L 534.109375 477.921875 L 534.109375 495.664062 L 480.882812 495.664062 C 475.988281 495.664062 472.011719 499.65625 472.011719 504.535156 C 472.011719 509.414062 475.988281 513.40625 480.882812 513.40625 L 534.109375 513.40625 L 534.109375 531.144531 L 480.882812 531.144531 C 475.988281 531.144531 472.011719 535.136719 472.011719 540.015625 C 472.011719 544.894531 475.988281 548.886719 480.882812 548.886719 L 534.109375 548.886719 L 534.109375 566.625 L 480.882812 566.625 C 475.988281 566.625 472.011719 570.617188 472.011719 575.496094 C 472.011719 580.375 475.988281 584.367188 480.882812 584.367188 L 534.109375 584.367188 L 534.109375 593.238281 C 534.109375 598.117188 538.082031 602.105469 542.976562 602.105469 L 551.847656 602.105469 L 551.847656 655.328125 C 551.847656 660.207031 555.824219 664.199219 560.71875 664.199219 C 565.617188 664.199219 569.589844 660.207031 569.589844 655.328125 L 569.589844 602.105469 L 587.332031 602.105469 L 587.332031 655.328125 C 587.332031 660.207031 591.304688 664.199219 596.203125 664.199219 C 601.097656 664.199219 605.074219 660.207031 605.074219 655.328125 L 605.074219 602.105469 L 622.816406 602.105469 L 622.816406 655.328125 C 622.816406 660.207031 626.789062 664.199219 631.683594 664.199219 C 636.582031 664.199219 640.554688 660.207031 640.554688 655.328125 L 640.554688 602.105469 L 658.296875 602.105469 L 658.296875 655.328125 C 658.296875 660.207031 662.273438 664.199219 667.167969 664.199219 C 672.066406 664.199219 676.039062 660.207031 676.039062 655.328125 L 676.039062 602.105469 L 693.78125 602.105469 L 693.78125 655.328125 C 693.78125 660.207031 697.753906 664.199219 702.652344 664.199219 C 707.546875 664.199219 711.523438 660.207031 711.523438 655.328125 L 711.523438 602.105469 L 729.261719 602.105469 L 729.261719 655.328125 C 729.261719 660.207031 733.253906 664.199219 738.132812 664.199219 C 743.011719 664.199219 747.003906 660.207031 747.003906 655.328125 L 747.003906 602.105469 L 764.746094 602.105469 L 764.746094 655.328125 C 764.746094 660.207031 768.738281 664.199219 773.617188 664.199219 C 778.496094 664.199219 782.488281 660.207031 782.488281 655.328125 L 782.488281 602.105469 L 800.226562 602.105469 L 800.226562 655.328125 C 800.226562 660.207031 804.21875 664.199219 809.097656 664.199219 C 813.976562 664.199219 817.96875 660.207031 817.96875 655.328125 L 817.96875 602.105469 L 835.710938 602.105469 L 835.710938 655.328125 C 835.710938 660.207031 839.703125 664.199219 844.582031 664.199219 C 849.460938 664.199219 853.453125 660.207031 853.453125 655.328125 L 853.453125 602.105469 L 871.195312 602.105469 L 871.195312 655.328125 C 871.195312 660.207031 875.1875 664.199219 880.066406 664.199219 C 884.945312 664.199219 888.933594 660.207031 888.933594 655.328125 L 888.933594 602.105469 L 897.804688 602.105469 C 902.683594 602.105469 906.675781 598.117188 906.675781 593.238281 L 906.675781 584.367188 L 959.902344 584.367188 C 964.78125 584.367188 968.773438 580.375 968.773438 575.496094 C 968.773438 570.617188 964.78125 566.625 959.902344 566.625 L 906.675781 566.625 L 906.675781 548.886719 L 959.902344 548.886719 C 964.78125 548.886719 968.773438 544.894531 968.773438 540.015625 C 968.773438 535.136719 964.78125 531.144531 959.902344 531.144531 L 906.675781 531.144531 L 906.675781 513.40625 L 959.902344 513.40625 C 964.78125 513.40625 968.773438 509.414062 968.773438 504.535156 C 968.773438 499.65625 964.78125 495.664062 959.902344 495.664062 L 906.675781 495.664062 L 906.675781 477.921875 L 959.902344 477.921875 C 964.78125 477.921875 968.773438 473.933594 968.773438 469.054688 C 968.773438 464.175781 964.78125 460.183594 959.902344 460.183594 L 906.675781 460.183594 L 906.675781 442.441406 L 959.902344 442.441406 C 964.78125 442.441406 968.773438 438.449219 968.773438 433.574219 C 968.773438 428.695312 964.78125 424.703125 959.902344 424.703125 L 906.675781 424.703125 L 906.675781 406.960938 L 959.902344 406.960938 C 964.78125 406.960938 968.773438 402.988281 968.773438 398.089844 C 968.773438 393.195312 964.78125 389.222656 959.902344 389.222656 L 906.675781 389.222656 L 906.675781 371.480469 L 959.902344 371.480469 C 964.78125 371.480469 968.773438 367.507812 968.773438 362.609375 C 968.773438 357.714844 964.78125 353.742188 959.902344 353.742188 L 906.675781 353.742188 L 906.675781 336 L 959.902344 336 C 964.78125 336 968.773438 332.027344 968.773438 327.128906 C 968.773438 322.234375 964.78125 318.257812 959.902344 318.257812 L 906.675781 318.257812 L 906.675781 300.519531 Z M 853.453125 522.273438 C 853.453125 536.945312 841.511719 548.886719 826.839844 548.886719 L 613.945312 548.886719 C 599.273438 548.886719 587.332031 536.945312 587.332031 522.273438 L 587.332031 309.390625 C 587.332031 294.71875 599.273438 282.777344 613.945312 282.777344 L 826.839844 282.777344 C 841.511719 282.777344 853.453125 294.71875 853.453125 309.390625 Z M 853.453125 522.273438 " fill-opacity="1" fill-rule="nonzero"/></g></svg>