<svg xmlns="http://www.w3.org/2000/svg" xmlns:xlink="http://www.w3.org/1999/xlink" width="1920" zoomAndPan="magnify" viewBox="0 0 1440 809.999993" height="1080" preserveAspectRatio="xMidYMid meet" version="1.0"><defs><clipPath id="id1"><path d="M 325.132812 268 L 436 268 L 436 708.179688 L 325.132812 708.179688 Z M 325.132812 268 " clip-rule="nonzero"/></clipPath><clipPath id="id2"><path d="M 494.316406 339.246094 L 605.679688 339.246094 L 605.679688 708.179688 L 494.316406 708.179688 Z M 494.316406 339.246094 " clip-rule="nonzero"/></clipPath><clipPath id="id3"><path d="M 664 411 L 776 411 L 776 708.179688 L 664 708.179688 Z M 664 411 " clip-rule="nonzero"/></clipPath><clipPath id="id4"><path d="M 833 483 L 945 483 L 945 708.179688 L 833 708.179688 Z M 833 483 " clip-rule="nonzero"/></clipPath><clipPath id="id5"><path d="M 1003 554 L 1114.609375 554 L 1114.609375 708.179688 L 1003 708.179688 Z M 1003 554 " clip-rule="nonzero"/></clipPath><clipPath id="id6"><path d="M 779 101.511719 L 1000 101.511719 L 1000 300 L 779 300 Z M 779 101.511719 " clip-rule="nonzero"/></clipPath><clipPath id="id7"><path d="M 768.160156 133 L 1022.410156 133 L 1022.410156 308.511719 L 768.160156 308.511719 Z M 768.160156 133 " clip-rule="nonzero"/></clipPath><clipPath id="id8"><path d="M 778 101.511719 L 1000 101.511719 L 1000 300 L 778 300 Z M 778 101.511719 " clip-rule="nonzero"/></clipPath></defs><g clip-path="url(#id1)"><path fill="rgb(0%, 24.308777%, 32.159424%)" d="M 423.496094 708.179688 L 337.472656 708.179688 C 330.652344 708.179688 325.132812 702.652344 325.132812 695.839844 L 325.132812 280.679688 C 325.132812 273.863281 330.652344 268.339844 337.472656 268.339844 L 423.496094 268.339844 C 430.304688 268.339844 435.824219 273.863281 435.824219 280.679688 L 435.824219 695.839844 C 435.824219 702.652344 430.304688 708.179688 423.496094 708.179688 Z M 349.804688 683.5 L 411.15625 683.5 L 411.15625 293.011719 L 349.804688 293.011719 L 349.804688 683.5 " fill-opacity="1" fill-rule="evenodd"/></g><g clip-path="url(#id2)"><path fill="rgb(0%, 24.308777%, 32.159424%)" d="M 593.308594 708.179688 L 506.96875 708.179688 C 500.148438 708.179688 494.628906 702.652344 494.628906 695.839844 L 494.628906 352.261719 C 494.628906 345.445312 500.148438 339.921875 506.96875 339.921875 L 593.308594 339.921875 C 600.117188 339.921875 605.640625 345.445312 605.640625 352.261719 L 605.640625 695.839844 C 605.640625 702.652344 600.117188 708.179688 593.308594 708.179688 Z M 519.296875 683.5 L 580.976562 683.5 L 580.976562 364.59375 L 519.296875 364.59375 L 519.296875 683.5 " fill-opacity="1" fill-rule="evenodd"/></g><g clip-path="url(#id3)"><path fill="rgb(0%, 24.308777%, 32.159424%)" d="M 762.960938 708.171875 L 676.621094 708.171875 C 669.804688 708.171875 664.28125 702.652344 664.28125 695.832031 L 664.28125 423.835938 C 664.28125 417.023438 669.804688 411.503906 676.621094 411.503906 L 762.960938 411.503906 C 769.773438 411.503906 775.292969 417.023438 775.292969 423.835938 L 775.292969 695.832031 C 775.292969 702.652344 769.773438 708.171875 762.960938 708.171875 Z M 688.953125 683.5 L 750.621094 683.5 L 750.621094 436.175781 L 688.953125 436.175781 L 688.953125 683.5 " fill-opacity="1" fill-rule="evenodd"/></g><g clip-path="url(#id4)"><path fill="rgb(0%, 24.308777%, 32.159424%)" d="M 932.617188 708.179688 L 846.273438 708.179688 C 839.457031 708.179688 833.933594 702.652344 833.933594 695.839844 L 833.933594 495.414062 C 833.933594 488.605469 839.457031 483.082031 846.273438 483.082031 L 932.617188 483.082031 C 939.433594 483.082031 944.953125 488.605469 944.953125 495.414062 L 944.953125 695.839844 C 944.953125 702.652344 939.433594 708.179688 932.617188 708.179688 Z M 858.605469 683.5 L 920.277344 683.5 L 920.277344 507.753906 L 858.605469 507.753906 L 858.605469 683.5 " fill-opacity="1" fill-rule="evenodd"/></g><g clip-path="url(#id5)"><path fill="rgb(0%, 24.308777%, 32.159424%)" d="M 1102.269531 708.179688 L 1015.929688 708.179688 C 1009.109375 708.179688 1003.589844 702.652344 1003.589844 695.839844 L 1003.589844 566.996094 C 1003.589844 560.183594 1009.109375 554.664062 1015.929688 554.664062 L 1102.269531 554.664062 C 1109.085938 554.664062 1114.609375 560.183594 1114.609375 566.996094 L 1114.609375 695.839844 C 1114.609375 702.652344 1109.085938 708.179688 1102.269531 708.179688 Z M 1028.257812 683.5 L 1089.9375 683.5 L 1089.9375 579.335938 L 1028.257812 579.335938 L 1028.257812 683.5 " fill-opacity="1" fill-rule="evenodd"/></g><path fill="rgb(0%, 24.308777%, 32.159424%)" d="M 1059.09375 489.859375 C 1057.269531 489.859375 1055.429688 489.457031 1053.683594 488.605469 L 375.21875 156.789062 C 369.101562 153.792969 366.566406 146.414062 369.554688 140.289062 C 372.546875 134.167969 379.9375 131.632812 386.058594 134.625 L 1064.523438 466.433594 C 1070.640625 469.429688 1073.175781 476.816406 1070.179688 482.941406 C 1068.046875 487.316406 1063.652344 489.859375 1059.09375 489.859375 " fill-opacity="1" fill-rule="evenodd"/><path fill="rgb(0%, 24.308777%, 32.159424%)" d="M 1016.304688 505.4375 C 1011.269531 505.4375 1006.542969 502.324219 1004.71875 497.320312 C 1002.382812 490.914062 1005.6875 483.835938 1012.089844 481.511719 L 1043.292969 470.148438 L 1031.933594 438.953125 C 1029.597656 432.542969 1032.902344 425.464844 1039.300781 423.140625 C 1045.710938 420.804688 1052.789062 424.101562 1055.113281 430.511719 L 1070.691406 473.304688 C 1071.8125 476.375 1071.667969 479.769531 1070.28125 482.730469 C 1068.898438 485.703125 1066.398438 487.992188 1063.320312 489.113281 L 1020.53125 504.691406 C 1019.132812 505.195312 1017.710938 505.4375 1016.304688 505.4375 " fill-opacity="1" fill-rule="evenodd"/><g clip-path="url(#id6)"><path fill="rgb(0%, 24.308777%, 32.159424%)" d="M 971.96875 299.980469 L 806.921875 299.980469 C 796.882812 299.980469 787.898438 294.785156 782.878906 286.101562 C 777.871094 277.410156 777.871094 267.027344 782.890625 258.34375 L 865.414062 115.402344 C 870.425781 106.707031 879.410156 101.523438 889.441406 101.523438 C 889.441406 101.523438 889.449219 101.523438 889.449219 101.523438 C 899.480469 101.523438 908.464844 106.707031 913.484375 115.390625 L 996.011719 258.34375 C 1001.03125 267.027344 1001.03125 277.410156 996.011719 286.101562 C 990.992188 294.785156 982.007812 299.980469 971.96875 299.980469 Z M 889.449219 126.191406 C 888.628906 126.191406 887.515625 126.460938 886.78125 127.734375 L 804.253906 270.683594 C 803.519531 271.957031 803.84375 273.058594 804.253906 273.761719 C 804.65625 274.464844 805.449219 275.3125 806.921875 275.3125 L 971.96875 275.3125 C 973.441406 275.3125 974.234375 274.464844 974.644531 273.761719 C 975.046875 273.058594 975.378906 271.957031 974.644531 270.683594 L 892.117188 127.734375 C 891.382812 126.460938 890.261719 126.191406 889.449219 126.191406 Z M 889.449219 126.191406 " fill-opacity="1" fill-rule="evenodd"/></g><path fill="rgb(0%, 24.308777%, 32.159424%)" d="M 889.449219 236.433594 C 882.632812 236.433594 877.109375 230.910156 877.109375 224.09375 L 877.109375 175.335938 C 877.109375 168.515625 882.632812 162.996094 889.449219 162.996094 C 896.257812 162.996094 901.78125 168.515625 901.78125 175.335938 L 901.78125 224.09375 C 901.78125 230.910156 896.257812 236.433594 889.449219 236.433594 " fill-opacity="1" fill-rule="evenodd"/><path fill="rgb(0%, 24.308777%, 32.159424%)" d="M 889.449219 268.917969 C 882.632812 268.917969 877.109375 263.398438 877.109375 256.578125 L 877.109375 255.257812 C 877.109375 248.4375 882.632812 242.917969 889.449219 242.917969 C 896.257812 242.917969 901.78125 248.4375 901.78125 255.257812 L 901.78125 256.578125 C 901.78125 263.398438 896.257812 268.917969 889.449219 268.917969 " fill-opacity="1" fill-rule="evenodd"/><g clip-path="url(#id7)"><path fill="rgb(100%, 51.759338%, 0%)" d="M 1058.480469 489.859375 C 1056.65625 489.859375 1054.816406 489.457031 1053.066406 488.605469 L 374.601562 156.789062 C 368.488281 153.792969 365.953125 146.414062 368.941406 140.289062 C 371.933594 134.167969 379.320312 131.632812 385.445312 134.625 L 1063.910156 466.433594 C 1070.023438 469.429688 1072.558594 476.816406 1069.566406 482.941406 C 1067.433594 487.316406 1063.039062 489.859375 1058.480469 489.859375 " fill-opacity="1" fill-rule="evenodd"/></g><g clip-path="url(#id8)"><path fill="rgb(100%, 51.759338%, 0%)" d="M 971.351562 299.980469 L 806.308594 299.980469 C 796.269531 299.980469 787.285156 294.785156 782.265625 286.101562 C 777.253906 277.410156 777.253906 267.027344 782.273438 258.34375 L 864.800781 115.402344 C 869.8125 106.707031 878.796875 101.523438 888.828125 101.523438 C 888.828125 101.523438 888.835938 101.523438 888.835938 101.523438 C 898.867188 101.523438 907.851562 106.707031 912.871094 115.390625 L 995.394531 258.34375 C 1000.414062 267.027344 1000.414062 277.410156 995.394531 286.101562 C 990.375 294.785156 981.390625 299.980469 971.351562 299.980469 Z M 888.835938 126.191406 C 888.015625 126.191406 886.902344 126.460938 886.167969 127.734375 L 803.640625 270.683594 C 802.902344 271.957031 803.230469 273.058594 803.640625 273.761719 C 804.042969 274.464844 804.835938 275.3125 806.308594 275.3125 L 971.351562 275.3125 C 972.824219 275.3125 973.621094 274.464844 974.03125 273.761719 C 974.433594 273.058594 974.765625 271.957031 974.03125 270.683594 L 891.503906 127.734375 C 890.769531 126.460938 889.648438 126.191406 888.835938 126.191406 Z M 888.835938 126.191406 " fill-opacity="1" fill-rule="evenodd"/></g><path fill="rgb(100%, 51.759338%, 0%)" d="M 888.835938 236.433594 C 882.015625 236.433594 876.496094 230.910156 876.496094 224.09375 L 876.496094 175.335938 C 876.496094 168.515625 882.015625 162.996094 888.835938 162.996094 C 895.644531 162.996094 901.167969 168.515625 901.167969 175.335938 L 901.167969 224.09375 C 901.167969 230.910156 895.644531 236.433594 888.835938 236.433594 " fill-opacity="1" fill-rule="evenodd"/><path fill="rgb(100%, 51.759338%, 0%)" d="M 888.835938 268.917969 C 882.015625 268.917969 876.496094 263.398438 876.496094 256.578125 L 876.496094 255.257812 C 876.496094 248.4375 882.015625 242.917969 888.835938 242.917969 C 895.644531 242.917969 901.167969 248.4375 901.167969 255.257812 L 901.167969 256.578125 C 901.167969 263.398438 895.644531 268.917969 888.835938 268.917969 " fill-opacity="1" fill-rule="evenodd"/></svg>