<svg xmlns="http://www.w3.org/2000/svg" xmlns:xlink="http://www.w3.org/1999/xlink" width="1920" zoomAndPan="magnify" viewBox="0 0 1440 809.999993" height="1080" preserveAspectRatio="xMidYMid meet" version="1.0"><defs><filter x="0%" y="0%" width="100%" height="100%" id="id1"><feColorMatrix values="0 0 0 0 1 0 0 0 0 1 0 0 0 0 1 0 0 0 1 0" color-interpolation-filters="sRGB"/></filter><mask id="id2"><g filter="url(#id1)"><rect x="-144" width="1728" fill="#000000" y="-80.999999" height="971.999992" fill-opacity="0.4471"/></g></mask><clipPath id="id3"><path d="M 12 9.710938 L 594.460938 9.710938 L 594.460938 592.460938 L 12 592.460938 Z M 12 9.710938 " clip-rule="nonzero"/></clipPath><clipPath id="id4"><rect x="0" width="608" y="0" height="596"/></clipPath></defs><g mask="url(#id2)"><g transform="matrix(1, 0, 0, 1, 417, 104)"><g clip-path="url(#id4)"><path fill="#003e52" d="M 442.941406 196.75 C 442.941406 195.726562 442.820312 194.71875 442.578125 193.726562 C 442.332031 192.730469 441.972656 191.78125 441.496094 190.875 C 441.019531 189.972656 440.445312 189.136719 439.765625 188.371094 C 439.089844 187.605469 438.328125 186.929688 437.488281 186.347656 L 286.617188 82.042969 C 285.667969 81.386719 284.648438 80.871094 283.558594 80.492188 C 282.46875 80.117188 281.347656 79.894531 280.195312 79.824219 C 279.046875 79.753906 277.90625 79.839844 276.777344 80.082031 C 275.652344 80.320312 274.578125 80.710938 273.554688 81.246094 C 272.535156 81.78125 271.601562 82.445312 270.761719 83.234375 C 269.921875 84.023438 269.207031 84.914062 268.609375 85.902344 C 268.011719 86.886719 267.558594 87.9375 267.25 89.046875 C 266.9375 90.15625 266.785156 91.289062 266.785156 92.441406 L 266.785156 276.953125 L 209.960938 237.671875 C 209.277344 237.203125 208.554688 236.804688 207.792969 236.476562 C 207.03125 236.148438 206.246094 235.894531 205.4375 235.722656 C 204.625 235.546875 203.804688 235.457031 202.976562 235.445312 C 202.148438 235.429688 201.324219 235.5 200.507812 235.648438 C 199.691406 235.800781 198.898438 236.027344 198.128906 236.332031 C 197.359375 236.636719 196.625 237.015625 195.929688 237.464844 C 195.230469 237.917969 194.585938 238.429688 193.988281 239.007812 C 193.394531 239.585938 192.859375 240.214844 192.390625 240.894531 C 191.917969 241.578125 191.515625 242.300781 191.1875 243.058594 C 190.859375 243.820312 190.605469 244.605469 190.429688 245.417969 C 190.253906 246.226562 190.160156 247.046875 190.148438 247.875 C 190.132812 248.707031 190.199219 249.527344 190.347656 250.34375 C 190.496094 251.160156 190.722656 251.953125 191.027344 252.726562 C 191.332031 253.496094 191.707031 254.230469 192.15625 254.929688 C 192.605469 255.625 193.117188 256.273438 193.695312 256.867188 C 194.269531 257.464844 194.898438 258 195.578125 258.472656 L 257.1875 301.0625 L 195.578125 343.65625 C 194.898438 344.128906 194.265625 344.664062 193.691406 345.261719 C 193.113281 345.859375 192.601562 346.503906 192.148438 347.203125 C 191.699219 347.898438 191.324219 348.632812 191.019531 349.40625 C 190.714844 350.175781 190.484375 350.972656 190.335938 351.789062 C 190.1875 352.605469 190.121094 353.425781 190.132812 354.257812 C 190.148438 355.085938 190.242188 355.90625 190.417969 356.71875 C 190.59375 357.53125 190.84375 358.316406 191.175781 359.078125 C 191.503906 359.839844 191.90625 360.5625 192.375 361.246094 C 192.847656 361.925781 193.382812 362.558594 193.980469 363.132812 C 194.574219 363.710938 195.222656 364.226562 195.917969 364.675781 C 196.617188 365.125 197.351562 365.503906 198.121094 365.808594 C 198.894531 366.113281 199.6875 366.34375 200.503906 366.492188 C 201.320312 366.640625 202.144531 366.707031 202.972656 366.695312 C 203.800781 366.683594 204.621094 366.589844 205.433594 366.414062 C 206.246094 366.242188 207.03125 365.988281 207.792969 365.660156 C 208.554688 365.332031 209.277344 364.929688 209.960938 364.457031 L 266.785156 325.175781 L 266.785156 509.6875 C 266.785156 510.84375 266.9375 511.972656 267.25 513.085938 C 267.558594 514.195312 268.011719 515.242188 268.609375 516.230469 C 269.207031 517.214844 269.925781 518.105469 270.765625 518.894531 C 271.605469 519.683594 272.535156 520.347656 273.554688 520.882812 C 274.578125 521.417969 275.652344 521.808594 276.777344 522.050781 C 277.90625 522.289062 279.046875 522.375 280.195312 522.308594 C 281.347656 522.238281 282.46875 522.011719 283.558594 521.636719 C 284.648438 521.261719 285.667969 520.746094 286.617188 520.089844 L 437.488281 415.777344 C 437.90625 415.484375 438.304688 415.171875 438.6875 414.835938 C 439.070312 414.496094 439.429688 414.136719 439.765625 413.753906 C 440.105469 413.375 440.417969 412.972656 440.707031 412.554688 C 440.996094 412.132812 441.257812 411.699219 441.496094 411.246094 C 441.734375 410.796875 441.941406 410.332031 442.121094 409.855469 C 442.300781 409.378906 442.453125 408.894531 442.574219 408.398438 C 442.699219 407.90625 442.789062 407.40625 442.851562 406.898438 C 442.910156 406.394531 442.941406 405.886719 442.941406 405.375 C 442.941406 404.867188 442.910156 404.359375 442.851562 403.851562 C 442.789062 403.347656 442.699219 402.847656 442.574219 402.351562 C 442.453125 401.855469 442.300781 401.371094 442.121094 400.894531 C 441.941406 400.417969 441.734375 399.953125 441.496094 399.503906 C 441.257812 399.050781 440.996094 398.617188 440.707031 398.195312 C 440.417969 397.777344 440.105469 397.378906 439.765625 396.996094 C 439.429688 396.613281 439.070312 396.253906 438.6875 395.917969 C 438.304688 395.578125 437.90625 395.265625 437.488281 394.976562 L 301.660156 301.0625 L 437.484375 207.148438 C 438.328125 206.566406 439.085938 205.894531 439.765625 205.128906 C 440.445312 204.363281 441.019531 203.527344 441.496094 202.621094 C 441.972656 201.714844 442.332031 200.765625 442.574219 199.773438 C 442.820312 198.78125 442.941406 197.773438 442.941406 196.75 Z M 292.066406 485.578125 L 292.066406 325.171875 L 408.070312 405.375 Z M 292.066406 276.953125 L 292.066406 116.550781 L 408.070312 196.75 Z M 292.066406 276.953125 " fill-opacity="1" fill-rule="nonzero"/><g clip-path="url(#id3)"><path fill="#003e52" d="M 303.71875 9.609375 C 298.949219 9.609375 294.183594 9.726562 289.417969 9.960938 C 284.652344 10.195312 279.898438 10.546875 275.152344 11.011719 C 270.40625 11.480469 265.671875 12.0625 260.953125 12.765625 C 256.234375 13.464844 251.539062 14.28125 246.859375 15.210938 C 242.179688 16.140625 237.527344 17.183594 232.902344 18.34375 C 228.273438 19.503906 223.679688 20.773438 219.113281 22.160156 C 214.550781 23.542969 210.023438 25.039062 205.53125 26.648438 C 201.039062 28.253906 196.589844 29.96875 192.183594 31.796875 C 187.777344 33.621094 183.417969 35.554688 179.105469 37.59375 C 174.796875 39.632812 170.535156 41.777344 166.328125 44.023438 C 162.121094 46.273438 157.972656 48.625 153.882812 51.074219 C 149.792969 53.527344 145.761719 56.078125 141.796875 58.730469 C 137.832031 61.378906 133.933594 64.125 130.101562 66.964844 C 126.269531 69.808594 122.511719 72.742188 118.824219 75.765625 C 115.136719 78.792969 111.527344 81.90625 107.992188 85.109375 C 104.457031 88.3125 101.003906 91.601562 97.632812 94.976562 C 94.257812 98.347656 90.96875 101.800781 87.765625 105.335938 C 84.5625 108.871094 81.449219 112.480469 78.421875 116.167969 C 75.398438 119.855469 72.464844 123.613281 69.621094 127.445312 C 66.78125 131.277344 64.035156 135.175781 61.386719 139.140625 C 58.734375 143.105469 56.183594 147.136719 53.730469 151.226562 C 51.28125 155.320312 48.929688 159.46875 46.679688 163.675781 C 44.433594 167.878906 42.289062 172.140625 40.25 176.453125 C 38.210938 180.765625 36.277344 185.125 34.453125 189.53125 C 32.625 193.9375 30.910156 198.386719 29.304688 202.878906 C 27.695312 207.367188 26.199219 211.894531 24.816406 216.460938 C 23.429688 221.023438 22.160156 225.621094 21 230.246094 C 19.84375 234.875 18.796875 239.527344 17.867188 244.207031 C 16.9375 248.882812 16.121094 253.582031 15.421875 258.300781 C 14.722656 263.019531 14.136719 267.75 13.667969 272.496094 C 13.203125 277.246094 12.851562 282 12.617188 286.765625 C 12.382812 291.527344 12.265625 296.296875 12.265625 301.066406 C 12.265625 305.835938 12.382812 310.601562 12.617188 315.367188 C 12.851562 320.128906 13.203125 324.886719 13.667969 329.632812 C 14.136719 334.378906 14.722656 339.113281 15.421875 343.832031 C 16.121094 348.550781 16.9375 353.246094 17.867188 357.925781 C 18.796875 362.605469 19.84375 367.257812 21 371.882812 C 22.160156 376.511719 23.433594 381.105469 24.816406 385.671875 C 26.199219 390.234375 27.695312 394.761719 29.304688 399.253906 C 30.910156 403.746094 32.625 408.195312 34.453125 412.601562 C 36.277344 417.007812 38.210938 421.367188 40.25 425.679688 C 42.289062 429.992188 44.433594 434.25 46.679688 438.457031 C 48.929688 442.664062 51.28125 446.8125 53.730469 450.902344 C 56.183594 454.996094 58.734375 459.023438 61.386719 462.988281 C 64.035156 466.957031 66.78125 470.855469 69.621094 474.6875 C 72.464844 478.515625 75.398438 482.277344 78.421875 485.964844 C 81.449219 489.648438 84.5625 493.261719 87.769531 496.796875 C 90.972656 500.328125 94.257812 503.78125 97.632812 507.15625 C 101.003906 510.527344 104.457031 513.816406 107.992188 517.019531 C 111.527344 520.222656 115.136719 523.339844 118.824219 526.363281 C 122.511719 529.390625 126.269531 532.324219 130.101562 535.164062 C 133.933594 538.007812 137.832031 540.753906 141.796875 543.402344 C 145.765625 546.050781 149.792969 548.601562 153.882812 551.054688 C 157.976562 553.507812 162.125 555.859375 166.332031 558.105469 C 170.539062 560.355469 174.796875 562.5 179.109375 564.539062 C 183.421875 566.578125 187.78125 568.511719 192.1875 570.335938 C 196.59375 572.160156 201.042969 573.878906 205.535156 575.484375 C 210.023438 577.089844 214.550781 578.585938 219.117188 579.972656 C 223.679688 581.355469 228.277344 582.628906 232.902344 583.785156 C 237.53125 584.945312 242.183594 585.992188 246.863281 586.921875 C 251.539062 587.851562 256.238281 588.667969 260.957031 589.367188 C 265.675781 590.066406 270.40625 590.652344 275.15625 591.117188 C 279.902344 591.585938 284.65625 591.9375 289.421875 592.171875 C 294.183594 592.40625 298.953125 592.519531 303.722656 592.519531 C 308.492188 592.519531 313.257812 592.40625 318.023438 592.171875 C 322.789062 591.9375 327.542969 591.585938 332.289062 591.117188 C 337.035156 590.652344 341.769531 590.066406 346.488281 589.367188 C 351.207031 588.667969 355.902344 587.851562 360.582031 586.921875 C 365.261719 585.992188 369.914062 584.945312 374.539062 583.785156 C 379.167969 582.628906 383.761719 581.355469 388.328125 579.972656 C 392.890625 578.585938 397.417969 577.089844 401.910156 575.484375 C 406.402344 573.875 410.851562 572.160156 415.257812 570.335938 C 419.664062 568.511719 424.023438 566.578125 428.335938 564.539062 C 432.648438 562.5 436.90625 560.355469 441.113281 558.105469 C 445.320312 555.859375 449.46875 553.507812 453.558594 551.054688 C 457.652344 548.601562 461.679688 546.050781 465.644531 543.402344 C 469.613281 540.75 473.511719 538.007812 477.34375 535.164062 C 481.171875 532.324219 484.933594 529.390625 488.621094 526.363281 C 492.308594 523.335938 495.917969 520.222656 499.453125 517.019531 C 502.988281 513.816406 506.441406 510.527344 509.8125 507.15625 C 513.183594 503.78125 516.472656 500.328125 519.675781 496.792969 C 522.878906 493.261719 525.996094 489.648438 529.019531 485.960938 C 532.046875 482.273438 534.980469 478.515625 537.820312 474.683594 C 540.664062 470.851562 543.410156 466.953125 546.058594 462.988281 C 548.707031 459.023438 551.261719 454.992188 553.710938 450.902344 C 556.164062 446.8125 558.515625 442.660156 560.761719 438.457031 C 563.011719 434.25 565.15625 429.988281 567.195312 425.675781 C 569.234375 421.363281 571.167969 417.003906 572.992188 412.597656 C 574.816406 408.191406 576.535156 403.742188 578.140625 399.253906 C 579.746094 394.761719 581.242188 390.234375 582.628906 385.667969 C 584.011719 381.105469 585.285156 376.507812 586.445312 371.882812 C 587.601562 367.253906 588.648438 362.601562 589.578125 357.921875 C 590.507812 353.246094 591.324219 348.546875 592.023438 343.828125 C 592.722656 339.109375 593.308594 334.378906 593.773438 329.628906 C 594.242188 324.882812 594.59375 320.128906 594.828125 315.363281 C 595.0625 310.597656 595.179688 305.832031 595.179688 301.0625 C 595.171875 296.292969 595.050781 291.527344 594.8125 286.765625 C 594.574219 282.003906 594.21875 277.25 593.746094 272.503906 C 593.273438 267.761719 592.683594 263.027344 591.980469 258.3125 C 591.277344 253.597656 590.457031 248.902344 589.523438 244.226562 C 588.589844 239.546875 587.542969 234.898438 586.378906 230.273438 C 585.21875 225.648438 583.941406 221.054688 582.554688 216.492188 C 581.167969 211.929688 579.667969 207.40625 578.058594 202.917969 C 576.449219 198.429688 574.730469 193.980469 572.90625 189.578125 C 571.078125 185.171875 569.144531 180.816406 567.101562 176.507812 C 565.0625 172.195312 562.917969 167.941406 560.667969 163.734375 C 558.417969 159.53125 556.066406 155.382812 553.613281 151.296875 C 551.160156 147.207031 548.609375 143.179688 545.957031 139.214844 C 543.308594 135.25 540.5625 131.355469 537.71875 127.523438 C 534.878906 123.695312 531.945312 119.9375 528.917969 116.253906 C 525.894531 112.566406 522.78125 108.957031 519.578125 105.425781 C 516.375 101.890625 513.085938 98.4375 509.714844 95.066406 C 506.34375 91.695312 502.890625 88.410156 499.359375 85.207031 C 495.824219 82.003906 492.214844 78.890625 488.53125 75.863281 C 484.84375 72.839844 481.085938 69.90625 477.257812 67.0625 C 473.429688 64.222656 469.53125 61.476562 465.566406 58.828125 C 461.601562 56.175781 457.578125 53.625 453.488281 51.171875 C 449.398438 48.71875 445.25 46.367188 441.046875 44.117188 C 436.84375 41.867188 432.585938 39.722656 428.277344 37.683594 C 423.964844 35.640625 419.609375 33.707031 415.203125 31.878906 C 410.800781 30.054688 406.351562 28.335938 401.863281 26.726562 C 397.375 25.117188 392.851562 23.617188 388.289062 22.230469 C 383.726562 20.84375 379.132812 19.570312 374.507812 18.40625 C 369.882812 17.246094 365.234375 16.195312 360.558594 15.261719 C 355.882812 14.328125 351.183594 13.507812 346.46875 12.804688 C 341.753906 12.101562 337.023438 11.515625 332.277344 11.042969 C 327.53125 10.570312 322.777344 10.214844 318.015625 9.976562 C 313.253906 9.738281 308.488281 9.613281 303.71875 9.609375 Z M 303.71875 567.238281 C 299.363281 567.238281 295.007812 567.132812 290.660156 566.917969 C 286.308594 566.703125 281.964844 566.382812 277.628906 565.957031 C 273.292969 565.53125 268.972656 564.996094 264.664062 564.359375 C 260.355469 563.71875 256.0625 562.972656 251.792969 562.125 C 247.519531 561.273438 243.269531 560.320312 239.042969 559.261719 C 234.820312 558.203125 230.621094 557.042969 226.453125 555.777344 C 222.285156 554.511719 218.148438 553.148438 214.046875 551.679688 C 209.949219 550.210938 205.882812 548.644531 201.859375 546.976562 C 197.835938 545.308594 193.855469 543.546875 189.917969 541.683594 C 185.976562 539.820312 182.089844 537.863281 178.246094 535.808594 C 174.40625 533.753906 170.617188 531.609375 166.878906 529.371094 C 163.144531 527.128906 159.464844 524.800781 155.84375 522.378906 C 152.21875 519.960938 148.660156 517.453125 145.160156 514.859375 C 141.664062 512.261719 138.230469 509.582031 134.863281 506.820312 C 131.496094 504.054688 128.199219 501.210938 124.96875 498.285156 C 121.742188 495.359375 118.589844 492.359375 115.507812 489.277344 C 112.425781 486.199219 109.425781 483.042969 106.5 479.816406 C 103.574219 476.589844 100.730469 473.292969 97.964844 469.921875 C 95.203125 466.554688 92.523438 463.125 89.929688 459.625 C 87.332031 456.125 84.828125 452.566406 82.40625 448.941406 C 79.984375 445.320312 77.65625 441.640625 75.417969 437.90625 C 73.175781 434.167969 71.03125 430.378906 68.976562 426.539062 C 66.925781 422.695312 64.964844 418.808594 63.105469 414.867188 C 61.242188 410.929688 59.476562 406.949219 57.808594 402.925781 C 56.140625 398.902344 54.574219 394.835938 53.109375 390.738281 C 51.640625 386.636719 50.273438 382.5 49.007812 378.332031 C 47.746094 374.164062 46.582031 369.964844 45.523438 365.738281 C 44.464844 361.515625 43.511719 357.265625 42.664062 352.992188 C 41.8125 348.722656 41.070312 344.429688 40.429688 340.121094 C 39.789062 335.8125 39.257812 331.488281 38.828125 327.15625 C 38.402344 322.820312 38.082031 318.476562 37.867188 314.125 C 37.65625 309.773438 37.546875 305.421875 37.546875 301.066406 C 37.546875 296.710938 37.65625 292.355469 37.867188 288.003906 C 38.082031 283.652344 38.402344 279.3125 38.832031 274.976562 C 39.257812 270.640625 39.789062 266.320312 40.429688 262.007812 C 41.070312 257.699219 41.8125 253.410156 42.664062 249.136719 C 43.511719 244.863281 44.46875 240.617188 45.527344 236.390625 C 46.585938 232.164062 47.746094 227.96875 49.011719 223.800781 C 50.273438 219.628906 51.640625 215.496094 53.109375 211.394531 C 54.574219 207.292969 56.144531 203.230469 57.808594 199.203125 C 59.476562 195.179688 61.242188 191.199219 63.105469 187.261719 C 64.96875 183.324219 66.925781 179.433594 68.976562 175.59375 C 71.03125 171.75 73.179688 167.960938 75.417969 164.226562 C 77.65625 160.488281 79.988281 156.808594 82.40625 153.1875 C 84.828125 149.566406 87.335938 146.003906 89.929688 142.503906 C 92.523438 139.007812 95.203125 135.574219 97.96875 132.207031 C 100.730469 128.839844 103.574219 125.542969 106.5 122.3125 C 109.425781 119.085938 112.429688 115.933594 115.507812 112.851562 C 118.589844 109.773438 121.742188 106.769531 124.972656 103.84375 C 128.199219 100.917969 131.496094 98.074219 134.863281 95.308594 C 138.230469 92.546875 141.664062 89.867188 145.164062 87.273438 C 148.664062 84.675781 152.222656 82.171875 155.84375 79.75 C 159.464844 77.328125 163.144531 75 166.882812 72.761719 C 170.617188 70.519531 174.40625 68.375 178.25 66.320312 C 182.089844 64.269531 185.980469 62.308594 189.917969 60.445312 C 193.855469 58.585938 197.835938 56.820312 201.863281 55.152344 C 205.886719 53.484375 209.949219 51.917969 214.050781 50.449219 C 218.152344 48.984375 222.289062 47.617188 226.457031 46.351562 C 230.625 45.089844 234.820312 43.925781 239.046875 42.867188 C 243.273438 41.808594 247.523438 40.855469 251.792969 40.007812 C 256.066406 39.15625 260.359375 38.410156 264.667969 37.773438 C 268.976562 37.132812 273.296875 36.601562 277.632812 36.171875 C 281.96875 35.746094 286.3125 35.425781 290.660156 35.210938 C 295.011719 35 299.367188 34.890625 303.722656 34.890625 C 308.078125 34.890625 312.433594 35 316.78125 35.210938 C 321.132812 35.425781 325.476562 35.746094 329.8125 36.171875 C 334.148438 36.601562 338.46875 37.132812 342.777344 37.773438 C 347.085938 38.410156 351.378906 39.15625 355.648438 40.007812 C 359.921875 40.855469 364.171875 41.808594 368.398438 42.867188 C 372.621094 43.925781 376.820312 45.089844 380.988281 46.351562 C 385.15625 47.617188 389.292969 48.984375 393.394531 50.453125 C 397.496094 51.917969 401.558594 53.484375 405.582031 55.152344 C 409.605469 56.820312 413.589844 58.585938 417.527344 60.449219 C 421.464844 62.308594 425.355469 64.269531 429.195312 66.320312 C 433.039062 68.375 436.828125 70.519531 440.5625 72.761719 C 444.300781 75 447.980469 77.332031 451.601562 79.75 C 455.222656 82.171875 458.78125 84.679688 462.28125 87.273438 C 465.78125 89.867188 469.214844 92.546875 472.582031 95.308594 C 475.949219 98.074219 479.246094 100.917969 482.472656 103.84375 C 485.703125 106.769531 488.855469 109.773438 491.9375 112.851562 C 495.015625 115.933594 498.019531 119.085938 500.945312 122.3125 C 503.871094 125.542969 506.714844 128.839844 509.476562 132.207031 C 512.242188 135.574219 514.921875 139.007812 517.515625 142.503906 C 520.109375 146.003906 522.617188 149.566406 525.039062 153.1875 C 527.457031 156.808594 529.789062 160.488281 532.027344 164.222656 C 534.265625 167.960938 536.414062 171.75 538.464844 175.589844 C 540.519531 179.433594 542.476562 183.324219 544.339844 187.261719 C 546.203125 191.199219 547.96875 195.179688 549.636719 199.203125 C 551.300781 203.226562 552.867188 207.292969 554.335938 211.394531 C 555.804688 215.492188 557.171875 219.628906 558.433594 223.796875 C 559.699219 227.964844 560.859375 232.164062 561.917969 236.386719 C 562.976562 240.613281 563.933594 244.863281 564.78125 249.136719 C 565.632812 253.40625 566.375 257.699219 567.015625 262.007812 C 567.65625 266.316406 568.1875 270.636719 568.613281 274.972656 C 569.042969 279.308594 569.363281 283.652344 569.574219 288.003906 C 569.789062 292.351562 569.894531 296.707031 569.894531 301.0625 C 569.890625 305.417969 569.78125 309.769531 569.5625 314.117188 C 569.34375 318.46875 569.019531 322.808594 568.585938 327.144531 C 568.15625 331.476562 567.621094 335.796875 566.976562 340.105469 C 566.332031 344.410156 565.585938 348.699219 564.734375 352.96875 C 563.878906 357.242188 562.921875 361.488281 561.859375 365.710938 C 560.800781 369.933594 559.636719 374.128906 558.367188 378.296875 C 557.101562 382.464844 555.734375 386.597656 554.261719 390.695312 C 552.792969 394.792969 551.222656 398.855469 549.554688 402.878906 C 547.886719 406.898438 546.121094 410.878906 544.257812 414.816406 C 542.390625 418.75 540.433594 422.640625 538.378906 426.480469 C 536.324219 430.320312 534.175781 434.105469 531.9375 437.839844 C 529.695312 441.574219 527.367188 445.253906 524.945312 448.871094 C 522.527344 452.492188 520.019531 456.050781 517.421875 459.546875 C 514.828125 463.046875 512.148438 466.476562 509.386719 469.84375 C 506.621094 473.210938 503.777344 476.503906 500.855469 479.730469 C 497.929688 482.957031 494.925781 486.113281 491.847656 489.191406 C 488.769531 492.269531 485.617188 495.273438 482.390625 498.199219 C 479.164062 501.121094 475.867188 503.964844 472.5 506.730469 C 469.132812 509.492188 465.703125 512.171875 462.207031 514.765625 C 458.707031 517.359375 455.148438 519.867188 451.527344 522.289062 C 447.910156 524.710938 444.230469 527.039062 440.496094 529.28125 C 436.761719 531.519531 432.976562 533.667969 429.136719 535.722656 C 425.296875 537.777344 421.40625 539.734375 417.472656 541.601562 C 413.535156 543.464844 409.558594 545.230469 405.535156 546.898438 C 401.511719 548.566406 397.453125 550.136719 393.351562 551.605469 C 389.253906 553.074219 385.121094 554.445312 380.953125 555.710938 C 376.785156 556.976562 372.589844 558.144531 368.367188 559.203125 C 364.144531 560.265625 359.898438 561.222656 355.628906 562.074219 C 351.355469 562.929688 347.066406 563.675781 342.761719 564.320312 C 338.453125 564.960938 334.132812 565.5 329.800781 565.929688 C 325.464844 566.363281 321.125 566.6875 316.777344 566.90625 C 312.425781 567.125 308.074219 567.234375 303.71875 567.238281 Z M 303.71875 567.238281 " fill-opacity="1" fill-rule="nonzero"/></g></g></g></g></svg>