<svg xmlns="http://www.w3.org/2000/svg" xmlns:xlink="http://www.w3.org/1999/xlink" width="1920" zoomAndPan="magnify" viewBox="0 0 1440 809.999993" height="1080" preserveAspectRatio="xMidYMid meet" version="1.0"><defs><clipPath id="id1"><path d="M 698 634 L 729 634 L 729 724.226562 L 698 724.226562 Z M 698 634 " clip-rule="nonzero"/></clipPath><clipPath id="id2"><path d="M 400.976562 383 L 491 383 L 491 414 L 400.976562 414 Z M 400.976562 383 " clip-rule="nonzero"/></clipPath><clipPath id="id3"><path d="M 711 85.976562 L 742 85.976562 L 742 176 L 711 176 Z M 711 85.976562 " clip-rule="nonzero"/></clipPath><clipPath id="id4"><path d="M 949 396 L 1039.226562 396 L 1039.226562 427 L 949 427 Z M 949 396 " clip-rule="nonzero"/></clipPath></defs><path fill="#ffffff" d="M 657.042969 183.460938 L 627.609375 99.65625 C 618.679688 102.371094 609.910156 105.460938 601.324219 108.914062 L 630.757812 192.71875 C 639.269531 189.125 648.042969 186.023438 657.042969 183.460938 " fill-opacity="1" fill-rule="nonzero"/><path fill="#ffffff" d="M 498.480469 468.148438 L 414.679688 497.578125 C 417.386719 506.511719 420.476562 515.28125 423.933594 523.871094 L 507.742188 494.433594 C 504.144531 485.921875 501.042969 477.148438 498.480469 468.148438 " fill-opacity="1" fill-rule="nonzero"/><path fill="#ffffff" d="M 608.785156 606.746094 L 570.347656 686.804688 C 578.519531 691.167969 586.902344 695.195312 595.480469 698.847656 L 633.9375 618.753906 C 625.28125 615.25 616.886719 611.238281 608.785156 606.746094 " fill-opacity="1" fill-rule="nonzero"/><path fill="#ffffff" d="M 519.394531 292.066406 L 439.296875 253.605469 C 434.882812 261.753906 430.828125 270.121094 427.125 278.675781 L 507.175781 317.113281 C 510.753906 308.492188 514.835938 300.128906 519.394531 292.066406 " fill-opacity="1" fill-rule="nonzero"/><g clip-path="url(#id1)"><path fill="#ff8400" d="M 720.105469 635.484375 C 713.621094 635.484375 707.207031 635.203125 700.859375 634.675781 L 698.808594 723.476562 C 705.847656 723.941406 712.949219 724.203125 720.105469 724.203125 C 722.296875 724.203125 724.488281 724.160156 726.671875 724.117188 L 728.722656 635.304688 C 725.863281 635.414062 722.992188 635.484375 720.105469 635.484375 " fill-opacity="1" fill-rule="nonzero"/></g><g clip-path="url(#id2)"><path fill="#ffffff" d="M 489.707031 405.085938 C 489.707031 398.601562 489.988281 392.1875 490.519531 385.835938 L 401.71875 383.785156 C 401.253906 390.828125 400.992188 397.925781 400.992188 405.085938 C 400.992188 407.28125 401.03125 409.464844 401.074219 411.648438 L 489.882812 413.703125 C 489.777344 410.84375 489.707031 407.972656 489.707031 405.085938 " fill-opacity="1" fill-rule="nonzero"/></g><path fill="#ffffff" d="M 544.800781 554.414062 L 480.597656 615.71875 C 486.742188 622.691406 493.167969 629.414062 499.890625 635.832031 L 564.128906 574.496094 C 557.289062 568.195312 550.835938 561.492188 544.800781 554.414062 " fill-opacity="1" fill-rule="nonzero"/><path fill="#ffffff" d="M 572.265625 228.523438 L 510.929688 164.285156 C 503.917969 170.386719 497.179688 176.796875 490.722656 183.480469 L 552.023438 247.679688 C 558.378906 240.898438 565.140625 234.5 572.265625 228.523438 " fill-opacity="1" fill-rule="nonzero"/><path fill="#ff8400" d="M 783.171875 626.714844 L 812.601562 710.515625 C 821.535156 707.804688 830.300781 704.710938 838.890625 701.257812 L 809.453125 617.453125 C 800.941406 621.050781 792.167969 624.148438 783.171875 626.714844 " fill-opacity="1" fill-rule="nonzero"/><path fill="#ff8400" d="M 941.734375 342.019531 L 1025.539062 312.589844 C 1022.828125 303.660156 1019.734375 294.886719 1016.28125 286.304688 L 932.472656 315.734375 C 936.074219 324.25 939.171875 333.019531 941.734375 342.019531 " fill-opacity="1" fill-rule="nonzero"/><path fill="#ff8400" d="M 832.957031 204.28125 L 871.417969 124.183594 C 863.269531 119.777344 854.898438 115.722656 846.34375 112.023438 L 807.898438 192.082031 C 816.535156 195.652344 824.898438 199.730469 832.957031 204.28125 " fill-opacity="1" fill-rule="nonzero"/><path fill="#ff8400" d="M 921.863281 516.242188 L 1001.914062 554.679688 C 1006.269531 546.5 1010.292969 538.121094 1013.945312 529.542969 L 933.847656 491.078125 C 930.347656 499.738281 926.339844 508.136719 921.863281 516.242188 " fill-opacity="1" fill-rule="nonzero"/><g clip-path="url(#id3)"><path fill="#ff8400" d="M 720.105469 174.6875 C 726.585938 174.6875 733.003906 174.96875 739.351562 175.5 L 741.40625 86.699219 C 734.363281 86.230469 727.265625 85.96875 720.105469 85.96875 C 717.910156 85.96875 715.726562 86.007812 713.542969 86.054688 L 711.488281 174.867188 C 714.351562 174.757812 717.21875 174.6875 720.105469 174.6875 " fill-opacity="1" fill-rule="nonzero"/></g><g clip-path="url(#id4)"><path fill="#ff8400" d="M 950.507812 405.085938 C 950.507812 411.566406 950.222656 417.980469 949.695312 424.335938 L 1038.496094 426.386719 C 1038.960938 419.34375 1039.21875 412.242188 1039.21875 405.085938 C 1039.21875 402.890625 1039.179688 400.707031 1039.140625 398.523438 L 950.328125 396.46875 C 950.433594 399.328125 950.507812 402.199219 950.507812 405.085938 " fill-opacity="1" fill-rule="nonzero"/></g><path fill="#ff8400" d="M 896.546875 257.101562 L 960.777344 195.769531 C 954.667969 188.757812 948.261719 182.023438 941.574219 175.570312 L 877.371094 236.875 C 884.160156 243.226562 890.5625 249.980469 896.546875 257.101562 " fill-opacity="1" fill-rule="nonzero"/><path fill="#ff8400" d="M 869.578125 580.269531 L 930.878906 644.46875 C 937.855469 638.320312 944.570312 631.890625 950.984375 625.167969 L 889.648438 560.925781 C 883.355469 567.765625 876.648438 574.226562 869.578125 580.269531 " fill-opacity="1" fill-rule="nonzero"/></svg>