<svg xmlns="http://www.w3.org/2000/svg" xmlns:xlink="http://www.w3.org/1999/xlink" width="1920" zoomAndPan="magnify" viewBox="0 0 1440 809.999993" height="1080" preserveAspectRatio="xMidYMid meet" version="1.0"><defs><filter x="0%" y="0%" width="100%" height="100%" id="id1"><feColorMatrix values="0 0 0 0 1 0 0 0 0 1 0 0 0 0 1 0 0 0 1 0" color-interpolation-filters="sRGB"/></filter><mask id="id2"><g filter="url(#id1)"><rect x="-144" width="1728" fill="#000000" y="-80.999999" height="971.999992" fill-opacity="0.4471"/></g></mask><clipPath id="id3"><path d="M 0.0390625 0.710938 L 530 0.710938 L 530 581 L 0.0390625 581 Z M 0.0390625 0.710938 " clip-rule="nonzero"/></clipPath><clipPath id="id4"><rect x="0" width="531" y="0" height="594"/></clipPath></defs><g mask="url(#id2)"><g transform="matrix(1, 0, 0, 1, 455, 113)"><g clip-path="url(#id4)"><g clip-path="url(#id3)"><path fill="#003e52" d="M 265.085938 0.710938 C 256.070312 0.710938 247.101562 2.980469 239.019531 7.511719 L 26.554688 126.898438 C 10.390625 136.011719 0.191406 153.011719 0.191406 171.441406 L 0.191406 410.210938 C 0.191406 428.6875 10.390625 445.6875 26.554688 454.804688 L 239.019531 574.140625 C 255.183594 583.253906 274.988281 583.253906 291.152344 574.140625 L 503.617188 454.804688 C 519.828125 445.6875 529.980469 428.640625 529.980469 410.210938 L 529.980469 171.441406 C 529.980469 153.011719 519.78125 136.011719 503.617188 126.898438 L 291.152344 7.511719 C 283.070312 2.980469 274.101562 0.710938 265.085938 0.710938 Z M 265.085938 25.9375 C 269.816406 25.9375 274.59375 27.121094 278.832031 29.488281 L 491.300781 148.875 C 499.726562 153.652344 504.75 162.226562 504.75 171.441406 L 504.75 278.210938 L 479.523438 278.210938 L 479.523438 252.984375 L 454.296875 252.984375 L 454.296875 278.210938 L 429.066406 278.210938 L 429.066406 303.4375 L 454.296875 303.4375 L 454.296875 328.667969 L 479.523438 328.667969 L 479.523438 303.4375 L 504.75 303.4375 L 504.75 410.210938 C 504.75 419.425781 499.726562 428 491.25 432.777344 L 278.832031 552.164062 C 270.359375 556.894531 259.8125 556.894531 251.339844 552.164062 L 38.921875 432.777344 C 30.445312 428 25.417969 419.476562 25.417969 410.210938 L 25.417969 171.441406 C 25.417969 162.226562 30.445312 153.652344 38.921875 148.875 L 251.339844 29.488281 C 255.574219 27.121094 260.355469 25.9375 265.085938 25.9375 Z M 265.085938 126.847656 C 174.765625 126.847656 101.105469 200.511719 101.105469 290.824219 C 101.105469 381.140625 174.765625 454.804688 265.085938 454.804688 C 316.675781 454.804688 364.570312 430.757812 395.511719 390.011719 L 404.136719 378.628906 L 327.761719 334.382812 L 320.863281 341.871094 C 306.625 357.441406 286.421875 366.507812 265.085938 366.507812 C 223.253906 366.507812 189.402344 332.65625 189.402344 290.824219 C 189.402344 248.992188 223.253906 215.144531 265.085938 215.144531 C 286.421875 215.144531 306.625 224.210938 320.863281 239.78125 L 327.761719 247.269531 L 404.136719 203.023438 L 395.511719 191.640625 C 364.570312 150.894531 316.675781 126.847656 265.085938 126.847656 Z M 265.085938 152.074219 C 303.863281 152.074219 339.339844 168.679688 365.308594 196.371094 L 330.71875 216.375 C 312.488281 200.410156 289.820312 189.917969 265.085938 189.917969 C 209.554688 189.917969 164.171875 235.296875 164.171875 290.824219 C 164.171875 346.355469 209.554688 391.734375 265.085938 391.734375 C 289.820312 391.734375 312.488281 381.238281 330.71875 365.277344 L 365.308594 385.28125 C 339.339844 412.972656 303.863281 429.574219 265.085938 429.574219 C 188.464844 429.574219 126.332031 367.445312 126.332031 290.824219 C 126.332031 214.207031 188.464844 152.074219 265.085938 152.074219 Z M 365.996094 252.984375 L 365.996094 278.210938 L 340.769531 278.210938 L 340.769531 303.4375 L 365.996094 303.4375 L 365.996094 328.667969 L 391.226562 328.667969 L 391.226562 303.4375 L 416.453125 303.4375 L 416.453125 278.210938 L 391.226562 278.210938 L 391.226562 252.984375 Z M 365.996094 252.984375 " fill-opacity="1" fill-rule="nonzero"/></g></g></g></g></svg>