<svg xmlns="http://www.w3.org/2000/svg" xmlns:xlink="http://www.w3.org/1999/xlink" width="1920" zoomAndPan="magnify" viewBox="0 0 1440 809.999993" height="1080" preserveAspectRatio="xMidYMid meet" version="1.0"><defs><filter x="0%" y="0%" width="100%" height="100%" id="id1"><feColorMatrix values="0 0 0 0 1 0 0 0 0 1 0 0 0 0 1 0 0 0 1 0" color-interpolation-filters="sRGB"/></filter><mask id="id2"><g filter="url(#id1)"><rect x="-144" width="1728" fill="#000000" y="-80.999999" height="971.999992" fill-opacity="0.4471"/></g></mask><clipPath id="id3"><path d="M 0.734375 0.734375 L 583.484375 0.734375 L 583.484375 583.484375 L 0.734375 583.484375 Z M 0.734375 0.734375 " clip-rule="nonzero"/></clipPath><clipPath id="id4"><rect x="0" width="584" y="0" height="584"/></clipPath></defs><g mask="url(#id2)"><g transform="matrix(1, 0, 0, 1, 428, 113)"><g clip-path="url(#id4)"><g clip-path="url(#id3)"><path fill="#003e52" d="M 292.109375 0.734375 C 131.453125 0.734375 0.734375 131.453125 0.734375 292.109375 C 0.734375 452.765625 131.453125 583.484375 292.109375 583.484375 C 452.765625 583.484375 583.484375 452.765625 583.484375 292.109375 C 583.484375 131.453125 452.765625 0.734375 292.109375 0.734375 Z M 379.3125 61.671875 C 472.476562 96.839844 538.65625 186.449219 538.65625 292.109375 C 538.65625 428.539062 428.539062 538.65625 292.109375 538.65625 C 231.816406 538.65625 176.769531 517.085938 133.988281 481.308594 L 198.777344 417.222656 C 135.4375 369.972656 115.910156 282.183594 156.925781 212.523438 C 197.71875 143.265625 283.160156 117.621094 354.972656 149.222656 Z M 379.3125 61.671875 " fill-opacity="1" fill-rule="nonzero"/></g></g></g></g></svg>