<svg xmlns="http://www.w3.org/2000/svg" xmlns:xlink="http://www.w3.org/1999/xlink" width="1920" zoomAndPan="magnify" viewBox="0 0 1440 809.999993" height="1080" preserveAspectRatio="xMidYMid meet" version="1.0"><defs><clipPath id="id1"><path d="M 568 578 L 634 578 L 634 731.058594 L 568 731.058594 Z M 568 578 " clip-rule="nonzero"/></clipPath><clipPath id="id2"><path d="M 720 578 L 786 578 L 786 731.058594 L 720 731.058594 Z M 720 578 " clip-rule="nonzero"/></clipPath><clipPath id="id3"><path d="M 807 578 L 873 578 L 873 731.058594 L 807 731.058594 Z M 807 578 " clip-rule="nonzero"/></clipPath><clipPath id="id4"><path d="M 893 242 L 1046.058594 242 L 1046.058594 351 L 893 351 Z M 893 242 " clip-rule="nonzero"/></clipPath><clipPath id="id5"><path d="M 893 459 L 1046.058594 459 L 1046.058594 569 L 893 569 Z M 893 459 " clip-rule="nonzero"/></clipPath><clipPath id="id6"><path d="M 893 372 L 1046.058594 372 L 1046.058594 438 L 893 438 Z M 893 372 " clip-rule="nonzero"/></clipPath><clipPath id="id7"><path d="M 568 79.308594 L 634 79.308594 L 634 232 L 568 232 Z M 568 79.308594 " clip-rule="nonzero"/></clipPath><clipPath id="id8"><path d="M 720 79.308594 L 786 79.308594 L 786 232 L 720 232 Z M 720 79.308594 " clip-rule="nonzero"/></clipPath><clipPath id="id9"><path d="M 807 79.308594 L 873 79.308594 L 873 232 L 807 232 Z M 807 79.308594 " clip-rule="nonzero"/></clipPath><clipPath id="id10"><path d="M 394.308594 242 L 547 242 L 547 351 L 394.308594 351 Z M 394.308594 242 " clip-rule="nonzero"/></clipPath><clipPath id="id11"><path d="M 394.308594 372 L 547 372 L 547 438 L 394.308594 438 Z M 394.308594 372 " clip-rule="nonzero"/></clipPath><clipPath id="id12"><path d="M 394.308594 459 L 547 459 L 547 569 L 394.308594 569 Z M 394.308594 459 " clip-rule="nonzero"/></clipPath><clipPath id="id13"><path d="M 545.988281 230.863281 L 893.988281 230.863281 L 893.988281 578 L 545.988281 578 Z M 545.988281 230.863281 " clip-rule="nonzero"/></clipPath><clipPath id="id14"><path d="M 567 577 L 633 577 L 633 578.863281 L 567 578.863281 Z M 567 577 " clip-rule="nonzero"/></clipPath><clipPath id="id15"><path d="M 719 577 L 785 577 L 785 578.863281 L 719 578.863281 Z M 719 577 " clip-rule="nonzero"/></clipPath><clipPath id="id16"><path d="M 806 577 L 872 577 L 872 578.863281 L 806 578.863281 Z M 806 577 " clip-rule="nonzero"/></clipPath><clipPath id="id17"><path d="M 893 240 L 893.988281 240 L 893.988281 350 L 893 350 Z M 893 240 " clip-rule="nonzero"/></clipPath><clipPath id="id18"><path d="M 893 457 L 893.988281 457 L 893.988281 567 L 893 567 Z M 893 457 " clip-rule="nonzero"/></clipPath><clipPath id="id19"><path d="M 893 370 L 893.988281 370 L 893.988281 437 L 893 437 Z M 893 370 " clip-rule="nonzero"/></clipPath><clipPath id="id20"><path d="M 545.988281 240 L 546 240 L 546 350 L 545.988281 350 Z M 545.988281 240 " clip-rule="nonzero"/></clipPath><clipPath id="id21"><path d="M 545.988281 370 L 546 370 L 546 437 L 545.988281 437 Z M 545.988281 370 " clip-rule="nonzero"/></clipPath><clipPath id="id22"><path d="M 545.988281 457 L 546 457 L 546 567 L 545.988281 567 Z M 545.988281 457 " clip-rule="nonzero"/></clipPath></defs><path fill="#ff8400" d="M 839.667969 274.832031 L 600.695312 274.832031 C 594.71875 274.832031 589.832031 279.71875 589.832031 285.695312 L 589.832031 524.667969 C 589.832031 530.644531 594.71875 535.53125 600.695312 535.53125 L 839.667969 535.53125 C 845.644531 535.53125 850.53125 530.644531 850.53125 524.667969 L 850.53125 285.695312 C 850.53125 279.71875 845.644531 274.832031 839.667969 274.832031 Z M 673.609375 440.894531 C 677.820312 445.101562 677.820312 452.027344 673.609375 456.234375 C 671.4375 458.410156 668.722656 459.359375 665.871094 459.359375 C 663.019531 459.359375 660.300781 458.273438 658.128906 456.234375 L 614.679688 412.785156 C 610.472656 408.578125 610.472656 401.652344 614.679688 397.441406 L 658.128906 353.992188 C 662.339844 349.785156 669.265625 349.785156 673.472656 353.992188 C 677.683594 358.203125 677.683594 365.125 673.472656 369.335938 L 637.761719 405.183594 Z M 741.636719 364.3125 L 719.910156 451.210938 C 718.6875 456.101562 714.207031 459.496094 709.320312 459.496094 C 708.503906 459.496094 707.554688 459.359375 706.738281 459.222656 C 700.902344 457.730469 697.371094 451.890625 698.863281 446.050781 L 720.589844 359.152344 C 722.082031 353.3125 727.921875 349.785156 733.761719 351.277344 C 739.464844 352.636719 742.992188 358.609375 741.636719 364.3125 Z M 825.683594 412.921875 L 782.234375 456.371094 C 780.0625 458.542969 777.347656 459.496094 774.496094 459.496094 C 771.644531 459.496094 768.925781 458.410156 766.753906 456.371094 C 762.546875 452.164062 762.546875 445.238281 766.753906 441.027344 L 802.464844 405.316406 L 766.753906 369.609375 C 762.546875 365.398438 762.546875 358.472656 766.753906 354.265625 C 770.964844 350.054688 777.890625 350.054688 782.097656 354.265625 L 825.546875 397.714844 C 829.894531 401.789062 829.894531 408.578125 825.683594 412.921875 Z M 825.683594 412.921875 " fill-opacity="1" fill-rule="nonzero"/><path fill="#ff8400" d="M 893.980469 263.96875 C 893.980469 246.046875 879.316406 231.382812 861.394531 231.382812 L 578.96875 231.382812 C 561.046875 231.382812 546.382812 246.046875 546.382812 263.96875 L 546.382812 546.394531 C 546.382812 564.316406 561.046875 578.980469 578.96875 578.980469 L 861.394531 578.980469 C 879.316406 578.980469 893.980469 564.316406 893.980469 546.394531 Z M 872.257812 524.667969 C 872.257812 542.59375 857.59375 557.257812 839.667969 557.257812 L 600.695312 557.257812 C 582.773438 557.257812 568.105469 542.59375 568.105469 524.667969 L 568.105469 285.695312 C 568.105469 267.773438 582.773438 253.105469 600.695312 253.105469 L 839.667969 253.105469 C 857.59375 253.105469 872.257812 267.773438 872.257812 285.695312 Z M 872.257812 524.667969 " fill-opacity="1" fill-rule="nonzero"/><g clip-path="url(#id1)"><path fill="#ff8400" d="M 568.105469 611.570312 C 568.105469 625.691406 577.203125 637.777344 589.832031 642.257812 L 589.832031 720.195312 C 589.832031 726.167969 594.71875 731.058594 600.695312 731.058594 C 606.667969 731.058594 611.558594 726.167969 611.558594 720.195312 L 611.558594 642.257812 C 624.183594 637.777344 633.28125 625.691406 633.28125 611.570312 C 633.28125 593.648438 618.617188 578.980469 600.695312 578.980469 C 582.773438 578.980469 568.105469 593.648438 568.105469 611.570312 Z M 600.695312 600.707031 C 606.667969 600.707031 611.558594 605.59375 611.558594 611.570312 C 611.558594 617.542969 606.667969 622.433594 600.695312 622.433594 C 594.71875 622.433594 589.832031 617.542969 589.832031 611.570312 C 589.832031 605.59375 594.71875 600.707031 600.695312 600.707031 Z M 600.695312 600.707031 " fill-opacity="1" fill-rule="nonzero"/></g><g clip-path="url(#id2)"><path fill="#ff8400" d="M 720.183594 611.570312 C 720.183594 625.691406 729.28125 637.777344 741.90625 642.257812 L 741.90625 720.195312 C 741.90625 726.167969 746.796875 731.058594 752.769531 731.058594 C 758.742188 731.058594 763.632812 726.167969 763.632812 720.195312 L 763.632812 642.257812 C 776.261719 637.777344 785.355469 625.691406 785.355469 611.570312 C 785.355469 593.648438 770.691406 578.980469 752.769531 578.980469 C 734.847656 578.980469 720.183594 593.648438 720.183594 611.570312 Z M 752.769531 600.707031 C 758.742188 600.707031 763.632812 605.59375 763.632812 611.570312 C 763.632812 617.542969 758.742188 622.433594 752.769531 622.433594 C 746.796875 622.433594 741.90625 617.542969 741.90625 611.570312 C 741.90625 605.59375 746.796875 600.707031 752.769531 600.707031 Z M 752.769531 600.707031 " fill-opacity="1" fill-rule="nonzero"/></g><g clip-path="url(#id3)"><path fill="#ff8400" d="M 807.082031 611.570312 C 807.082031 625.691406 816.179688 637.777344 828.808594 642.257812 L 828.808594 720.195312 C 828.808594 726.167969 833.695312 731.058594 839.667969 731.058594 C 845.644531 731.058594 850.53125 726.167969 850.53125 720.195312 L 850.53125 642.257812 C 863.160156 637.777344 872.257812 625.691406 872.257812 611.570312 C 872.257812 593.648438 857.59375 578.980469 839.667969 578.980469 C 821.746094 578.980469 807.082031 593.648438 807.082031 611.570312 Z M 839.667969 600.707031 C 845.644531 600.707031 850.53125 605.59375 850.53125 611.570312 C 850.53125 617.542969 845.644531 622.433594 839.667969 622.433594 C 833.695312 622.433594 828.808594 617.542969 828.808594 611.570312 C 828.808594 605.59375 833.695312 600.707031 839.667969 600.707031 Z M 839.667969 600.707031 " fill-opacity="1" fill-rule="nonzero"/></g><g clip-path="url(#id4)"><path fill="#ff8400" d="M 926.570312 350.871094 C 940.691406 350.871094 952.777344 341.773438 957.257812 329.144531 L 991.746094 329.144531 C 996.359375 329.144531 1000.570312 326.15625 1002.0625 321.675781 L 1021.34375 263.96875 L 1035.195312 263.96875 C 1041.167969 263.96875 1046.058594 259.082031 1046.058594 253.105469 C 1046.058594 247.132812 1041.167969 242.246094 1035.195312 242.246094 L 1013.46875 242.246094 C 1008.851562 242.246094 1004.644531 245.230469 1003.148438 249.710938 L 983.871094 307.417969 L 957.257812 307.417969 C 952.777344 294.792969 940.691406 285.695312 926.570312 285.695312 C 908.648438 285.695312 893.980469 300.359375 893.980469 318.28125 C 893.980469 336.207031 908.648438 350.871094 926.570312 350.871094 Z M 926.570312 307.417969 C 932.542969 307.417969 937.433594 312.308594 937.433594 318.28125 C 937.433594 324.257812 932.542969 329.144531 926.570312 329.144531 C 920.59375 329.144531 915.707031 324.257812 915.707031 318.28125 C 915.707031 312.308594 920.59375 307.417969 926.570312 307.417969 Z M 926.570312 307.417969 " fill-opacity="1" fill-rule="nonzero"/></g><g clip-path="url(#id5)"><path fill="#ff8400" d="M 926.570312 524.667969 C 940.691406 524.667969 952.777344 515.574219 957.257812 502.945312 L 983.871094 502.945312 L 1003.148438 560.652344 C 1004.644531 565.132812 1008.71875 568.121094 1013.46875 568.121094 L 1035.195312 568.121094 C 1041.167969 568.121094 1046.058594 563.230469 1046.058594 557.257812 C 1046.058594 551.28125 1041.167969 546.394531 1035.195312 546.394531 L 1021.34375 546.394531 L 1002.0625 488.6875 C 1000.570312 484.207031 996.496094 481.21875 991.746094 481.21875 L 957.257812 481.21875 C 952.777344 468.59375 940.691406 459.496094 926.570312 459.496094 C 908.648438 459.496094 893.980469 474.160156 893.980469 492.082031 C 893.980469 510.003906 908.648438 524.667969 926.570312 524.667969 Z M 926.570312 481.21875 C 932.542969 481.21875 937.433594 486.109375 937.433594 492.082031 C 937.433594 498.054688 932.542969 502.945312 926.570312 502.945312 C 920.59375 502.945312 915.707031 498.054688 915.707031 492.082031 C 915.707031 486.109375 920.59375 481.21875 926.570312 481.21875 Z M 926.570312 481.21875 " fill-opacity="1" fill-rule="nonzero"/></g><g clip-path="url(#id6)"><path fill="#ff8400" d="M 926.570312 437.769531 C 940.691406 437.769531 952.777344 428.671875 957.257812 416.042969 L 1035.195312 416.042969 C 1041.167969 416.042969 1046.058594 411.15625 1046.058594 405.183594 C 1046.058594 399.207031 1041.167969 394.320312 1035.195312 394.320312 L 957.257812 394.320312 C 952.777344 381.691406 940.691406 372.59375 926.570312 372.59375 C 908.648438 372.59375 893.980469 387.257812 893.980469 405.183594 C 893.980469 423.105469 908.648438 437.769531 926.570312 437.769531 Z M 926.570312 394.320312 C 932.542969 394.320312 937.433594 399.207031 937.433594 405.183594 C 937.433594 411.15625 932.542969 416.042969 926.570312 416.042969 C 920.59375 416.042969 915.707031 411.15625 915.707031 405.183594 C 915.707031 399.207031 920.59375 394.320312 926.570312 394.320312 Z M 926.570312 394.320312 " fill-opacity="1" fill-rule="nonzero"/></g><g clip-path="url(#id7)"><path fill="#ff8400" d="M 633.28125 198.792969 C 633.28125 184.671875 624.183594 172.589844 611.558594 168.109375 L 611.558594 90.167969 C 611.558594 84.195312 606.667969 79.308594 600.695312 79.308594 C 594.71875 79.308594 589.832031 84.195312 589.832031 90.167969 L 589.832031 168.109375 C 577.203125 172.589844 568.105469 184.671875 568.105469 198.792969 C 568.105469 216.71875 582.773438 231.382812 600.695312 231.382812 C 618.617188 231.382812 633.28125 216.71875 633.28125 198.792969 Z M 600.695312 209.65625 C 594.71875 209.65625 589.832031 204.769531 589.832031 198.792969 C 589.832031 192.820312 594.71875 187.933594 600.695312 187.933594 C 606.667969 187.933594 611.558594 192.820312 611.558594 198.792969 C 611.558594 204.769531 606.667969 209.65625 600.695312 209.65625 Z M 600.695312 209.65625 " fill-opacity="1" fill-rule="nonzero"/></g><g clip-path="url(#id8)"><path fill="#ff8400" d="M 785.355469 198.792969 C 785.355469 184.671875 776.261719 172.589844 763.632812 168.109375 L 763.632812 90.167969 C 763.632812 84.195312 758.742188 79.308594 752.769531 79.308594 C 746.796875 79.308594 741.90625 84.195312 741.90625 90.167969 L 741.90625 168.109375 C 729.28125 172.589844 720.183594 184.671875 720.183594 198.792969 C 720.183594 216.71875 734.847656 231.382812 752.769531 231.382812 C 770.691406 231.382812 785.355469 216.71875 785.355469 198.792969 Z M 752.769531 209.65625 C 746.796875 209.65625 741.90625 204.769531 741.90625 198.792969 C 741.90625 192.820312 746.796875 187.933594 752.769531 187.933594 C 758.742188 187.933594 763.632812 192.820312 763.632812 198.792969 C 763.632812 204.769531 758.742188 209.65625 752.769531 209.65625 Z M 752.769531 209.65625 " fill-opacity="1" fill-rule="nonzero"/></g><g clip-path="url(#id9)"><path fill="#ff8400" d="M 872.257812 198.792969 C 872.257812 184.671875 863.160156 172.589844 850.53125 168.109375 L 850.53125 90.167969 C 850.53125 84.195312 845.644531 79.308594 839.667969 79.308594 C 833.695312 79.308594 828.808594 84.195312 828.808594 90.167969 L 828.808594 168.109375 C 816.179688 172.589844 807.082031 184.671875 807.082031 198.792969 C 807.082031 216.71875 821.746094 231.382812 839.667969 231.382812 C 857.59375 231.382812 872.257812 216.71875 872.257812 198.792969 Z M 839.667969 209.65625 C 833.695312 209.65625 828.808594 204.769531 828.808594 198.792969 C 828.808594 192.820312 833.695312 187.933594 839.667969 187.933594 C 845.644531 187.933594 850.53125 192.820312 850.53125 198.792969 C 850.53125 204.769531 845.644531 209.65625 839.667969 209.65625 Z M 839.667969 209.65625 " fill-opacity="1" fill-rule="nonzero"/></g><g clip-path="url(#id10)"><path fill="#ff8400" d="M 513.792969 285.695312 C 499.671875 285.695312 487.589844 294.792969 483.109375 307.417969 L 456.496094 307.417969 L 437.214844 249.710938 C 435.71875 245.230469 431.511719 242.246094 426.894531 242.246094 L 405.167969 242.246094 C 399.195312 242.246094 394.308594 247.132812 394.308594 253.105469 C 394.308594 259.082031 399.195312 263.96875 405.167969 263.96875 L 419.019531 263.96875 L 438.300781 321.675781 C 439.792969 326.15625 444.003906 329.144531 448.621094 329.144531 L 483.109375 329.144531 C 487.589844 341.773438 499.671875 350.871094 513.792969 350.871094 C 531.71875 350.871094 546.382812 336.207031 546.382812 318.28125 C 546.382812 300.359375 531.71875 285.695312 513.792969 285.695312 Z M 513.792969 329.144531 C 507.820312 329.144531 502.933594 324.257812 502.933594 318.28125 C 502.933594 312.308594 507.820312 307.417969 513.792969 307.417969 C 519.769531 307.417969 524.65625 312.308594 524.65625 318.28125 C 524.65625 324.257812 519.769531 329.144531 513.792969 329.144531 Z M 513.792969 329.144531 " fill-opacity="1" fill-rule="nonzero"/></g><g clip-path="url(#id11)"><path fill="#ff8400" d="M 513.792969 372.59375 C 499.671875 372.59375 487.589844 381.691406 483.109375 394.320312 L 405.167969 394.320312 C 399.195312 394.320312 394.308594 399.207031 394.308594 405.183594 C 394.308594 411.15625 399.195312 416.042969 405.167969 416.042969 L 483.109375 416.042969 C 487.589844 428.671875 499.671875 437.769531 513.792969 437.769531 C 531.71875 437.769531 546.382812 423.105469 546.382812 405.183594 C 546.382812 387.257812 531.71875 372.59375 513.792969 372.59375 Z M 513.792969 416.042969 C 507.820312 416.042969 502.933594 411.15625 502.933594 405.183594 C 502.933594 399.207031 507.820312 394.320312 513.792969 394.320312 C 519.769531 394.320312 524.65625 399.207031 524.65625 405.183594 C 524.65625 411.15625 519.769531 416.042969 513.792969 416.042969 Z M 513.792969 416.042969 " fill-opacity="1" fill-rule="nonzero"/></g><g clip-path="url(#id12)"><path fill="#ff8400" d="M 513.792969 459.496094 C 499.671875 459.496094 487.589844 468.59375 483.109375 481.21875 L 448.621094 481.21875 C 444.003906 481.21875 439.792969 484.207031 438.300781 488.6875 L 419.019531 546.394531 L 405.167969 546.394531 C 399.195312 546.394531 394.308594 551.28125 394.308594 557.257812 C 394.308594 563.230469 399.195312 568.121094 405.167969 568.121094 L 426.894531 568.121094 C 431.511719 568.121094 435.71875 565.132812 437.214844 560.652344 L 456.496094 502.945312 L 483.109375 502.945312 C 487.589844 515.574219 499.671875 524.667969 513.792969 524.667969 C 531.71875 524.667969 546.382812 510.003906 546.382812 492.082031 C 546.382812 474.160156 531.71875 459.496094 513.792969 459.496094 Z M 513.792969 502.945312 C 507.820312 502.945312 502.933594 498.054688 502.933594 492.082031 C 502.933594 486.109375 507.820312 481.21875 513.792969 481.21875 C 519.769531 481.21875 524.65625 486.109375 524.65625 492.082031 C 524.65625 498.054688 519.769531 502.945312 513.792969 502.945312 Z M 513.792969 502.945312 " fill-opacity="1" fill-rule="nonzero"/></g><path fill="#ffffff" d="M 839.238281 273.140625 L 600.261719 273.140625 C 594.289062 273.140625 589.398438 278.027344 589.398438 284 L 589.398438 522.976562 C 589.398438 528.953125 594.289062 533.839844 600.261719 533.839844 L 839.238281 533.839844 C 845.210938 533.839844 850.101562 528.953125 850.101562 522.976562 L 850.101562 284 C 850.101562 278.027344 845.210938 273.140625 839.238281 273.140625 Z M 673.175781 439.199219 C 677.386719 443.410156 677.386719 450.332031 673.175781 454.542969 C 671.003906 456.714844 668.289062 457.667969 665.4375 457.667969 C 662.585938 457.667969 659.871094 456.578125 657.699219 454.542969 L 614.246094 411.09375 C 610.039062 406.882812 610.039062 399.960938 614.246094 395.75 L 657.699219 352.300781 C 661.90625 348.089844 668.832031 348.089844 673.042969 352.300781 C 677.25 356.507812 677.25 363.433594 673.042969 367.644531 L 637.332031 403.488281 Z M 741.203125 362.621094 L 719.476562 449.519531 C 718.257812 454.40625 713.777344 457.800781 708.886719 457.800781 C 708.074219 457.800781 707.121094 457.667969 706.308594 457.53125 C 700.46875 456.035156 696.9375 450.199219 698.433594 444.359375 L 720.15625 357.460938 C 721.652344 351.621094 727.488281 348.089844 733.328125 349.585938 C 739.03125 350.941406 742.5625 356.917969 741.203125 362.621094 Z M 825.25 411.230469 L 781.800781 454.679688 C 779.628906 456.851562 776.914062 457.800781 774.0625 457.800781 C 771.210938 457.800781 768.496094 456.714844 766.324219 454.679688 C 762.113281 450.46875 762.113281 443.542969 766.324219 439.335938 L 802.035156 403.625 L 766.324219 367.914062 C 762.113281 363.707031 762.113281 356.78125 766.324219 352.570312 C 770.53125 348.363281 777.457031 348.363281 781.667969 352.570312 L 825.117188 396.023438 C 829.460938 400.09375 829.460938 406.882812 825.25 411.230469 Z M 825.25 411.230469 " fill-opacity="1" fill-rule="nonzero"/><g clip-path="url(#id13)"><path fill="#ffffff" d="M 893.550781 262.277344 C 893.550781 244.355469 878.886719 229.691406 860.960938 229.691406 L 578.539062 229.691406 C 560.613281 229.691406 545.949219 244.355469 545.949219 262.277344 L 545.949219 544.703125 C 545.949219 562.625 560.613281 577.289062 578.539062 577.289062 L 860.960938 577.289062 C 878.886719 577.289062 893.550781 562.625 893.550781 544.703125 Z M 871.824219 522.976562 C 871.824219 540.898438 857.160156 555.5625 839.238281 555.5625 L 600.261719 555.5625 C 582.339844 555.5625 567.675781 540.898438 567.675781 522.976562 L 567.675781 284 C 567.675781 266.078125 582.339844 251.414062 600.261719 251.414062 L 839.238281 251.414062 C 857.160156 251.414062 871.824219 266.078125 871.824219 284 Z M 871.824219 522.976562 " fill-opacity="1" fill-rule="nonzero"/></g><g clip-path="url(#id14)"><path fill="#ffffff" d="M 567.675781 609.875 C 567.675781 624 576.773438 636.082031 589.398438 640.5625 L 589.398438 718.5 C 589.398438 724.476562 594.289062 729.363281 600.261719 729.363281 C 606.238281 729.363281 611.125 724.476562 611.125 718.5 L 611.125 640.5625 C 623.753906 636.082031 632.851562 624 632.851562 609.875 C 632.851562 591.953125 618.183594 577.289062 600.261719 577.289062 C 582.339844 577.289062 567.675781 591.953125 567.675781 609.875 Z M 600.261719 599.015625 C 606.238281 599.015625 611.125 603.902344 611.125 609.875 C 611.125 615.851562 606.238281 620.738281 600.261719 620.738281 C 594.289062 620.738281 589.398438 615.851562 589.398438 609.875 C 589.398438 603.902344 594.289062 599.015625 600.261719 599.015625 Z M 600.261719 599.015625 " fill-opacity="1" fill-rule="nonzero"/></g><g clip-path="url(#id15)"><path fill="#ffffff" d="M 719.75 609.875 C 719.75 624 728.847656 636.082031 741.476562 640.5625 L 741.476562 718.5 C 741.476562 724.476562 746.363281 729.363281 752.335938 729.363281 C 758.3125 729.363281 763.199219 724.476562 763.199219 718.5 L 763.199219 640.5625 C 775.828125 636.082031 784.925781 624 784.925781 609.875 C 784.925781 591.953125 770.261719 577.289062 752.335938 577.289062 C 734.414062 577.289062 719.75 591.953125 719.75 609.875 Z M 752.335938 599.015625 C 758.3125 599.015625 763.199219 603.902344 763.199219 609.875 C 763.199219 615.851562 758.3125 620.738281 752.335938 620.738281 C 746.363281 620.738281 741.476562 615.851562 741.476562 609.875 C 741.476562 603.902344 746.363281 599.015625 752.335938 599.015625 Z M 752.335938 599.015625 " fill-opacity="1" fill-rule="nonzero"/></g><g clip-path="url(#id16)"><path fill="#ffffff" d="M 806.648438 609.875 C 806.648438 624 815.746094 636.082031 828.375 640.5625 L 828.375 718.5 C 828.375 724.476562 833.261719 729.363281 839.238281 729.363281 C 845.210938 729.363281 850.101562 724.476562 850.101562 718.5 L 850.101562 640.5625 C 862.726562 636.082031 871.824219 624 871.824219 609.875 C 871.824219 591.953125 857.160156 577.289062 839.238281 577.289062 C 821.3125 577.289062 806.648438 591.953125 806.648438 609.875 Z M 839.238281 599.015625 C 845.210938 599.015625 850.101562 603.902344 850.101562 609.875 C 850.101562 615.851562 845.210938 620.738281 839.238281 620.738281 C 833.261719 620.738281 828.375 615.851562 828.375 609.875 C 828.375 603.902344 833.261719 599.015625 839.238281 599.015625 Z M 839.238281 599.015625 " fill-opacity="1" fill-rule="nonzero"/></g><g clip-path="url(#id17)"><path fill="#ffffff" d="M 926.136719 349.175781 C 940.257812 349.175781 952.34375 340.078125 956.824219 327.453125 L 991.3125 327.453125 C 995.929688 327.453125 1000.136719 324.464844 1001.632812 319.984375 L 1020.914062 262.277344 L 1034.761719 262.277344 C 1040.738281 262.277344 1045.625 257.390625 1045.625 251.414062 C 1045.625 245.441406 1040.738281 240.550781 1034.761719 240.550781 L 1013.039062 240.550781 C 1008.421875 240.550781 1004.210938 243.539062 1002.71875 248.019531 L 983.4375 305.726562 L 956.824219 305.726562 C 952.34375 293.097656 940.257812 284 926.136719 284 C 908.214844 284 893.550781 298.667969 893.550781 316.589844 C 893.550781 334.511719 908.214844 349.175781 926.136719 349.175781 Z M 926.136719 305.726562 C 932.113281 305.726562 937 310.613281 937 316.589844 C 937 322.5625 932.113281 327.453125 926.136719 327.453125 C 920.164062 327.453125 915.273438 322.5625 915.273438 316.589844 C 915.273438 310.613281 920.164062 305.726562 926.136719 305.726562 Z M 926.136719 305.726562 " fill-opacity="1" fill-rule="nonzero"/></g><g clip-path="url(#id18)"><path fill="#ffffff" d="M 926.136719 522.976562 C 940.257812 522.976562 952.34375 513.878906 956.824219 501.25 L 983.4375 501.25 L 1002.71875 558.957031 C 1004.210938 563.441406 1008.285156 566.425781 1013.039062 566.425781 L 1034.761719 566.425781 C 1040.738281 566.425781 1045.625 561.539062 1045.625 555.5625 C 1045.625 549.589844 1040.738281 544.703125 1034.761719 544.703125 L 1020.914062 544.703125 L 1001.632812 486.996094 C 1000.136719 482.515625 996.066406 479.527344 991.3125 479.527344 L 956.824219 479.527344 C 952.34375 466.898438 940.257812 457.800781 926.136719 457.800781 C 908.214844 457.800781 893.550781 472.464844 893.550781 490.390625 C 893.550781 508.3125 908.214844 522.976562 926.136719 522.976562 Z M 926.136719 479.527344 C 932.113281 479.527344 937 484.414062 937 490.390625 C 937 496.363281 932.113281 501.25 926.136719 501.25 C 920.164062 501.25 915.273438 496.363281 915.273438 490.390625 C 915.273438 484.414062 920.164062 479.527344 926.136719 479.527344 Z M 926.136719 479.527344 " fill-opacity="1" fill-rule="nonzero"/></g><g clip-path="url(#id19)"><path fill="#ffffff" d="M 926.136719 436.078125 C 940.257812 436.078125 952.34375 426.980469 956.824219 414.351562 L 1034.761719 414.351562 C 1040.738281 414.351562 1045.625 409.464844 1045.625 403.488281 C 1045.625 397.515625 1040.738281 392.625 1034.761719 392.625 L 956.824219 392.625 C 952.34375 380 940.257812 370.902344 926.136719 370.902344 C 908.214844 370.902344 893.550781 385.566406 893.550781 403.488281 C 893.550781 421.414062 908.214844 436.078125 926.136719 436.078125 Z M 926.136719 392.625 C 932.113281 392.625 937 397.515625 937 403.488281 C 937 409.464844 932.113281 414.351562 926.136719 414.351562 C 920.164062 414.351562 915.273438 409.464844 915.273438 403.488281 C 915.273438 397.515625 920.164062 392.625 926.136719 392.625 Z M 926.136719 392.625 " fill-opacity="1" fill-rule="nonzero"/></g><g clip-path="url(#id20)"><path fill="#ffffff" d="M 513.363281 284 C 499.242188 284 487.15625 293.097656 482.675781 305.726562 L 456.0625 305.726562 L 436.78125 248.019531 C 435.289062 243.539062 431.078125 240.550781 426.460938 240.550781 L 404.738281 240.550781 C 398.761719 240.550781 393.875 245.441406 393.875 251.414062 C 393.875 257.390625 398.761719 262.277344 404.738281 262.277344 L 418.585938 262.277344 L 437.867188 319.984375 C 439.363281 324.464844 443.570312 327.453125 448.1875 327.453125 L 482.675781 327.453125 C 487.15625 340.078125 499.242188 349.175781 513.363281 349.175781 C 531.285156 349.175781 545.949219 334.511719 545.949219 316.589844 C 545.949219 298.667969 531.285156 284 513.363281 284 Z M 513.363281 327.453125 C 507.386719 327.453125 502.5 322.5625 502.5 316.589844 C 502.5 310.613281 507.386719 305.726562 513.363281 305.726562 C 519.335938 305.726562 524.226562 310.613281 524.226562 316.589844 C 524.226562 322.5625 519.335938 327.453125 513.363281 327.453125 Z M 513.363281 327.453125 " fill-opacity="1" fill-rule="nonzero"/></g><g clip-path="url(#id21)"><path fill="#ffffff" d="M 513.363281 370.902344 C 499.242188 370.902344 487.15625 380 482.675781 392.625 L 404.738281 392.625 C 398.761719 392.625 393.875 397.515625 393.875 403.488281 C 393.875 409.464844 398.761719 414.351562 404.738281 414.351562 L 482.675781 414.351562 C 487.15625 426.980469 499.242188 436.078125 513.363281 436.078125 C 531.285156 436.078125 545.949219 421.414062 545.949219 403.488281 C 545.949219 385.566406 531.285156 370.902344 513.363281 370.902344 Z M 513.363281 414.351562 C 507.386719 414.351562 502.5 409.464844 502.5 403.488281 C 502.5 397.515625 507.386719 392.625 513.363281 392.625 C 519.335938 392.625 524.226562 397.515625 524.226562 403.488281 C 524.226562 409.464844 519.335938 414.351562 513.363281 414.351562 Z M 513.363281 414.351562 " fill-opacity="1" fill-rule="nonzero"/></g><g clip-path="url(#id22)"><path fill="#ffffff" d="M 513.363281 457.800781 C 499.242188 457.800781 487.15625 466.898438 482.675781 479.527344 L 448.1875 479.527344 C 443.570312 479.527344 439.363281 482.515625 437.867188 486.996094 L 418.585938 544.703125 L 404.738281 544.703125 C 398.761719 544.703125 393.875 549.589844 393.875 555.5625 C 393.875 561.539062 398.761719 566.425781 404.738281 566.425781 L 426.460938 566.425781 C 431.078125 566.425781 435.289062 563.441406 436.78125 558.957031 L 456.0625 501.25 L 482.675781 501.25 C 487.15625 513.878906 499.242188 522.976562 513.363281 522.976562 C 531.285156 522.976562 545.949219 508.3125 545.949219 490.390625 C 545.949219 472.464844 531.285156 457.800781 513.363281 457.800781 Z M 513.363281 501.25 C 507.386719 501.25 502.5 496.363281 502.5 490.390625 C 502.5 484.414062 507.386719 479.527344 513.363281 479.527344 C 519.335938 479.527344 524.226562 484.414062 524.226562 490.390625 C 524.226562 496.363281 519.335938 501.25 513.363281 501.25 Z M 513.363281 501.25 " fill-opacity="1" fill-rule="nonzero"/></g></svg>