<svg xmlns="http://www.w3.org/2000/svg" xmlns:xlink="http://www.w3.org/1999/xlink" width="1920" zoomAndPan="magnify" viewBox="0 0 1440 809.999993" height="1080" preserveAspectRatio="xMidYMid meet" version="1.0"><defs><clipPath id="id1"><path d="M 401.765625 87.890625 L 1036.265625 87.890625 L 1036.265625 722.390625 L 401.765625 722.390625 Z M 401.765625 87.890625 " clip-rule="nonzero"/></clipPath><clipPath id="id2"><path d="M 869 533 L 1024 533 L 1024 687.839844 L 869 687.839844 Z M 869 533 " clip-rule="nonzero"/></clipPath></defs><path fill="#ffffff" d="M 719.015625 338 C 681.992188 338 651.875 368.117188 651.875 405.140625 C 651.875 442.164062 681.992188 472.28125 719.015625 472.28125 C 756.039062 472.28125 786.15625 442.164062 786.15625 405.140625 C 786.15625 368.117188 756.039062 338 719.015625 338 Z M 719.015625 462.210938 C 687.546875 462.210938 661.945312 436.609375 661.945312 405.140625 C 661.945312 373.671875 687.546875 348.070312 719.015625 348.070312 C 750.484375 348.070312 776.085938 373.667969 776.085938 405.140625 C 776.085938 436.613281 750.484375 462.210938 719.015625 462.210938 Z M 719.015625 462.210938 " fill-opacity="1" fill-rule="nonzero"/><path fill="#ffffff" d="M 666.191406 180.570312 C 668.976562 180.570312 671.226562 178.3125 671.226562 175.53125 L 671.226562 123.550781 C 671.226562 120.769531 668.976562 118.511719 666.191406 118.511719 C 663.40625 118.511719 661.15625 120.769531 661.15625 123.550781 L 661.15625 175.53125 C 661.15625 178.3125 663.40625 180.570312 666.191406 180.570312 Z M 666.191406 180.570312 " fill-opacity="1" fill-rule="nonzero"/><path fill="#ffffff" d="M 561.585938 180.570312 C 564.371094 180.570312 566.621094 178.3125 566.621094 175.53125 L 566.621094 123.550781 C 566.621094 120.769531 564.371094 118.511719 561.585938 118.511719 C 558.800781 118.511719 556.546875 120.769531 556.546875 123.550781 L 556.546875 175.53125 C 556.546875 178.3125 558.804688 180.570312 561.585938 180.570312 Z M 561.585938 180.570312 " fill-opacity="1" fill-rule="nonzero"/><path fill="#ffffff" d="M 771.839844 180.570312 C 774.625 180.570312 776.875 178.3125 776.875 175.53125 L 776.875 123.550781 C 776.875 120.769531 774.625 118.511719 771.839844 118.511719 C 769.054688 118.511719 766.804688 120.769531 766.804688 123.550781 L 766.804688 175.53125 C 766.804688 178.3125 769.0625 180.570312 771.839844 180.570312 Z M 771.839844 180.570312 " fill-opacity="1" fill-rule="nonzero"/><path fill="#ffffff" d="M 876.449219 180.570312 C 879.230469 180.570312 881.484375 178.3125 881.484375 175.53125 L 881.484375 123.550781 C 881.484375 120.769531 879.230469 118.511719 876.449219 118.511719 C 873.664062 118.511719 871.410156 120.769531 871.410156 123.550781 L 871.410156 175.53125 C 871.410156 178.3125 873.664062 180.570312 876.449219 180.570312 Z M 876.449219 180.570312 " fill-opacity="1" fill-rule="nonzero"/><path fill="#ffffff" d="M 489.402344 463 C 492.1875 463 494.4375 460.746094 494.4375 457.964844 C 494.4375 455.1875 492.1875 452.929688 489.402344 452.929688 L 437.425781 452.929688 C 434.640625 452.929688 432.386719 455.1875 432.386719 457.964844 C 432.386719 460.746094 434.640625 463 437.425781 463 Z M 489.402344 463 " fill-opacity="1" fill-rule="nonzero"/><path fill="#ffffff" d="M 489.402344 557.535156 L 437.425781 557.535156 C 434.640625 557.535156 432.386719 559.792969 432.386719 562.574219 C 432.386719 565.351562 434.640625 567.609375 437.425781 567.609375 L 489.402344 567.609375 C 492.1875 567.609375 494.4375 565.351562 494.4375 562.574219 C 494.4375 559.792969 492.1875 557.535156 489.402344 557.535156 Z M 489.402344 557.535156 " fill-opacity="1" fill-rule="nonzero"/><path fill="#ffffff" d="M 489.402344 357.351562 C 492.1875 357.351562 494.4375 355.097656 494.4375 352.316406 C 494.4375 349.535156 492.1875 347.28125 489.402344 347.28125 L 437.425781 347.28125 C 434.640625 347.28125 432.386719 349.535156 432.386719 352.316406 C 432.386719 355.097656 434.640625 357.351562 437.425781 357.351562 Z M 489.402344 357.351562 " fill-opacity="1" fill-rule="nonzero"/><path fill="#ffffff" d="M 437.425781 252.746094 L 489.402344 252.746094 C 492.1875 252.746094 494.4375 250.488281 494.4375 247.710938 C 494.4375 244.929688 492.1875 242.675781 489.402344 242.675781 L 437.425781 242.675781 C 434.640625 242.675781 432.386719 244.929688 432.386719 247.710938 C 432.386719 250.488281 434.640625 252.746094 437.425781 252.746094 Z M 437.425781 252.746094 " fill-opacity="1" fill-rule="nonzero"/><path fill="#ffffff" d="M 771.839844 629.714844 C 769.054688 629.714844 766.804688 631.96875 766.804688 634.75 L 766.804688 686.734375 C 766.804688 689.511719 769.054688 691.769531 771.839844 691.769531 C 774.625 691.769531 776.875 689.511719 776.875 686.734375 L 776.875 634.75 C 776.875 631.96875 774.625 629.714844 771.839844 629.714844 Z M 771.839844 629.714844 " fill-opacity="1" fill-rule="nonzero"/><path fill="#ffffff" d="M 876.449219 629.714844 C 873.664062 629.714844 871.410156 631.96875 871.410156 634.75 L 871.410156 686.734375 C 871.410156 689.511719 873.664062 691.769531 876.449219 691.769531 C 879.230469 691.769531 881.484375 689.511719 881.484375 686.734375 L 881.484375 634.75 C 881.484375 631.96875 879.226562 629.714844 876.449219 629.714844 Z M 876.449219 629.714844 " fill-opacity="1" fill-rule="nonzero"/><path fill="#ffffff" d="M 666.191406 629.714844 C 663.40625 629.714844 661.15625 631.96875 661.15625 634.75 L 661.15625 686.734375 C 661.15625 689.511719 663.40625 691.769531 666.191406 691.769531 C 668.976562 691.769531 671.226562 689.511719 671.226562 686.734375 L 671.226562 634.75 C 671.226562 631.96875 668.976562 629.714844 666.191406 629.714844 Z M 666.191406 629.714844 " fill-opacity="1" fill-rule="nonzero"/><path fill="#ffffff" d="M 561.585938 629.714844 C 558.800781 629.714844 556.546875 631.96875 556.546875 634.75 L 556.546875 686.734375 C 556.546875 689.511719 558.800781 691.769531 561.585938 691.769531 C 564.371094 691.769531 566.621094 689.511719 566.621094 686.734375 L 566.621094 634.75 C 566.621094 631.96875 564.371094 629.714844 561.585938 629.714844 Z M 561.585938 629.714844 " fill-opacity="1" fill-rule="nonzero"/><path fill="#ffffff" d="M 948.628906 347.28125 C 945.84375 347.28125 943.59375 349.535156 943.59375 352.316406 C 943.59375 355.097656 945.84375 357.351562 948.628906 357.351562 L 1000.609375 357.351562 C 1003.394531 357.351562 1005.644531 355.097656 1005.644531 352.316406 C 1005.644531 349.535156 1003.394531 347.28125 1000.609375 347.28125 Z M 948.628906 347.28125 " fill-opacity="1" fill-rule="nonzero"/><path fill="#ffffff" d="M 948.628906 252.746094 L 1000.609375 252.746094 C 1003.394531 252.746094 1005.644531 250.488281 1005.644531 247.710938 C 1005.644531 244.929688 1003.394531 242.675781 1000.609375 242.675781 L 948.628906 242.675781 C 945.84375 242.675781 943.59375 244.929688 943.59375 247.710938 C 943.59375 250.488281 945.84375 252.746094 948.628906 252.746094 Z M 948.628906 252.746094 " fill-opacity="1" fill-rule="nonzero"/><g clip-path="url(#id1)"><path fill="#ffffff" d="M 1036.265625 319.871094 L 1036.265625 279.101562 C 1036.265625 276.324219 1034.015625 274.066406 1031.230469 274.066406 L 914.296875 274.066406 L 914.296875 214.890625 C 914.296875 212.113281 912.046875 209.855469 909.261719 209.855469 L 850.085938 209.855469 L 850.085938 92.925781 C 850.085938 90.148438 847.835938 87.890625 845.050781 87.890625 L 804.28125 87.890625 C 801.496094 87.890625 799.246094 90.148438 799.246094 92.925781 L 799.246094 209.855469 L 744.4375 209.855469 L 744.4375 92.925781 C 744.4375 90.148438 742.183594 87.890625 739.402344 87.890625 L 698.632812 87.890625 C 695.847656 87.890625 693.597656 90.148438 693.597656 92.925781 L 693.597656 209.855469 L 638.78125 209.855469 L 638.78125 92.925781 C 638.78125 90.148438 636.53125 87.890625 633.746094 87.890625 L 592.976562 87.890625 C 590.191406 87.890625 587.941406 90.148438 587.941406 92.925781 L 587.941406 209.855469 L 528.773438 209.855469 C 525.988281 209.855469 523.734375 212.113281 523.734375 214.890625 L 523.734375 274.066406 L 406.800781 274.066406 C 404.015625 274.066406 401.765625 276.324219 401.765625 279.101562 L 401.765625 319.871094 C 401.765625 322.652344 404.015625 324.90625 406.800781 324.90625 L 523.734375 324.90625 L 523.734375 379.722656 L 406.800781 379.722656 C 404.015625 379.722656 401.765625 381.976562 401.765625 384.757812 L 401.765625 425.527344 C 401.765625 428.304688 404.015625 430.5625 406.800781 430.5625 L 523.734375 430.5625 L 523.734375 485.375 L 406.800781 485.375 C 404.015625 485.375 401.765625 487.632812 401.765625 490.410156 L 401.765625 531.175781 C 401.765625 533.953125 404.015625 536.210938 406.800781 536.210938 L 523.734375 536.210938 L 523.734375 595.390625 C 523.734375 598.171875 525.988281 600.425781 528.773438 600.425781 L 587.945312 600.425781 L 587.945312 717.355469 C 587.945312 720.136719 590.199219 722.390625 592.980469 722.390625 L 633.75 722.390625 C 636.535156 722.390625 638.785156 720.136719 638.785156 717.355469 L 638.785156 600.425781 L 693.601562 600.425781 L 693.601562 717.355469 C 693.601562 720.136719 695.851562 722.390625 698.636719 722.390625 L 739.40625 722.390625 C 742.191406 722.390625 744.441406 720.136719 744.441406 717.355469 L 744.441406 600.425781 L 799.253906 600.425781 L 799.253906 717.355469 C 799.253906 720.136719 801.507812 722.390625 804.289062 722.390625 L 845.058594 722.390625 C 847.84375 722.390625 850.09375 720.136719 850.09375 717.355469 L 850.09375 600.425781 L 909.269531 600.425781 C 912.054688 600.425781 914.304688 598.171875 914.304688 595.390625 L 914.304688 536.210938 L 1031.230469 536.210938 C 1034.015625 536.210938 1036.265625 533.953125 1036.265625 531.175781 L 1036.265625 490.410156 C 1036.265625 487.632812 1034.015625 485.375 1031.230469 485.375 L 914.296875 485.375 L 914.296875 430.5625 L 1031.230469 430.5625 C 1034.015625 430.5625 1036.265625 428.304688 1036.265625 425.527344 L 1036.265625 384.757812 C 1036.265625 381.976562 1034.015625 379.722656 1031.230469 379.722656 L 914.296875 379.722656 L 914.296875 324.90625 L 1031.230469 324.90625 C 1034.015625 324.90625 1036.265625 322.65625 1036.265625 319.871094 Z M 1026.195312 314.835938 L 909.261719 314.835938 C 906.476562 314.835938 904.222656 317.089844 904.222656 319.871094 L 904.222656 384.757812 C 904.222656 387.535156 906.476562 389.792969 909.261719 389.792969 L 1026.195312 389.792969 L 1026.195312 420.488281 L 909.261719 420.488281 C 906.476562 420.488281 904.222656 422.746094 904.222656 425.527344 L 904.222656 490.410156 C 904.222656 493.191406 906.476562 495.445312 909.261719 495.445312 L 1026.195312 495.445312 L 1026.195312 526.140625 L 909.261719 526.140625 C 906.476562 526.140625 904.222656 528.394531 904.222656 531.175781 L 904.222656 590.355469 L 845.050781 590.355469 C 842.265625 590.355469 840.015625 592.609375 840.015625 595.390625 L 840.015625 712.320312 L 809.316406 712.320312 L 809.316406 595.390625 C 809.316406 592.609375 807.066406 590.355469 804.28125 590.355469 L 739.402344 590.355469 C 736.617188 590.355469 734.363281 592.609375 734.363281 595.390625 L 734.363281 712.320312 L 703.667969 712.320312 L 703.667969 595.390625 C 703.667969 592.609375 701.417969 590.355469 698.632812 590.355469 L 633.746094 590.355469 C 630.960938 590.355469 628.710938 592.609375 628.710938 595.390625 L 628.710938 712.320312 L 598.011719 712.320312 L 598.011719 595.390625 C 598.011719 592.609375 595.761719 590.355469 592.976562 590.355469 L 533.808594 590.355469 L 533.808594 531.175781 C 533.808594 528.394531 531.554688 526.140625 528.773438 526.140625 L 411.835938 526.140625 L 411.835938 495.445312 L 528.773438 495.445312 C 531.554688 495.445312 533.808594 493.191406 533.808594 490.410156 L 533.808594 425.527344 C 533.808594 422.746094 531.554688 420.488281 528.773438 420.488281 L 411.835938 420.488281 L 411.835938 389.792969 L 528.773438 389.792969 C 531.554688 389.792969 533.808594 387.535156 533.808594 384.757812 L 533.808594 319.871094 C 533.808594 317.089844 531.554688 314.835938 528.773438 314.835938 L 411.835938 314.835938 L 411.835938 284.136719 L 528.773438 284.136719 C 531.554688 284.136719 533.808594 281.882812 533.808594 279.101562 L 533.808594 219.925781 L 592.980469 219.925781 C 595.765625 219.925781 598.019531 217.671875 598.019531 214.890625 L 598.019531 97.960938 L 628.714844 97.960938 L 628.714844 214.890625 C 628.714844 217.671875 630.964844 219.925781 633.75 219.925781 L 698.636719 219.925781 C 701.421875 219.925781 703.671875 217.671875 703.671875 214.890625 L 703.671875 97.960938 L 734.371094 97.960938 L 734.371094 214.890625 C 734.371094 217.671875 736.621094 219.925781 739.40625 219.925781 L 804.289062 219.925781 C 807.074219 219.925781 809.328125 217.671875 809.328125 214.890625 L 809.328125 97.960938 L 840.023438 97.960938 L 840.023438 214.890625 C 840.023438 217.671875 842.273438 219.925781 845.058594 219.925781 L 904.234375 219.925781 L 904.234375 279.101562 C 904.234375 281.882812 906.484375 284.136719 909.269531 284.136719 L 1026.195312 284.136719 Z M 1026.195312 314.835938 " fill-opacity="1" fill-rule="nonzero"/></g><path fill="#ffffff" d="M 948.628906 452.929688 C 945.84375 452.929688 943.59375 455.1875 943.59375 457.964844 C 943.59375 460.746094 945.84375 463 948.628906 463 L 1000.609375 463 C 1003.394531 463 1005.644531 460.746094 1005.644531 457.964844 C 1005.644531 455.1875 1003.394531 452.929688 1000.609375 452.929688 Z M 948.628906 452.929688 " fill-opacity="1" fill-rule="nonzero"/><path fill="#ffffff" d="M 1000.609375 557.535156 L 948.628906 557.535156 C 945.84375 557.535156 943.59375 559.792969 943.59375 562.574219 C 943.59375 565.351562 945.84375 567.609375 948.628906 567.609375 L 1000.609375 567.609375 C 1003.394531 567.609375 1005.644531 565.351562 1005.644531 562.574219 C 1005.644531 559.792969 1003.394531 557.535156 1000.609375 557.535156 Z M 1000.609375 557.535156 " fill-opacity="1" fill-rule="nonzero"/><path fill="#003e52" d="M 936.050781 531.839844 C 898.769531 531.839844 868.550781 560.382812 868.550781 595.589844 C 868.550781 630.800781 898.769531 659.339844 936.050781 659.339844 C 973.328125 659.339844 1003.550781 630.800781 1003.550781 595.589844 C 1003.550781 560.382812 973.328125 531.839844 936.050781 531.839844 " fill-opacity="1" fill-rule="nonzero"/><path fill="#003e52" d="M 880.476562 531.84375 L 1037.976562 531.84375 L 1037.976562 665.339844 L 880.476562 665.339844 L 880.476562 531.84375 " fill-opacity="1" fill-rule="nonzero"/><g clip-path="url(#id2)"><path fill="#ff8400" d="M 939.523438 533.246094 C 900.796875 533.246094 869.253906 564.789062 869.253906 603.515625 C 869.253906 642.246094 900.796875 673.789062 939.523438 673.789062 C 942.96875 673.789062 946.332031 673.460938 949.652344 672.976562 C 957.402344 682.050781 968.890625 687.839844 981.6875 687.839844 C 1004.875 687.839844 1023.847656 668.867188 1023.847656 645.679688 C 1023.847656 622.492188 1004.875 603.515625 981.6875 603.515625 C 958.496094 603.515625 939.523438 622.492188 939.523438 645.679688 C 939.523438 650.558594 940.410156 655.230469 941.953125 659.597656 C 941.140625 659.628906 940.347656 659.734375 939.523438 659.734375 C 908.390625 659.734375 883.308594 634.652344 883.308594 603.515625 C 883.308594 572.382812 908.390625 547.300781 939.523438 547.300781 C 950 547.300781 959.75 550.183594 968.125 555.152344 L 961.796875 561.480469 C 959.246094 564.023438 961.046875 568.382812 964.652344 568.382812 L 991.703125 568.382812 C 993.933594 568.382812 995.738281 566.574219 995.738281 564.347656 L 995.738281 537.296875 C 995.738281 533.691406 991.378906 531.890625 988.835938 534.441406 L 978.296875 544.980469 C 967.167969 537.601562 953.839844 533.246094 939.523438 533.246094 Z M 1001.367188 629.582031 C 1003.144531 629.582031 1004.921875 630.265625 1006.28125 631.625 C 1009 634.34375 1009 638.746094 1006.28125 641.464844 L 983.085938 664.648438 C 980.367188 667.367188 975.976562 667.367188 973.257812 664.648438 L 960.605469 652.007812 C 957.886719 649.285156 957.886719 644.886719 960.605469 642.164062 C 963.324219 639.445312 967.726562 639.445312 970.445312 642.164062 L 978.171875 649.894531 L 996.441406 631.625 C 997.800781 630.265625 999.585938 629.582031 1001.367188 629.582031 Z M 1001.367188 629.582031 " fill-opacity="1" fill-rule="nonzero"/></g></svg>