<svg xmlns="http://www.w3.org/2000/svg" xmlns:xlink="http://www.w3.org/1999/xlink" width="1920" zoomAndPan="magnify" viewBox="0 0 1440 809.999993" height="1080" preserveAspectRatio="xMidYMid meet" version="1.0"><defs><filter x="0%" y="0%" width="100%" height="100%" id="id1"><feColorMatrix values="0 0 0 0 1 0 0 0 0 1 0 0 0 0 1 0 0 0 1 0" color-interpolation-filters="sRGB"/></filter><mask id="id2"><g filter="url(#id1)"><rect x="-144" width="1728" fill="#000000" y="-80.999999" height="971.999992" fill-opacity="0.4471"/></g></mask><clipPath id="id3"><rect x="0" width="523" y="0" height="598"/></clipPath></defs><g mask="url(#id2)"><g transform="matrix(1, 0, 0, 1, 459, 110)"><g clip-path="url(#id3)"><path fill="#003e52" d="M 457.882812 418.601562 C 457.386719 418.601562 456.9375 418.578125 456.441406 418.527344 C 449.632812 417.757812 444.710938 411.59375 445.507812 404.757812 C 454.355469 326.644531 412.304688 271.472656 381.609375 231.164062 C 367.371094 212.449219 355.066406 196.292969 350.195312 181.183594 C 346.714844 170.347656 344.726562 156.777344 342.441406 141.023438 C 333.496094 79.164062 322.261719 31.820312 267.3125 31.820312 C 242.0625 31.820312 222.949219 39.425781 208.832031 55.054688 C 186.339844 80.007812 177.269531 126.210938 183.359375 185.136719 C 187.683594 227.035156 171.503906 251.914062 154.40625 278.257812 C 136.011719 306.613281 116.949219 335.917969 116.949219 394.417969 C 116.949219 401.277344 111.382812 406.847656 104.523438 406.847656 C 97.664062 406.847656 92.097656 401.277344 92.097656 394.417969 C 92.097656 328.585938 115.085938 293.167969 133.578125 264.714844 C 149.484375 240.207031 162.058594 220.824219 158.652344 187.695312 C 153.832031 140.972656 155.421875 77.152344 190.390625 38.378906 C 209.203125 17.527344 235.101562 6.941406 267.3125 6.941406 C 348.15625 6.941406 359.539062 85.453125 367.070312 137.417969 C 369.109375 151.433594 371.023438 164.730469 373.832031 173.527344 C 377.410156 184.589844 388.519531 199.175781 401.367188 216.078125 C 434.621094 259.742188 480.152344 319.515625 470.210938 407.542969 C 469.488281 413.929688 464.121094 418.601562 457.882812 418.601562 Z M 457.882812 418.601562 " fill-opacity="1" fill-rule="nonzero"/><path fill="#003e52" d="M 315.847656 181.554688 C 314.605469 181.554688 313.339844 181.359375 312.121094 180.984375 C 305.558594 178.921875 301.957031 171.964844 304.019531 165.402344 C 313.164062 136.398438 313.3125 111.796875 304.417969 99.617188 C 299.941406 93.503906 293.183594 90.496094 283.6875 90.445312 C 280.136719 89.75 276.234375 91.765625 273.398438 94.746094 C 266.714844 101.78125 263.929688 115.695312 262.886719 127.253906 C 263.261719 136.425781 262.640625 143.40625 262.441406 145.222656 C 261.820312 151.660156 256.949219 156.40625 249.839844 156.40625 C 243.351562 156.28125 238.058594 151.210938 237.6875 144.726562 C 237.5625 142.933594 237.214844 135.726562 237.960938 126.308594 C 237.289062 113.957031 234.554688 100.488281 228.21875 94.175781 C 226.203125 92.160156 222.949219 89.972656 216.3125 90.570312 C 187.808594 93.402344 191.933594 156.230469 191.980469 156.851562 C 192.554688 163.6875 187.507812 169.726562 180.675781 170.296875 C 173.914062 170.746094 167.800781 165.824219 167.226562 158.992188 C 164.394531 126.410156 171.082031 70.117188 213.851562 65.84375 C 226.476562 64.550781 237.539062 68.304688 245.8125 76.605469 C 247.753906 78.542969 249.492188 80.679688 251.03125 82.964844 C 252.351562 81.101562 253.742188 79.335938 255.308594 77.671875 C 262.8125 69.769531 272.578125 65.59375 283.613281 65.59375 C 283.6875 65.59375 283.765625 65.59375 283.8125 65.59375 C 301.261719 65.695312 315.328125 72.378906 324.523438 84.953125 C 338.464844 104.089844 339.582031 135.28125 327.730469 172.882812 C 326.015625 178.175781 321.144531 181.554688 315.847656 181.554688 Z M 315.847656 181.554688 " fill-opacity="1" fill-rule="nonzero"/><path fill="#003e52" d="M 239.648438 233.621094 C 207.664062 233.621094 175.058594 185.609375 168.792969 175.867188 C 166.90625 172.957031 166.308594 169.328125 167.226562 165.972656 C 168.148438 162.617188 170.386719 159.761719 173.492188 158.144531 C 259.679688 113.085938 316.667969 162.148438 319.054688 164.257812 C 321.566406 166.496094 323.054688 169.628906 323.207031 172.980469 C 323.378906 176.335938 322.160156 179.59375 319.875 182.027344 C 312.046875 190.453125 271.363281 232.429688 240.867188 233.621094 C 240.46875 233.597656 240.046875 233.621094 239.648438 233.621094 Z M 197.945312 174.050781 C 210.820312 190.875 228.589844 208.746094 239.550781 208.746094 C 239.675781 208.746094 239.800781 208.746094 239.921875 208.71875 C 252.199219 208.25 274.542969 191.296875 291.367188 175.417969 C 275.140625 166.71875 242.285156 155.660156 197.945312 174.050781 Z M 197.945312 174.050781 " fill-opacity="1" fill-rule="nonzero"/><path fill="#003e52" d="M 217.605469 164.109375 C 210.746094 164.109375 205.179688 158.542969 205.179688 151.683594 L 205.179688 131.082031 C 205.179688 124.222656 210.746094 118.65625 217.605469 118.65625 C 224.464844 118.65625 230.03125 124.222656 230.03125 131.082031 L 230.03125 151.683594 C 230.03125 158.542969 224.464844 164.109375 217.605469 164.109375 Z M 217.605469 164.109375 " fill-opacity="1" fill-rule="nonzero"/><path fill="#003e52" d="M 283.738281 170.96875 C 276.878906 170.96875 271.3125 165.402344 271.3125 158.542969 L 271.3125 131.082031 C 271.3125 124.222656 276.878906 118.65625 283.738281 118.65625 C 290.597656 118.65625 296.164062 124.222656 296.164062 131.082031 L 296.164062 158.542969 C 296.164062 165.425781 290.625 170.96875 283.738281 170.96875 Z M 283.738281 170.96875 " fill-opacity="1" fill-rule="nonzero"/><path fill="#003e52" d="M 144.585938 418.601562 C 138.25 418.601562 132.832031 413.78125 132.234375 407.316406 C 124.109375 319.910156 204.183594 210.0625 207.613281 205.414062 C 211.691406 199.898438 219.519531 198.703125 224.960938 202.804688 C 230.503906 206.855469 231.695312 214.660156 227.597656 220.175781 C 226.824219 221.222656 149.730469 327.042969 156.964844 405.03125 C 157.585938 411.839844 152.566406 417.929688 145.730469 418.550781 C 145.359375 418.578125 144.960938 418.601562 144.585938 418.601562 Z M 144.585938 418.601562 " fill-opacity="1" fill-rule="nonzero"/><path fill="#003e52" d="M 376.042969 418.601562 C 375.894531 418.601562 375.746094 418.601562 375.570312 418.601562 C 368.734375 418.328125 363.367188 412.585938 363.617188 405.703125 C 368.039062 285.390625 283.464844 201.960938 282.621094 201.140625 C 277.699219 196.367188 277.574219 188.492188 282.324219 183.570312 C 287.144531 178.648438 294.996094 178.550781 299.894531 183.269531 C 303.722656 186.972656 393.265625 275.375 388.445312 406.621094 C 388.222656 413.332031 382.703125 418.601562 376.042969 418.601562 Z M 376.042969 418.601562 " fill-opacity="1" fill-rule="nonzero"/><path fill="#003e52" d="M 173.464844 575.398438 C 157.410156 575.398438 139.070312 572.191406 121.671875 569.183594 C 109.894531 567.121094 97.988281 565.058594 86.878906 563.863281 C 47.261719 559.640625 23.429688 549.425781 16.023438 533.496094 C 12.121094 525.070312 13.117188 515.75 18.855469 507.25 C 28.25 493.332031 25.640625 489.207031 20.445312 480.980469 C 14.855469 472.183594 6.480469 458.886719 18.410156 438.53125 C 27.976562 422.253906 44.179688 422.527344 55.066406 422.726562 C 65.109375 422.925781 68.5625 422.476562 71.046875 419.125 L 72.589844 417.035156 C 82.953125 403.042969 94.707031 387.136719 111.285156 386.46875 C 117.199219 386.195312 126.195312 388.03125 134.84375 397.972656 C 156.316406 422.601562 225.808594 506.109375 218.476562 546.46875 C 214.351562 568.960938 196.257812 575.398438 173.464844 575.398438 Z M 51.363281 447.578125 C 43.558594 447.578125 41.523438 448.324219 39.882812 451.132812 C 35.582031 458.441406 36.824219 460.402344 41.449219 467.734375 C 48.035156 478.125 57.925781 493.804688 39.433594 521.167969 C 39.160156 525.292969 49.773438 534.910156 89.488281 539.160156 C 101.144531 540.402344 113.597656 542.566406 125.921875 544.703125 C 156.640625 550.023438 191.460938 556.136719 193.996094 542.042969 C 197.746094 521.441406 156.664062 460.875 116.082031 414.375 C 113.917969 411.890625 112.578125 411.34375 112.253906 411.34375 C 107.582031 411.542969 97.441406 425.285156 92.570312 431.871094 L 91.003906 433.984375 C 80.542969 448.078125 65.03125 447.851562 54.621094 447.628906 C 53.425781 447.578125 52.359375 447.578125 51.363281 447.578125 Z M 29.144531 444.847656 L 29.394531 444.847656 Z M 29.144531 444.847656 " fill-opacity="1" fill-rule="nonzero"/><path fill="#003e52" d="M 380.464844 580.117188 C 372.089844 580.117188 363.640625 578.378906 355.140625 574.304688 C 328.324219 561.429688 322.882812 510.109375 326.386719 470.070312 C 328.398438 446.910156 335.085938 407.167969 357.15625 400.980469 C 360.359375 400.085938 370.101562 397.328125 378.28125 402.84375 C 386.132812 408.1875 387.101562 417.058594 387.824219 423.570312 C 388.765625 432.195312 389.289062 432.320312 392.074219 432.890625 C 396.746094 433.960938 405.542969 423.597656 411.78125 416.089844 C 421.996094 403.714844 437.429688 385.023438 456.617188 397.847656 C 473.589844 409.15625 472.546875 425.238281 471.824219 435.847656 C 471.054688 447.902344 470.757812 452.425781 488.453125 457.621094 C 504.65625 462.367188 508.65625 472.953125 509.628906 478.84375 C 513.605469 503.871094 478.957031 530.6875 463.875 541.050781 L 458.804688 544.554688 C 433.355469 562.101562 407.257812 580.117188 380.464844 580.117188 Z M 365.878906 551.886719 C 388.617188 562.820312 415.855469 544.007812 444.660156 524.101562 L 449.78125 520.546875 C 475.652344 502.777344 485.644531 486.894531 485.046875 482.746094 C 485.046875 482.996094 484.128906 482.25 481.445312 481.453125 C 444.660156 470.667969 446.128906 447.851562 446.996094 434.234375 C 447.667969 424.070312 447.394531 421.582031 442.796875 418.527344 C 441.257812 419.398438 434.769531 427.25 430.894531 431.921875 C 420.058594 445.019531 406.460938 461.371094 386.953125 457.222656 C 365.953125 452.847656 364.015625 434.90625 363.070312 426.28125 C 363.042969 426.058594 363.019531 425.859375 362.996094 425.660156 C 357.277344 431.921875 348.132812 464.976562 350.667969 504.816406 C 352.507812 533.148438 359.613281 548.902344 365.878906 551.886719 Z M 365.878906 551.886719 " fill-opacity="1" fill-rule="nonzero"/><path fill="#003e52" d="M 271.0625 546.046875 C 229.484375 546.046875 199.835938 533.792969 197.996094 533 C 191.683594 530.339844 188.75 523.082031 191.410156 516.746094 C 194.042969 510.433594 201.277344 507.449219 207.664062 510.109375 C 208.234375 510.382812 267.90625 534.738281 333.46875 509.933594 C 339.855469 507.523438 347.039062 510.730469 349.5 517.167969 C 351.933594 523.578125 348.703125 530.761719 342.269531 533.195312 C 316.84375 542.816406 292.386719 546.046875 271.0625 546.046875 Z M 271.0625 546.046875 " fill-opacity="1" fill-rule="nonzero"/></g></g></g></svg>