<svg xmlns="http://www.w3.org/2000/svg" xmlns:xlink="http://www.w3.org/1999/xlink" width="1920" zoomAndPan="magnify" viewBox="0 0 1440 809.999993" height="1080" preserveAspectRatio="xMidYMid meet" version="1.0"><defs><clipPath id="id1"><path d="M 359.171875 44.171875 L 1057 44.171875 L 1057 765.671875 L 359.171875 765.671875 Z M 359.171875 44.171875 " clip-rule="nonzero"/></clipPath><clipPath id="id2"><path d="M 899 584 L 1080.671875 584 L 1080.671875 670 L 899 670 Z M 899 584 " clip-rule="nonzero"/></clipPath><clipPath id="id3"><path d="M 595.488281 265.523438 L 842.988281 265.523438 L 842.988281 516.773438 L 595.488281 516.773438 Z M 595.488281 265.523438 " clip-rule="nonzero"/></clipPath></defs><g clip-path="url(#id1)"><path fill="#ffffff" d="M 719.921875 140.371094 C 713.296875 140.371094 707.894531 134.96875 707.894531 128.347656 C 707.894531 121.722656 713.296875 116.320312 719.921875 116.320312 C 726.542969 116.320312 731.945312 121.722656 731.945312 128.347656 C 731.945312 134.96875 726.542969 140.371094 719.921875 140.371094 Z M 563.597656 392.898438 C 563.597656 306.703125 633.726562 236.570312 719.921875 236.570312 C 727.8125 236.570312 736.175781 237.324219 745.472656 238.875 C 752.050781 239.90625 758.203125 235.492188 759.285156 228.960938 C 760.363281 222.386719 755.949219 216.183594 749.375 215.105469 C 743.265625 214.117188 737.535156 213.507812 731.945312 213.085938 L 731.945312 162.214844 C 745.898438 157.234375 755.996094 143.988281 755.996094 128.347656 C 755.996094 108.429688 739.835938 92.273438 719.921875 92.273438 C 700.003906 92.273438 683.847656 108.429688 683.847656 128.347656 C 683.847656 143.988281 693.945312 157.234375 707.894531 162.214844 L 707.894531 213.132812 C 689.15625 214.402344 671.257812 218.441406 654.488281 224.96875 L 635.746094 196.878906 L 635.746094 174.238281 C 649.699219 169.261719 659.796875 156.011719 659.796875 140.371094 C 659.796875 123.132812 647.628906 108.710938 631.472656 105.1875 C 659.328125 81.65625 694.792969 68.222656 731.945312 68.222656 C 744.394531 68.222656 756.796875 69.726562 768.867188 72.683594 C 768.351562 75.125 768.019531 77.664062 768.019531 80.246094 C 768.019531 95.886719 778.121094 109.136719 792.070312 114.113281 L 792.070312 164.421875 C 792.070312 168.976562 794.65625 173.160156 798.695312 175.179688 L 816.121094 183.867188 L 816.121094 240.609375 C 810.484375 237.042969 804.660156 233.707031 798.507812 230.746094 C 792.589844 227.835938 785.355469 230.277344 782.441406 236.289062 C 779.578125 242.253906 782.066406 249.441406 788.03125 252.355469 C 842.425781 278.800781 876.246094 332.628906 876.246094 392.898438 C 876.246094 479.089844 806.117188 549.222656 719.921875 549.222656 C 633.726562 549.222656 563.597656 479.089844 563.597656 392.898438 Z M 578.535156 224.921875 L 539.546875 215.152344 L 539.546875 186.265625 C 553.496094 181.285156 563.597656 168.039062 563.597656 152.398438 C 563.597656 150.28125 563.316406 148.261719 562.984375 146.242188 C 570.925781 143.707031 579.238281 142.109375 587.742188 141.3125 C 588.117188 156.53125 598.027344 169.355469 611.695312 174.238281 L 611.695312 200.496094 C 611.695312 202.890625 612.402344 205.195312 613.714844 207.167969 L 632.457031 235.257812 C 615.640625 244.652344 600.609375 256.675781 587.644531 270.671875 L 587.644531 236.570312 C 587.644531 231.027344 583.886719 226.238281 578.535156 224.921875 Z M 527.519531 140.371094 C 534.144531 140.371094 539.546875 145.773438 539.546875 152.398438 C 539.546875 159.019531 534.144531 164.421875 527.519531 164.421875 C 520.898438 164.421875 515.496094 159.019531 515.496094 152.398438 C 515.496094 145.773438 520.898438 140.371094 527.519531 140.371094 Z M 623.722656 152.398438 C 617.097656 152.398438 611.695312 146.996094 611.695312 140.371094 C 611.695312 133.75 617.097656 128.347656 623.722656 128.347656 C 630.34375 128.347656 635.746094 133.75 635.746094 140.371094 C 635.746094 146.996094 630.34375 152.398438 623.722656 152.398438 Z M 804.097656 68.222656 C 810.71875 68.222656 816.121094 73.625 816.121094 80.246094 C 816.121094 86.871094 810.71875 92.273438 804.097656 92.273438 C 797.472656 92.273438 792.070312 86.871094 792.070312 80.246094 C 792.070312 73.625 797.472656 68.222656 804.097656 68.222656 Z M 840.171875 741.621094 C 833.546875 741.621094 828.144531 736.21875 828.144531 729.597656 C 828.144531 722.972656 833.546875 717.570312 840.171875 717.570312 C 846.792969 717.570312 852.195312 722.972656 852.195312 729.597656 C 852.195312 736.21875 846.792969 741.621094 840.171875 741.621094 Z M 671.820312 717.570312 C 665.199219 717.570312 659.796875 712.167969 659.796875 705.546875 C 659.796875 698.921875 665.199219 693.523438 671.820312 693.523438 C 678.445312 693.523438 683.847656 698.921875 683.847656 705.546875 C 683.847656 712.167969 678.445312 717.570312 671.820312 717.570312 Z M 563.597656 741.621094 C 556.972656 741.621094 551.570312 736.21875 551.570312 729.597656 C 551.570312 722.972656 556.972656 717.570312 563.597656 717.570312 C 570.21875 717.570312 575.621094 722.972656 575.621094 729.597656 C 575.621094 736.21875 570.21875 741.621094 563.597656 741.621094 Z M 395.246094 501.121094 C 388.625 501.121094 383.222656 495.71875 383.222656 489.097656 C 383.222656 482.472656 388.625 477.070312 395.246094 477.070312 C 401.871094 477.070312 407.273438 482.472656 407.273438 489.097656 C 407.273438 495.71875 401.871094 501.121094 395.246094 501.121094 Z M 467.394531 308.722656 C 460.773438 308.722656 455.371094 303.320312 455.371094 296.695312 C 455.371094 290.074219 460.773438 284.671875 467.394531 284.671875 C 474.019531 284.671875 479.421875 290.074219 479.421875 296.695312 C 479.421875 303.320312 474.019531 308.722656 467.394531 308.722656 Z M 972.445312 248.597656 C 979.070312 248.597656 984.472656 254 984.472656 260.621094 C 984.472656 267.246094 979.070312 272.648438 972.445312 272.648438 C 965.824219 272.648438 960.421875 267.246094 960.421875 260.621094 C 960.421875 254 965.824219 248.597656 972.445312 248.597656 Z M 1020.546875 513.148438 C 1027.167969 513.148438 1032.570312 518.546875 1032.570312 525.171875 C 1032.570312 531.792969 1027.167969 537.195312 1020.546875 537.195312 C 1013.921875 537.195312 1008.519531 531.792969 1008.519531 525.171875 C 1008.519531 518.546875 1013.921875 513.148438 1020.546875 513.148438 Z M 849.753906 517.796875 C 858.207031 509.011719 865.675781 499.382812 872.253906 489.097656 L 916.925781 489.097656 L 937.640625 530.574219 C 939.660156 534.613281 943.839844 537.195312 948.394531 537.195312 L 986.679688 537.195312 C 991.660156 551.148438 1004.90625 561.246094 1020.546875 561.246094 C 1040.460938 561.246094 1056.621094 545.089844 1056.621094 525.171875 C 1056.621094 505.253906 1040.460938 489.097656 1020.546875 489.097656 C 1004.90625 489.097656 991.660156 499.195312 986.679688 513.148438 L 955.816406 513.148438 L 935.101562 471.667969 C 933.082031 467.628906 928.902344 465.046875 924.347656 465.046875 L 885.125 465.046875 C 893.390625 446.257812 898.371094 425.777344 899.734375 404.265625 C 903.960938 404.6875 908.1875 404.921875 912.320312 404.921875 C 991.894531 404.921875 1056.621094 340.191406 1056.621094 260.621094 C 1056.621094 209.65625 1029.332031 161.933594 985.410156 136.144531 C 979.679688 132.761719 972.304688 134.6875 968.921875 140.417969 C 965.542969 146.148438 967.46875 153.523438 973.199219 156.859375 C 1009.835938 178.371094 1032.570312 218.160156 1032.570312 260.621094 C 1032.570312 326.945312 978.648438 380.871094 912.320312 380.871094 C 908.234375 380.871094 904.054688 380.542969 899.875 380.121094 C 898.417969 359.265625 893.390625 339.253906 885.3125 320.746094 L 888.269531 320.746094 C 892.828125 320.746094 897.007812 318.164062 899.027344 314.125 L 919.742188 272.648438 L 938.578125 272.648438 C 943.558594 286.597656 956.804688 296.695312 972.445312 296.695312 C 992.363281 296.695312 1008.519531 280.539062 1008.519531 260.621094 C 1008.519531 240.707031 992.363281 224.546875 972.445312 224.546875 C 956.804688 224.546875 943.558594 234.644531 938.578125 248.597656 L 912.320312 248.597656 C 907.765625 248.597656 903.585938 251.179688 901.566406 255.21875 L 880.851562 296.695312 L 872.628906 296.695312 C 863.703125 282.605469 852.808594 269.78125 840.171875 258.554688 L 840.171875 176.445312 C 840.171875 171.890625 837.589844 167.710938 833.546875 165.691406 L 816.121094 157 L 816.121094 114.113281 C 821.898438 112.046875 826.972656 108.570312 830.964844 104.0625 C 843.742188 114.582031 854.78125 126.75 863.5625 140.558594 C 865.820312 144.128906 869.71875 146.148438 873.710938 146.148438 C 874.882812 146.148438 876.058594 145.960938 877.234375 145.632812 C 895.128906 140.183594 914.199219 139.007812 931.957031 142.015625 C 938.578125 143.144531 944.734375 138.679688 945.8125 132.152344 C 946.941406 125.621094 942.523438 119.421875 935.996094 118.292969 C 917.394531 115.148438 897.664062 115.804688 878.875 120.265625 C 868.214844 105.1875 855.15625 91.894531 840.125 80.574219 C 840.125 80.480469 840.171875 80.386719 840.171875 80.246094 C 840.171875 60.332031 824.011719 44.171875 804.097656 44.171875 C 795.96875 44.171875 788.5 46.988281 782.488281 51.546875 C 766.046875 46.753906 749.089844 44.171875 731.945312 44.171875 C 674.921875 44.171875 621.277344 71.320312 587.222656 117.074219 C 574.636719 118.152344 562.46875 120.878906 550.820312 125.058594 C 544.480469 119.703125 536.445312 116.320312 527.519531 116.320312 C 507.605469 116.320312 491.445312 132.480469 491.445312 152.398438 C 491.445312 156.34375 492.246094 160.101562 493.417969 163.671875 C 486.042969 171.703125 479.375 180.296875 474.019531 189.878906 C 421.785156 198.289062 383.222656 243.148438 383.222656 296.695312 C 383.222656 356.351562 431.792969 404.921875 491.445312 404.921875 C 496.472656 404.921875 501.546875 404.546875 506.523438 403.839844 C 513.101562 402.902344 517.65625 396.84375 516.71875 390.265625 C 515.777344 383.691406 509.625 379.179688 503.09375 380.027344 C 499.289062 380.589844 495.34375 380.871094 491.445312 380.871094 C 445.039062 380.871094 407.273438 343.105469 407.273438 296.695312 C 407.273438 253.339844 439.777344 217.3125 482.898438 212.945312 C 486.984375 212.523438 490.601562 210.078125 492.433594 206.414062 C 496.753906 197.867188 502.0625 189.976562 508.214844 182.789062 C 510.46875 184.195312 512.914062 185.324219 515.496094 186.265625 L 515.496094 224.546875 C 515.496094 230.089844 519.253906 234.878906 524.609375 236.195312 L 563.597656 245.964844 L 563.597656 303.273438 C 562.5625 305.105469 561.484375 306.890625 560.496094 308.722656 L 544.527344 308.722656 L 524 288.195312 C 521.742188 285.941406 518.691406 284.671875 515.496094 284.671875 L 501.265625 284.671875 C 496.285156 270.722656 483.039062 260.621094 467.394531 260.621094 C 447.480469 260.621094 431.320312 276.78125 431.320312 296.695312 C 431.320312 316.613281 447.480469 332.773438 467.394531 332.773438 C 483.039062 332.773438 496.285156 322.671875 501.265625 308.722656 L 510.515625 308.722656 L 531.042969 329.25 C 533.300781 331.503906 536.351562 332.773438 539.546875 332.773438 L 550.066406 332.773438 C 543.398438 351.609375 539.546875 371.804688 539.546875 392.898438 C 539.546875 405.25 540.816406 417.324219 543.164062 428.972656 L 503.472656 428.972656 C 498.914062 428.972656 494.734375 431.554688 492.714844 435.59375 L 472 477.070312 L 429.113281 477.070312 C 424.132812 463.121094 410.886719 453.023438 395.246094 453.023438 C 375.332031 453.023438 359.171875 469.179688 359.171875 489.097656 C 359.171875 509.011719 375.332031 525.171875 395.246094 525.171875 C 410.886719 525.171875 424.132812 515.074219 429.113281 501.121094 L 479.421875 501.121094 C 483.976562 501.121094 488.160156 498.539062 490.179688 494.5 L 510.894531 453.023438 L 550.066406 453.023438 C 553.875 463.683594 558.570312 473.878906 564.207031 483.507812 L 458.894531 588.820312 C 456.640625 591.074219 455.371094 594.128906 455.371094 597.320312 L 455.371094 645.421875 L 479.421875 645.421875 L 479.421875 602.300781 L 577.96875 503.753906 C 587.695312 516.246094 599.0625 527.332031 611.695312 536.867188 L 611.695312 589.195312 L 559.132812 610.191406 C 554.578125 612.023438 551.570312 616.4375 551.570312 621.371094 L 551.570312 695.730469 C 537.621094 700.707031 527.519531 713.953125 527.519531 729.597656 C 527.519531 749.511719 543.679688 765.671875 563.597656 765.671875 C 583.511719 765.671875 599.671875 749.511719 599.671875 729.597656 C 599.671875 713.953125 589.574219 700.707031 575.621094 695.730469 L 575.621094 629.496094 L 628.183594 608.5 C 632.738281 606.667969 635.746094 602.253906 635.746094 597.320312 L 635.746094 552.320312 C 657.542969 563.878906 681.96875 570.921875 707.894531 572.660156 L 707.894531 601.925781 L 666.417969 622.640625 C 662.378906 624.660156 659.796875 628.839844 659.796875 633.398438 L 659.796875 671.679688 C 645.84375 676.660156 635.746094 689.90625 635.746094 705.546875 C 635.746094 725.464844 651.90625 741.621094 671.820312 741.621094 C 691.738281 741.621094 707.894531 725.464844 707.894531 705.546875 C 707.894531 689.90625 697.796875 676.660156 683.847656 671.679688 L 683.847656 640.816406 L 725.324219 620.101562 C 729.363281 618.082031 731.945312 613.902344 731.945312 609.347656 L 731.945312 572.660156 C 748.152344 571.582031 763.792969 568.386719 778.542969 563.3125 L 780.046875 645.65625 C 780.140625 650.117188 782.675781 654.160156 786.667969 656.179688 L 828.144531 676.894531 L 828.144531 695.730469 C 814.195312 700.707031 804.097656 713.953125 804.097656 729.597656 C 804.097656 749.511719 820.253906 765.671875 840.171875 765.671875 C 860.085938 765.671875 876.246094 749.511719 876.246094 729.597656 C 876.246094 713.953125 866.148438 700.707031 852.195312 695.730469 L 852.195312 669.472656 C 852.195312 664.914062 849.613281 660.734375 845.574219 658.714844 L 803.957031 637.90625 L 802.40625 553.121094 C 812.925781 547.671875 822.792969 541.28125 832 534.003906 L 868.824219 570.828125 C 871.171875 573.175781 874.273438 574.351562 877.328125 574.351562 C 880.378906 574.351562 883.480469 573.175781 885.828125 570.828125 C 890.527344 566.132812 890.527344 558.523438 885.828125 553.824219 L 849.753906 517.796875 " fill-opacity="1" fill-rule="nonzero"/></g><path fill="#ffffff" d="M 731.945312 501.121094 L 731.945312 477.070312 L 755.996094 477.070312 L 755.996094 501.121094 C 755.996094 507.746094 761.398438 513.148438 768.019531 513.148438 C 774.644531 513.148438 780.046875 507.746094 780.046875 501.121094 L 780.046875 477.070312 L 792.070312 477.070312 C 798.695312 477.070312 804.097656 471.667969 804.097656 465.046875 L 804.097656 453.023438 L 828.144531 453.023438 C 834.769531 453.023438 840.171875 447.621094 840.171875 440.996094 C 840.171875 434.375 834.769531 428.972656 828.144531 428.972656 L 804.097656 428.972656 L 804.097656 404.921875 L 828.144531 404.921875 C 834.769531 404.921875 840.171875 399.519531 840.171875 392.898438 C 840.171875 386.273438 834.769531 380.871094 828.144531 380.871094 L 804.097656 380.871094 L 804.097656 356.820312 L 828.144531 356.820312 C 834.769531 356.820312 840.171875 351.417969 840.171875 344.796875 C 840.171875 338.171875 834.769531 332.773438 828.144531 332.773438 L 804.097656 332.773438 L 804.097656 320.746094 C 804.097656 314.125 798.695312 308.722656 792.070312 308.722656 L 780.046875 308.722656 L 780.046875 284.671875 C 780.046875 278.046875 774.644531 272.648438 768.019531 272.648438 C 761.398438 272.648438 755.996094 278.046875 755.996094 284.671875 L 755.996094 308.722656 L 731.945312 308.722656 L 731.945312 284.671875 C 731.945312 278.046875 726.542969 272.648438 719.921875 272.648438 C 713.296875 272.648438 707.894531 278.046875 707.894531 284.671875 L 707.894531 308.722656 L 683.847656 308.722656 L 683.847656 284.671875 C 683.847656 278.046875 678.445312 272.648438 671.820312 272.648438 C 665.199219 272.648438 659.796875 278.046875 659.796875 284.671875 L 659.796875 308.722656 L 647.769531 308.722656 C 641.148438 308.722656 635.746094 314.125 635.746094 320.746094 L 635.746094 332.773438 L 611.695312 332.773438 C 605.074219 332.773438 599.671875 338.171875 599.671875 344.796875 C 599.671875 351.417969 605.074219 356.820312 611.695312 356.820312 L 635.746094 356.820312 L 635.746094 380.871094 L 611.695312 380.871094 C 605.074219 380.871094 599.671875 386.273438 599.671875 392.898438 C 599.671875 399.519531 605.074219 404.921875 611.695312 404.921875 L 635.746094 404.921875 L 635.746094 428.972656 L 611.695312 428.972656 C 605.074219 428.972656 599.671875 434.375 599.671875 440.996094 C 599.671875 447.621094 605.074219 453.023438 611.695312 453.023438 L 635.746094 453.023438 L 635.746094 465.046875 C 635.746094 471.667969 641.148438 477.070312 647.769531 477.070312 L 659.796875 477.070312 L 659.796875 501.121094 C 659.796875 507.746094 665.199219 513.148438 671.820312 513.148438 C 678.445312 513.148438 683.847656 507.746094 683.847656 501.121094 L 683.847656 465.046875 C 683.847656 458.421875 678.445312 453.023438 671.820312 453.023438 L 659.796875 453.023438 L 659.796875 332.773438 L 780.046875 332.773438 L 780.046875 453.023438 L 719.921875 453.023438 C 713.296875 453.023438 707.894531 458.421875 707.894531 465.046875 L 707.894531 501.121094 C 707.894531 507.746094 713.296875 513.148438 719.921875 513.148438 C 726.542969 513.148438 731.945312 507.746094 731.945312 501.121094 " fill-opacity="1" fill-rule="nonzero"/><path fill="#ffffff" d="M 731.945312 404.921875 L 707.894531 404.921875 L 707.894531 380.871094 L 731.945312 380.871094 Z M 755.996094 416.945312 L 755.996094 368.847656 C 755.996094 362.222656 750.59375 356.820312 743.972656 356.820312 L 695.871094 356.820312 C 689.25 356.820312 683.847656 362.222656 683.847656 368.847656 L 683.847656 416.945312 C 683.847656 423.570312 689.25 428.972656 695.871094 428.972656 L 743.972656 428.972656 C 750.59375 428.972656 755.996094 423.570312 755.996094 416.945312 " fill-opacity="1" fill-rule="nonzero"/><path fill="#ffffff" d="M 467.394531 669.472656 C 474.019531 669.472656 479.421875 674.875 479.421875 681.496094 C 479.421875 688.121094 474.019531 693.523438 467.394531 693.523438 C 460.773438 693.523438 455.371094 688.121094 455.371094 681.496094 C 455.371094 674.875 460.773438 669.472656 467.394531 669.472656 Z M 431.320312 681.496094 C 431.320312 701.414062 447.480469 717.570312 467.394531 717.570312 C 487.3125 717.570312 503.472656 701.414062 503.472656 681.496094 C 503.472656 661.582031 487.3125 645.421875 467.394531 645.421875 C 447.480469 645.421875 431.320312 661.582031 431.320312 681.496094 " fill-opacity="1" fill-rule="nonzero"/><g clip-path="url(#id2)"><path fill="#ffffff" d="M 1044.597656 645.421875 C 1037.972656 645.421875 1032.570312 640.019531 1032.570312 633.398438 C 1032.570312 626.773438 1037.972656 621.371094 1044.597656 621.371094 C 1051.21875 621.371094 1056.621094 626.773438 1056.621094 633.398438 C 1056.621094 640.019531 1051.21875 645.421875 1044.597656 645.421875 Z M 1044.597656 597.320312 C 1028.953125 597.320312 1015.707031 607.421875 1010.730469 621.371094 L 953.375 621.371094 L 919.882812 587.878906 C 915.140625 583.183594 907.53125 583.183594 902.878906 587.878906 C 898.183594 592.53125 898.183594 600.140625 902.878906 604.882812 L 939.894531 641.898438 C 942.148438 644.152344 945.203125 645.421875 948.394531 645.421875 L 1010.730469 645.421875 C 1015.707031 659.371094 1028.953125 669.472656 1044.597656 669.472656 C 1064.511719 669.472656 1080.671875 653.3125 1080.671875 633.398438 C 1080.671875 613.480469 1064.511719 597.320312 1044.597656 597.320312 " fill-opacity="1" fill-rule="nonzero"/></g><g clip-path="url(#id3)"><path fill="#ff8400" d="M 719.921875 140.371094 C 713.296875 140.371094 707.894531 134.96875 707.894531 128.347656 C 707.894531 121.722656 713.296875 116.320312 719.921875 116.320312 C 726.542969 116.320312 731.945312 121.722656 731.945312 128.347656 C 731.945312 134.96875 726.542969 140.371094 719.921875 140.371094 Z M 563.597656 392.898438 C 563.597656 306.703125 633.726562 236.570312 719.921875 236.570312 C 727.8125 236.570312 736.175781 237.324219 745.472656 238.875 C 752.050781 239.90625 758.203125 235.492188 759.285156 228.960938 C 760.363281 222.386719 755.949219 216.183594 749.375 215.105469 C 743.265625 214.117188 737.535156 213.507812 731.945312 213.085938 L 731.945312 162.214844 C 745.898438 157.234375 755.996094 143.988281 755.996094 128.347656 C 755.996094 108.429688 739.835938 92.273438 719.921875 92.273438 C 700.003906 92.273438 683.847656 108.429688 683.847656 128.347656 C 683.847656 143.988281 693.945312 157.234375 707.894531 162.214844 L 707.894531 213.132812 C 689.15625 214.402344 671.257812 218.441406 654.488281 224.96875 L 635.746094 196.878906 L 635.746094 174.238281 C 649.699219 169.257812 659.796875 156.011719 659.796875 140.371094 C 659.796875 123.132812 647.628906 108.710938 631.472656 105.1875 C 659.328125 81.65625 694.792969 68.222656 731.945312 68.222656 C 744.394531 68.222656 756.796875 69.726562 768.867188 72.683594 C 768.351562 75.125 768.019531 77.664062 768.019531 80.246094 C 768.019531 95.886719 778.121094 109.132812 792.070312 114.113281 L 792.070312 164.421875 C 792.070312 168.976562 794.65625 173.160156 798.695312 175.179688 L 816.121094 183.867188 L 816.121094 240.609375 C 810.484375 237.042969 804.660156 233.707031 798.507812 230.746094 C 792.589844 227.835938 785.355469 230.277344 782.441406 236.289062 C 779.578125 242.253906 782.066406 249.441406 788.03125 252.355469 C 842.425781 278.800781 876.246094 332.628906 876.246094 392.898438 C 876.246094 479.089844 806.117188 549.222656 719.921875 549.222656 C 633.726562 549.222656 563.597656 479.089844 563.597656 392.898438 Z M 578.535156 224.921875 L 539.546875 215.152344 L 539.546875 186.265625 C 553.496094 181.285156 563.597656 168.039062 563.597656 152.398438 C 563.597656 150.28125 563.316406 148.261719 562.984375 146.242188 C 570.925781 143.707031 579.238281 142.109375 587.742188 141.3125 C 588.117188 156.53125 598.027344 169.355469 611.695312 174.238281 L 611.695312 200.496094 C 611.695312 202.890625 612.402344 205.195312 613.714844 207.167969 L 632.457031 235.257812 C 615.640625 244.652344 600.609375 256.675781 587.648438 270.671875 L 587.648438 236.570312 C 587.648438 231.027344 583.890625 226.238281 578.535156 224.921875 Z M 527.523438 140.371094 C 534.144531 140.371094 539.546875 145.773438 539.546875 152.398438 C 539.546875 159.019531 534.144531 164.421875 527.523438 164.421875 C 520.898438 164.421875 515.496094 159.019531 515.496094 152.398438 C 515.496094 145.773438 520.898438 140.371094 527.523438 140.371094 Z M 623.722656 152.398438 C 617.097656 152.398438 611.695312 146.996094 611.695312 140.371094 C 611.695312 133.75 617.097656 128.347656 623.722656 128.347656 C 630.34375 128.347656 635.746094 133.75 635.746094 140.371094 C 635.746094 146.996094 630.34375 152.398438 623.722656 152.398438 Z M 804.097656 68.222656 C 810.71875 68.222656 816.121094 73.625 816.121094 80.246094 C 816.121094 86.871094 810.71875 92.273438 804.097656 92.273438 C 797.472656 92.273438 792.070312 86.871094 792.070312 80.246094 C 792.070312 73.625 797.472656 68.222656 804.097656 68.222656 Z M 840.171875 741.621094 C 833.546875 741.621094 828.144531 736.21875 828.144531 729.597656 C 828.144531 722.972656 833.546875 717.570312 840.171875 717.570312 C 846.792969 717.570312 852.195312 722.972656 852.195312 729.597656 C 852.195312 736.21875 846.792969 741.621094 840.171875 741.621094 Z M 671.820312 717.570312 C 665.199219 717.570312 659.796875 712.167969 659.796875 705.546875 C 659.796875 698.921875 665.199219 693.523438 671.820312 693.523438 C 678.445312 693.523438 683.847656 698.921875 683.847656 705.546875 C 683.847656 712.167969 678.445312 717.570312 671.820312 717.570312 Z M 563.597656 741.621094 C 556.972656 741.621094 551.570312 736.21875 551.570312 729.597656 C 551.570312 722.972656 556.972656 717.570312 563.597656 717.570312 C 570.21875 717.570312 575.621094 722.972656 575.621094 729.597656 C 575.621094 736.21875 570.21875 741.621094 563.597656 741.621094 Z M 395.246094 501.121094 C 388.625 501.121094 383.222656 495.71875 383.222656 489.097656 C 383.222656 482.472656 388.625 477.070312 395.246094 477.070312 C 401.871094 477.070312 407.273438 482.472656 407.273438 489.097656 C 407.273438 495.71875 401.871094 501.121094 395.246094 501.121094 Z M 467.398438 308.722656 C 460.773438 308.722656 455.371094 303.320312 455.371094 296.695312 C 455.371094 290.074219 460.773438 284.671875 467.398438 284.671875 C 474.019531 284.671875 479.421875 290.074219 479.421875 296.695312 C 479.421875 303.320312 474.019531 308.722656 467.398438 308.722656 Z M 972.445312 248.597656 C 979.070312 248.597656 984.472656 254 984.472656 260.621094 C 984.472656 267.246094 979.070312 272.648438 972.445312 272.648438 C 965.824219 272.648438 960.421875 267.246094 960.421875 260.621094 C 960.421875 254 965.824219 248.597656 972.445312 248.597656 Z M 1020.546875 513.148438 C 1027.167969 513.148438 1032.570312 518.546875 1032.570312 525.171875 C 1032.570312 531.792969 1027.167969 537.195312 1020.546875 537.195312 C 1013.921875 537.195312 1008.519531 531.792969 1008.519531 525.171875 C 1008.519531 518.546875 1013.921875 513.148438 1020.546875 513.148438 Z M 849.753906 517.796875 C 858.207031 509.011719 865.675781 499.382812 872.253906 489.097656 L 916.925781 489.097656 L 937.640625 530.574219 C 939.660156 534.613281 943.839844 537.195312 948.394531 537.195312 L 986.679688 537.195312 C 991.660156 551.148438 1004.90625 561.246094 1020.546875 561.246094 C 1040.460938 561.246094 1056.621094 545.089844 1056.621094 525.171875 C 1056.621094 505.253906 1040.460938 489.097656 1020.546875 489.097656 C 1004.90625 489.097656 991.660156 499.195312 986.679688 513.148438 L 955.816406 513.148438 L 935.101562 471.667969 C 933.082031 467.628906 928.902344 465.046875 924.347656 465.046875 L 885.125 465.046875 C 893.390625 446.257812 898.371094 425.777344 899.734375 404.265625 C 903.960938 404.6875 908.1875 404.921875 912.320312 404.921875 C 991.894531 404.921875 1056.621094 340.191406 1056.621094 260.621094 C 1056.621094 209.65625 1029.332031 161.933594 985.410156 136.144531 C 979.679688 132.761719 972.304688 134.6875 968.921875 140.417969 C 965.542969 146.148438 967.46875 153.523438 973.199219 156.859375 C 1009.835938 178.371094 1032.570312 218.160156 1032.570312 260.621094 C 1032.570312 326.945312 978.648438 380.871094 912.320312 380.871094 C 908.234375 380.871094 904.054688 380.542969 899.875 380.121094 C 898.417969 359.265625 893.390625 339.253906 885.3125 320.746094 L 888.269531 320.746094 C 892.828125 320.746094 897.007812 318.164062 899.027344 314.125 L 919.742188 272.648438 L 938.578125 272.648438 C 943.558594 286.597656 956.804688 296.695312 972.445312 296.695312 C 992.363281 296.695312 1008.519531 280.539062 1008.519531 260.621094 C 1008.519531 240.707031 992.363281 224.546875 972.445312 224.546875 C 956.804688 224.546875 943.558594 234.644531 938.578125 248.597656 L 912.320312 248.597656 C 907.765625 248.597656 903.585938 251.179688 901.566406 255.21875 L 880.851562 296.695312 L 872.628906 296.695312 C 863.703125 282.605469 852.808594 269.78125 840.171875 258.554688 L 840.171875 176.445312 C 840.171875 171.890625 837.589844 167.710938 833.546875 165.691406 L 816.121094 157 L 816.121094 114.113281 C 821.898438 112.046875 826.972656 108.570312 830.964844 104.0625 C 843.742188 114.582031 854.78125 126.75 863.5625 140.558594 C 865.820312 144.128906 869.71875 146.148438 873.710938 146.148438 C 874.882812 146.148438 876.058594 145.960938 877.234375 145.632812 C 895.128906 140.183594 914.199219 139.007812 931.957031 142.015625 C 938.578125 143.144531 944.734375 138.679688 945.8125 132.152344 C 946.941406 125.621094 942.523438 119.421875 935.996094 118.292969 C 917.394531 115.148438 897.664062 115.804688 878.875 120.265625 C 868.214844 105.1875 855.15625 91.894531 840.125 80.574219 C 840.125 80.480469 840.171875 80.386719 840.171875 80.246094 C 840.171875 60.332031 824.011719 44.171875 804.097656 44.171875 C 795.96875 44.171875 788.5 46.988281 782.488281 51.546875 C 766.046875 46.753906 749.089844 44.171875 731.945312 44.171875 C 674.921875 44.171875 621.277344 71.320312 587.222656 117.074219 C 574.636719 118.152344 562.46875 120.878906 550.820312 125.058594 C 544.480469 119.703125 536.445312 116.320312 527.523438 116.320312 C 507.605469 116.320312 491.445312 132.480469 491.445312 152.398438 C 491.445312 156.34375 492.246094 160.101562 493.417969 163.671875 C 486.042969 171.703125 479.375 180.296875 474.019531 189.878906 C 421.785156 198.289062 383.222656 243.148438 383.222656 296.695312 C 383.222656 356.351562 431.792969 404.921875 491.445312 404.921875 C 496.472656 404.921875 501.546875 404.546875 506.523438 403.839844 C 513.101562 402.902344 517.65625 396.84375 516.71875 390.265625 C 515.777344 383.691406 509.625 379.179688 503.097656 380.027344 C 499.289062 380.589844 495.34375 380.871094 491.445312 380.871094 C 445.039062 380.871094 407.273438 343.105469 407.273438 296.695312 C 407.273438 253.339844 439.777344 217.3125 482.898438 212.945312 C 486.984375 212.523438 490.601562 210.078125 492.433594 206.414062 C 496.753906 197.867188 502.0625 189.976562 508.214844 182.789062 C 510.46875 184.195312 512.914062 185.324219 515.496094 186.265625 L 515.496094 224.546875 C 515.496094 230.089844 519.253906 234.878906 524.609375 236.195312 L 563.597656 245.964844 L 563.597656 303.273438 C 562.5625 305.105469 561.484375 306.890625 560.496094 308.722656 L 544.527344 308.722656 L 524 288.195312 C 521.742188 285.941406 518.691406 284.671875 515.496094 284.671875 L 501.265625 284.671875 C 496.285156 270.71875 483.039062 260.621094 467.398438 260.621094 C 447.480469 260.621094 431.320312 276.78125 431.320312 296.695312 C 431.320312 316.613281 447.480469 332.773438 467.398438 332.773438 C 483.039062 332.773438 496.285156 322.671875 501.265625 308.722656 L 510.515625 308.722656 L 531.042969 329.25 C 533.300781 331.503906 536.351562 332.773438 539.546875 332.773438 L 550.070312 332.773438 C 543.398438 351.609375 539.546875 371.804688 539.546875 392.898438 C 539.546875 405.25 540.816406 417.324219 543.164062 428.972656 L 503.472656 428.972656 C 498.914062 428.972656 494.734375 431.554688 492.714844 435.59375 L 472 477.070312 L 429.113281 477.070312 C 424.132812 463.121094 410.886719 453.023438 395.246094 453.023438 C 375.332031 453.023438 359.171875 469.179688 359.171875 489.097656 C 359.171875 509.011719 375.332031 525.171875 395.246094 525.171875 C 410.886719 525.171875 424.132812 515.074219 429.113281 501.121094 L 479.421875 501.121094 C 483.976562 501.121094 488.160156 498.539062 490.179688 494.5 L 510.894531 453.023438 L 550.070312 453.023438 C 553.875 463.683594 558.570312 473.878906 564.207031 483.507812 L 458.894531 588.820312 C 456.640625 591.074219 455.371094 594.128906 455.371094 597.320312 L 455.371094 645.421875 L 479.421875 645.421875 L 479.421875 602.300781 L 577.96875 503.753906 C 587.695312 516.246094 599.0625 527.332031 611.695312 536.867188 L 611.695312 589.195312 L 559.132812 610.191406 C 554.578125 612.023438 551.570312 616.4375 551.570312 621.371094 L 551.570312 695.730469 C 537.621094 700.707031 527.523438 713.953125 527.523438 729.597656 C 527.523438 749.511719 543.679688 765.671875 563.597656 765.671875 C 583.511719 765.671875 599.671875 749.511719 599.671875 729.597656 C 599.671875 713.953125 589.574219 700.707031 575.621094 695.730469 L 575.621094 629.496094 L 628.183594 608.5 C 632.742188 606.667969 635.746094 602.253906 635.746094 597.320312 L 635.746094 552.320312 C 657.542969 563.878906 681.96875 570.921875 707.894531 572.660156 L 707.894531 601.925781 L 666.417969 622.640625 C 662.378906 624.660156 659.796875 628.839844 659.796875 633.398438 L 659.796875 671.679688 C 645.84375 676.660156 635.746094 689.90625 635.746094 705.546875 C 635.746094 725.464844 651.90625 741.621094 671.820312 741.621094 C 691.738281 741.621094 707.894531 725.464844 707.894531 705.546875 C 707.894531 689.90625 697.796875 676.660156 683.847656 671.679688 L 683.847656 640.816406 L 725.324219 620.101562 C 729.363281 618.082031 731.945312 613.902344 731.945312 609.347656 L 731.945312 572.660156 C 748.152344 571.582031 763.792969 568.386719 778.542969 563.3125 L 780.046875 645.65625 C 780.140625 650.117188 782.675781 654.160156 786.667969 656.179688 L 828.144531 676.894531 L 828.144531 695.730469 C 814.195312 700.707031 804.097656 713.953125 804.097656 729.597656 C 804.097656 749.511719 820.253906 765.671875 840.171875 765.671875 C 860.085938 765.671875 876.246094 749.511719 876.246094 729.597656 C 876.246094 713.953125 866.148438 700.707031 852.195312 695.730469 L 852.195312 669.472656 C 852.195312 664.914062 849.613281 660.734375 845.574219 658.714844 L 803.957031 637.90625 L 802.40625 553.121094 C 812.925781 547.671875 822.792969 541.28125 832 534.003906 L 868.824219 570.828125 C 871.171875 573.175781 874.273438 574.351562 877.328125 574.351562 C 880.378906 574.351562 883.480469 573.175781 885.828125 570.828125 C 890.527344 566.132812 890.527344 558.523438 885.828125 553.824219 L 849.753906 517.796875 " fill-opacity="1" fill-rule="nonzero"/></g><path fill="#ff8400" d="M 731.945312 501.121094 L 731.945312 477.070312 L 755.996094 477.070312 L 755.996094 501.121094 C 755.996094 507.746094 761.398438 513.148438 768.019531 513.148438 C 774.644531 513.148438 780.046875 507.746094 780.046875 501.121094 L 780.046875 477.070312 L 792.070312 477.070312 C 798.695312 477.070312 804.097656 471.667969 804.097656 465.046875 L 804.097656 453.023438 L 828.144531 453.023438 C 834.769531 453.023438 840.171875 447.621094 840.171875 440.996094 C 840.171875 434.375 834.769531 428.972656 828.144531 428.972656 L 804.097656 428.972656 L 804.097656 404.921875 L 828.144531 404.921875 C 834.769531 404.921875 840.171875 399.519531 840.171875 392.898438 C 840.171875 386.273438 834.769531 380.871094 828.144531 380.871094 L 804.097656 380.871094 L 804.097656 356.820312 L 828.144531 356.820312 C 834.769531 356.820312 840.171875 351.417969 840.171875 344.796875 C 840.171875 338.171875 834.769531 332.773438 828.144531 332.773438 L 804.097656 332.773438 L 804.097656 320.746094 C 804.097656 314.125 798.695312 308.722656 792.070312 308.722656 L 780.046875 308.722656 L 780.046875 284.671875 C 780.046875 278.046875 774.644531 272.648438 768.019531 272.648438 C 761.398438 272.648438 755.996094 278.046875 755.996094 284.671875 L 755.996094 308.722656 L 731.945312 308.722656 L 731.945312 284.671875 C 731.945312 278.046875 726.542969 272.648438 719.921875 272.648438 C 713.296875 272.648438 707.894531 278.046875 707.894531 284.671875 L 707.894531 308.722656 L 683.847656 308.722656 L 683.847656 284.671875 C 683.847656 278.046875 678.445312 272.648438 671.820312 272.648438 C 665.199219 272.648438 659.796875 278.046875 659.796875 284.671875 L 659.796875 308.722656 L 647.773438 308.722656 C 641.148438 308.722656 635.746094 314.125 635.746094 320.746094 L 635.746094 332.773438 L 611.695312 332.773438 C 605.074219 332.773438 599.671875 338.171875 599.671875 344.796875 C 599.671875 351.417969 605.074219 356.820312 611.695312 356.820312 L 635.746094 356.820312 L 635.746094 380.871094 L 611.695312 380.871094 C 605.074219 380.871094 599.671875 386.273438 599.671875 392.898438 C 599.671875 399.519531 605.074219 404.921875 611.695312 404.921875 L 635.746094 404.921875 L 635.746094 428.972656 L 611.695312 428.972656 C 605.074219 428.972656 599.671875 434.375 599.671875 440.996094 C 599.671875 447.621094 605.074219 453.023438 611.695312 453.023438 L 635.746094 453.023438 L 635.746094 465.046875 C 635.746094 471.667969 641.148438 477.070312 647.773438 477.070312 L 659.796875 477.070312 L 659.796875 501.121094 C 659.796875 507.746094 665.199219 513.148438 671.820312 513.148438 C 678.445312 513.148438 683.847656 507.746094 683.847656 501.121094 L 683.847656 465.046875 C 683.847656 458.421875 678.445312 453.023438 671.820312 453.023438 L 659.796875 453.023438 L 659.796875 332.773438 L 780.046875 332.773438 L 780.046875 453.023438 L 719.921875 453.023438 C 713.296875 453.023438 707.894531 458.421875 707.894531 465.046875 L 707.894531 501.121094 C 707.894531 507.746094 713.296875 513.148438 719.921875 513.148438 C 726.542969 513.148438 731.945312 507.746094 731.945312 501.121094 " fill-opacity="1" fill-rule="nonzero"/><path fill="#ff8400" d="M 731.945312 404.921875 L 707.894531 404.921875 L 707.894531 380.871094 L 731.945312 380.871094 Z M 755.996094 416.945312 L 755.996094 368.847656 C 755.996094 362.222656 750.59375 356.820312 743.972656 356.820312 L 695.871094 356.820312 C 689.25 356.820312 683.847656 362.222656 683.847656 368.847656 L 683.847656 416.945312 C 683.847656 423.570312 689.25 428.972656 695.871094 428.972656 L 743.972656 428.972656 C 750.59375 428.972656 755.996094 423.570312 755.996094 416.945312 " fill-opacity="1" fill-rule="nonzero"/></svg>