<svg xmlns="http://www.w3.org/2000/svg" xmlns:xlink="http://www.w3.org/1999/xlink" width="1920" zoomAndPan="magnify" viewBox="0 0 1440 809.999993" height="1080" preserveAspectRatio="xMidYMid meet" version="1.0"><defs><filter x="0%" y="0%" width="100%" height="100%" id="id1"><feColorMatrix values="0 0 0 0 1 0 0 0 0 1 0 0 0 0 1 0 0 0 1 0" color-interpolation-filters="sRGB"/></filter><mask id="id2"><g filter="url(#id1)"><rect x="-144" width="1728" fill="#000000" y="-80.999999" height="971.999992" fill-opacity="0.4471"/></g></mask><clipPath id="id3"><path d="M 429.550781 528.570312 L 478.925781 528.570312 L 478.925781 577.894531 L 429.550781 577.894531 Z M 429.550781 528.570312 " clip-rule="nonzero"/></clipPath><clipPath id="id4"><path d="M 97 0.394531 L 147 0.394531 L 147 50 L 97 50 Z M 97 0.394531 " clip-rule="nonzero"/></clipPath><clipPath id="id5"><path d="M 0.117188 453 L 50 453 L 50 503 L 0.117188 503 Z M 0.117188 453 " clip-rule="nonzero"/></clipPath><clipPath id="id6"><path d="M 0.117188 75 L 50 75 L 50 125 L 0.117188 125 Z M 0.117188 75 " clip-rule="nonzero"/></clipPath><clipPath id="id7"><path d="M 97.269531 528.570312 L 146.832031 528.570312 L 146.832031 577.894531 L 97.269531 577.894531 Z M 97.269531 528.570312 " clip-rule="nonzero"/></clipPath><clipPath id="id8"><path d="M 429 0.394531 L 479 0.394531 L 479 50 L 429 50 Z M 429 0.394531 " clip-rule="nonzero"/></clipPath><clipPath id="id9"><path d="M 526.632812 453.378906 L 576.042969 453.378906 L 576.042969 502.761719 L 526.632812 502.761719 Z M 526.632812 453.378906 " clip-rule="nonzero"/></clipPath><clipPath id="id10"><path d="M 526.632812 75.582031 L 576.042969 75.582031 L 576.042969 124.964844 L 526.632812 124.964844 Z M 526.632812 75.582031 " clip-rule="nonzero"/></clipPath><clipPath id="id11"><rect x="0" width="577" y="0" height="579"/></clipPath></defs><g mask="url(#id2)"><g transform="matrix(1, 0, 0, 1, 432, 116)"><g clip-path="url(#id11)"><path fill="#003e52" d="M 462.070312 236.144531 L 114.15625 236.144531 C 113.515625 236.144531 113 236.667969 113 237.304688 L 113 340.992188 C 113 341.628906 113.515625 342.148438 114.15625 342.148438 L 462.070312 342.148438 C 462.710938 342.148438 463.226562 341.628906 463.226562 340.992188 L 463.226562 237.304688 C 463.226562 236.667969 462.710938 236.144531 462.070312 236.144531 " fill-opacity="1" fill-rule="nonzero"/><g clip-path="url(#id3)"><path fill="#003e52" d="M 454.195312 542.394531 C 448.199219 542.394531 443.320312 547.273438 443.320312 553.269531 C 443.320312 559.265625 448.199219 564.144531 454.195312 564.144531 C 460.191406 564.144531 465.074219 559.265625 465.074219 553.269531 C 465.074219 547.273438 460.191406 542.394531 454.195312 542.394531 Z M 454.195312 577.898438 C 440.617188 577.898438 429.570312 566.851562 429.570312 553.269531 C 429.570312 539.691406 440.617188 528.644531 454.195312 528.644531 C 467.773438 528.644531 478.820312 539.691406 478.820312 553.269531 C 478.820312 566.851562 467.773438 577.898438 454.195312 577.898438 " fill-opacity="1" fill-rule="nonzero"/></g><path fill="#003e52" d="M 473.539062 340.992188 C 473.539062 347.316406 468.390625 352.460938 462.070312 352.460938 L 114.15625 352.460938 C 107.828125 352.460938 102.6875 347.316406 102.6875 340.992188 L 102.6875 237.304688 C 102.6875 230.980469 107.828125 225.835938 114.15625 225.835938 L 462.070312 225.835938 C 468.390625 225.835938 473.539062 230.980469 473.539062 237.304688 Z M 498.679688 183.921875 L 77.546875 183.921875 C 68.300781 183.921875 60.78125 191.445312 60.78125 200.6875 L 60.78125 377.605469 C 60.78125 386.847656 68.300781 394.371094 77.546875 394.371094 L 498.679688 394.371094 C 507.925781 394.371094 515.445312 386.847656 515.445312 377.605469 L 515.445312 200.6875 C 515.445312 191.445312 507.925781 183.921875 498.679688 183.921875 " fill-opacity="1" fill-rule="nonzero"/><path fill="#003e52" d="M 288.113281 56.628906 C 282.117188 56.628906 277.238281 61.507812 277.238281 67.507812 C 277.238281 73.503906 282.117188 78.382812 288.113281 78.382812 C 294.109375 78.382812 298.988281 73.503906 298.988281 67.507812 C 298.988281 61.507812 294.109375 56.628906 288.113281 56.628906 Z M 288.113281 92.132812 C 274.535156 92.132812 263.488281 81.085938 263.488281 67.507812 C 263.488281 53.925781 274.535156 42.875 288.113281 42.875 C 301.691406 42.875 312.738281 53.925781 312.738281 67.507812 C 312.738281 81.085938 301.691406 92.132812 288.113281 92.132812 " fill-opacity="1" fill-rule="nonzero"/><g clip-path="url(#id4)"><path fill="#003e52" d="M 122.027344 14.148438 C 116.03125 14.148438 111.152344 19.027344 111.152344 25.027344 C 111.152344 31.027344 116.03125 35.90625 122.027344 35.90625 C 128.027344 35.90625 132.902344 31.027344 132.902344 25.027344 C 132.902344 19.027344 128.027344 14.148438 122.027344 14.148438 Z M 122.027344 49.65625 C 108.449219 49.65625 97.402344 38.605469 97.402344 25.027344 C 97.402344 11.445312 108.449219 0.394531 122.027344 0.394531 C 135.609375 0.394531 146.652344 11.445312 146.652344 25.027344 C 146.652344 38.605469 135.609375 49.65625 122.027344 49.65625 " fill-opacity="1" fill-rule="nonzero"/></g><g clip-path="url(#id5)"><path fill="#003e52" d="M 24.8125 467.191406 C 18.8125 467.191406 13.933594 472.070312 13.933594 478.070312 C 13.933594 484.066406 18.8125 488.941406 24.8125 488.941406 C 30.808594 488.941406 35.6875 484.066406 35.6875 478.070312 C 35.6875 472.070312 30.808594 467.191406 24.8125 467.191406 Z M 24.8125 502.695312 C 11.230469 502.695312 0.183594 491.648438 0.183594 478.070312 C 0.183594 464.488281 11.230469 453.441406 24.8125 453.441406 C 38.390625 453.441406 49.4375 464.488281 49.4375 478.070312 C 49.4375 491.648438 38.390625 502.695312 24.8125 502.695312 " fill-opacity="1" fill-rule="nonzero"/></g><g clip-path="url(#id6)"><path fill="#003e52" d="M 24.8125 89.351562 C 18.8125 89.351562 13.933594 94.226562 13.933594 100.226562 C 13.933594 106.226562 18.8125 111.101562 24.8125 111.101562 C 30.808594 111.101562 35.6875 106.226562 35.6875 100.226562 C 35.6875 94.226562 30.808594 89.351562 24.8125 89.351562 Z M 24.8125 124.855469 C 11.230469 124.855469 0.183594 113.808594 0.183594 100.226562 C 0.183594 86.648438 11.230469 75.597656 24.8125 75.597656 C 38.390625 75.597656 49.4375 86.648438 49.4375 100.226562 C 49.4375 113.808594 38.390625 124.855469 24.8125 124.855469 " fill-opacity="1" fill-rule="nonzero"/></g><path fill="#003e52" d="M 288.113281 499.914062 C 282.117188 499.914062 277.238281 504.789062 277.238281 510.789062 C 277.238281 516.789062 282.117188 521.667969 288.113281 521.667969 C 294.109375 521.667969 298.988281 516.789062 298.988281 510.789062 C 298.988281 504.789062 294.109375 499.914062 288.113281 499.914062 Z M 288.113281 535.421875 C 274.535156 535.421875 263.488281 524.371094 263.488281 510.789062 C 263.488281 497.210938 274.535156 486.160156 288.113281 486.160156 C 301.691406 486.160156 312.738281 497.210938 312.738281 510.789062 C 312.738281 524.371094 301.691406 535.421875 288.113281 535.421875 " fill-opacity="1" fill-rule="nonzero"/><g clip-path="url(#id7)"><path fill="#003e52" d="M 122.027344 542.394531 C 116.03125 542.394531 111.152344 547.273438 111.152344 553.269531 C 111.152344 559.265625 116.03125 564.144531 122.027344 564.144531 C 128.027344 564.144531 132.902344 559.265625 132.902344 553.269531 C 132.902344 547.273438 128.027344 542.394531 122.027344 542.394531 Z M 122.027344 577.898438 C 108.449219 577.898438 97.402344 566.851562 97.402344 553.269531 C 97.402344 539.691406 108.449219 528.640625 122.027344 528.640625 C 135.609375 528.640625 146.652344 539.691406 146.652344 553.269531 C 146.652344 566.851562 135.609375 577.898438 122.027344 577.898438 " fill-opacity="1" fill-rule="nonzero"/></g><g clip-path="url(#id8)"><path fill="#003e52" d="M 454.195312 14.148438 C 448.199219 14.148438 443.324219 19.027344 443.324219 25.027344 C 443.324219 31.027344 448.199219 35.90625 454.195312 35.90625 C 460.191406 35.90625 465.070312 31.027344 465.070312 25.027344 C 465.070312 19.027344 460.191406 14.148438 454.195312 14.148438 Z M 454.195312 49.65625 C 440.617188 49.65625 429.570312 38.605469 429.570312 25.027344 C 429.570312 11.445312 440.617188 0.394531 454.195312 0.394531 C 467.773438 0.394531 478.824219 11.445312 478.824219 25.027344 C 478.824219 38.605469 467.773438 49.65625 454.195312 49.65625 " fill-opacity="1" fill-rule="nonzero"/></g><g clip-path="url(#id9)"><path fill="#003e52" d="M 551.417969 467.191406 C 545.417969 467.191406 540.542969 472.070312 540.542969 478.070312 C 540.542969 484.066406 545.417969 488.941406 551.417969 488.941406 C 557.414062 488.941406 562.292969 484.066406 562.292969 478.070312 C 562.292969 472.070312 557.414062 467.191406 551.417969 467.191406 Z M 551.417969 502.695312 C 537.839844 502.695312 526.789062 491.648438 526.789062 478.070312 C 526.789062 464.488281 537.839844 453.441406 551.417969 453.441406 C 564.996094 453.441406 576.042969 464.488281 576.042969 478.070312 C 576.042969 491.648438 564.996094 502.695312 551.417969 502.695312 " fill-opacity="1" fill-rule="nonzero"/></g><path fill="#003e52" d="M 298.425781 170.175781 L 298.425781 105.246094 C 298.425781 103.085938 296.472656 101.503906 294.351562 101.890625 C 292.324219 102.257812 290.242188 102.449219 288.113281 102.449219 C 285.984375 102.449219 283.898438 102.257812 281.875 101.890625 C 279.75 101.503906 277.796875 103.085938 277.796875 105.246094 L 277.796875 170.175781 C 277.796875 172.070312 279.339844 173.613281 281.238281 173.613281 L 294.988281 173.613281 C 296.882812 173.613281 298.425781 172.070312 298.425781 170.175781 " fill-opacity="1" fill-rule="nonzero"/><path fill="#003e52" d="M 388.675781 35.339844 L 416.464844 35.339844 C 418.621094 35.339844 420.207031 33.386719 419.820312 31.265625 C 419.449219 29.242188 419.257812 27.15625 419.257812 25.027344 C 419.257812 22.898438 419.449219 20.8125 419.820312 18.789062 C 420.207031 16.664062 418.621094 14.710938 416.464844 14.710938 L 378.363281 14.710938 C 372.664062 14.710938 368.050781 19.328125 368.050781 25.027344 L 368.050781 170.171875 C 368.050781 172.074219 369.589844 173.609375 371.488281 173.609375 L 385.238281 173.609375 C 387.136719 173.609375 388.675781 172.074219 388.675781 170.171875 L 388.675781 35.339844 " fill-opacity="1" fill-rule="nonzero"/><path fill="#003e52" d="M 468.609375 89.914062 C 462.914062 89.914062 458.292969 94.53125 458.292969 100.226562 L 458.292969 170.171875 C 458.292969 172.070312 459.832031 173.609375 461.734375 173.609375 L 475.484375 173.609375 C 477.382812 173.609375 478.925781 172.070312 478.925781 170.171875 L 478.925781 110.542969 L 513.679688 110.542969 C 515.835938 110.542969 517.421875 108.589844 517.035156 106.464844 C 516.664062 104.441406 516.476562 102.355469 516.476562 100.226562 C 516.476562 98.097656 516.664062 96.015625 517.035156 93.992188 C 517.421875 91.867188 515.835938 89.914062 513.679688 89.914062 L 468.609375 89.914062 " fill-opacity="1" fill-rule="nonzero"/><path fill="#003e52" d="M 516.476562 478.070312 C 516.476562 475.941406 516.664062 473.859375 517.035156 471.832031 C 517.421875 469.710938 515.835938 467.757812 513.679688 467.757812 L 478.925781 467.757812 L 478.925781 408.121094 C 478.925781 406.226562 477.382812 404.683594 475.484375 404.683594 L 461.734375 404.683594 C 459.832031 404.683594 458.292969 406.226562 458.292969 408.121094 L 458.292969 478.070312 C 458.292969 483.765625 462.914062 488.382812 468.609375 488.382812 L 513.679688 488.382812 C 515.835938 488.382812 517.421875 486.433594 517.035156 484.308594 C 516.664062 482.285156 516.476562 480.199219 516.476562 478.070312 " fill-opacity="1" fill-rule="nonzero"/><path fill="#003e52" d="M 277.800781 408.121094 L 277.800781 473.054688 C 277.800781 475.210938 279.753906 476.792969 281.875 476.40625 C 283.898438 476.039062 285.984375 475.847656 288.113281 475.847656 C 290.242188 475.847656 292.324219 476.039062 294.351562 476.40625 C 296.472656 476.792969 298.425781 475.210938 298.425781 473.054688 L 298.425781 408.121094 C 298.425781 406.226562 296.886719 404.683594 294.988281 404.683594 L 281.238281 404.683594 C 279.339844 404.683594 277.800781 406.226562 277.800781 408.121094 " fill-opacity="1" fill-rule="nonzero"/><path fill="#003e52" d="M 187.550781 542.957031 L 159.761719 542.957031 C 157.605469 542.957031 156.023438 544.910156 156.40625 547.035156 C 156.773438 549.058594 156.96875 551.144531 156.96875 553.273438 C 156.96875 555.402344 156.773438 557.484375 156.40625 559.511719 C 156.023438 561.632812 157.605469 563.585938 159.761719 563.585938 L 197.863281 563.585938 C 203.558594 563.585938 208.175781 558.96875 208.175781 553.273438 L 208.175781 408.121094 C 208.175781 406.226562 206.636719 404.683594 204.738281 404.683594 L 190.988281 404.683594 C 189.089844 404.683594 187.550781 406.226562 187.550781 408.121094 L 187.550781 542.957031 " fill-opacity="1" fill-rule="nonzero"/><path fill="#003e52" d="M 197.863281 14.710938 L 159.761719 14.710938 C 157.605469 14.710938 156.023438 16.664062 156.40625 18.789062 C 156.773438 20.8125 156.96875 22.898438 156.96875 25.027344 C 156.96875 27.15625 156.773438 29.242188 156.40625 31.265625 C 156.023438 33.386719 157.605469 35.339844 159.761719 35.339844 L 187.550781 35.339844 L 187.550781 170.171875 C 187.550781 172.074219 189.089844 173.609375 190.988281 173.609375 L 204.738281 173.609375 C 206.636719 173.609375 208.175781 172.074219 208.175781 170.171875 L 208.175781 25.027344 C 208.175781 19.328125 203.558594 14.710938 197.863281 14.710938 " fill-opacity="1" fill-rule="nonzero"/><path fill="#003e52" d="M 419.261719 553.273438 C 419.261719 551.144531 419.453125 549.058594 419.820312 547.035156 C 420.207031 544.910156 418.621094 542.957031 416.464844 542.957031 L 388.675781 542.957031 L 388.675781 408.121094 C 388.675781 406.222656 387.136719 404.683594 385.238281 404.683594 L 371.488281 404.683594 C 369.589844 404.683594 368.050781 406.222656 368.050781 408.121094 L 368.050781 553.273438 C 368.050781 558.96875 372.667969 563.585938 378.363281 563.585938 L 416.464844 563.585938 C 418.621094 563.585938 420.207031 561.632812 419.820312 559.511719 C 419.453125 557.484375 419.261719 555.402344 419.261719 553.273438 " fill-opacity="1" fill-rule="nonzero"/><path fill="#003e52" d="M 59.75 100.226562 C 59.75 102.355469 59.558594 104.441406 59.191406 106.464844 C 58.804688 108.589844 60.390625 110.539062 62.546875 110.539062 L 97.304688 110.539062 L 97.304688 170.171875 C 97.304688 172.070312 98.84375 173.609375 100.742188 173.609375 L 114.492188 173.609375 C 116.390625 173.609375 117.929688 172.070312 117.929688 170.171875 L 117.929688 100.226562 C 117.929688 94.53125 113.3125 89.914062 107.617188 89.914062 L 62.546875 89.914062 C 60.390625 89.914062 58.804688 91.867188 59.191406 93.988281 C 59.558594 96.015625 59.75 98.097656 59.75 100.226562 " fill-opacity="1" fill-rule="nonzero"/><path fill="#003e52" d="M 107.617188 488.382812 C 113.3125 488.382812 117.929688 483.765625 117.929688 478.070312 L 117.929688 408.121094 C 117.929688 406.226562 116.390625 404.683594 114.492188 404.683594 L 100.742188 404.683594 C 98.84375 404.683594 97.304688 406.226562 97.304688 408.121094 L 97.304688 467.757812 L 62.546875 467.757812 C 60.386719 467.757812 58.804688 469.710938 59.191406 471.832031 C 59.558594 473.859375 59.75 475.941406 59.75 478.070312 C 59.75 480.199219 59.558594 482.285156 59.191406 484.308594 C 58.804688 486.433594 60.386719 488.382812 62.546875 488.382812 L 107.617188 488.382812 " fill-opacity="1" fill-rule="nonzero"/><g clip-path="url(#id10)"><path fill="#003e52" d="M 551.417969 89.347656 C 545.417969 89.347656 540.542969 94.226562 540.542969 100.226562 C 540.542969 106.226562 545.417969 111.105469 551.417969 111.105469 C 557.414062 111.105469 562.292969 106.226562 562.292969 100.226562 C 562.292969 94.226562 557.414062 89.347656 551.417969 89.347656 Z M 551.417969 124.855469 C 537.839844 124.855469 526.789062 113.808594 526.789062 100.226562 C 526.789062 86.644531 537.839844 75.597656 551.417969 75.597656 C 564.996094 75.597656 576.042969 86.644531 576.042969 100.226562 C 576.042969 113.808594 564.996094 124.855469 551.417969 124.855469 " fill-opacity="1" fill-rule="nonzero"/></g></g></g></g></svg>