<svg xmlns="http://www.w3.org/2000/svg" xmlns:xlink="http://www.w3.org/1999/xlink" width="1920" zoomAndPan="magnify" viewBox="0 0 1440 809.999993" height="1080" preserveAspectRatio="xMidYMid meet" version="1.0"><defs><filter x="0%" y="0%" width="100%" height="100%" id="id1"><feColorMatrix values="0 0 0 0 1 0 0 0 0 1 0 0 0 0 1 0 0 0 1 0" color-interpolation-filters="sRGB"/></filter><mask id="id2"><g filter="url(#id1)"><rect x="-144" width="1728" fill="#000000" y="-80.999999" height="971.999992" fill-opacity="0.4471"/></g></mask><clipPath id="id3"><path d="M 132 509 L 173 509 L 173 577.230469 L 132 577.230469 Z M 132 509 " clip-rule="nonzero"/></clipPath><clipPath id="id4"><path d="M 224 509 L 264 509 L 264 577.230469 L 224 577.230469 Z M 224 509 " clip-rule="nonzero"/></clipPath><clipPath id="id5"><path d="M 315 509 L 356 509 L 356 577.230469 L 315 577.230469 Z M 315 509 " clip-rule="nonzero"/></clipPath><clipPath id="id6"><path d="M 407 509 L 448 509 L 448 577.230469 L 407 577.230469 Z M 407 509 " clip-rule="nonzero"/></clipPath><clipPath id="id7"><path d="M 132 0.480469 L 173 0.480469 L 173 69 L 132 69 Z M 132 0.480469 " clip-rule="nonzero"/></clipPath><clipPath id="id8"><path d="M 224 0.480469 L 264 0.480469 L 264 69 L 224 69 Z M 224 0.480469 " clip-rule="nonzero"/></clipPath><clipPath id="id9"><path d="M 315 0.480469 L 356 0.480469 L 356 69 L 315 69 Z M 315 0.480469 " clip-rule="nonzero"/></clipPath><clipPath id="id10"><path d="M 407 0.480469 L 448 0.480469 L 448 69 L 407 69 Z M 407 0.480469 " clip-rule="nonzero"/></clipPath><clipPath id="id11"><path d="M 510 406 L 578.230469 406 L 578.230469 447 L 510 447 Z M 510 406 " clip-rule="nonzero"/></clipPath><clipPath id="id12"><path d="M 510 314 L 578.230469 314 L 578.230469 355 L 510 355 Z M 510 314 " clip-rule="nonzero"/></clipPath><clipPath id="id13"><path d="M 510 223 L 578.230469 223 L 578.230469 263 L 510 263 Z M 510 223 " clip-rule="nonzero"/></clipPath><clipPath id="id14"><path d="M 510 131 L 578.230469 131 L 578.230469 172 L 510 172 Z M 510 131 " clip-rule="nonzero"/></clipPath><clipPath id="id15"><path d="M 1.480469 406 L 70 406 L 70 447 L 1.480469 447 Z M 1.480469 406 " clip-rule="nonzero"/></clipPath><clipPath id="id16"><path d="M 1.480469 314 L 70 314 L 70 355 L 1.480469 355 Z M 1.480469 314 " clip-rule="nonzero"/></clipPath><clipPath id="id17"><path d="M 1.480469 223 L 70 223 L 70 263 L 1.480469 263 Z M 1.480469 223 " clip-rule="nonzero"/></clipPath><clipPath id="id18"><path d="M 1.480469 131 L 70 131 L 70 172 L 1.480469 172 Z M 1.480469 131 " clip-rule="nonzero"/></clipPath><clipPath id="id19"><rect x="0" width="580" y="0" height="578"/></clipPath></defs><g mask="url(#id2)"><g transform="matrix(1, 0, 0, 1, 430, 116)"><g clip-path="url(#id19)"><g clip-path="url(#id3)"><path fill="#003e52" d="M 132.324219 577.277344 L 172.269531 577.277344 L 172.269531 509.203125 L 132.324219 509.203125 L 132.324219 577.277344 " fill-opacity="1" fill-rule="nonzero"/></g><g clip-path="url(#id4)"><path fill="#003e52" d="M 224.054688 577.277344 L 264 577.277344 L 264 509.203125 L 224.054688 509.203125 L 224.054688 577.277344 " fill-opacity="1" fill-rule="nonzero"/></g><g clip-path="url(#id5)"><path fill="#003e52" d="M 315.796875 577.277344 L 355.742188 577.277344 L 355.742188 509.203125 L 315.796875 509.203125 L 315.796875 577.277344 " fill-opacity="1" fill-rule="nonzero"/></g><g clip-path="url(#id6)"><path fill="#003e52" d="M 407.523438 577.277344 L 447.46875 577.277344 L 447.46875 509.203125 L 407.523438 509.203125 L 407.523438 577.277344 " fill-opacity="1" fill-rule="nonzero"/></g><g clip-path="url(#id7)"><path fill="#003e52" d="M 172.269531 0.480469 L 132.324219 0.480469 L 132.324219 68.558594 L 172.269531 68.558594 L 172.269531 0.480469 " fill-opacity="1" fill-rule="nonzero"/></g><g clip-path="url(#id8)"><path fill="#003e52" d="M 264 0.480469 L 224.054688 0.480469 L 224.054688 68.558594 L 264 68.558594 L 264 0.480469 " fill-opacity="1" fill-rule="nonzero"/></g><g clip-path="url(#id9)"><path fill="#003e52" d="M 355.742188 0.480469 L 315.796875 0.480469 L 315.796875 68.558594 L 355.742188 68.558594 L 355.742188 0.480469 " fill-opacity="1" fill-rule="nonzero"/></g><g clip-path="url(#id10)"><path fill="#003e52" d="M 447.46875 0.480469 L 407.523438 0.480469 L 407.523438 68.558594 L 447.46875 68.558594 L 447.46875 0.480469 " fill-opacity="1" fill-rule="nonzero"/></g><path fill="#003e52" d="M 124.914062 141.179688 C 124.914062 132.433594 132.03125 125.316406 140.773438 125.316406 L 436.195312 125.316406 C 444.9375 125.316406 452.054688 132.433594 452.054688 141.179688 L 452.054688 436.597656 C 452.054688 445.34375 444.9375 452.457031 436.195312 452.457031 L 140.773438 452.457031 C 132.03125 452.457031 124.914062 445.34375 124.914062 436.597656 Z M 436.195312 85.371094 L 140.773438 85.371094 C 110.003906 85.371094 84.96875 110.40625 84.96875 141.179688 L 84.96875 436.597656 C 84.96875 467.367188 110.003906 492.402344 140.773438 492.402344 L 436.195312 492.402344 C 466.964844 492.402344 492 467.367188 492 436.597656 L 492 141.179688 C 492 110.40625 466.964844 85.371094 436.195312 85.371094 " fill-opacity="1" fill-rule="nonzero"/><g clip-path="url(#id11)"><path fill="#003e52" d="M 510.21875 446.46875 L 578.296875 446.46875 L 578.296875 406.519531 L 510.21875 406.519531 L 510.21875 446.46875 " fill-opacity="1" fill-rule="nonzero"/></g><g clip-path="url(#id12)"><path fill="#003e52" d="M 510.21875 354.726562 L 578.296875 354.726562 L 578.296875 314.78125 L 510.21875 314.78125 L 510.21875 354.726562 " fill-opacity="1" fill-rule="nonzero"/></g><g clip-path="url(#id13)"><path fill="#003e52" d="M 510.21875 262.996094 L 578.296875 262.996094 L 578.296875 223.050781 L 510.21875 223.050781 L 510.21875 262.996094 " fill-opacity="1" fill-rule="nonzero"/></g><g clip-path="url(#id14)"><path fill="#003e52" d="M 510.21875 131.304688 L 510.21875 171.253906 L 578.296875 171.253906 L 578.296875 131.304688 L 510.21875 131.304688 " fill-opacity="1" fill-rule="nonzero"/></g><g clip-path="url(#id15)"><path fill="#003e52" d="M 1.5 446.46875 L 69.578125 446.46875 L 69.578125 406.519531 L 1.5 406.519531 L 1.5 446.46875 " fill-opacity="1" fill-rule="nonzero"/></g><g clip-path="url(#id16)"><path fill="#003e52" d="M 1.5 354.726562 L 69.578125 354.726562 L 69.578125 314.78125 L 1.5 314.78125 L 1.5 354.726562 " fill-opacity="1" fill-rule="nonzero"/></g><g clip-path="url(#id17)"><path fill="#003e52" d="M 1.5 262.996094 L 69.578125 262.996094 L 69.578125 223.050781 L 1.5 223.050781 L 1.5 262.996094 " fill-opacity="1" fill-rule="nonzero"/></g><g clip-path="url(#id18)"><path fill="#003e52" d="M 1.5 171.253906 L 69.578125 171.253906 L 69.578125 131.304688 L 1.5 131.304688 L 1.5 171.253906 " fill-opacity="1" fill-rule="nonzero"/></g></g></g></g></svg>