<svg xmlns="http://www.w3.org/2000/svg" xmlns:xlink="http://www.w3.org/1999/xlink" width="1920" zoomAndPan="magnify" viewBox="0 0 1440 809.999993" height="1080" preserveAspectRatio="xMidYMid meet" version="1.0"><defs><clipPath id="id1"><path d="M 258.585938 145.015625 L 1186.050781 145.015625 L 1186.050781 664.765625 L 258.585938 664.765625 Z M 258.585938 145.015625 " clip-rule="nonzero"/></clipPath><clipPath id="id2"><path d="M 255.375 145.015625 L 721.363281 145.015625 L 721.363281 664.765625 L 255.375 664.765625 Z M 255.375 145.015625 " clip-rule="nonzero"/></clipPath></defs><g clip-path="url(#id1)"><path fill="#ff8400" d="M 315.179688 540.949219 C 308.195312 540.949219 302.511719 546.632812 302.511719 553.617188 C 302.511719 560.601562 308.195312 566.28125 315.179688 566.28125 C 322.164062 566.28125 327.847656 560.601562 327.847656 553.617188 C 327.847656 546.632812 322.164062 540.949219 315.179688 540.949219 Z M 482.355469 542.605469 C 475.371094 542.605469 469.6875 548.289062 469.6875 555.332031 C 469.6875 562.316406 475.371094 568 482.355469 568 C 489.34375 568 495.023438 562.316406 495.023438 555.332031 C 495.023438 548.289062 489.34375 542.605469 482.355469 542.605469 Z M 280.785156 619.082031 C 273.800781 619.082031 268.117188 624.765625 268.117188 631.75 C 268.117188 638.792969 273.800781 644.476562 280.785156 644.476562 C 287.769531 644.476562 293.511719 638.792969 293.511719 631.75 C 293.511719 624.765625 287.769531 619.082031 280.785156 619.082031 Z M 640.773438 372.195312 L 803.210938 372.195312 L 803.210938 279.027344 C 803.210938 234.277344 766.746094 197.816406 721.992188 197.816406 C 677.179688 197.816406 640.773438 234.277344 640.773438 279.027344 Z M 687.714844 615.828125 L 756.917969 615.828125 L 739.398438 496.023438 C 750.882812 489.867188 758.636719 477.851562 758.636719 463.941406 C 758.636719 443.875 742.355469 427.65625 722.289062 427.65625 C 702.21875 427.65625 686 443.875 686 463.941406 C 686 477.851562 693.753906 489.867188 705.179688 496.023438 Z M 1163.792969 644.476562 C 1170.835938 644.476562 1176.519531 638.792969 1176.519531 631.75 C 1176.519531 624.765625 1170.835938 619.082031 1163.792969 619.082031 C 1156.804688 619.082031 1151.121094 624.765625 1151.121094 631.75 C 1151.121094 638.792969 1156.804688 644.476562 1163.792969 644.476562 Z M 962.28125 568 C 969.265625 568 974.949219 562.316406 974.949219 555.332031 C 974.949219 548.289062 969.265625 542.605469 962.28125 542.605469 C 955.292969 542.605469 949.609375 548.289062 949.609375 555.332031 C 949.609375 562.316406 955.292969 568 962.28125 568 Z M 1129.457031 566.28125 C 1136.441406 566.28125 1142.125 560.601562 1142.125 553.617188 C 1142.125 546.632812 1136.441406 540.949219 1129.457031 540.949219 C 1122.410156 540.949219 1116.726562 546.632812 1116.726562 553.617188 C 1116.726562 560.601562 1122.410156 566.28125 1129.457031 566.28125 Z M 1163.792969 490.519531 C 1170.835938 490.519531 1176.519531 484.835938 1176.519531 477.851562 C 1176.519531 470.867188 1170.835938 465.183594 1163.792969 465.183594 C 1156.804688 465.183594 1151.121094 470.867188 1151.121094 477.851562 C 1151.121094 484.835938 1156.804688 490.519531 1163.792969 490.519531 Z M 962.28125 451.984375 C 969.265625 451.984375 974.949219 446.300781 974.949219 439.316406 C 974.949219 432.332031 969.265625 426.648438 962.28125 426.648438 C 955.292969 426.648438 949.609375 432.332031 949.609375 439.316406 C 949.609375 446.300781 955.292969 451.984375 962.28125 451.984375 Z M 1085.472656 451.984375 C 1092.457031 451.984375 1098.199219 446.300781 1098.199219 439.316406 C 1098.199219 432.332031 1092.457031 426.648438 1085.472656 426.648438 C 1078.484375 426.648438 1072.804688 432.332031 1072.804688 439.316406 C 1072.804688 446.300781 1078.484375 451.984375 1085.472656 451.984375 Z M 1163.792969 414.21875 C 1170.835938 414.21875 1176.519531 408.539062 1176.519531 401.550781 C 1176.519531 394.566406 1170.835938 388.886719 1163.792969 388.886719 C 1156.804688 388.886719 1151.121094 394.566406 1151.121094 401.550781 C 1151.121094 408.539062 1156.804688 414.21875 1163.792969 414.21875 Z M 1116.078125 335.613281 C 1123.0625 335.613281 1128.746094 329.929688 1128.746094 322.886719 C 1128.746094 315.902344 1123.0625 310.21875 1116.078125 310.21875 C 1109.09375 310.21875 1103.351562 315.902344 1103.351562 322.886719 C 1103.351562 329.929688 1109.09375 335.613281 1116.078125 335.613281 Z M 989.984375 296.84375 C 996.96875 296.84375 1002.652344 291.160156 1002.652344 284.175781 C 1002.652344 277.191406 996.96875 271.507812 989.984375 271.507812 C 983 271.507812 977.316406 277.191406 977.316406 284.175781 C 977.316406 291.160156 983 296.84375 989.984375 296.84375 Z M 1122.765625 191.304688 C 1129.753906 191.304688 1135.433594 185.5625 1135.433594 178.578125 C 1135.433594 171.59375 1129.753906 165.910156 1122.765625 165.910156 C 1115.722656 165.910156 1110.039062 171.59375 1110.039062 178.578125 C 1110.039062 185.5625 1115.722656 191.304688 1122.765625 191.304688 Z M 321.867188 165.910156 C 314.882812 165.910156 309.199219 171.59375 309.199219 178.578125 C 309.199219 185.5625 314.882812 191.304688 321.867188 191.304688 C 328.855469 191.304688 334.539062 185.5625 334.539062 178.578125 C 334.539062 171.59375 328.855469 165.910156 321.867188 165.910156 Z M 454.652344 271.507812 C 447.667969 271.507812 441.984375 277.191406 441.984375 284.175781 C 441.984375 291.160156 447.667969 296.84375 454.652344 296.84375 C 461.636719 296.84375 467.320312 291.160156 467.320312 284.175781 C 467.320312 277.191406 461.636719 271.507812 454.652344 271.507812 Z M 328.558594 310.21875 C 321.574219 310.21875 315.890625 315.902344 315.890625 322.886719 C 315.890625 329.929688 321.574219 335.613281 328.558594 335.613281 C 335.542969 335.613281 341.226562 329.929688 341.226562 322.886719 C 341.226562 315.902344 335.542969 310.21875 328.558594 310.21875 Z M 280.785156 388.886719 C 273.800781 388.886719 268.117188 394.566406 268.117188 401.550781 C 268.117188 408.539062 273.800781 414.21875 280.785156 414.21875 C 287.769531 414.21875 293.511719 408.539062 293.511719 401.550781 C 293.511719 394.566406 287.769531 388.886719 280.785156 388.886719 Z M 359.105469 426.648438 C 352.121094 426.648438 346.4375 432.332031 346.4375 439.316406 C 346.4375 446.300781 352.121094 451.984375 359.105469 451.984375 C 366.148438 451.984375 371.832031 446.300781 371.832031 439.316406 C 371.832031 432.332031 366.148438 426.648438 359.105469 426.648438 Z M 482.355469 426.648438 C 475.371094 426.648438 469.6875 432.332031 469.6875 439.316406 C 469.6875 446.300781 475.371094 451.984375 482.355469 451.984375 C 489.34375 451.984375 495.023438 446.300781 495.023438 439.316406 C 495.023438 432.332031 489.34375 426.648438 482.355469 426.648438 Z M 280.785156 465.183594 C 273.800781 465.183594 268.117188 470.867188 268.117188 477.851562 C 268.117188 484.835938 273.800781 490.519531 280.785156 490.519531 C 287.769531 490.519531 293.511719 484.835938 293.511719 477.851562 C 293.511719 470.867188 287.769531 465.183594 280.785156 465.183594 Z M 302.511719 482.644531 C 300.320312 492.589844 291.441406 500.046875 280.785156 500.046875 C 268.53125 500.046875 258.585938 490.101562 258.585938 477.851562 C 258.585938 465.597656 268.53125 455.59375 280.785156 455.59375 C 291.441406 455.59375 300.320312 463.113281 302.511719 473.054688 L 538.714844 473.054688 L 538.714844 443.875 L 504.082031 443.875 C 502.011719 453.9375 493.011719 461.574219 482.355469 461.574219 C 470.101562 461.574219 460.097656 451.570312 460.097656 439.316406 C 460.097656 427.0625 470.101562 417.0625 482.355469 417.0625 C 492.894531 417.0625 501.714844 424.460938 504.023438 434.34375 L 538.714844 434.34375 L 538.714844 405.164062 L 442.277344 405.164062 L 403.328125 444.113281 L 380.832031 444.113281 C 378.640625 454.054688 369.761719 461.574219 359.105469 461.574219 C 346.851562 461.574219 336.90625 451.570312 336.90625 439.316406 C 336.90625 427.0625 346.851562 417.0625 359.105469 417.0625 C 369.761719 417.0625 378.640625 424.578125 380.832031 434.523438 L 399.417969 434.523438 L 438.3125 395.574219 L 539.957031 395.574219 C 543.863281 382.078125 556.355469 372.195312 571.09375 372.195312 L 587.90625 372.195312 L 587.90625 366.394531 L 396.460938 366.394531 L 356.558594 406.347656 L 302.511719 406.347656 C 300.320312 416.292969 291.441406 423.75 280.785156 423.75 C 268.53125 423.75 258.585938 413.804688 258.585938 401.550781 C 258.585938 389.300781 268.53125 379.296875 280.785156 379.296875 C 291.441406 379.296875 300.320312 386.8125 302.511719 396.757812 L 352.59375 396.757812 L 392.492188 356.863281 L 587.90625 356.863281 L 587.90625 327.679688 L 350.285156 327.679688 C 348.09375 337.683594 339.214844 345.144531 328.558594 345.144531 C 316.304688 345.144531 306.359375 335.199219 306.359375 322.886719 C 306.359375 310.632812 316.304688 300.691406 328.558594 300.691406 C 339.214844 300.691406 348.09375 308.148438 350.285156 318.152344 L 587.90625 318.152344 L 587.90625 288.96875 L 476.378906 288.96875 C 474.1875 298.914062 465.246094 306.433594 454.652344 306.433594 C 442.398438 306.433594 432.394531 296.429688 432.394531 284.175781 C 432.394531 271.921875 442.398438 261.917969 454.652344 261.917969 C 465.246094 261.917969 474.1875 269.4375 476.378906 279.382812 L 587.90625 279.382812 L 587.90625 279.027344 C 587.90625 269.140625 588.972656 259.492188 591.046875 250.199219 L 452.640625 250.199219 L 385.804688 183.371094 L 343.59375 183.371094 C 341.40625 193.316406 332.523438 200.832031 321.867188 200.832031 C 309.613281 200.832031 299.667969 190.832031 299.667969 178.578125 C 299.667969 166.324219 309.613281 156.382812 321.867188 156.382812 C 332.523438 156.382812 341.40625 163.839844 343.59375 173.84375 L 389.769531 173.84375 L 456.605469 240.667969 L 593.53125 240.667969 C 610.046875 185.386719 661.371094 145.015625 721.992188 145.015625 C 782.550781 145.015625 833.878906 185.386719 850.453125 240.667969 L 987.972656 240.667969 L 1054.867188 173.84375 L 1101.039062 173.84375 C 1103.230469 163.839844 1112.109375 156.382812 1122.765625 156.382812 C 1135.019531 156.382812 1144.964844 166.324219 1144.964844 178.578125 C 1144.964844 190.832031 1135.019531 200.832031 1122.765625 200.832031 C 1112.109375 200.832031 1103.230469 193.316406 1101.039062 183.371094 L 1058.832031 183.371094 L 991.9375 250.199219 L 852.941406 250.199219 C 854.953125 259.492188 856.078125 269.140625 856.078125 279.027344 L 856.078125 279.382812 L 968.257812 279.382812 C 970.449219 269.4375 979.328125 261.917969 989.984375 261.917969 C 1002.238281 261.917969 1012.183594 271.921875 1012.183594 284.175781 C 1012.183594 296.429688 1002.238281 306.433594 989.984375 306.433594 C 979.328125 306.433594 970.449219 298.914062 968.257812 288.96875 L 856.078125 288.96875 L 856.078125 318.152344 L 1094.351562 318.152344 C 1096.542969 308.148438 1105.421875 300.691406 1116.078125 300.691406 C 1128.332031 300.691406 1138.277344 310.632812 1138.277344 322.886719 C 1138.277344 335.199219 1128.332031 345.144531 1116.078125 345.144531 C 1105.421875 345.144531 1096.542969 337.683594 1094.351562 327.679688 L 856.078125 327.679688 L 856.078125 356.863281 L 1052.144531 356.863281 L 1092.042969 396.757812 L 1142.125 396.757812 C 1144.316406 386.8125 1153.195312 379.296875 1163.792969 379.296875 C 1176.046875 379.296875 1186.050781 389.300781 1186.050781 401.550781 C 1186.050781 413.804688 1176.046875 423.75 1163.792969 423.75 C 1153.195312 423.75 1144.316406 416.292969 1142.125 406.347656 L 1088.078125 406.347656 L 1048.175781 366.394531 L 856.078125 366.394531 L 856.078125 372.195312 L 872.832031 372.195312 C 887.628906 372.195312 900.0625 382.078125 903.96875 395.574219 L 1006.265625 395.574219 L 1045.214844 434.523438 L 1063.804688 434.523438 C 1065.996094 424.578125 1074.875 417.0625 1085.472656 417.0625 C 1097.726562 417.0625 1107.730469 427.0625 1107.730469 439.316406 C 1107.730469 451.570312 1097.726562 461.574219 1085.472656 461.574219 C 1074.875 461.574219 1065.996094 454.054688 1063.804688 444.113281 L 1041.25 444.113281 L 1002.296875 405.164062 L 905.269531 405.164062 L 905.269531 434.34375 L 940.613281 434.34375 C 942.863281 424.460938 951.742188 417.0625 962.28125 417.0625 C 974.535156 417.0625 984.539062 427.0625 984.539062 439.316406 C 984.539062 451.570312 974.535156 461.574219 962.28125 461.574219 C 951.5625 461.574219 942.625 453.9375 940.496094 443.875 L 905.269531 443.875 L 905.269531 473.054688 L 1142.125 473.054688 C 1144.316406 463.113281 1153.195312 455.59375 1163.792969 455.59375 C 1176.046875 455.59375 1186.050781 465.597656 1186.050781 477.851562 C 1186.050781 490.101562 1176.046875 500.046875 1163.792969 500.046875 C 1153.195312 500.046875 1144.316406 492.589844 1142.125 482.644531 L 905.269531 482.644531 L 905.269531 511.828125 L 991.9375 511.828125 L 1028.996094 548.820312 L 1107.730469 548.820312 C 1109.921875 538.878906 1118.800781 531.359375 1129.457031 531.359375 C 1141.710938 531.359375 1151.65625 541.363281 1151.65625 553.617188 C 1151.65625 565.867188 1141.710938 575.8125 1129.457031 575.8125 C 1118.800781 575.8125 1109.921875 568.355469 1107.730469 558.410156 L 1025.03125 558.410156 L 987.972656 521.355469 L 905.269531 521.355469 L 905.269531 550.539062 L 940.554688 550.539062 C 942.742188 540.535156 951.683594 533.078125 962.28125 533.078125 C 974.535156 533.078125 984.539062 543.019531 984.539062 555.332031 C 984.539062 567.585938 974.535156 577.53125 962.28125 577.53125 C 951.683594 577.53125 942.742188 570.070312 940.554688 560.066406 L 905.269531 560.066406 L 905.269531 589.25 L 1080.796875 589.25 L 1118.503906 627.011719 L 1142.125 627.011719 C 1144.316406 617.011719 1153.195312 609.550781 1163.792969 609.550781 C 1176.046875 609.550781 1186.050781 619.496094 1186.050781 631.75 C 1186.050781 644.0625 1176.046875 654.003906 1163.792969 654.003906 C 1153.195312 654.003906 1144.316406 646.546875 1142.125 636.542969 L 1114.597656 636.542969 L 1076.828125 598.839844 L 905.269531 598.839844 L 905.269531 632.933594 C 905.269531 650.867188 890.765625 665.371094 872.832031 665.371094 L 571.09375 665.371094 C 553.21875 665.371094 538.714844 650.867188 538.714844 632.933594 L 538.714844 598.839844 L 367.808594 598.839844 L 330.039062 636.542969 L 302.511719 636.542969 C 300.320312 646.546875 291.441406 654.003906 280.785156 654.003906 C 268.53125 654.003906 258.585938 644.0625 258.585938 631.75 C 258.585938 619.496094 268.53125 609.550781 280.785156 609.550781 C 291.441406 609.550781 300.320312 617.011719 302.511719 627.011719 L 326.070312 627.011719 L 363.839844 589.25 L 538.714844 589.25 L 538.714844 560.066406 L 504.082031 560.066406 C 501.890625 570.070312 492.953125 577.53125 482.355469 577.53125 C 470.101562 577.53125 460.097656 567.585938 460.097656 555.332031 C 460.097656 543.019531 470.101562 533.078125 482.355469 533.078125 C 492.953125 533.078125 501.890625 540.535156 504.082031 550.539062 L 538.714844 550.539062 L 538.714844 521.355469 L 456.605469 521.355469 L 419.605469 558.410156 L 336.90625 558.410156 C 334.714844 568.355469 325.835938 575.8125 315.179688 575.8125 C 302.925781 575.8125 292.980469 565.867188 292.980469 553.617188 C 292.980469 541.363281 302.925781 531.359375 315.179688 531.359375 C 325.835938 531.359375 334.714844 538.878906 336.90625 548.820312 L 415.640625 548.820312 L 452.640625 511.828125 L 538.714844 511.828125 L 538.714844 482.644531 L 302.511719 482.644531 " fill-opacity="1" fill-rule="nonzero"/></g><g clip-path="url(#id2)"><path fill="#ffffff" d="M 1126.246094 540.949219 C 1133.230469 540.949219 1138.914062 546.632812 1138.914062 553.617188 C 1138.914062 560.601562 1133.230469 566.28125 1126.246094 566.28125 C 1119.261719 566.28125 1113.578125 560.601562 1113.578125 553.617188 C 1113.578125 546.632812 1119.261719 540.949219 1126.246094 540.949219 Z M 959.070312 542.605469 C 966.054688 542.605469 971.738281 548.289062 971.738281 555.332031 C 971.738281 562.316406 966.054688 568 959.070312 568 C 952.082031 568 946.398438 562.316406 946.398438 555.332031 C 946.398438 548.289062 952.082031 542.605469 959.070312 542.605469 Z M 1160.640625 619.082031 C 1167.625 619.082031 1173.308594 624.765625 1173.308594 631.75 C 1173.308594 638.792969 1167.625 644.476562 1160.640625 644.476562 C 1153.65625 644.476562 1147.914062 638.792969 1147.914062 631.75 C 1147.914062 624.765625 1153.65625 619.082031 1160.640625 619.082031 Z M 800.652344 372.195312 L 638.210938 372.195312 L 638.210938 279.027344 C 638.210938 234.277344 674.679688 197.816406 719.433594 197.816406 C 764.246094 197.816406 800.652344 234.277344 800.652344 279.027344 Z M 753.707031 615.828125 L 684.503906 615.828125 L 702.027344 496.023438 C 690.542969 489.867188 682.789062 477.851562 682.789062 463.941406 C 682.789062 443.875 699.070312 427.65625 719.136719 427.65625 C 739.207031 427.65625 755.425781 443.875 755.425781 463.941406 C 755.425781 477.851562 747.671875 489.867188 736.246094 496.023438 Z M 277.632812 644.476562 C 270.589844 644.476562 264.90625 638.792969 264.90625 631.75 C 264.90625 624.765625 270.589844 619.082031 277.632812 619.082031 C 284.621094 619.082031 290.300781 624.765625 290.300781 631.75 C 290.300781 638.792969 284.621094 644.476562 277.632812 644.476562 Z M 479.144531 568 C 472.160156 568 466.476562 562.316406 466.476562 555.332031 C 466.476562 548.289062 472.160156 542.605469 479.144531 542.605469 C 486.132812 542.605469 491.8125 548.289062 491.8125 555.332031 C 491.8125 562.316406 486.132812 568 479.144531 568 Z M 311.96875 566.28125 C 304.984375 566.28125 299.300781 560.601562 299.300781 553.617188 C 299.300781 546.632812 304.984375 540.949219 311.96875 540.949219 C 319.011719 540.949219 324.695312 546.632812 324.695312 553.617188 C 324.695312 560.601562 319.011719 566.28125 311.96875 566.28125 Z M 277.632812 490.519531 C 270.589844 490.519531 264.90625 484.835938 264.90625 477.851562 C 264.90625 470.867188 270.589844 465.183594 277.632812 465.183594 C 284.621094 465.183594 290.300781 470.867188 290.300781 477.851562 C 290.300781 484.835938 284.621094 490.519531 277.632812 490.519531 Z M 479.144531 451.984375 C 472.160156 451.984375 466.476562 446.300781 466.476562 439.316406 C 466.476562 432.332031 472.160156 426.648438 479.144531 426.648438 C 486.132812 426.648438 491.8125 432.332031 491.8125 439.316406 C 491.8125 446.300781 486.132812 451.984375 479.144531 451.984375 Z M 355.953125 451.984375 C 348.96875 451.984375 343.226562 446.300781 343.226562 439.316406 C 343.226562 432.332031 348.96875 426.648438 355.953125 426.648438 C 362.9375 426.648438 368.621094 432.332031 368.621094 439.316406 C 368.621094 446.300781 362.9375 451.984375 355.953125 451.984375 Z M 277.632812 414.21875 C 270.589844 414.21875 264.90625 408.539062 264.90625 401.550781 C 264.90625 394.566406 270.589844 388.886719 277.632812 388.886719 C 284.621094 388.886719 290.300781 394.566406 290.300781 401.550781 C 290.300781 408.539062 284.621094 414.21875 277.632812 414.21875 Z M 325.347656 335.613281 C 318.363281 335.613281 312.679688 329.929688 312.679688 322.886719 C 312.679688 315.902344 318.363281 310.21875 325.347656 310.21875 C 332.332031 310.21875 338.074219 315.902344 338.074219 322.886719 C 338.074219 329.929688 332.332031 335.613281 325.347656 335.613281 Z M 451.441406 296.84375 C 444.457031 296.84375 438.773438 291.160156 438.773438 284.175781 C 438.773438 277.191406 444.457031 271.507812 451.441406 271.507812 C 458.425781 271.507812 464.109375 277.191406 464.109375 284.175781 C 464.109375 291.160156 458.425781 296.84375 451.441406 296.84375 Z M 318.660156 191.304688 C 311.671875 191.304688 305.988281 185.5625 305.988281 178.578125 C 305.988281 171.59375 311.671875 165.910156 318.660156 165.910156 C 325.703125 165.910156 331.386719 171.59375 331.386719 178.578125 C 331.386719 185.5625 325.703125 191.304688 318.660156 191.304688 Z M 1119.554688 165.910156 C 1126.542969 165.910156 1132.226562 171.59375 1132.226562 178.578125 C 1132.226562 185.5625 1126.542969 191.304688 1119.554688 191.304688 C 1112.570312 191.304688 1106.886719 185.5625 1106.886719 178.578125 C 1106.886719 171.59375 1112.570312 165.910156 1119.554688 165.910156 Z M 986.773438 271.507812 C 993.757812 271.507812 999.441406 277.191406 999.441406 284.175781 C 999.441406 291.160156 993.757812 296.84375 986.773438 296.84375 C 979.789062 296.84375 974.105469 291.160156 974.105469 284.175781 C 974.105469 277.191406 979.789062 271.507812 986.773438 271.507812 Z M 1112.867188 310.21875 C 1119.851562 310.21875 1125.535156 315.902344 1125.535156 322.886719 C 1125.535156 329.929688 1119.851562 335.613281 1112.867188 335.613281 C 1105.882812 335.613281 1100.199219 329.929688 1100.199219 322.886719 C 1100.199219 315.902344 1105.882812 310.21875 1112.867188 310.21875 Z M 1160.640625 388.886719 C 1167.625 388.886719 1173.308594 394.566406 1173.308594 401.550781 C 1173.308594 408.539062 1167.625 414.21875 1160.640625 414.21875 C 1153.65625 414.21875 1147.914062 408.539062 1147.914062 401.550781 C 1147.914062 394.566406 1153.65625 388.886719 1160.640625 388.886719 Z M 1082.320312 426.648438 C 1089.304688 426.648438 1094.988281 432.332031 1094.988281 439.316406 C 1094.988281 446.300781 1089.304688 451.984375 1082.320312 451.984375 C 1075.277344 451.984375 1069.59375 446.300781 1069.59375 439.316406 C 1069.59375 432.332031 1075.277344 426.648438 1082.320312 426.648438 Z M 959.070312 426.648438 C 966.054688 426.648438 971.738281 432.332031 971.738281 439.316406 C 971.738281 446.300781 966.054688 451.984375 959.070312 451.984375 C 952.082031 451.984375 946.398438 446.300781 946.398438 439.316406 C 946.398438 432.332031 952.082031 426.648438 959.070312 426.648438 Z M 1160.640625 465.183594 C 1167.625 465.183594 1173.308594 470.867188 1173.308594 477.851562 C 1173.308594 484.835938 1167.625 490.519531 1160.640625 490.519531 C 1153.65625 490.519531 1147.914062 484.835938 1147.914062 477.851562 C 1147.914062 470.867188 1153.65625 465.183594 1160.640625 465.183594 Z M 1138.914062 482.644531 C 1141.105469 492.589844 1149.984375 500.046875 1160.640625 500.046875 C 1172.894531 500.046875 1182.839844 490.101562 1182.839844 477.851562 C 1182.839844 465.597656 1172.894531 455.59375 1160.640625 455.59375 C 1149.984375 455.59375 1141.105469 463.113281 1138.914062 473.054688 L 902.710938 473.054688 L 902.710938 443.875 L 937.34375 443.875 C 939.414062 453.9375 948.414062 461.574219 959.070312 461.574219 C 971.324219 461.574219 981.328125 451.570312 981.328125 439.316406 C 981.328125 427.0625 971.324219 417.0625 959.070312 417.0625 C 948.53125 417.0625 939.710938 424.460938 937.402344 434.34375 L 902.710938 434.34375 L 902.710938 405.164062 L 999.144531 405.164062 L 1038.097656 444.113281 L 1060.59375 444.113281 C 1062.785156 454.054688 1071.664062 461.574219 1082.320312 461.574219 C 1094.574219 461.574219 1104.519531 451.570312 1104.519531 439.316406 C 1104.519531 427.0625 1094.574219 417.0625 1082.320312 417.0625 C 1071.664062 417.0625 1062.785156 424.578125 1060.59375 434.523438 L 1042.007812 434.523438 L 1003.113281 395.574219 L 901.46875 395.574219 C 897.5625 382.078125 885.070312 372.195312 870.328125 372.195312 L 853.519531 372.195312 L 853.519531 366.394531 L 1044.964844 366.394531 L 1084.867188 406.347656 L 1138.914062 406.347656 C 1141.105469 416.292969 1149.984375 423.75 1160.640625 423.75 C 1172.894531 423.75 1182.839844 413.804688 1182.839844 401.550781 C 1182.839844 389.300781 1172.894531 379.296875 1160.640625 379.296875 C 1149.984375 379.296875 1141.105469 386.8125 1138.914062 396.757812 L 1088.832031 396.757812 L 1048.933594 356.863281 L 853.519531 356.863281 L 853.519531 327.679688 L 1091.140625 327.679688 C 1093.332031 337.683594 1102.210938 345.144531 1112.867188 345.144531 C 1125.121094 345.144531 1135.066406 335.199219 1135.066406 322.886719 C 1135.066406 310.632812 1125.121094 300.691406 1112.867188 300.691406 C 1102.210938 300.691406 1093.332031 308.148438 1091.140625 318.152344 L 853.519531 318.152344 L 853.519531 288.96875 L 965.046875 288.96875 C 967.238281 298.914062 976.175781 306.433594 986.773438 306.433594 C 999.027344 306.433594 1009.03125 296.429688 1009.03125 284.175781 C 1009.03125 271.921875 999.027344 261.917969 986.773438 261.917969 C 976.175781 261.917969 967.238281 269.4375 965.046875 279.382812 L 853.519531 279.382812 L 853.519531 279.027344 C 853.519531 269.140625 852.453125 259.492188 850.378906 250.199219 L 988.785156 250.199219 L 1055.621094 183.371094 L 1097.832031 183.371094 C 1100.019531 193.316406 1108.898438 200.832031 1119.554688 200.832031 C 1131.808594 200.832031 1141.753906 190.832031 1141.753906 178.578125 C 1141.753906 166.324219 1131.808594 156.382812 1119.554688 156.382812 C 1108.898438 156.382812 1100.019531 163.839844 1097.832031 173.84375 L 1051.65625 173.84375 L 984.820312 240.667969 L 847.894531 240.667969 C 831.378906 185.386719 780.050781 145.015625 719.433594 145.015625 C 658.871094 145.015625 607.546875 185.386719 590.972656 240.667969 L 453.453125 240.667969 L 386.558594 173.84375 L 340.382812 173.84375 C 338.195312 163.839844 329.3125 156.382812 318.660156 156.382812 C 306.402344 156.382812 296.457031 166.324219 296.457031 178.578125 C 296.457031 190.832031 306.402344 200.832031 318.660156 200.832031 C 329.3125 200.832031 338.195312 193.316406 340.382812 183.371094 L 382.59375 183.371094 L 449.488281 250.199219 L 588.484375 250.199219 C 586.472656 259.492188 585.347656 269.140625 585.347656 279.027344 L 585.347656 279.382812 L 473.167969 279.382812 C 470.976562 269.4375 462.097656 261.917969 451.441406 261.917969 C 439.1875 261.917969 429.242188 271.921875 429.242188 284.175781 C 429.242188 296.429688 439.1875 306.433594 451.441406 306.433594 C 462.097656 306.433594 470.976562 298.914062 473.167969 288.96875 L 585.347656 288.96875 L 585.347656 318.152344 L 347.074219 318.152344 C 344.882812 308.148438 336.003906 300.691406 325.347656 300.691406 C 313.09375 300.691406 303.148438 310.632812 303.148438 322.886719 C 303.148438 335.199219 313.09375 345.144531 325.347656 345.144531 C 336.003906 345.144531 344.882812 337.683594 347.074219 327.679688 L 585.347656 327.679688 L 585.347656 356.863281 L 389.28125 356.863281 L 349.382812 396.757812 L 299.300781 396.757812 C 297.109375 386.8125 288.230469 379.296875 277.632812 379.296875 C 265.378906 379.296875 255.375 389.300781 255.375 401.550781 C 255.375 413.804688 265.378906 423.75 277.632812 423.75 C 288.230469 423.75 297.109375 416.292969 299.300781 406.347656 L 353.347656 406.347656 L 393.25 366.394531 L 585.347656 366.394531 L 585.347656 372.195312 L 568.59375 372.195312 C 553.796875 372.195312 541.363281 382.078125 537.457031 395.574219 L 435.160156 395.574219 L 396.207031 434.523438 L 377.621094 434.523438 C 375.429688 424.578125 366.550781 417.0625 355.953125 417.0625 C 343.699219 417.0625 333.695312 427.0625 333.695312 439.316406 C 333.695312 451.570312 343.699219 461.574219 355.953125 461.574219 C 366.550781 461.574219 375.429688 454.054688 377.621094 444.113281 L 400.175781 444.113281 L 439.128906 405.164062 L 536.152344 405.164062 L 536.152344 434.34375 L 500.8125 434.34375 C 498.5625 424.460938 489.683594 417.0625 479.144531 417.0625 C 466.890625 417.0625 456.886719 427.0625 456.886719 439.316406 C 456.886719 451.570312 466.890625 461.574219 479.144531 461.574219 C 489.859375 461.574219 498.800781 453.9375 500.929688 443.875 L 536.152344 443.875 L 536.152344 473.054688 L 299.300781 473.054688 C 297.109375 463.113281 288.230469 455.59375 277.632812 455.59375 C 265.378906 455.59375 255.375 465.597656 255.375 477.851562 C 255.375 490.101562 265.378906 500.046875 277.632812 500.046875 C 288.230469 500.046875 297.109375 492.589844 299.300781 482.644531 L 536.152344 482.644531 L 536.152344 511.828125 L 449.488281 511.828125 L 412.429688 548.820312 L 333.695312 548.820312 C 331.503906 538.878906 322.625 531.359375 311.96875 531.359375 C 299.714844 531.359375 289.769531 541.363281 289.769531 553.617188 C 289.769531 565.867188 299.714844 575.8125 311.96875 575.8125 C 322.625 575.8125 331.503906 568.355469 333.695312 558.410156 L 416.394531 558.410156 L 453.453125 521.355469 L 536.152344 521.355469 L 536.152344 550.539062 L 500.871094 550.539062 C 498.679688 540.535156 489.742188 533.078125 479.144531 533.078125 C 466.890625 533.078125 456.886719 543.019531 456.886719 555.332031 C 456.886719 567.585938 466.890625 577.53125 479.144531 577.53125 C 489.742188 577.53125 498.679688 570.070312 500.871094 560.066406 L 536.152344 560.066406 L 536.152344 589.25 L 360.628906 589.25 L 322.921875 627.011719 L 299.300781 627.011719 C 297.109375 617.011719 288.230469 609.550781 277.632812 609.550781 C 265.378906 609.550781 255.375 619.496094 255.375 631.75 C 255.375 644.0625 265.378906 654.003906 277.632812 654.003906 C 288.230469 654.003906 297.109375 646.546875 299.300781 636.542969 L 326.828125 636.542969 L 364.597656 598.839844 L 536.152344 598.839844 L 536.152344 632.933594 C 536.152344 650.867188 550.65625 665.371094 568.59375 665.371094 L 870.328125 665.371094 C 888.207031 665.371094 902.710938 650.867188 902.710938 632.933594 L 902.710938 598.839844 L 1073.617188 598.839844 L 1111.386719 636.542969 L 1138.914062 636.542969 C 1141.105469 646.546875 1149.984375 654.003906 1160.640625 654.003906 C 1172.894531 654.003906 1182.839844 644.0625 1182.839844 631.75 C 1182.839844 619.496094 1172.894531 609.550781 1160.640625 609.550781 C 1149.984375 609.550781 1141.105469 617.011719 1138.914062 627.011719 L 1115.351562 627.011719 L 1077.585938 589.25 L 902.710938 589.25 L 902.710938 560.066406 L 937.34375 560.066406 C 939.535156 570.070312 948.472656 577.53125 959.070312 577.53125 C 971.324219 577.53125 981.328125 567.585938 981.328125 555.332031 C 981.328125 543.019531 971.324219 533.078125 959.070312 533.078125 C 948.472656 533.078125 939.535156 540.535156 937.34375 550.539062 L 902.710938 550.539062 L 902.710938 521.355469 L 984.820312 521.355469 L 1021.820312 558.410156 L 1104.519531 558.410156 C 1106.710938 568.355469 1115.589844 575.8125 1126.246094 575.8125 C 1138.5 575.8125 1148.445312 565.867188 1148.445312 553.617188 C 1148.445312 541.363281 1138.5 531.359375 1126.246094 531.359375 C 1115.589844 531.359375 1106.710938 538.878906 1104.519531 548.820312 L 1025.785156 548.820312 L 988.785156 511.828125 L 902.710938 511.828125 L 902.710938 482.644531 L 1138.914062 482.644531 " fill-opacity="1" fill-rule="nonzero"/></g></svg>