<svg xmlns="http://www.w3.org/2000/svg" xmlns:xlink="http://www.w3.org/1999/xlink" width="1920" zoomAndPan="magnify" viewBox="0 0 1440 809.999993" height="1080" preserveAspectRatio="xMidYMid meet" version="1.0"><defs><filter x="0%" y="0%" width="100%" height="100%" id="id1"><feColorMatrix values="0 0 0 0 1 0 0 0 0 1 0 0 0 0 1 0 0 0 1 0" color-interpolation-filters="sRGB"/></filter><mask id="id2"><g filter="url(#id1)"><rect x="-144" width="1728" fill="#000000" y="-80.999999" height="971.999992" fill-opacity="0.4471"/></g></mask><clipPath id="id3"><path d="M 126 106 L 531 106 L 531 640 L 126 640 Z M 126 106 " clip-rule="nonzero"/></clipPath><clipPath id="id4"><path d="M 374.152344 -18.554688 L 667.453125 186.28125 L 291.703125 724.3125 L -1.601562 519.472656 Z M 374.152344 -18.554688 " clip-rule="nonzero"/></clipPath><clipPath id="id5"><path d="M 248.90625 -106.023438 L 667.648438 186.417969 L 291.898438 724.445312 L -126.84375 432.003906 Z M 248.90625 -106.023438 " clip-rule="nonzero"/></clipPath><clipPath id="id6"><rect x="0" width="659" y="0" height="729"/></clipPath></defs><g mask="url(#id2)"><g transform="matrix(1, 0, 0, 1, 387, 52)"><g clip-path="url(#id6)"><g clip-path="url(#id3)"><g clip-path="url(#id4)"><g clip-path="url(#id5)"><path fill="#003e52" d="M 521.363281 356.324219 L 466.328125 317.886719 C 456.183594 310.804688 442.253906 313.277344 435.171875 323.417969 L 409.550781 360.105469 C 402.464844 370.25 404.941406 384.175781 415.085938 391.261719 L 433.429688 404.074219 L 394.320312 460.074219 L 308.703125 426.34375 L 424.101562 261.109375 L 470.679688 293.640625 C 474.644531 296.40625 481.386719 294.648438 485.804688 292.738281 C 490.234375 290.8125 494.195312 285.609375 494.917969 280.820312 L 519.347656 122.1875 C 520.933594 111.667969 508.285156 102.425781 498.96875 107.519531 L 358.945312 184.359375 C 354.699219 186.6875 350.425781 193.28125 350.152344 198.085938 C 349.882812 202.890625 350.589844 209.769531 354.550781 212.535156 L 405.71875 248.269531 L 258.292969 459.363281 L 197.144531 390.597656 L 232.273438 340.300781 C 262.117188 353.257812 298.03125 343.84375 317.363281 316.164062 C 339.449219 284.539062 331.695312 240.890625 300.066406 218.804688 C 268.4375 196.714844 227.066406 206.082031 204.996094 237.6875 C 185.664062 265.367188 180.964844 296.527344 213.925781 327.488281 L 172.5625 386.71875 C 168.910156 391.945312 166.972656 397.417969 171.160156 402.25 L 239.511719 480.90625 C 239.847656 481.359375 241.984375 482.796875 241.933594 482.871094 L 224.675781 507.578125 C 183.875 487.84375 157.992188 503.523438 139.03125 530.671875 C 116.933594 562.3125 123.5625 605.152344 155.191406 627.238281 C 186.839844 649.339844 229.886719 641.199219 251.988281 609.558594 C 271.652344 581.402344 266.972656 543.3125 243.445312 519.867188 L 292.316406 449.886719 C 292.808594 450.121094 293.277344 450.503906 293.839844 450.675781 L 390.027344 486.933594 C 395.976562 489.203125 402.773438 487.128906 406.425781 481.902344 L 451.800781 416.929688 L 470.144531 429.742188 C 480.292969 436.828125 494.21875 434.355469 501.300781 424.210938 L 526.921875 387.523438 C 533.984375 377.335938 531.492188 363.398438 521.363281 356.324219 Z M 521.363281 356.324219 " fill-opacity="1" fill-rule="nonzero"/></g></g></g></g></g></g></svg>